<svg width="52" height="52" viewBox="0 0 52 52" fill="none" xmlns="http://www.w3.org/2000/svg">
<path d="M17.6522 22H23.9131L27.0435 17.3043C27.5653 16.7826 28.087 16.2609 28.6087 16.2609L33.8261 13.6522C34.8696 13.1304 36.4348 13.6522 36.4348 14.6956C36.9566 15.7391 36.4348 16.7826 35.9131 17.3043C34.3479 18.3478 32.2609 18.8696 32.2609 18.8696V20.4348C32.2609 21.4782 33.3044 22 33.8261 22H45.8261C46.3479 22 47.3914 22.5217 47.3914 23.5652V25.1304C48.4348 25.1304 49.4783 26.1739 49.4783 26.6956V27.7391C49.4783 28.7826 48.4348 29.3043 47.3914 29.3043V30.8696C47.3914 31.913 46.8696 32.4348 46.3479 32.4348H45.8261V32.9565C45.8261 34 44.7827 35.0435 43.7392 35.0435H29.1305C28.087 35.0435 27.5653 34.5217 26.5218 34L23.3914 31.3913H18.174L17.6522 22Z" fill="#FCDC97"/>
<path d="M49.4783 26.6956C48.9566 25.6522 48.4348 25.1304 47.3914 25.1304V23.5652C47.3914 22.5217 46.3479 22 45.8261 22H33.8261C33.3044 22 32.2609 21.4782 32.2609 20.4348V18.8696C32.2609 18.8696 34.3479 18.3478 35.9131 17.3043C36.4348 16.7826 36.9566 15.7391 36.4348 14.6956C36.4348 13.6522 34.8696 13.1304 33.8261 13.6522L28.6087 16.2609C28.087 16.2609 27.5653 16.7826 27.0435 17.3043L23.9131 22H17.6522L18.174 26.6956H49.4783Z" fill="#FCE5AC"/>
<path d="M2 26.6957H16.087V20.4348H2V26.6957Z" fill="#004592"/>
<path d="M2 32.9565H16.087V26.6956H2V32.9565Z" fill="#37A4F6"/>
<path d="M11.9131 26.6957H19.7392V18.8696H11.9131V26.6957Z" fill="#FDC00E"/>
<path d="M50 18.3478C50 18.8696 50 18.8696 50 18.8696L40.6087 42.3478C40.6087 42.3478 40.0869 42.3478 40.0869 42.8696C40.0869 42.8696 40.0869 42.8696 39.5652 42.3478L33.3043 39.7391H32.7826L28.0869 37.6522H27.5652C27.5652 37.1304 27.5652 37.1304 27.5652 37.1304L35.3913 17.8261L35.913 17.3043L37.4782 13.6522C37.4782 13.6522 37.4782 13.1304 38 13.1304L50 18.3478Z" fill="#4FC2D9"/>
<path d="M44.7826 26.6956C43.7391 25.1304 42.1739 24.087 40.6087 23.5652C39.0434 23.0435 37.4782 22.5217 35.913 23.0435C34.3478 23.5652 32.7826 24.087 32.2608 25.6522C31.7391 26.6956 32.2608 28.2609 33.3043 29.3043C33.8261 30.8696 35.3913 31.913 36.9565 32.4348C38.5217 32.9565 40.6087 33.4783 42.1739 32.9565C43.7391 32.4348 44.7826 31.913 45.3043 30.8696C45.8261 29.3043 45.3043 27.7391 44.7826 26.6956Z" fill="#80C3CE"/>
<path d="M40.087 28.7826C40.087 29.3044 40.087 29.3044 39.5652 29.8261L39.0435 29.3044C39.0435 29.3044 39.0435 29.3044 39.5652 28.7826C39.5652 28.7826 39.5652 28.7826 39.5652 28.2609V27.7391C39.5652 28.2609 39.5652 28.2609 39.0435 28.2609C38.5218 28.7826 38.5218 28.7826 38.5218 28.7826C38.5218 28.7826 38 28.7826 38 29.3044L37.4783 28.7826C37.4783 28.7826 36.9565 28.7826 36.9565 28.2609V27.7391V27.2174V26.6957L37.4783 27.2174C37.4783 26.6957 37.4783 26.6957 38 26.1739L38.5218 26.6957C38 27.2174 38 27.2174 38 27.7391C38 27.7391 38 27.7391 38 28.2609C38 27.7391 38 27.7391 38.5218 27.7391C39.0435 27.2174 39.0435 27.2174 39.0435 27.2174C39.5652 26.6957 39.5652 26.6957 40.087 27.2174C40.087 27.2174 40.6087 27.2174 40.6087 27.7391V28.2609L41.1305 28.7826L40.6087 29.3044L40.087 28.7826Z" fill="#002541"/>
<path d="M29.6521 34C29.6521 33.4783 29.1304 33.4783 29.1304 34L27.5652 37.1304C27.5652 37.1304 27.5652 37.1304 27.5652 37.6522H28.0869L30.6956 39.2174C31.2174 39.2174 31.2174 39.2174 31.2174 39.2174L31.7391 38.6957C32.2608 36.6087 31.7391 34.5217 29.6521 34Z" fill="#80C3CE"/>
<path d="M41.1305 14.6956L38 13.1304H37.4783C37.4783 13.6522 37.4783 13.6522 37.4783 13.6522L35.9131 16.7826C35.9131 16.7826 35.9131 17.3043 36.4348 17.3043C36.9566 17.8261 38 17.8261 38.5218 17.8261L39.0435 17.3043C40.087 16.7826 41.1305 16.2609 41.1305 15.2174C41.1305 15.2174 41.1305 15.2174 41.1305 14.6956Z" fill="#80C3CE"/>
<path d="M41.6522 38.6957C40.6087 38.1739 39.5652 38.1739 38.5218 38.6957C37.4783 39.2174 36.9566 39.7391 36.4348 40.7826C36.4348 40.7826 36.4348 41.3044 36.9566 41.3044L39.5652 42.3478C40.087 42.8696 40.087 42.8696 40.087 42.8696V42.3478C40.6087 42.3478 40.6087 42.3478 40.6087 42.3478L41.6522 39.2174C41.6522 39.2174 41.6522 39.2174 41.6522 38.6957Z" fill="#80C3CE"/>
<path d="M49.9999 18.3478L46.8695 16.7826C46.3478 16.7826 46.3478 16.7826 45.826 17.3044C45.3043 19.3913 46.3478 21.4783 47.913 22C48.4347 22 48.4347 22 48.4347 22C48.9565 22 48.9565 22 48.9565 22L49.9999 18.8696C49.9999 18.8696 49.9999 18.8696 49.9999 18.3478Z" fill="#80C3CE"/>
<path d="M11.9131 34H19.7392V26.6956H11.9131V34Z" fill="#F99C1D"/>
<path d="M48.9566 15.2174C49.4783 15.2174 49.4783 15.7391 48.9566 15.7391L39.5653 39.2174C39.5653 39.2174 39.5653 39.2174 39.0435 39.2174L32.2609 36.6087H31.7392L27.0435 34.5217C27.0435 34.5217 27.0435 34.5217 27.0435 34C26.5218 34 26.5218 34 27.0435 34L34.8696 14.1739L36.4348 10.5217C36.4348 10 36.9566 10 36.9566 10L48.9566 14.6957C48.9566 15.2174 48.9566 15.2174 48.9566 15.2174Z" fill="#96E0F4"/>
<path d="M43.7391 23.5652C42.6956 22 41.6521 20.9565 39.5652 20.4348C37.9999 19.913 36.4347 19.3913 34.8695 19.913C33.3043 19.913 32.2608 20.9565 31.7391 22C31.2173 23.5652 31.2173 24.6087 32.2608 26.1739C33.3043 27.2174 34.3478 28.2609 35.913 29.3043C37.9999 29.8261 39.5652 29.8261 41.1304 29.8261C42.6956 29.3043 43.7391 28.7826 44.2608 27.2174C44.7825 26.1739 44.7825 24.6087 43.7391 23.5652Z" fill="#4FC2D9"/>
<path d="M39.5653 25.6522C39.0435 26.1739 39.0435 26.1739 39.0435 26.6957L38 26.1739L38.5218 25.6522C38.5218 25.6522 38.5218 25.1304 39.0435 25.1304C39.0435 25.1304 39.0435 25.1304 39.0435 24.6087C39.0435 24.6087 39.0435 24.6087 38.5218 24.6087C38.5218 24.6087 38.5218 24.6087 38.5218 25.1304H38C38 25.6522 37.4783 25.6522 37.4783 25.6522C37.4783 25.6522 37.4783 25.6522 36.9566 25.6522C36.9566 25.6522 36.9566 25.6522 36.4348 25.6522C36.4348 25.6522 36.4348 25.6522 35.9131 25.1304C35.9131 25.1304 35.9131 24.6087 36.4348 24.087H35.9131V23.5652H36.4348L36.9566 23.0435L37.4783 23.5652L36.9566 24.087C36.9566 24.6087 36.9566 24.6087 36.9566 24.6087C37.4783 24.6087 37.4783 24.6087 37.4783 24.6087C37.4783 24.6087 37.4783 24.6087 37.4783 24.087C38 24.087 38 23.5652 38.5218 23.5652H39.0435C39.5653 24.087 39.5653 24.087 39.5653 24.087C39.5653 24.6087 39.5653 24.6087 39.5653 25.1304H40.087V25.6522H39.5653Z" fill="#002541"/>
<path d="M28.6087 30.3478C28.6087 30.3478 28.6087 30.3478 28.087 30.3478V30.8696L27.0435 34C26.5218 34 26.5218 34 27.0435 34C27.0435 34.5218 27.0435 34.5218 27.0435 34.5218L30.174 35.5652C30.6957 35.5652 30.6957 35.5652 30.6957 35.5652C31.7392 33.4783 30.6957 31.3913 28.6087 30.3478Z" fill="#4FC2D9"/>
<path d="M40.087 11.5652L36.9565 10C36.9565 10 36.9565 10 36.4348 10V10.5217L35.3913 13.1304C34.8696 13.6522 35.3913 14.1739 35.3913 14.1739C36.4348 14.1739 36.9565 14.6957 37.4783 14.1739C38 14.1739 38 14.1739 38.5217 14.1739C39.0435 13.6522 40.087 13.1304 40.6087 12.087V11.5652C40.087 11.5652 40.087 11.5652 40.087 11.5652Z" fill="#4FC2D9"/>
<path d="M40.6087 35.5652C39.5652 35.0435 38.5217 35.0435 37.4783 35.5652C36.9565 35.5652 35.913 36.6087 35.913 37.1304C35.3913 37.6522 35.913 38.1739 35.913 38.1739L39.0435 39.2174H39.5652L40.6087 36.087C41.1304 36.087 41.1304 35.5652 40.6087 35.5652Z" fill="#4FC2D9"/>
<path d="M48.9564 15.2174C48.9564 15.2174 48.9564 15.2174 48.9564 14.6956L45.826 13.6522C45.826 13.6522 45.3043 13.6522 45.3043 14.1739C44.2608 15.7391 45.3043 18.3478 47.3912 18.8696C47.3912 18.8696 47.3912 18.8696 47.913 18.8696C47.913 18.8696 47.913 18.8696 47.913 18.3478L48.9564 15.7391C49.4782 15.7391 49.4782 15.2174 48.9564 15.2174Z" fill="#4FC2D9"/>
<path d="M32.2609 18.8696C32.2609 18.8696 34.3479 18.3478 35.9131 17.3043C36.4348 16.7826 36.9566 15.7391 36.4348 14.6956C36.4348 13.6522 34.8696 13.1304 33.8261 13.6522L28.6087 16.2609C28.087 16.2609 27.5653 16.7826 27.0435 17.3043L23.9131 22L32.2609 18.8696Z" fill="#FCE5AC"/>
</svg>
