<svg viewBox="0 0 508 355" fill="none" xmlns="http://www.w3.org/2000/svg">
<path d="M486.797 352.159H43.4653C42.1104 351.411 -36.1467 308.004 20.6656 267.914C59.4437 240.58 31.5515 220.722 27.3467 208.247C22.4877 193.856 12.4428 124.329 64.3494 116.199C165.266 100.406 81.4492 22.0023 173.255 6.02245C193.952 2.42465 216.472 0.555664 238.571 0.555664C306.923 0.555664 370.977 18.6849 363.502 60.0362C356.4 99.5186 409.241 83.4453 442.506 98.2103C493.385 120.778 440.918 190.398 473.949 210.536C504.645 229.226 523.567 321.508 486.797 352.159Z" fill="#F5F9FE"/>
<path d="M437.274 118.021C437.274 118.021 430.032 133.814 425.126 140.496C420.267 147.131 415.595 153.532 411.717 172.082C407.793 190.585 408.494 192.454 407.419 197.22C406.345 202.033 399.383 221.423 399.336 224.974C399.336 228.525 385.32 248.757 381.77 258.242C378.172 267.681 371.818 281.231 372.192 288.099L373.78 287.726C373.78 287.726 375.088 271.652 386.115 255.439C397.187 239.179 395.599 236.142 408.167 227.778C420.735 219.461 428.817 196.426 428.817 196.426C428.817 196.426 441.619 171.381 441.011 158.392C440.404 145.355 443.815 133.628 437.274 118.021Z" fill="#256653"/>
<path d="M420.267 93.6782C420.267 93.6782 419.847 104.098 416.53 110.265C413.166 116.386 410.269 120.171 409.662 126.806C409.054 133.488 406.952 150.682 397.608 159.093C388.264 167.503 387.096 192.641 379.994 200.257C372.893 207.873 371.958 213.34 373.266 226.376C374.575 239.459 379.013 257.542 368.734 281.138L366.398 275.297C366.398 275.297 373.78 255.86 372.005 244.459C370.183 233.105 363.969 215.91 366.258 207.687C368.548 199.416 360.091 197.828 365.184 185.352C370.276 172.877 368.174 168.578 375.088 157.785C375.088 157.785 375.836 157.271 377.658 148.159C379.48 139.048 394.15 122.32 400.925 116.62C407.699 110.92 417.464 101.762 420.267 93.6782Z" fill="#256653"/>
<path d="M392.702 145.075C392.702 145.075 384.573 158.952 384.479 167.924C384.386 176.848 385.32 184.09 381.209 196.332C377.144 208.574 385.274 216.33 382.938 223.059C380.555 229.834 380.415 237.824 380.461 243.898C380.555 249.972 371.164 270.017 369.762 280.203C368.314 290.342 370.136 290.389 370.136 290.389C370.136 290.389 371.725 276.979 373.874 272.54C376.023 268.101 382.564 252.776 384.106 246.888C385.601 240.954 389.759 237.17 393.356 227.124C396.907 217.125 402 208.668 401.626 194.463C401.205 180.212 406.952 165.214 392.702 145.075Z" fill="#3C8F7C"/>
<path d="M375.556 281.091C375.556 281.091 379.34 263.476 395.272 261.7C411.204 259.925 420.594 263.102 431.854 250.206C443.114 237.357 449.655 216.938 453.252 213.387C453.252 213.387 447.599 210.49 438.161 219.274C428.77 228.105 422.136 234.74 416.717 239.88C411.25 245.019 406.858 241.655 401.065 245.019C396.253 247.87 390.039 256.046 387.283 260.345C386.395 261.747 385.32 263.008 384.106 264.13C383.031 265.158 381.723 266.373 380.882 267.307C379.2 269.129 374.294 281.138 374.294 281.138L375.556 281.091Z" fill="#3C8F7C"/>
<path d="M369.902 277.96C369.902 277.96 375.556 256.42 371.771 245.861C368.034 235.347 356.213 227.544 356.681 220.91C357.194 214.275 364.763 196.379 358.596 183.062C358.596 183.062 356.213 194.931 353.924 197.594C351.588 200.257 335.75 210.91 338.553 224.975C341.356 239.085 356.774 242.356 360.605 246.515C364.389 250.673 369.529 250.626 369.529 253.383C369.575 256.14 370.603 266.186 368.875 276.091L369.902 277.96Z" fill="#3C8F7C"/>
<path d="M376.07 263.569L383.965 240.814C383.965 240.814 388.591 222.498 391.3 207.266C393.964 192.034 392.702 145.075 392.702 145.075C392.702 145.075 384.573 158.952 384.479 167.924C384.386 176.848 385.32 184.09 381.209 196.332C377.144 208.574 385.274 216.33 382.937 223.059C380.555 229.834 380.415 237.824 380.461 243.898C380.555 249.972 371.164 270.017 369.762 280.203C368.968 285.763 369.155 288.286 369.482 289.455C368.221 280.53 376.07 263.569 376.07 263.569Z" fill="#327F6B"/>
<path d="M414.941 250.019C407.886 251.421 401.626 250.907 393.263 257.168C384.9 263.382 379.994 270.017 379.994 270.017C379.994 270.017 376.21 276.745 374.668 280.297C374.434 280.81 374.294 281.138 374.294 281.138L375.556 281.091C375.556 281.091 379.34 263.476 395.272 261.7C411.204 259.925 420.594 263.102 431.854 250.206C443.114 237.356 449.655 216.938 453.252 213.387C453.252 213.387 441.245 222.732 433.863 230.955C426.434 239.225 421.996 248.617 414.941 250.019Z" fill="#327F6B"/>
<path d="M353.924 197.594C351.588 200.257 335.75 210.91 338.553 224.975C341.356 239.085 356.774 242.356 360.605 246.515C364.389 250.673 369.529 250.626 369.529 253.383C369.575 256.14 370.603 266.186 368.875 276.091L369.342 276.886C370.183 273.054 371.304 267.167 371.678 262.681C372.332 255.439 371.117 252.449 368.828 246.561C366.492 240.721 352.008 228.759 348.364 222.451C344.72 216.144 355.372 205.631 357.708 200.584C360.091 195.491 358.596 183.062 358.596 183.062C358.596 183.062 356.213 194.931 353.924 197.594Z" fill="#327F6B"/>
<path d="M391.534 267.541L394.01 261.56C395.973 257.168 400.878 255.065 405.036 256.888C415.455 261.42 420.034 274.129 415.175 285.249L411.624 293.333C410.082 296.884 410.596 300.809 412.699 303.566C414.614 306.089 414.941 309.546 413.586 312.583L411.717 316.882C409.708 321.508 405.784 324.919 401.112 326.32C398.402 327.162 395.973 329.217 394.711 332.114L392.048 338.189C389.151 344.87 381.629 348.094 375.322 345.337L371.725 343.749C365.464 341.039 362.707 333.376 365.604 326.648C370.37 318.658 369.996 312.677 368.314 308.612C365.838 302.631 365.884 295.809 368.548 289.688L368.921 288.847C371.725 282.399 377.144 277.587 383.592 275.531C386.488 274.596 389.432 272.4 391.534 267.541Z" fill="#50BFA5"/>
<path d="M346.916 352.159C352.008 345.571 379.807 310.34 397.935 304.453C417.978 298.005 399.103 323.75 399.103 323.75C399.103 323.75 434.61 284.922 447.646 288.426C459.559 291.604 447.646 315.667 447.646 315.667C447.646 315.667 461.101 302.35 477.407 302.35C493.292 302.35 466.287 349.636 464.839 352.159H346.916Z" fill="#96D9C9"/>
<path d="M453.953 275.951C439.423 298.613 428.864 323.75 422.79 350.524L421.809 350.243C427.836 324.078 438.348 298.94 452.832 276.325C456.196 271.045 459.84 264.784 466.147 262.728C466.24 262.728 466.287 262.915 466.194 262.962C460.4 265.111 457.083 271.045 453.953 275.951Z" fill="#3C8F7C"/>
<path d="M426.294 351.458C442.506 329.404 462.222 309.032 485.629 291.323C485.863 291.137 486.19 291.557 485.957 291.697C463.717 308.798 444.048 328.984 427.509 351.785L426.294 351.458Z" fill="#3C8F7C"/>
<path d="M455.261 261.887C455.635 262.448 457.083 263.85 457.504 265.765C458.064 267.541 457.597 269.784 457.55 269.69C457.457 269.737 459.232 268.242 459.746 265.859C460.494 263.616 459.98 260.439 459.092 259.411C457.55 257.028 454.887 256.794 454.373 257.962C453.813 259.084 454.514 260.626 455.261 261.887Z" fill="#3C8F7C"/>
<path d="M458.718 282.119C458.204 281.745 456.803 280.25 454.934 279.829C453.159 279.222 450.916 279.596 450.963 279.689C450.916 279.782 452.458 278.054 454.841 277.54C457.13 276.885 460.26 277.446 461.288 278.334C463.624 279.923 463.811 282.586 462.643 283.1C461.522 283.614 459.98 282.913 458.718 282.119Z" fill="#3C8F7C"/>
<path d="M453.486 290.997C452.972 290.576 451.57 289.128 449.701 288.66C447.926 288.1 445.683 288.473 445.73 288.52C445.683 288.66 447.225 286.885 449.608 286.418C451.897 285.717 455.027 286.277 456.055 287.212C458.391 288.801 458.578 291.464 457.41 291.978C456.242 292.492 454.747 291.744 453.486 290.997Z" fill="#3C8F7C"/>
<path d="M472.174 311.555C471.613 311.135 470.212 309.686 468.343 309.219C466.568 308.658 464.325 309.032 464.418 309.079C464.372 309.219 465.913 307.443 468.296 306.976C470.539 306.275 473.716 306.836 474.744 307.771C477.08 309.359 477.267 312.022 476.099 312.536C474.931 313.05 473.389 312.303 472.174 311.555Z" fill="#3C8F7C"/>
<path d="M481.705 303.145C481.191 302.725 479.789 301.276 477.921 300.809C476.145 300.248 473.903 300.622 473.949 300.669C473.903 300.809 475.444 299.08 477.827 298.566C480.116 297.865 483.247 298.426 484.275 299.36C486.611 300.949 486.797 303.612 485.629 304.126C484.508 304.64 482.966 303.893 481.705 303.145Z" fill="#3C8F7C"/>
<path d="M447.926 271.933C448.393 272.4 450.028 273.615 450.729 275.39C451.57 277.073 451.477 279.315 451.43 279.269C451.336 279.315 452.832 277.587 453.018 275.157C453.345 272.774 452.364 269.783 451.336 268.849C449.421 266.793 446.758 266.98 446.431 268.195C446.057 269.41 446.991 270.811 447.926 271.933Z" fill="#3C8F7C"/>
<path d="M440.217 281.979C440.871 282.306 443.16 282.96 444.282 284.642C445.59 286.137 445.73 288.707 445.637 288.66C445.543 288.801 447.272 286.184 447.178 283.381C447.365 280.624 445.683 277.68 444.235 277.119C441.572 275.578 438.115 276.933 437.834 278.428C437.507 279.97 438.862 281.138 440.217 281.979Z" fill="#3C8F7C"/>
<path d="M432.134 297.211C432.835 297.444 435.171 297.678 436.573 299.127C438.068 300.388 438.675 302.911 438.582 302.911C438.488 303.005 439.75 300.155 439.236 297.444C438.909 294.688 436.806 292.024 435.265 291.744C432.368 290.669 429.191 292.585 429.144 294.127C429.098 295.669 430.639 296.603 432.134 297.211Z" fill="#3C8F7C"/>
<path d="M456.102 307.817C456.616 308.144 458.438 308.752 459.279 310.2C460.213 311.508 460.213 313.611 460.12 313.564C460.027 313.658 461.615 311.649 461.709 309.359C461.989 307.116 460.821 304.593 459.653 304.079C457.55 302.677 454.654 303.612 454.373 304.78C454 305.995 455.074 307.023 456.102 307.817Z" fill="#3C8F7C"/>
<path d="M468.623 265.438C468.296 265.205 467.549 264.27 466.427 263.943C465.399 263.476 464.091 263.616 464.138 263.663C464.091 263.709 465.072 262.775 466.474 262.588C467.876 262.261 469.698 262.728 470.258 263.336C471.567 264.364 471.567 265.952 470.866 266.186C470.165 266.466 469.277 265.952 468.623 265.438Z" fill="#3C8F7C"/>
<path d="M465.68 258.99C465.726 259.364 465.96 260.532 465.586 261.607C465.306 262.681 464.372 263.662 464.372 263.616C464.325 263.616 465.68 263.429 466.708 262.401C467.782 261.513 468.53 259.738 468.39 258.943C468.39 257.261 467.128 256.327 466.474 256.747C465.867 257.121 465.726 258.102 465.68 258.99Z" fill="#3C8F7C"/>
<path d="M488.62 294.548C488.293 294.314 487.545 293.38 486.424 293.052C485.396 292.585 484.088 292.725 484.134 292.772C484.088 292.819 485.069 291.884 486.47 291.697C487.872 291.37 489.694 291.884 490.255 292.445C491.563 293.473 491.563 295.062 490.862 295.295C490.161 295.576 489.274 295.062 488.62 294.548Z" fill="#3C8F7C"/>
<path d="M485.069 288.053C485.116 288.426 485.489 289.595 485.209 290.669C485.022 291.791 484.134 292.819 484.134 292.772C484.088 292.772 485.396 292.445 486.377 291.37C487.358 290.389 487.966 288.567 487.779 287.772C487.638 286.137 486.284 285.249 485.676 285.716C485.116 286.184 485.022 287.165 485.069 288.053Z" fill="#3C8F7C"/>
<path d="M482.639 330.198C467.829 331.834 454.046 338.375 440.731 344.73C431.807 349.029 432.228 350.29 430.406 350.898C430.125 351.038 429.845 350.711 429.985 350.43C430.686 349.029 432.508 348.094 433.816 347.3C435.311 346.365 436.853 345.524 438.442 344.777C441.806 343.141 445.263 341.646 448.72 340.151C455.728 337.114 462.877 334.217 470.259 332.301C474.323 331.226 478.435 330.479 482.639 330.105C482.733 330.105 482.733 330.198 482.639 330.198Z" fill="#3C8F7C"/>
<path d="M469.277 325.62C469.371 326.227 470.025 328.003 469.651 329.731C469.417 331.46 468.156 333.142 468.156 333.049C468.016 333.049 470.072 332.488 471.473 330.759C472.968 329.124 473.809 326.274 473.482 325.059C473.108 322.489 470.959 321.228 470.072 321.975C469.184 322.723 469.137 324.265 469.277 325.62Z" fill="#3C8F7C"/>
<path d="M456.242 330.292C456.336 330.899 456.99 332.675 456.569 334.404C456.336 336.133 455.074 337.815 455.074 337.721C454.981 337.721 457.037 337.161 458.438 335.432C459.933 333.796 460.774 330.946 460.447 329.731C460.073 327.161 457.924 325.9 457.037 326.647C456.149 327.395 456.102 328.937 456.242 330.292Z" fill="#3C8F7C"/>
<path d="M442.974 336.179C443.067 336.787 443.721 338.562 443.301 340.338C443.114 342.02 441.852 343.749 441.806 343.655C441.712 343.655 443.768 343.094 445.169 341.319C446.665 339.684 447.506 336.88 447.178 335.618C446.805 333.049 444.656 331.787 443.768 332.535C442.88 333.282 442.833 334.871 442.974 336.179Z" fill="#3C8F7C"/>
<path d="M473.202 337.814C472.921 337.3 472.407 335.665 471.146 334.59C470.025 333.469 468.156 332.908 468.156 332.955C468.109 333.048 469.931 332.301 471.94 332.815C473.949 333.189 476.145 334.824 476.612 335.899C477.78 338.001 476.893 340.104 475.818 340.057C474.744 340.01 473.856 338.889 473.202 337.814Z" fill="#3C8F7C"/>
<path d="M459.606 342.627C459.326 342.113 458.812 340.478 457.55 339.403C456.429 338.235 454.56 337.721 454.607 337.768C454.514 337.815 456.382 337.114 458.391 337.628C460.4 338.002 462.596 339.59 463.017 340.712C464.185 342.814 463.297 344.917 462.223 344.87C461.148 344.823 460.26 343.702 459.606 342.627Z" fill="#3C8F7C"/>
<path d="M483.527 332.862C483.293 332.581 482.733 331.6 481.798 331.133C480.957 330.526 479.696 330.432 479.743 330.479C479.696 330.526 480.771 329.825 482.079 329.871C483.387 329.871 484.975 330.572 485.396 331.226C486.424 332.395 486.143 333.843 485.489 333.936C484.789 334.03 484.088 333.469 483.527 332.862Z" fill="#3C8F7C"/>
<path d="M481.985 326.46C481.892 326.834 481.939 327.956 481.425 328.89C481.004 329.825 479.976 330.525 479.976 330.479C479.93 330.479 481.191 330.525 482.312 329.778C483.434 329.124 484.415 327.675 484.415 326.928C484.695 325.386 483.714 324.311 483.06 324.545C482.406 324.825 482.125 325.713 481.985 326.46Z" fill="#3C8F7C"/>
<path d="M100.464 239.646C83.0377 224.133 74.0673 201.799 69.6288 185.866C64.8166 168.531 64.1158 154.7 64.1158 154.56L63.1814 154.467C63.1814 154.607 63.8822 168.578 68.7412 186.006C73.2263 202.126 82.2434 224.647 99.9038 240.394L100.464 239.646Z" fill="#3C8F7C"/>
<path d="M66.0781 150.542C66.9658 154.513 66.2183 158.298 64.3962 161.008C61.5462 158.905 59.3036 155.541 58.4159 151.523C57.575 147.551 58.2758 143.767 60.0979 141.057C62.9946 143.159 65.2372 146.523 66.0781 150.542Z" fill="#3C8F7C"/>
<path d="M60.7519 161.896C63.7421 164.699 65.5174 168.344 65.8445 171.895C62.574 172.035 58.9298 170.68 55.9397 167.923C52.9496 165.12 51.1742 161.475 50.8472 157.924C54.1176 157.784 57.7618 159.092 60.7519 161.896Z" fill="#3C8F7C"/>
<path d="M59.3504 173.858C63.088 175.026 66.1249 177.596 67.947 180.773C65.2372 182.502 61.593 183.016 57.902 181.848C54.1644 180.68 51.1275 178.063 49.3054 174.886C52.0152 173.157 55.6127 172.69 59.3504 173.858Z" fill="#3C8F7C"/>
<path d="M65.0969 188.202C68.0403 189.136 70.4231 191.519 71.7312 194.51C69.4887 196.425 66.592 197.126 63.6019 196.192C60.6585 195.257 58.3224 192.874 56.9675 189.884C59.2101 187.968 62.1535 187.267 65.0969 188.202Z" fill="#3C8F7C"/>
<path d="M70.1428 167.69C72.4321 165.354 75.5157 164.372 78.5058 164.699C78.6927 167.83 77.5714 171.054 75.2821 173.39C72.946 175.726 69.8625 176.708 66.8723 176.381C66.7322 173.25 67.8068 170.026 70.1428 167.69Z" fill="#3C8F7C"/>
<path d="M72.8058 178.016C75.1418 175.68 78.2254 174.652 81.2155 174.979C81.3557 178.157 80.2811 181.334 77.9451 183.67C75.6558 186.006 72.5722 186.987 69.5821 186.707C69.3952 183.53 70.5165 180.353 72.8058 178.016Z" fill="#3C8F7C"/>
<path d="M89.9523 260.672C73.8804 258.336 60.1445 248.804 51.4078 241.234C41.9702 233.011 36.2236 225.255 36.1769 225.161L35.6162 225.488C35.6629 225.582 41.4096 233.385 50.9406 241.702C59.7241 249.318 73.6468 258.943 89.9056 261.326L89.9523 260.672Z" fill="#50BFA5"/>
<path d="M35.8031 222.078C37.8121 224.04 38.84 226.516 38.84 228.806C36.3638 228.666 33.7474 227.591 31.7384 225.582C29.6827 223.619 28.6549 221.143 28.7016 218.854C31.1778 218.994 33.7941 220.068 35.8031 222.078Z" fill="#50BFA5"/>
<path d="M37.0645 230.721C39.8678 231.189 42.2973 232.637 43.839 234.599C42.0169 235.908 39.3539 236.562 36.5506 236.048C33.7474 235.581 31.3179 234.132 29.7761 232.217C31.6449 230.862 34.2613 230.254 37.0645 230.721Z" fill="#50BFA5"/>
<path d="M40.8022 238.197C43.4185 237.45 46.2218 237.777 48.4643 238.945C47.5767 241.001 45.6611 242.683 43.0448 243.43C40.4284 244.178 37.6719 243.804 35.3826 242.683C36.317 240.627 38.1858 238.945 40.8022 238.197Z" fill="#50BFA5"/>
<path d="M49.6792 244.365C51.7349 243.758 54.0242 244.225 55.9397 245.487C55.3791 247.449 53.9307 248.991 51.875 249.552C49.8193 250.159 47.53 249.692 45.5677 248.43C46.1751 246.468 47.5767 244.926 49.6792 244.365Z" fill="#50BFA5"/>
<path d="M44.7267 230.488C45.1939 228.245 46.5956 226.47 48.4644 225.535C49.7726 227.311 50.3332 229.6 49.9127 231.843C49.4455 234.086 48.0439 235.861 46.1751 236.796C44.8669 235.02 44.2595 232.777 44.7267 230.488Z" fill="#50BFA5"/>
<path d="M50.2398 235.441C50.707 233.198 52.1087 231.422 53.9775 230.488C55.2857 232.263 55.8463 234.553 55.4258 236.796C54.9586 239.038 53.557 240.814 51.6882 241.748C50.38 239.973 49.8194 237.683 50.2398 235.441Z" fill="#50BFA5"/>
<path d="M99.6235 308.799C81.0754 315.854 60.7052 312.116 46.8292 307.771C31.7852 303.005 20.9927 296.557 20.8992 296.463L20.4788 297.258C20.5722 297.304 31.4581 303.846 46.5956 308.612C60.5651 313.051 81.2156 316.789 99.9973 309.64L99.6235 308.799Z" fill="#96D9C9"/>
<path d="M18.6099 292.725C21.9738 294.034 24.5434 296.557 25.8983 299.547C23.1885 300.949 19.7779 301.136 16.414 299.828C13.0501 298.519 10.4338 295.949 9.07886 293.006C11.7887 291.604 15.246 291.417 18.6099 292.725Z" fill="#96D9C9"/>
<path d="M25.1975 303.145C28.468 301.977 31.9253 302.351 34.7285 303.893C33.5605 306.79 31.1778 309.219 27.8606 310.387C24.5902 311.509 21.1328 311.135 18.3296 309.64C19.4976 306.743 21.8804 304.313 25.1975 303.145Z" fill="#96D9C9"/>
<path d="M33.7008 310.48C36.0368 307.864 39.2138 306.556 42.2974 306.602C42.5777 309.826 41.5498 313.237 39.2138 315.807C36.8778 318.424 33.7008 319.732 30.6172 319.685C30.3369 316.461 31.3647 313.097 33.7008 310.48Z" fill="#96D9C9"/>
<path d="M45.6612 314.265C47.9972 311.649 51.1275 310.34 54.2111 310.387C54.4914 313.611 53.4636 317.022 51.1275 319.592C48.7915 322.208 45.6612 323.517 42.5776 323.47C42.2973 320.246 43.3252 316.882 45.6612 314.265Z" fill="#96D9C9"/>
<path d="M34.4016 302.023C32.3459 299.36 31.4582 296.136 31.645 293.192C34.3548 293.519 37.1114 295.108 39.1671 297.771C41.2228 300.435 42.1572 303.659 41.9236 306.602C39.2138 306.275 36.4573 304.687 34.4016 302.023Z" fill="#96D9C9"/>
<path d="M46.8292 305.901C44.7267 303.238 43.7456 300.061 43.9325 297.117C46.6423 297.398 49.3988 298.893 51.5012 301.556C53.6037 304.173 54.5381 307.397 54.3979 310.34C51.6881 310.06 48.8849 308.565 46.8292 305.901Z" fill="#96D9C9"/>
<path d="M61.3126 315.293C61.8732 313.892 62.9478 312.957 64.256 312.537C64.8634 313.845 64.9568 315.34 64.3961 316.742C63.8822 318.144 62.7609 319.125 61.4995 319.499C60.8921 318.237 60.7987 316.695 61.3126 315.293Z" fill="#96D9C9"/>
<path d="M139.43 350.804C139.43 350.804 163.07 257.355 155.221 247.963C144.382 234.974 135.458 278.054 134.571 274.363C126.301 239.833 124.105 195.678 97.4277 191.006C82.2435 188.343 100.932 223.853 99.8104 233.432C98.6891 243.057 71.3108 211.191 54.725 194.463C38.0925 177.736 29.4959 188.343 40.008 209.322C50.1464 229.647 82.991 251.841 76.2165 254.505C69.442 257.121 28.3746 230.862 23.3287 242.076C17.1616 255.86 78.7861 274.55 72.9928 277.633C67.1994 280.717 37.7187 270.578 38.513 281.091C39.3539 291.604 78.973 291.184 78.2722 295.809C77.1976 303.332 50.9874 286.371 49.8193 296.744C48.6513 307.304 84.2992 305.388 83.6918 313.658C83.318 318.424 75.6559 311.229 74.5346 317.817C71.9649 332.815 118.966 351.085 118.966 351.085L139.43 350.804Z" fill="#3C8F7C"/>
<path d="M157.464 351.365C157.464 351.365 134.944 316.882 124.152 310.387C112.612 303.425 121.395 324.218 121.395 324.218C121.395 324.218 97.8482 296.183 91.3073 301.883C84.7197 307.584 90.6999 314.172 90.6999 314.172C90.6999 314.172 69.5355 307.911 65.7511 315.667C59.911 327.582 94.7179 337.488 94.7179 337.488C94.7179 337.488 79.7673 337.301 82.5238 345.384C86.6352 357.533 157.464 351.365 157.464 351.365Z" fill="#50BFA5"/>
<path d="M65.751 315.667C69.5353 307.911 90.6998 314.172 90.6998 314.172C90.6998 314.172 84.7196 307.584 91.3072 301.883C97.8481 296.183 116.676 313.237 116.676 313.237C116.676 313.237 114.714 299.173 128.871 311.555C139.009 320.386 157.464 351.365 157.464 351.365L65.751 315.667Z" fill="#96D9C9"/>
<path d="M130.132 264.784L131.16 264.13C112.845 236.375 107.286 203.481 105.791 180.726C104.202 156.055 107.005 137.739 107.052 137.553L105.791 137.179C105.744 137.366 102.941 155.822 104.529 180.633C106.024 203.575 111.631 236.796 130.132 264.784Z" fill="#96D9C9"/>
<path d="M110.65 133.254C110.696 138.814 108.734 143.393 105.65 146.196C102.52 142.178 100.511 136.805 100.464 131.245C100.464 125.684 102.38 121.059 105.464 118.302C108.594 122.273 110.603 127.647 110.65 133.254Z" fill="#96D9C9"/>
<path d="M100.745 145.776C103.828 150.682 105.137 156.195 104.623 160.961C100.324 159.746 96.026 156.429 92.8957 151.523C89.7654 146.57 88.504 141.057 89.0179 136.337C93.2695 137.552 97.6145 140.823 100.745 145.776Z" fill="#96D9C9"/>
<path d="M95.699 160.728C100.231 163.858 103.455 168.531 104.95 173.437C100.978 174.512 96.2129 173.624 91.681 170.493C87.1958 167.363 83.9721 162.69 82.4771 157.784C86.4483 156.663 91.2138 157.597 95.699 160.728Z" fill="#96D9C9"/>
<path d="M101.586 186.847C103.548 188.015 105.043 189.884 105.791 191.893C104.202 192.501 102.146 192.267 100.184 191.099C98.2218 189.931 96.7735 188.062 95.9792 186.053C97.6145 185.445 99.6235 185.679 101.586 186.847Z" fill="#96D9C9"/>
<path d="M103.174 196.519C105.136 197.687 106.632 199.556 107.379 201.565C105.791 202.173 103.735 201.939 101.773 200.771C99.8103 199.603 98.362 197.734 97.5677 195.725C99.203 195.117 101.212 195.351 103.174 196.519Z" fill="#96D9C9"/>
<path d="M111.257 157.364C114.854 155.308 119.106 155.308 122.844 156.99C122.236 161.195 119.994 164.886 116.35 166.942C112.752 168.998 108.5 168.951 104.763 167.269C105.37 163.111 107.613 159.42 111.257 157.364Z" fill="#96D9C9"/>
<path d="M111.958 171.895C115.602 169.886 119.807 169.886 123.591 171.568C122.937 175.773 120.695 179.465 117.097 181.52C113.453 183.576 109.248 183.53 105.464 181.848C106.118 177.642 108.36 173.951 111.958 171.895Z" fill="#96D9C9"/>
<path d="M111.257 192.781C113.593 191.426 116.35 191.473 118.826 192.548C118.405 195.258 116.957 197.687 114.574 198.996C112.238 200.351 109.482 200.351 107.005 199.229C107.426 196.519 108.921 194.09 111.257 192.781Z" fill="#96D9C9"/>
<path d="M369.529 274.97C371.678 275.344 371.538 275.671 371.818 275.718C372.145 275.764 375.976 273.849 375.976 273.849C375.976 273.849 387.329 268.242 387.937 267.915L396.159 257.588L402.467 260.485C402.467 260.485 393.263 271.466 392.655 271.933C392.095 272.447 375.789 278.147 374.388 278.708C374.388 278.708 372.939 280.016 372.005 280.811C371.117 281.558 369.856 281.885 369.575 282.072C369.529 282.072 368.501 282.633 367.052 282.96C365.838 283.194 366.866 282.352 366.866 282.352C366.866 282.352 369.061 281.465 368.968 281.278C368.875 281.138 367.707 281.745 366.352 282.025C365.978 282.119 365.651 282.212 365.324 282.259C364.483 282.446 364.109 281.979 364.95 281.652C365.23 281.511 365.744 281.325 366.118 281.278C366.539 281.184 366.866 280.951 367.193 280.811C367.847 280.577 368.314 280.39 368.314 280.39C368.267 280.343 368.361 280.203 367.987 280.297C367.52 280.39 366.632 280.764 365.931 280.857C365.557 280.904 364.763 281.044 364.763 281.044C364.763 281.044 363.362 281.184 363.362 280.997C363.315 280.53 364.202 280.297 364.716 280.297C365.043 280.156 365.884 280.016 365.884 280.016C365.884 280.016 367.52 279.362 367.426 279.128C367.426 279.035 366.398 279.175 365.371 279.269C364.249 279.315 363.455 279.315 363.408 279.128C363.315 278.801 364.202 278.661 364.202 278.661C364.202 278.661 364.95 278.521 365.23 278.474C365.511 278.428 366.398 278.147 366.398 278.147C366.398 278.147 369.388 277.026 369.295 276.792C369.202 276.605 368.688 276.138 368.454 276.138C368.267 276.138 367.893 276.325 367.66 276.325C367.473 276.325 367.006 276.278 366.959 276.045C366.959 275.764 368.127 275.204 368.127 275.204C368.127 275.204 368.921 274.877 369.529 274.97Z" fill="#F8A492"/>
<path d="M390.459 263.99C390.459 263.99 392.468 265.859 393.356 266.466C394.057 266.933 397.468 268.615 397.468 268.615C397.468 268.615 400.925 263.382 402.42 260.719C404.242 257.542 405.504 252.776 405.036 252.682C403.868 252.308 402.186 252.075 400.645 252.776C395.365 255.205 390.459 263.99 390.459 263.99Z" fill="#355389"/>
<path d="M371.538 277.727C370.603 277.867 369.716 277.68 369.295 276.886C369.202 277.867 370.697 278.334 371.538 277.727Z" fill="#FE875E"/>
<path d="M117.424 240.908C117.518 237.871 117.097 234.833 115.742 231.983C114.527 229.554 111.631 228.152 109.014 228.152C100.605 228.152 99.5301 239.272 94.2039 243.571C92.5687 244.879 90.7466 245.954 89.2048 247.356C83.5049 252.589 86.0746 262.261 91.3073 266.84C94.9515 270.064 100.651 271.839 105.137 269.363C107.473 268.055 109.248 265.905 110.509 263.522C112.285 260.205 113.453 256.327 114.761 252.729C116.116 248.944 117.237 244.973 117.424 240.908Z" fill="#13375B"/>
<path d="M118.779 255.719C116.163 247.776 112.705 247.87 112.705 247.87L115.509 264.831C117.097 264.363 119.199 263.382 120.835 262.915C120.321 260.439 119.433 257.682 118.779 255.719Z" fill="#F7CC7F"/>
<path d="M132.048 282.867L122.423 275.531C122.423 275.531 121.489 268.709 120.181 262.635C118.592 263.102 117.097 264.364 115.509 264.831L117.938 278.381L130.506 284.876L134.057 289.408L134.851 284.736L132.048 282.867Z" fill="#F48C7F"/>
<path d="M219.415 271.419C222.405 271.419 225.162 272.213 227.591 273.568C227.918 273.755 228.245 273.895 228.572 274.035C235.954 277.073 243.99 271.466 243.99 263.522V224.367H204.838C196.896 224.367 191.289 216.284 194.28 208.901C194.466 208.574 194.607 208.247 194.793 207.92C196.148 205.537 196.943 202.734 196.943 199.743C196.943 190.305 189.094 182.735 179.563 183.156C170.919 183.576 163.958 190.632 163.724 199.276C163.631 202.36 164.378 205.21 165.78 207.733C165.92 208.013 166.107 208.387 166.247 208.714C169.237 216.237 163.537 224.367 155.501 224.367H116.677V313.611C116.677 334.637 133.73 351.692 154.754 351.692H243.99V312.677C243.99 304.687 235.908 299.033 228.526 302.024C228.152 302.21 227.825 302.351 227.498 302.537C224.882 303.986 221.798 304.78 218.528 304.593C210.071 304.173 203.203 297.304 202.829 288.847C202.362 279.315 209.978 271.419 219.415 271.419Z" fill="#F47458"/>
<path d="M304.307 249.692C304.447 246.701 305.335 243.945 306.83 241.608C307.016 241.328 307.203 241.001 307.344 240.674C310.707 233.432 305.475 225.115 297.532 224.741L258.427 222.918L256.605 262.027C256.231 270.017 247.915 275.203 240.673 271.839C240.346 271.699 240.019 271.512 239.739 271.325C237.356 269.83 234.599 268.942 231.656 268.802C222.219 268.335 214.276 275.858 214.276 285.389C214.276 294.033 221.004 301.323 229.6 301.93C232.684 302.164 235.581 301.556 238.15 300.295C238.477 300.154 238.804 300.014 239.178 299.874C246.794 297.211 254.643 303.285 254.269 311.368L252.447 350.15L341.59 354.308C362.614 355.29 380.461 339.029 381.442 318.003L385.647 228.852L346.636 227.03C338.646 226.656 332.619 234.506 335.282 242.029C335.423 242.403 335.563 242.73 335.703 243.057C337.105 245.767 337.712 248.851 337.385 252.121C336.544 260.579 329.349 267.073 320.893 267.073C311.362 267.073 303.839 259.13 304.307 249.692Z" fill="#F7CC7F"/>
<path d="M195.261 188.109C195.448 191.052 194.793 193.902 193.532 196.379C193.392 196.706 193.252 197.033 193.112 197.407C190.448 204.883 196.475 212.686 204.418 212.265L243.523 210.303L241.561 171.194C241.14 163.251 248.943 157.224 256.418 159.887C256.792 160.027 257.119 160.167 257.446 160.307C259.922 161.569 262.772 162.176 265.715 162.036C275.153 161.569 282.348 153.345 281.414 143.86C280.573 135.263 273.191 128.675 264.547 128.862C261.464 128.908 258.614 129.843 256.184 131.338C255.904 131.525 255.577 131.665 255.203 131.852C247.868 135.216 239.505 129.936 239.085 121.9L237.122 83.1182L148.026 87.6037C127.002 88.6317 110.79 106.527 111.864 127.553L116.35 216.704L155.315 214.742C163.304 214.321 168.536 205.957 165.173 198.715C164.986 198.388 164.799 198.061 164.612 197.734C163.023 195.211 162.089 192.127 162.089 188.856C162.136 180.399 168.63 173.203 177.04 172.409C186.571 171.475 194.793 178.67 195.261 188.109Z" fill="#50BFA5"/>
<path d="M275.34 166.522C272.35 166.522 269.546 165.728 267.164 164.326C266.837 164.186 266.51 163.999 266.183 163.859C258.801 160.868 250.718 166.428 250.718 174.418V213.574H289.917C297.859 213.574 303.466 221.657 300.429 228.993C300.289 229.367 300.148 229.694 299.962 229.974C298.607 232.404 297.812 235.207 297.812 238.198C297.812 247.636 305.661 255.205 315.192 254.785C323.836 254.364 330.75 247.262 331.031 238.665C331.078 235.581 330.33 232.684 328.975 230.208C328.788 229.881 328.648 229.554 328.508 229.18C325.518 221.704 331.171 213.574 339.254 213.574H378.078V124.33C378.078 103.303 361.025 86.2021 339.954 86.2021H250.718V125.264C250.718 133.254 258.801 138.908 266.229 135.871C266.603 135.73 266.93 135.59 267.21 135.403C269.873 133.908 272.957 133.16 276.227 133.301C284.684 133.768 291.505 140.636 291.926 149.094C292.393 158.625 284.777 166.522 275.34 166.522Z" fill="#184655"/>
<path d="M91.167 339.31C91.167 339.31 90.5597 343.421 89.5785 344.776C89.2048 345.197 88.5974 345.758 88.1769 346.599C87.5228 347.813 87.8966 349.682 88.3638 350.71C88.5974 351.271 88.3638 351.224 88.8777 351.411C90.513 351.925 92.2416 351.084 92.9424 349.496C93.3162 348.655 93.69 347.486 93.7367 345.991C93.9236 342.253 95.0916 340.384 95.0916 340.384L91.167 339.31Z" fill="#F7A491"/>
<path d="M108.968 341.226C108.968 341.226 109.341 345.851 109.014 347.347C108.874 348.141 107.987 349.823 108.407 350.571C108.781 351.318 109.248 351.505 109.248 351.505L119.76 351.692C120.368 351.692 119.947 351.318 119.527 350.991C118.732 350.43 118.125 350.057 115.742 348.888C115.555 348.842 114.995 348.468 114.808 348.328C114.247 348.001 113.733 347.487 113.266 347.019C112.518 346.178 112.472 342.067 112.472 342.067L108.968 341.226Z" fill="#F7A491"/>
<path d="M117.19 279.596C117.19 279.596 118.499 287.119 117.611 292.025C116.77 296.977 112.612 342.721 112.612 342.721L107.94 343.001C107.94 343.001 107.005 323.891 107.146 321.228C107.332 318.564 108.734 314.125 108.734 314.125L108.267 298.66L114.107 278.428L117.19 279.596Z" fill="#355389"/>
<path d="M103.548 278.007C103.548 278.007 99.9039 283.474 99.0629 288.053C98.1752 292.585 99.6702 306.603 97.9883 312.583C97.1006 315.807 93.69 320.807 93.1761 324.965C92.6154 329.171 90.6064 340.104 90.6064 340.104L95.2318 340.992L105.978 313.705L114.434 288.987L116.583 276.278L103.548 278.007Z" fill="#466EB6"/>
<path d="M106.491 246.654C106.491 246.654 101.679 246.374 99.7637 248.43C97.8481 250.533 104.015 267.073 104.342 269.736C104.716 272.353 102.567 279.455 102.567 279.455C102.567 279.455 113.92 281.745 117.19 279.595C117.19 279.595 117.518 260.485 117.19 258.569C116.817 256.654 113.92 248.944 113.219 248.196C112.565 247.449 106.491 246.654 106.491 246.654Z" fill="#F7CC7F"/>
<path d="M108.127 240.207C108.127 240.207 108.08 240.347 108.033 240.581C107.846 241.749 107.005 245.627 106.445 246.655C105.791 247.963 108.781 252.028 111.631 251.561C112.518 251.421 110.93 247.776 110.977 247.402C111.164 246.655 111.35 245.674 111.537 244.646C111.677 244.085 111.771 243.477 111.864 242.917C112.191 241.375 112.425 240.113 112.425 240.113L108.127 240.207Z" fill="#F7A491"/>
<path d="M108.033 240.581C108.08 240.347 108.127 240.207 108.127 240.207L112.425 240.113C112.425 240.113 112.191 241.375 111.864 242.917C111.771 243.477 111.677 244.085 111.537 244.646C110.883 244.552 110.182 244.225 109.482 243.618C108.734 242.917 108.22 242.122 107.94 241.281C107.987 241.001 108.033 240.767 108.033 240.581Z" fill="#F47458"/>
<path d="M111.023 230.348C111.023 230.348 109.014 230.114 107.706 231.796C106.445 233.432 105.043 238.525 108.22 241.328C111.397 244.132 114.527 240.954 114.995 237.637C115.462 234.273 115.649 230.255 111.023 230.348Z" fill="#F7A491"/>
<path d="M115.929 237.59C115.555 238.291 114.948 238.711 114.527 238.478C114.107 238.244 114.107 237.45 114.481 236.749C114.854 236.001 115.509 235.581 115.882 235.815C116.303 236.048 116.303 236.843 115.929 237.59Z" fill="#F7A491"/>
<path d="M111.257 229.787C111.257 229.787 108.547 234.693 106.585 234.88C104.623 235.114 104.389 237.73 104.389 237.73C104.389 237.73 105.09 231.75 107.005 230.581C108.921 229.46 111.257 229.787 111.257 229.787Z" fill="#13375B"/>
<path d="M93.2694 348.702C90.7465 349.169 89.0646 347.674 88.1769 346.552C87.5695 347.814 87.2425 349.683 87.7097 350.711C88.1302 351.645 89.3449 351.599 90.2793 351.645C91.3072 351.692 92.1014 351.131 92.5686 350.244C92.8022 349.823 93.0826 349.309 93.2694 348.702Z" fill="#F47458"/>
<path d="M114.808 348.328C112.004 349.029 109.949 348.561 108.827 348.094C108.5 348.935 108.127 350.01 108.314 350.617C108.594 351.365 108.968 351.505 109.248 351.505C111.818 351.599 118.545 351.692 120.508 351.692C120.788 351.692 120.928 351.412 120.741 351.178C120.274 350.617 114.995 348.468 114.808 348.328Z" fill="#F47458"/>
<path d="M107.099 236.142C107.239 236.983 106.959 237.777 106.398 237.871C105.837 238.011 105.277 237.403 105.09 236.516C104.95 235.674 105.277 234.88 105.837 234.787C106.351 234.647 106.959 235.254 107.099 236.142Z" fill="#F7A491"/>
<path d="M110.276 239.132L112.752 239.225C112.752 239.225 112.659 240.16 111.537 240.16C110.229 240.113 110.276 239.132 110.276 239.132Z" fill="white"/>
<path d="M319.724 43.2153C320.051 43.2621 320.892 43.5424 322.107 45.8319C323.696 48.8223 325.938 57.7467 325.938 57.7467L319.117 60.2699L318.276 58.4009L316.828 44.0564C316.828 44.0564 319.631 43.2153 319.724 43.2153Z" fill="#DD513A"/>
<path d="M310.707 41.9536C312.67 41.9536 317.482 42.5143 319.724 43.2152C319.724 43.2152 321.406 57.3728 318.276 68.1662C317.575 70.5491 318.837 78.1185 318.837 78.1185L298.607 77.8849C298.607 77.8849 300.989 59.5688 300.102 56.5784C299.214 53.6348 299.167 43.3086 299.167 43.3086C299.167 43.3086 299.307 43.3086 303.699 42.561C305.755 42.1872 308.605 41.9536 310.707 41.9536Z" fill="#F47458"/>
<path d="M308.371 104.425C308.371 104.425 308.792 109.611 309.633 111.013C310.427 112.461 309.586 114.891 309.539 115.218C309.493 115.545 307.811 116.013 305.101 115.732C302.438 115.452 302.485 114.844 302.671 113.816C302.905 112.835 304.353 111.527 304.447 110.592C304.494 109.658 303.606 106.2 303.606 106.2L308.371 104.425Z" fill="#F7A491"/>
<path d="M316.547 73.8665C316.547 73.8665 330.517 73.1189 333.647 74.9879C336.777 76.8569 331.405 86.1551 331.405 86.1551C331.405 86.1551 321.687 85.6879 302.671 86.8093C298.139 87.0429 297.766 75.0347 298.607 74.0534C299.448 73.0722 316.547 73.8665 316.547 73.8665Z" fill="#E0973F"/>
<path d="M304.774 116.152C302.017 115.825 302.344 114.47 302.578 113.442C302.718 112.835 303.512 112.041 303.98 111.34C304.26 111.527 304.634 111.854 305.849 112.228C307.11 112.601 308.792 111.854 309.866 111.433C310.287 112.835 310.287 114.704 310.24 114.984C310.194 115.311 307.53 116.433 304.774 116.152Z" fill="#DD513A"/>
<path d="M306.316 83.8658C306.876 88.071 309.633 109.097 309.633 109.097L303.232 109.891C303.232 109.891 295.336 82.464 295.757 78.2588C296.131 74.0536 299.074 73.7265 299.074 73.7265C299.074 73.7265 304.821 72.6986 306.316 83.8658Z" fill="#F7CC7F"/>
<path d="M298.934 44.8974C300.849 44.1966 301.784 61.2511 302.017 68.2598C305.381 68.5869 311.221 68.2598 312.67 68.1663C313.37 68.1196 314.912 67.5122 315.613 67.4187C316.314 67.3253 316.921 67.2786 317.295 67.372C317.388 67.372 320.892 68.8205 321.173 69.1008C321.547 69.5213 322.574 70.5026 322.388 70.9231C322.247 71.3436 320.472 69.7082 320.472 69.7082L319.631 69.241C320.659 70.3157 322.715 71.6707 322.434 72.1847C322.154 72.6519 320.285 71.2502 318.977 70.3157C320.098 71.3436 321.5 73.1659 321.173 73.4462C320.892 73.6798 319.304 71.5772 317.622 70.9698C316.968 70.7362 316.361 71.3903 315.847 71.4371C315.52 71.4838 314.959 71.624 314.585 71.5305L312.763 71.0165C312.109 71.0633 312.109 71.4371 311.455 71.5772C310.754 71.7174 309.539 71.8576 308.605 72.0912C303.185 73.3995 301.41 74.0536 299.775 74.0536C294.776 74.0069 294.495 46.5795 298.934 44.8974Z" fill="#F7A491"/>
<path d="M295.336 60.9239C295.009 53.7283 295.056 44.8506 299.074 43.3554C300.662 42.748 303.466 46.3458 302.952 61.0641C300.803 61.251 297.672 61.3911 295.336 60.9239Z" fill="#DD513A"/>
<path d="M327.106 108.863C327.106 108.863 326.546 110.639 327.527 111.807C328.555 113.022 332.713 114.19 333.273 114.797C333.787 115.451 333.741 116.012 333.741 116.012L322.061 115.685L322.201 112.134L322.761 109.611L327.106 108.863Z" fill="#F7A491"/>
<path d="M328.274 112.415C328.274 112.415 325.284 113.63 323.836 112.929C322.388 112.181 322.434 111.994 322.014 112.275C321.593 112.508 321.406 115.826 321.406 115.826L334.535 116.2C335.469 116.2 335.937 115.545 335.189 114.938C334.675 114.564 334.114 114.284 333.741 114.097C332.713 113.489 328.274 112.415 328.274 112.415Z" fill="#DD513A"/>
<path d="M326.639 77.1842C327.574 75.2685 329.629 72.7921 333.227 74.2873C336.684 75.7358 337.619 79.1934 336.497 82.7912C335.423 86.389 328.274 107.415 327.994 110.265L322.294 110.312C322.294 110.312 323.322 93.678 323.602 89.6597C323.836 85.7816 325.097 80.455 326.639 77.1842Z" fill="#F7CC7F"/>
<path d="M335.937 57.8403H316.828C316.314 57.8403 315.893 58.1207 315.66 58.5879L309.82 72.9791H299.261C298.981 72.9791 298.747 73.2128 298.747 73.5398C298.747 73.8202 298.981 74.0538 299.261 74.0538H329.256C330.05 74.0538 330.797 73.5866 331.171 72.839L337.058 59.5691C337.432 58.7748 336.824 57.8403 335.937 57.8403Z" fill="black"/>
<path d="M325.658 66.2038C325.518 66.8579 324.957 67.2784 324.397 67.185C323.836 67.0448 323.462 66.4374 323.602 65.7832C323.742 65.1291 324.303 64.7086 324.864 64.8487C325.424 64.9422 325.798 65.5496 325.658 66.2038Z" fill="white"/>
<path d="M315.239 24.6657C314.679 24.4788 314.118 24.2451 313.557 23.9648C312.95 23.6844 312.156 23.3106 311.642 23.2639C310.567 23.077 308.745 23.1705 307.717 24.2919C306.456 25.6469 304.213 24.5255 304.68 31.7211C305.194 39.8045 309.68 38.9167 309.82 38.7765C309.913 38.6364 313.838 33.5901 313.838 33.5901C313.838 33.5901 315.193 36.5805 315.193 36.487C315.193 36.3468 322.154 27.0019 315.239 24.6657Z" fill="#0E2E35"/>
<path d="M311.829 39.3837L312.202 42.2806C312.202 42.2806 313.09 46.4391 311.969 47.2335C310.848 48.0278 307.203 42.1405 307.203 42.1405L307.577 34.8047L311.829 39.3837Z" fill="#F7A491"/>
<path d="M307.484 37.1876C308.371 39.7108 310.614 41.2527 312.156 41.8134L311.829 39.3837L307.577 34.8047L307.484 37.1876Z" fill="#F47458"/>
<path d="M311.595 26.8149C313.978 26.4411 316.127 28.3568 316.034 30.7398C316.034 31.7677 315.94 33.076 315.706 34.431C315.193 37.7952 312.903 40.7388 311.408 40.4585C309.913 40.2249 306.129 37.3279 306.783 32.562C307.203 29.6184 309.119 27.2354 311.595 26.8149Z" fill="#F7A491"/>
<path d="M307.811 33.1228C307.717 33.8704 307.11 34.3843 306.502 34.2909C305.895 34.1507 305.521 33.4966 305.662 32.749C305.802 32.0014 306.362 31.4874 306.97 31.6276C307.577 31.721 307.951 32.4219 307.811 33.1228Z" fill="#F7A491"/>
<path d="M306.97 31.6277C306.97 31.6277 308.792 32.0483 309.493 30.8801C310.147 29.712 312.576 27.1889 315.66 28.2636C318.743 29.2915 312.95 25.6937 312.716 25.6937C312.436 25.6937 309.493 25.647 309.493 25.647C309.493 25.647 307.203 27.5627 307.157 27.7496C307.063 27.9365 306.409 30.1793 306.409 30.1793L306.97 31.6277Z" fill="#0E2E35"/>
<path d="M310.334 36.4868L313.651 37.141C313.651 37.141 313.324 38.4025 311.829 38.1689C310.053 37.8886 310.334 36.4868 310.334 36.4868Z" fill="white"/>
<path d="M254.175 267.494C254.316 267.961 254.409 268.101 254.549 268.382C255.577 270.251 258.006 272.961 258.006 272.961L259.875 268.755C259.875 268.755 259.548 267.447 259.034 265.578C257.259 266.045 255.53 266.279 254.175 267.494Z" fill="#F8A492"/>
<path d="M264.921 263.849C264.921 263.849 254.502 268.335 254.129 268.241C253.942 268.195 249.877 261.42 249.83 255.018C249.83 252.075 252.867 248.523 256.278 249.224C258.006 249.598 257.96 250.065 260.529 253.757C263.052 257.448 264.921 263.849 264.921 263.849Z" fill="#13375B"/>
<path d="M273.798 344.263L273.518 348.374C273.471 348.888 273.097 350.15 273.097 350.617C273.097 352.393 281.507 349.122 279.638 348.328C279.451 348.281 278.564 347.72 278.517 347.113C278.423 346.225 278.19 344.309 278.19 344.309L273.798 344.263Z" fill="#F7A491"/>
<path d="M279.591 348.328C279.591 348.328 277.629 348.888 276.601 349.028C275.62 349.122 274.265 348 273.565 348.328C272.77 348.655 272.77 351.692 272.77 351.692C272.77 351.692 283.376 352.58 286.366 351.692C287.581 351.318 283.656 349.589 279.591 348.328Z" fill="#DD513A"/>
<path d="M256.558 344.263L256.325 348.374C256.231 348.888 255.857 350.15 255.857 350.617C255.857 352.393 264.267 349.122 262.398 348.328C262.211 348.281 261.09 347.347 260.997 346.739C260.903 345.805 260.95 344.309 260.95 344.309L256.558 344.263Z" fill="#F7A491"/>
<path d="M262.398 348.328C262.398 348.328 260.389 348.888 259.408 349.028C258.38 349.122 257.025 348 256.325 348.328C255.53 348.655 255.484 351.692 255.484 351.692C255.484 351.692 266.136 352.72 269.173 351.692C270.294 351.271 266.416 349.589 262.398 348.328Z" fill="#DD513A"/>
<path d="M259.128 269.783L266.556 259.364C266.603 259.27 266.65 259.083 266.743 258.803C267.117 257.775 267.911 255.626 268.565 253.523V253.476C268.799 252.729 269.266 251.421 269.687 250.159C270.154 248.757 270.761 247.028 270.808 246.748C270.761 246.701 270.761 246.608 270.715 246.468C270.434 245.767 270.06 244.085 269.92 243.384C269.827 242.917 269.78 241.748 270.294 241.748C271.182 241.748 270.761 242.917 271.182 243.617C271.322 243.15 271.602 242.216 271.789 241.235L271.929 239.038C271.929 238.852 271.789 237.637 272.396 237.637C272.957 237.683 272.957 238.992 273.191 241.188C273.237 240.907 273.331 240.627 273.378 240.347C273.378 240.207 273.471 239.552 273.564 239.179C273.424 238.571 273.518 237.637 274.172 237.683C274.499 237.73 274.452 239.085 274.452 239.085C274.452 239.272 274.452 240.721 274.452 241.001C274.499 240.487 274.779 238.478 275.293 238.478C275.714 238.478 275.76 239.038 275.714 239.459C275.714 239.693 275.48 241.889 275.433 242.169C275.667 241.842 275.901 239.88 276.087 239.88C276.882 239.88 276.601 242.636 276.321 243.384C276.274 243.431 276.228 243.571 276.228 243.758C276.087 244.272 275.947 245.066 275.48 245.814C274.966 246.701 274.265 248.103 274.172 248.337C274.078 248.757 273.845 250.346 273.518 252.355C273.378 253.196 273.237 254.131 273.097 255.112V255.065C273.051 255.299 272.91 255.953 272.303 258.476C271.509 261.887 271.415 262.027 271.369 262.074C271.042 262.728 263.052 273.568 262.725 274.035L262.492 274.316L259.128 269.783Z" fill="#F7A491"/>
<path d="M272.91 245.533C272.91 245.533 272.35 243.991 271.275 243.991C271.275 243.991 271.836 243.758 272.35 244.178C272.864 244.599 272.91 245.533 272.91 245.533Z" fill="#F47458"/>
<path d="M257.352 242.543L256.371 248.617C256.371 248.617 260.015 251.514 262.165 250.906C263.94 250.393 262.725 248.056 262.725 248.056C262.725 248.056 261.744 244.832 262.071 243.15C262.351 241.468 257.352 242.543 257.352 242.543Z" fill="#F7A491"/>
<path d="M258.006 244.365C258.941 244.832 260.763 245.393 262.165 245.533C262.024 244.692 261.931 243.804 262.071 243.15C262.165 242.356 261.183 242.169 260.062 242.216C258.614 242.309 257.352 242.543 257.352 242.543L257.166 243.711C257.446 243.991 257.726 244.225 258.006 244.365Z" fill="#FE875E"/>
<path d="M252.774 235.581C252.587 235.581 254.175 242.356 256.652 243.477C259.128 244.646 262.772 244.038 263.473 242.216C264.22 240.207 261.464 233.338 258.006 232.45C254.549 231.609 252.774 235.581 252.774 235.581Z" fill="#F7A491"/>
<path d="M255.577 229.413C253.615 230.535 252.727 232.217 252.447 232.918C251.512 233.338 250.391 234.273 249.877 236.843C249.176 239.973 251.559 242.356 254.035 243.104C256.511 243.851 256.885 245.487 256.885 245.487L257.166 243.711C257.166 243.711 256.605 242.169 255.764 241.375C254.97 240.627 256.184 239.506 256.278 238.571C256.371 237.871 255.857 236.515 255.951 235.347C255.951 235.347 257.352 233.291 258.707 232.778C260.997 231.89 258.1 227.965 255.577 229.413Z" fill="#13375B"/>
<path d="M256.652 239.786C256.979 240.534 256.839 241.328 256.325 241.515C255.857 241.655 255.203 241.188 254.876 240.394C254.549 239.599 254.689 238.852 255.203 238.665C255.67 238.478 256.325 238.992 256.652 239.786Z" fill="#F7A491"/>
<path d="M265.809 269.924L280.105 267.588C280.105 267.588 278.47 263.522 277.91 263.522C277.302 263.522 267.07 267.961 267.07 267.961L266.276 269.597L265.809 269.924Z" fill="#F8A492"/>
<path d="M258.474 279.736C258.474 279.736 257.025 286.651 257.633 291.884C258.193 297.117 258.24 315.714 258.24 315.714L256.044 345.431L261.277 345.524C261.277 345.524 267.537 315.807 267.444 316.601C267.304 317.349 269.5 295.669 269.5 295.669L262.071 279.082L258.474 279.736Z" fill="#184655"/>
<path d="M259.875 279.409C259.875 279.409 258.941 285.623 260.109 288.38C261.277 291.09 270.06 317.816 270.201 320.012C270.294 322.162 273.237 346.272 273.237 346.272L279.358 346.085L280.666 319.312L277.91 285.623L275.2 277.119L259.875 279.409Z" fill="#13375B"/>
<path d="M256.371 248.617C256.371 248.617 257.913 249.598 259.315 249.458C260.716 249.365 262.725 248.057 262.725 248.057L262.445 247.122C262.445 247.122 258.801 246.608 258.707 246.655C258.614 246.702 256.371 248.617 256.371 248.617Z" fill="#F7A491"/>
<path d="M272.49 263.289C272.49 263.289 277.909 268.428 280.339 267.54C282.768 266.653 283.796 263.709 277.816 259.317C272.49 255.439 272.49 263.289 272.49 263.289Z" fill="#F8A492"/>
<path d="M276.134 269.597C275.34 265.251 269.5 251.608 269.033 249.131C268.846 247.916 265.669 247.87 262.679 248.01C259.548 248.197 256.371 248.617 256.371 248.617C256.371 248.617 253.568 249.038 252.353 250.206C251.139 251.374 250.811 254.551 252.587 260.625C253.988 265.391 255.717 268.008 256.558 271.512C256.745 272.68 256.885 273.848 257.072 275.157C257.399 280.39 257.072 287.258 257.072 287.258C257.072 287.258 272.303 290.436 278.003 285.623C278.003 285.623 276.975 274.082 276.134 269.597Z" fill="#355389"/>
<path d="M280.012 260.205C280.012 260.205 274.032 265.158 273.705 265.158C273.471 265.158 265.155 259.037 263.239 253.991C262.211 251.234 264.407 248.103 266.977 248.15C268.706 248.15 269.5 248.617 273.004 251.561C276.461 254.505 280.012 260.205 280.012 260.205Z" fill="#466EB6"/>
<path d="M174.844 39.8976C175.825 37.5147 176.853 35.1784 179.376 33.9636C181.431 32.9824 183.58 33.3562 185.403 34.7579C190.589 38.6361 186.057 42.9348 191.99 50.3173C193.812 52.6068 196.008 54.4758 197.129 57.1391C198.671 60.9238 196.802 62.6993 193.906 64.5216C179.843 73.1656 172.508 55.457 172.741 51.3919C172.975 48.3548 174.236 41.3928 174.844 39.8976Z" fill="#13375B"/>
<path d="M160.267 85.7816C160.874 85.6882 162.323 84.6602 162.837 84.5668C163.21 84.5201 164.051 84.3799 164.425 84.3332C164.892 82.6511 167.135 73.6332 167.368 70.9699C167.649 68.1197 169.704 55.6909 169.704 55.6909L174.937 56.6254C174.937 56.6254 172.741 66.204 172.134 70.8297C171.62 74.8013 167.275 83.7725 166.714 84.707V84.7537C166.621 86.1554 165.967 85.6882 165.967 85.6882L164.846 85.9685C164.846 85.9685 160.968 86.3423 160.734 86.4358C160.454 86.5292 159.706 85.8751 160.267 85.7816Z" fill="#F7A491"/>
<path d="M174.283 48.4482C170.545 49.7098 168.443 59.8024 168.443 59.8024C168.443 59.8024 174.283 61.4377 175.778 60.5499C175.778 60.5499 177.46 53.074 178.067 53.3076L174.283 48.4482Z" fill="#6A97CE"/>
<path d="M145.55 103.256C144.382 106.247 143.821 109.144 143.774 109.471C143.728 109.658 143.961 110.452 143.961 110.639C141.672 113.723 138.402 114.424 135.552 114.61C137 113.209 139.102 111.9 139.196 111.48C139.383 110.732 140.224 107.602 140.644 103.256C142.42 104.051 143.588 103.443 145.55 103.256Z" fill="#F7A491"/>
<path d="M177.881 69.708L182.88 83.8656C182.88 83.8656 174.797 85.3608 171.807 85.9215C168.77 86.4822 151.951 87.1831 151.483 87.5101C151.203 87.7437 147.699 99.0044 146.157 105.172C144.382 105.593 141.392 105.125 139.757 104.565C140.644 95.687 143.775 81.6228 144.756 80.0809C146.391 77.5578 177.881 69.708 177.881 69.708Z" fill="#256653"/>
<path d="M158.258 109.424C157.697 112.602 157.65 115.545 157.65 115.919C157.697 116.059 158.071 116.807 158.071 116.994C156.436 120.498 153.305 121.76 150.596 122.507C151.764 120.825 153.539 119.143 153.586 118.676C153.586 117.975 153.866 114.704 153.446 110.359C155.314 110.826 156.389 109.985 158.258 109.424Z" fill="#F7A491"/>
<path d="M183.721 70.4561L185.683 73.7735C188.626 78.8198 186.337 85.3612 180.871 87.4639C180.871 87.4639 180.824 87.4639 180.824 87.5106C177.927 88.5852 161.528 92.5101 161.155 92.8839C160.874 93.1175 159.566 104.845 159.239 111.247C157.557 111.948 154.52 112.041 152.838 111.807C151.997 102.93 152.465 88.5385 153.165 86.8097C154.287 84.0529 183.721 70.4561 183.721 70.4561Z" fill="#327F6B"/>
<path d="M157.417 116.012C157.837 115.498 159.473 118.162 159.846 118.722C160.314 119.376 160.173 119.844 160.127 119.937C159.986 120.217 151.53 125.217 149.474 125.544C149.287 125.591 148.914 125.451 148.867 125.404C148.026 124.656 151.764 119.376 153.399 118.722C154.473 118.255 155.455 118.162 157.417 116.012Z" fill="#13375B"/>
<path d="M143.494 109.564C144.008 109.191 145.083 112.088 145.363 112.742C145.69 113.443 145.456 113.863 145.41 113.957C145.223 114.19 135.972 117.508 133.87 117.461C133.683 117.461 133.356 117.274 133.309 117.181C132.655 116.34 137.28 111.854 139.056 111.48C140.177 111.246 141.158 111.34 143.494 109.564Z" fill="#13375B"/>
<path d="M177.787 48.4015C177.694 48.4015 177.554 48.3548 177.413 48.3081C176.713 48.2146 175.218 48.0277 174.05 48.5417C172.601 49.1024 170.405 54.7561 170.545 60.5032C170.592 61.391 170.639 62.1853 170.686 62.746C171.059 67.0914 172.321 75.315 172.368 75.3617C174.05 76.4364 184.328 72.1844 185.029 71.2499C185.776 70.3154 186.15 58.9613 186.524 58.4006L187.178 48.5417C186.01 48.2146 179.609 48.4015 177.787 48.4015Z" fill="#9BC1F9"/>
<path d="M181.945 44.7575C181.945 44.7575 181.291 48.2151 181.431 49.5234C181.572 50.8784 180.917 55.2238 178.068 55.2705C175.218 55.2705 177.507 49.7103 177.787 48.402C178.068 47.0937 178.114 42.9819 178.114 42.9819L181.945 44.7575Z" fill="#F7A491"/>
<path d="M178.068 45.0378C178.114 43.9164 178.114 42.9819 178.114 42.9819L181.945 44.7575C181.945 44.7575 181.805 45.4583 181.665 46.3461C179.983 46.7199 178.768 46.0658 178.068 45.0378Z" fill="#F47458"/>
<path d="M183.347 35.3189C183.347 35.3189 184.842 36.16 185.356 37.9355C185.917 39.711 185.309 44.2901 181.478 45.3647C177.647 46.4861 176.012 42.8416 176.806 40.0381C177.6 37.1879 179.282 33.5901 183.347 35.3189Z" fill="#F7A491"/>
<path d="M176.339 38.9168C176.386 39.7111 176.806 40.2718 177.273 40.2251C177.694 40.1784 178.021 39.5242 177.927 38.7766C177.834 38.029 177.413 37.4216 176.993 37.4683C176.526 37.5151 176.245 38.1692 176.339 38.9168Z" fill="#F7A491"/>
<path d="M182.926 35.0854C182.926 35.0854 183.58 40.2252 185.262 41.1129C186.898 42.0474 186.197 44.3369 186.197 44.3369C186.197 44.3369 187.692 39.057 186.384 37.375C185.076 35.6929 182.926 35.0854 182.926 35.0854Z" fill="#13375B"/>
<path d="M184.281 41.8601C183.814 42.5142 183.814 43.3085 184.281 43.6356C184.702 43.9159 185.449 43.6356 185.917 42.9814C186.337 42.2806 186.337 41.4863 185.917 41.2059C185.449 40.9256 184.702 41.2059 184.281 41.8601Z" fill="#F7A491"/>
<path d="M178.722 42.1406L181.385 42.8415C181.385 42.8415 181.058 43.8227 179.89 43.5891C178.441 43.262 178.722 42.1406 178.722 42.1406Z" fill="white"/>
<path d="M192.037 85.361C192.177 85.361 203.624 84.8003 203.624 84.8003C203.624 84.8003 198.905 88.2112 198.811 88.2112C198.671 88.2112 194.98 86.7627 194.84 86.7627C194.7 86.7627 192.037 85.361 192.037 85.361Z" fill="#50BFA5"/>
<path d="M424.005 344.45L424.239 348.468C424.332 348.982 424.659 350.244 424.659 350.711C424.659 352.44 416.904 349.216 418.632 348.421C418.819 348.375 419.613 347.861 419.66 347.253C419.753 346.319 419.94 344.496 419.94 344.496L424.005 344.45Z" fill="#F7A491"/>
<path d="M418.585 348.468C418.585 348.468 420.361 348.982 421.295 349.122C422.23 349.262 423.444 348.141 424.145 348.421C424.846 348.795 424.799 351.785 424.799 351.785C424.799 351.785 415.081 352.626 412.371 351.739C411.25 351.412 414.848 349.683 418.585 348.468Z" fill="#F7CC7F"/>
<path d="M436.853 344.216L437.087 348.234C437.18 348.748 437.507 350.01 437.507 350.477C437.507 352.206 429.798 349.028 431.527 348.234C431.667 348.187 432.742 347.253 432.789 346.646C432.882 345.758 432.835 344.263 432.835 344.263L436.853 344.216Z" fill="#F7A491"/>
<path d="M431.527 348.234C431.527 348.234 433.349 348.748 434.284 348.888C435.218 349.028 436.433 347.907 437.087 348.187C437.834 348.514 437.834 351.551 437.834 351.551C437.834 351.551 428.163 351.925 425.313 351.505C424.192 351.318 427.836 349.449 431.527 348.234Z" fill="#F7CC7F"/>
<path d="M434.564 280.39C434.564 280.39 435.872 287.165 435.358 292.305C434.844 297.445 434.797 315.714 434.797 315.714L437.227 344.917L431.994 345.057C431.994 345.057 426.248 315.854 426.341 316.602C426.481 317.349 424.425 296.043 424.425 296.043L431.247 279.736L434.564 280.39Z" fill="#355389"/>
<path d="M432.742 275.998C432.742 275.998 438.675 282.259 436.479 289.081C435.592 291.838 427.322 318.05 427.229 320.2C427.088 322.349 424.425 345.992 424.425 345.992L418.772 345.851L417.557 319.499L419.193 284.035L422.603 278.054L432.742 275.998Z" fill="#466EB6"/>
<path d="M396.72 255.672C398.636 253.476 402.887 250.393 402.887 250.393C402.887 250.393 405.41 248.243 406.438 247.916C407.933 247.402 410.549 246 414.287 251.654C416.95 255.719 433.863 276.792 436.666 277.493L418.539 286.137C418.025 282.025 409.054 274.175 407.793 272.727C404.896 269.456 394.851 257.728 396.72 255.672Z" fill="#F47458"/>
<path d="M397.561 246.842L403.214 250.159C403.214 250.159 403.354 254.972 401.532 256.233C399.991 257.308 398.776 254.785 398.776 254.785C398.776 254.785 396.673 251.841 395.085 250.954C393.496 250.019 397.561 246.842 397.561 246.842Z" fill="#F7A491"/>
<path d="M398.496 248.991C398.309 249.972 397.795 251.421 397.047 252.636C396.44 251.982 395.739 251.281 395.085 250.954C394.337 250.533 394.851 249.645 395.552 248.758C396.58 247.73 397.561 246.842 397.561 246.842L398.636 247.496C398.729 247.916 398.589 248.664 398.496 248.991Z" fill="#F47458"/>
<path d="M394.618 238.571C394.711 238.431 399.336 244.225 398.776 246.935C398.215 249.645 395.412 252.121 393.45 251.467C391.3 250.673 387.283 243.898 388.731 240.58C390.179 237.263 394.618 238.571 394.618 238.571Z" fill="#F7A491"/>
<path d="M389.525 236.749C391.581 235.627 394.851 235.3 397.327 236.609C400.364 238.151 401.065 242.169 400.084 244.599C399.149 247.028 400.224 248.43 400.224 248.43L398.636 247.496C398.636 247.496 397.701 246 397.561 244.832C397.421 243.664 395.739 243.898 394.898 243.337C394.244 242.963 393.45 241.608 392.422 240.907C392.422 240.907 389.805 240.627 388.497 241.328C386.301 242.543 386.628 238.337 389.525 236.749Z" fill="#13375B"/>
<path d="M396.206 244.318C396.206 245.206 396.627 245.907 397.141 245.907C397.654 245.907 398.075 245.206 398.075 244.365C398.122 243.477 397.701 242.776 397.187 242.776C396.673 242.776 396.206 243.477 396.206 244.318Z" fill="#F7A491"/>
<path d="M391.441 248.944L393.917 247.075C393.917 247.075 394.571 248.103 393.496 248.944C392.235 249.972 391.441 248.944 391.441 248.944Z" fill="white"/>
<path d="M385.274 285.483C385.881 284.595 386.161 283.287 387.002 282.306C387.283 281.979 387.75 281.605 388.264 281.231C392.375 278.848 403.028 272.634 403.448 272.166C403.962 271.606 411.25 259.504 411.25 259.504L404.709 258.009L398.309 269.316C397.748 269.737 387.61 277.213 387.61 277.213C387.61 277.213 385.601 278.801 384.479 279.549C383.965 279.876 383.405 280.063 382.938 280.25C382.33 280.437 381.209 281.044 380.975 281.231C380.695 281.465 380.181 281.979 379.854 282.259C379.527 282.586 379.153 282.913 379.013 283.1C378.92 283.193 378.639 283.38 378.452 283.474C378.125 283.614 378.172 284.081 378.499 284.175C378.779 284.268 379.2 284.034 379.48 283.941C380.228 283.567 381.115 282.679 381.162 282.773C381.209 282.866 380.275 284.876 380.228 285.109C380.134 285.343 379.06 287.679 379.013 288.193C378.966 288.707 379.293 288.847 379.527 288.66C379.714 288.473 381.396 285.39 381.396 285.39C381.396 285.39 381.629 284.969 381.676 285.203C381.77 285.436 380.275 288.24 380.088 288.707C379.947 289.174 380.088 289.548 380.508 289.408C381.022 289.221 382.47 286.09 382.47 286.09C382.47 286.09 382.657 285.717 382.797 285.857C382.891 285.95 381.583 288.333 381.536 288.614C381.536 288.894 381.77 289.174 382.143 288.941C382.564 288.66 383.825 285.903 383.825 285.903C383.825 285.903 384.012 285.717 384.059 285.81C384.106 285.95 383.078 288.053 383.171 288.38C383.218 288.614 383.452 288.567 383.452 288.567C383.965 288.567 384.666 286.417 385.274 285.483Z" fill="#F8A492"/>
<path d="M409.428 265.905C409.428 265.905 407.326 265.204 405.924 264.597C405.036 264.176 401.018 262.214 401.018 262.214C401.018 262.214 402.747 254.925 403.915 252.308C408.167 242.73 413.026 249.365 413.68 250.907C415.175 254.318 409.428 265.905 409.428 265.905Z" fill="#355389"/>
<path d="M260.67 240.814L262.725 239.319C262.725 239.319 263.239 240.113 262.398 240.814C261.324 241.655 260.67 240.814 260.67 240.814Z" fill="white"/>
<path d="M498.618 351.552H27.7672C27.1598 351.552 26.6926 352.159 26.6926 352.907C26.6926 353.654 27.1598 354.262 27.7672 354.262H498.618C499.178 354.262 499.646 353.654 499.646 352.907C499.646 352.159 499.178 351.552 498.618 351.552Z" fill="#184655"/>
<path d="M203.904 84.7535C203.857 84.66 203.764 84.66 203.624 84.66C202.596 84.6133 201.521 84.5666 200.447 84.4264C200.26 84.3797 200.12 84.3329 199.933 84.2862C199.652 84.146 199.372 84.146 199.045 84.2395C198.905 84.2862 198.765 84.2862 198.578 84.2862C198.064 84.2862 196.522 83.7722 195.728 83.6321C195.541 83.5853 195.401 83.4919 195.354 83.305C194.607 80.2679 192.925 73.3994 192.738 71.1566C192.457 68.2596 190.495 55.3169 190.495 55.3169L185.169 56.8121C185.169 56.8121 187.365 66.3439 187.972 71.0164C188.439 74.6142 191.99 82.1836 193.111 84.3797C193.672 86.015 194.887 86.0617 195.167 86.1085C195.354 86.1085 195.494 86.2019 195.588 86.3421C195.821 86.529 196.008 86.7626 196.288 86.9028C196.475 87.043 196.616 87.1831 196.756 87.37C196.943 87.6971 197.176 88.0242 197.363 88.398C197.503 88.5849 197.643 88.6783 197.83 88.6316C198.064 88.5849 198.157 88.398 198.157 88.1644C198.111 87.7906 198.017 87.4168 197.83 87.0897C197.643 86.8093 197.643 86.6224 197.877 86.3421C197.97 86.2019 198.111 86.015 198.251 85.9216C198.438 85.7814 198.578 85.6879 198.811 85.6879C199.185 85.7814 199.559 85.8748 199.979 85.9216L200.306 85.9683L200.447 86.015C200.493 86.015 201.054 86.1085 201.241 86.1085C201.381 86.1085 201.661 86.1085 201.848 86.1085C202.082 86.1085 202.456 86.015 202.502 86.015C202.689 86.015 202.829 85.9683 202.97 85.8281C203.063 85.7814 203.11 85.7347 203.063 85.6412C203.063 85.5478 202.97 85.5011 202.876 85.5011C202.783 85.4543 202.129 85.4076 202.129 85.3609C202.315 85.3609 202.923 85.3609 203.11 85.3609C203.39 85.3609 203.624 85.2674 203.81 85.0338C203.857 84.9871 203.951 84.8936 203.904 84.7535Z" fill="#F7A491"/>
<path d="M187.271 48.5419C189.888 48.0747 192.037 59.8026 192.037 59.8026C192.037 59.8026 186.197 61.4379 184.702 60.5502C184.702 60.5502 183.02 53.0742 182.412 53.3078L187.271 48.5419Z" fill="#9BC1F9"/>
<path d="M123.825 259.504C124.012 258.99 121.582 258.569 121.442 258.102C121.349 257.588 124.526 257.541 124.619 257.121C124.853 256.28 121.115 256.934 121.209 256.56C121.302 256.186 125.086 255.299 124.666 254.644C124.245 253.99 120.835 255.953 120.741 255.532C120.601 255.065 124.058 253.99 124.012 253.009C123.965 252.495 118.359 255.626 117.704 255.345C117.05 255.065 118.405 252.589 117.891 252.261C117.377 251.888 115.882 257.214 115.509 257.401C115.135 257.541 107.566 261.887 104.856 262.588C104.529 261.7 103.828 260.438 103.501 259.597C102.006 260.672 100.885 261.233 99.2965 262.214C100.465 265.064 102.053 268.148 102.847 268.522C105.277 269.596 114.574 261.887 116.443 260.578C118.265 259.27 119.34 259.691 120.601 259.27C121.863 258.85 123.638 259.971 123.825 259.504Z" fill="#F7A491"/>
<path d="M98.9694 263.569C98.9694 263.569 96.9137 254.364 97.2875 251.701C97.6145 249.038 100.792 246.561 102.987 247.449C105.183 248.383 106.211 261.233 106.211 261.233L98.9694 263.569Z" fill="#F7CC7F"/>
</svg>
