<svg viewBox="0 0 508 365" fill="none" xmlns="http://www.w3.org/2000/svg">
<path d="M395.032 89.4748C395.032 89.4748 377.739 162.098 260.566 122.243C143.234 82.173 408.337 27.6219 395.032 89.4748Z" fill="#B7DBFF"/>
<path d="M470.391 364.484C499.98 364.484 518.226 334.156 500.72 312.457C500.227 311.964 499.98 311.471 499.487 310.978C488.884 298.896 472.61 294.458 458.063 287.8C454.118 285.828 450.172 283.608 447.46 280.156C443.515 275.225 442.529 268.567 443.515 262.157C446.72 235.773 475.569 219.499 480.008 193.363C483.706 173.637 471.624 153.664 455.104 143.062C438.83 132.706 418.858 129.993 399.625 129.254C380.639 128.267 361.159 129.007 342.42 124.322C337.488 123.089 332.31 121.363 329.105 117.418C325.16 112.98 324.42 106.322 325.16 100.405C326.639 84.3774 363.379 28.8984 345.132 10.652C337.735 3.50142 327.872 -0.443753 318.009 0.542539C308.146 1.52883 299.023 5.96715 290.393 11.1452C272.147 21.9944 208.284 93.254 185.353 104.103C162.668 114.706 136.778 111.747 112.121 111.007C87.4634 110.514 59.8472 114.213 43.8199 133.939C37.9022 140.843 33.957 150.212 35.9296 159.089C37.1625 164.76 40.6145 169.445 44.3131 173.637C52.9431 183.007 64.2855 189.664 72.4224 199.527C80.8059 209.143 84.9976 224.924 77.3539 235.28C74.395 239.225 69.9567 241.691 65.7649 244.157C41.8474 257.472 15.2175 271.28 4.61482 297.663C-0.56321 310.978 -0.56321 325.772 3.38196 339.58C7.5737 354.375 22.3681 364.484 39.1351 364.484H470.391Z" fill="#B7DBFF"/>
<path d="M333.79 50.1037C333.297 49.6106 332.557 49.1174 332.064 48.6243C332.557 49.1174 333.297 49.6106 333.79 50.1037ZM332.064 48.6243C332.064 48.6243 332.064 48.6243 332.064 48.3777C332.064 48.6243 332.064 48.6243 332.064 48.6243Z" fill="#E3F1FB"/>
<path d="M93.8744 81.172C93.8744 81.172 178.449 110.268 215.928 42.46C253.407 -25.5942 22.8613 56.0215 93.8744 81.172Z" fill="#B7DBFF"/>
<path d="M139.983 123.336C125.682 123.336 113.6 121.117 106.203 119.391C113.6 121.117 125.682 123.336 139.983 123.336C165.874 123.336 197.928 115.692 218.394 82.6513C197.928 115.692 165.874 123.336 139.983 123.336ZM221.106 78.213C221.106 78.213 221.106 78.213 221.106 77.9664C221.106 78.213 221.106 78.213 221.106 78.213ZM221.352 77.9664C221.352 77.7199 221.352 77.7199 221.352 77.7199C221.352 77.7199 221.352 77.7199 221.352 77.9664ZM221.352 77.7199C221.352 77.7199 221.352 77.7199 221.352 77.4733C221.352 77.7199 221.352 77.7199 221.352 77.7199ZM221.352 77.4733H221.599H221.352ZM221.599 77.4733C221.599 77.2267 221.599 77.2267 221.599 77.2267C221.599 77.2267 221.599 77.2267 221.599 77.4733ZM221.599 77.2267C226.284 68.3501 226.284 62.1858 222.585 57.994C226.284 62.1858 226.284 68.3501 221.599 77.2267Z" fill="#E3F1FB"/>
<path d="M71.1894 328.485C71.1894 328.485 67.984 325.772 70.2031 314.677C72.1757 303.827 77.3538 293.471 74.888 281.389C72.1757 269.554 51.9567 239.718 51.9567 237.746C51.9567 235.773 45.7924 272.513 56.1485 287.06C66.7511 301.608 67.984 306.54 67.4908 314.183C66.9977 321.827 67.4908 327.992 68.7237 329.718L71.1894 328.485Z" fill="#5881C0"/>
<path d="M69.2169 306.54C67.984 311.471 67.2443 323.8 69.2169 326.759C69.4635 327.005 69.71 326.759 69.9566 326.266C69.4635 324.293 68.9703 320.594 70.2032 314.677C72.1758 303.827 77.3538 293.471 74.8881 281.389C72.1758 269.554 51.9568 239.718 51.9568 237.746C51.9568 237.746 55.1622 262.65 65.2717 279.91C72.6689 291.992 70.4498 301.855 69.2169 306.54Z" fill="#2E53A1"/>
<path d="M74.8881 327.745C74.8881 327.745 68.9703 312.951 78.8333 300.129C88.9428 287.307 105.217 270.787 105.463 264.376C105.463 264.376 109.655 295.444 96.34 304.074C83.2716 312.951 74.1484 314.183 76.3675 327.745H74.8881Z" fill="#5881C0"/>
<path d="M88.9428 297.91C74.395 308.512 73.1621 320.841 75.3813 326.512C75.6279 326.759 75.8744 327.252 76.3676 327.252C74.395 314.183 83.5182 312.704 96.34 304.074C109.655 295.444 105.463 264.376 105.463 264.376C105.463 264.376 103.491 287.307 88.9428 297.91Z" fill="#2E53A1"/>
<path d="M65.0252 328.238C65.0252 328.238 66.9978 320.348 66.0115 311.964C65.0252 303.334 56.1486 298.649 47.7651 289.773C43.5734 285.088 42.3405 260.677 45.0528 258.458C45.0528 258.458 30.2584 276.211 32.4776 289.033C34.9433 302.101 58.6143 310.485 60.8335 316.649C63.0526 323.06 62.8061 328.238 62.8061 328.238H65.0252Z" fill="#5881C0"/>
<path d="M39.8748 265.362C35.1899 278.43 40.1214 294.211 56.1486 304.074C67.9841 311.471 64.2856 326.512 64.2856 326.512L66.0116 320.594C66.2581 317.882 66.2581 314.923 66.0116 311.964C65.0253 303.334 56.1486 298.649 47.7652 289.773C43.82 285.334 42.3406 262.403 44.5597 258.705C44.0666 259.691 42.094 262.157 39.8748 265.362Z" fill="#2E53A1"/>
<path d="M44.5596 258.705C44.8061 258.458 45.0527 258.458 45.0527 258.458C44.8061 258.458 44.8061 258.705 44.5596 258.705Z" fill="#56B4D8"/>
<path d="M77.8469 327.252C77.8469 327.252 81.2989 314.43 89.6824 312.704C98.3125 310.978 107.929 298.649 108.422 296.184C108.422 296.184 106.943 319.608 77.8469 327.252Z" fill="#5881C0"/>
<path d="M89.1894 316.896C84.0114 319.608 82.0388 323.06 81.0525 326.266C107.189 317.882 108.422 296.184 108.422 296.184C108.422 296.677 107.929 297.416 107.189 298.649C104.724 303.088 98.3126 312.457 89.1894 316.896Z" fill="#2E53A1"/>
<path d="M96.0934 322.567H51.9568L57.1348 355.608C57.628 358.073 59.8471 360.046 62.3129 360.046H85.7373C88.4496 360.046 90.4222 358.073 90.9153 355.608L96.0934 322.567Z" fill="#EA5854"/>
<path d="M95.3536 327.992L96.0934 322.567H51.9568L52.6965 327.992H95.3536Z" fill="#E23A38"/>
<path d="M85.4908 322.567L80.3128 355.608C79.8197 358.073 77.6005 360.046 75.1348 360.046H85.7374C88.4497 360.046 90.4223 358.073 90.9154 355.608L96.0935 322.567H85.4908Z" fill="#E23A38"/>
<path d="M261.297 360.046H270.421V284.595H261.297V360.046Z" fill="#FEFEFE"/>
<path d="M266.969 360.046H270.421V284.595H266.969V360.046Z" fill="#F0F6FC"/>
<path d="M292.365 353.882H242.065C240.339 353.882 238.859 355.115 238.859 356.841C238.859 358.567 240.339 360.046 242.065 360.046H292.365C294.091 360.046 295.324 358.567 295.324 356.841C295.324 355.115 294.091 353.882 292.365 353.882Z" fill="#FEFEFE"/>
<path d="M292.366 353.882H242.065C240.832 353.882 239.845 354.375 239.352 355.361H282.996C284.722 355.361 285.955 356.594 285.955 358.32C285.955 359.06 285.955 359.553 285.708 360.046H292.366C294.092 360.046 295.324 358.567 295.324 356.841C295.324 355.115 294.092 353.882 292.366 353.882Z" fill="#F0F6FC"/>
<path d="M261.297 291.252H270.421V284.595H261.297V291.252Z" fill="#F0F6FC"/>
<path d="M318.256 179.555C317.023 179.061 315.544 178.568 314.064 178.568H262.037C257.106 178.568 252.667 182.267 251.681 187.198L235.407 272.266C235.161 273.499 235.161 274.978 235.407 276.211H221.106C218.64 276.211 216.668 278.184 216.668 280.65C216.668 283.115 218.64 284.841 221.106 284.841H267.708H297.79C302.722 284.841 307.16 281.143 308.146 276.211L324.42 191.144C325.16 186.212 322.448 181.527 318.256 179.555Z" fill="#F39E33"/>
<path d="M324.42 191.143L308.146 276.211C307.16 281.143 302.722 284.841 297.79 284.841H267.708H221.106C218.64 284.841 216.668 283.115 216.668 280.65C216.668 278.184 218.64 276.211 221.106 276.211H235.407C235.654 276.211 235.654 276.211 235.9 276.211H287.681C294.585 276.211 300.749 271.28 301.982 264.376L318.256 179.555C322.448 181.527 325.16 186.212 324.42 191.143Z" fill="#F0F6FC"/>
<path d="M301.982 263.883V264.376C300.749 271.28 294.585 276.211 287.681 276.211H235.9C235.654 276.211 235.654 276.211 235.407 276.211H221.106C218.887 276.211 217.161 277.937 216.914 279.91V268.321C216.421 265.855 218.394 263.883 220.613 263.883H301.982Z" fill="#FEFEFE"/>
<path d="M318.256 179.555L301.982 264.376C300.749 271.28 294.585 276.211 287.681 276.211H235.9C235.654 276.211 235.654 276.211 235.407 276.211C235.161 274.978 235.161 273.499 235.407 272.266L251.681 187.198C252.667 182.267 257.106 178.568 262.037 178.568H314.064C315.543 178.568 317.023 179.061 318.256 179.555Z" fill="#FEFEFE"/>
<path d="M195.216 159.089H106.943C104.97 159.089 103.244 161.062 103.737 163.034L111.134 215.061C111.381 216.541 112.86 217.773 114.586 217.773H202.86C204.832 217.773 206.558 216.047 206.065 214.075L198.668 162.048C198.421 160.322 196.942 159.089 195.216 159.089Z" fill="#2E53A1"/>
<path d="M182.887 159.089H106.943C104.97 159.089 103.244 161.062 103.737 163.034L106.943 185.965C115.08 189.664 124.449 191.637 134.066 191.637C159.463 191.637 174.504 178.075 182.887 159.089Z" fill="#426DB3"/>
<path d="M155.271 198.787H138.504C137.025 198.787 136.038 200.02 136.038 201.5L141.216 236.266C141.216 236.513 141.216 236.513 141.216 236.513L141.463 237.992C141.71 239.225 142.696 239.965 143.929 239.965H160.202L155.271 198.787Z" fill="#5881C0"/>
<path d="M179.682 237.499C179.682 236.266 178.449 235.28 177.216 235.28H164.641C162.668 235.28 161.189 233.801 160.942 232.075L157.243 204.952H159.463C160.942 204.952 161.928 203.719 161.682 202.239L161.435 200.76C161.435 199.774 160.449 198.787 159.216 198.787H154.778C152.805 198.787 151.326 200.513 151.572 202.486L156.011 237.006C156.257 238.732 157.737 239.965 159.463 239.965H177.216C178.695 239.965 179.682 238.979 179.682 237.499Z" fill="#2E53A1"/>
<path d="M170.558 210.376C170.558 211.116 169.819 211.856 169.079 211.856C168.093 211.856 167.353 211.116 167.353 210.376C167.353 209.39 168.093 208.897 169.079 208.897C169.819 208.897 170.558 209.39 170.558 210.376Z" fill="#5881C0"/>
<path d="M178.695 210.376C178.695 211.116 177.956 211.856 177.216 211.856C176.23 211.856 175.49 211.116 175.49 210.376C175.49 209.39 176.23 208.897 177.216 208.897C177.956 208.897 178.695 209.39 178.695 210.376Z" fill="#5881C0"/>
<path d="M185.846 210.376C185.846 211.116 185.106 211.856 184.12 211.856C183.38 211.856 182.641 211.116 182.641 210.376C182.641 209.39 183.38 208.897 184.12 208.897C185.106 208.897 185.846 209.39 185.846 210.376Z" fill="#5881C0"/>
<path d="M193.49 183.253L198.175 215.061C198.421 216.541 199.901 217.773 201.627 217.773H202.86C204.832 217.773 206.558 216.047 206.065 214.075L198.668 162.048C198.421 160.322 196.942 159.089 195.216 159.089H193.983C192.01 159.089 190.284 161.062 190.531 163.034L193.49 183.253Z" fill="#5881C0"/>
<path d="M160.202 164.76H129.381C128.641 164.76 127.901 165.5 128.148 166.24L128.395 167.472C128.395 168.212 128.888 168.705 129.627 168.705H160.449C161.189 168.705 161.682 167.966 161.682 167.226L161.435 165.993C161.189 165.253 160.696 164.76 160.202 164.76Z" fill="#5881C0"/>
<path d="M285.462 180.787C284.475 173.144 273.38 176.596 277.571 169.692C281.27 163.281 276.832 160.322 271.653 159.336C264.996 158.103 268.695 155.39 265.489 149.226C261.297 141.089 254.887 143.555 254.887 143.555C254.887 143.555 246.996 139.117 238.613 146.021C230.229 153.418 231.955 159.829 236.64 168.705C238.859 173.144 236.147 177.089 233.928 185.226C231.709 195.089 243.791 214.814 269.681 201.5C279.79 196.322 285.955 184.733 285.462 180.787Z" fill="#1E4589"/>
<path d="M249.462 182.76C249.462 182.76 245.517 183.253 241.571 187.198C238.859 189.911 225.544 216.294 225.544 216.294L213.215 178.815L204.339 179.555C204.339 179.555 214.448 239.965 222.339 239.965C229.736 239.965 253.16 201.006 253.16 201.006L249.462 182.76Z" fill="#EA5854"/>
<path d="M274.859 198.541L282.749 227.883L236.147 231.828L236.394 240.211C236.394 240.211 289.9 240.458 300.009 240.211C306.913 240.211 294.092 186.952 285.955 181.034C279.79 176.102 262.037 177.335 262.037 177.335L249.462 182.76C249.462 182.76 234.914 197.061 243.544 210.869C250.448 221.472 241.818 242.184 241.818 242.184L271.407 244.157L298.037 244.403L274.859 198.541Z" fill="#EA5854"/>
<path d="M245.27 231.088L246.75 230.842C248.476 223.691 248.722 214.321 245.024 209.636C237.873 200.76 245.27 187.445 249.462 182.76C248.722 183.5 235.161 197.554 243.544 210.869C247.736 217.034 246.75 225.417 245.27 231.088Z" fill="#E34944"/>
<path d="M236.394 233.801C231.462 233.801 226.284 235.527 223.818 238.486C223.079 239.225 223.572 240.212 224.558 240.212H236.394V233.801Z" fill="#F5B8A5"/>
<path d="M262.037 167.473V177.335L253.16 187.692V187.445L250.695 182.267V176.842C246.256 176.103 242.311 172.897 241.325 167.966L240.092 161.062C240.092 161.062 246.75 160.322 251.928 155.144C251.928 155.144 253.407 157.856 255.873 160.322C257.352 161.801 259.818 162.294 260.558 163.034C261.79 164.267 262.284 165.993 262.037 167.473Z" fill="#F5B8A5"/>
<path d="M259.571 158.842C259.571 158.842 259.325 154.651 257.599 151.199C255.873 147.007 253.407 142.322 247.982 142.322C247.982 142.322 260.804 140.349 263.023 158.103L259.571 158.842Z" fill="#E8494F"/>
<path d="M267.462 161.801C266.969 158.349 264.01 155.884 260.804 156.377C257.599 156.623 255.38 159.582 255.873 163.034C256.119 166.486 259.078 169.198 262.284 168.705C265.489 168.459 267.708 165.253 267.462 161.801Z" fill="#E8494F"/>
<path d="M263.27 168.212C260.311 168.459 257.352 165.993 257.106 162.788C256.859 159.582 258.585 156.87 261.297 156.13C261.297 156.13 261.051 156.13 260.804 156.377C257.599 156.623 255.38 159.582 255.873 163.034C256.119 166.486 259.078 169.198 262.284 168.705C263.27 168.705 264.01 168.212 264.996 167.719C264.503 167.966 263.763 168.212 263.27 168.212Z" fill="#CF3740"/>
<path d="M264.996 162.048C264.996 160.322 263.517 159.089 262.037 159.336C260.311 159.582 259.325 161.062 259.571 162.541C259.571 164.267 261.051 165.5 262.53 165.5C264.256 165.253 265.243 163.774 264.996 162.048Z" fill="#CF3740"/>
<path d="M259.078 172.651C258.832 173.144 256.613 175.609 254.887 177.089C254.147 177.582 253.9 178.568 253.9 179.308L253.161 187.445L250.695 182.267V176.842C250.695 176.842 256.366 175.856 259.078 172.651Z" fill="#F1947B"/>
<path d="M255.38 172.157L255.133 171.664C258.339 170.925 260.804 166.733 260.804 166.733L261.297 166.979C261.297 166.979 258.832 171.418 255.38 172.157Z" fill="#E8494F"/>
<path d="M255.873 171.911C255.873 171.171 255.133 170.925 254.147 171.171C253.16 171.418 252.421 171.911 252.667 172.404C252.667 172.897 253.407 173.144 254.393 173.144C255.379 172.897 255.873 172.404 255.873 171.911Z" fill="#E8494F"/>
<path d="M212.476 179.061C212.476 179.061 213.709 168.705 212.722 168.212C211.489 167.966 210.257 172.404 210.257 172.404C210.257 172.404 205.572 163.034 202.12 164.02C198.914 165.007 205.079 179.308 205.079 179.308L212.476 179.061Z" fill="#F5B8A5"/>
<path d="M245.27 231.088L281.763 227.883C282.996 227.883 283.982 226.65 283.735 225.417C282.256 218.513 278.311 199.034 278.064 199.527C277.818 200.267 281.763 222.705 277.078 224.924C273.872 226.403 245.27 231.088 245.27 231.088Z" fill="#E34944"/>
<path d="M269.927 339.087C269.681 339.334 269.434 339.334 269.434 339.58C266.968 343.033 264.996 343.772 260.804 344.265C260.558 344.265 260.311 344.265 260.064 344.512C260.311 344.019 261.79 341.8 260.804 339.827C259.818 337.608 258.585 335.882 258.585 335.882L264.503 332.43C264.503 332.43 268.201 336.622 269.927 339.087Z" fill="#F5B8A5"/>
<path d="M274.366 346.731C273.379 347.717 256.366 357.087 252.421 359.553C251.928 359.799 250.941 360.293 250.695 359.799C250.448 358.813 257.845 344.759 260.804 344.265C264.996 343.772 266.969 343.033 269.434 339.58C269.927 339.087 270.914 339.087 271.407 339.58C272.886 342.046 275.352 345.991 274.366 346.731Z" fill="#1E4589"/>
<path d="M242.065 242.184C242.065 242.184 200.64 261.417 199.654 274.732C198.668 286.567 259.571 340.567 259.571 340.567L269.188 336.622L235.654 282.869C235.654 282.869 271.16 265.362 279.79 244.403L242.065 242.184Z" fill="#1E4589"/>
<path d="M215.681 271.28C212.723 276.704 210.75 284.102 209.271 291.006C213.955 296.43 219.873 302.841 226.037 309.005C221.599 291.006 217.407 273.252 218.887 270.787C221.599 265.855 239.106 252.787 251.434 246.376C251.434 246.376 222.092 258.705 215.681 271.28Z" fill="#253B6D"/>
<path d="M245.763 350.183C245.517 350.183 245.024 350.183 244.777 350.43C241.325 352.156 239.106 351.663 235.161 350.183C234.914 350.183 234.667 349.937 234.421 349.937C234.914 349.69 237.133 348.457 237.38 346.238C237.626 343.772 237.38 341.8 237.38 341.8L244.284 341.553C244.284 341.553 245.27 346.978 245.763 350.183Z" fill="#F5B8A5"/>
<path d="M245.763 359.553C244.53 360.046 224.311 359.799 219.626 359.799C219.133 359.799 218.64 359.306 218.64 358.813C218.887 357.827 232.202 348.95 235.161 350.183C239.106 351.663 241.325 352.156 244.777 350.43C245.517 349.937 246.503 350.43 246.503 351.416C246.749 354.375 246.996 359.306 245.763 359.553Z" fill="#1E4589"/>
<path d="M297.79 244.157C297.79 244.157 301.242 267.581 280.283 273.499C263.763 278.184 246.01 280.65 246.01 280.65L247.243 346.978H236.147C236.147 346.978 215.928 275.965 218.887 270.787C222.092 264.622 247.982 246.376 258.832 243.17L297.79 244.157Z" fill="#2E53A1"/>
<path d="M297.79 244.157L284.722 243.91L297.79 244.157Z" fill="#DB514D"/>
<path d="M247.243 346.978H244.531L237.38 275.225C268.202 273.006 281.023 252.294 284.722 243.91L297.79 244.157C297.79 244.157 298.037 245.636 298.037 247.855C298.037 254.759 296.064 269.061 280.284 273.499C280.037 273.499 279.79 273.745 279.544 273.745C263.27 278.184 246.01 280.65 246.01 280.65L247.243 346.978Z" fill="#27499A"/>
<path d="M109.408 360.046H104.97L124.203 244.65H128.641L109.408 360.046Z" fill="#FEFEFE"/>
<path d="M299.763 360.046H304.694L280.777 243.17L275.845 243.417L299.763 360.046Z" fill="#FEFEFE"/>
<path d="M127.408 250.814L128.641 244.65H124.203L122.723 250.814H127.408Z" fill="#ECF3FA"/>
<path d="M282.256 250.814L280.777 243.17L275.845 243.417L277.571 250.814H282.256Z" fill="#ECF3FA"/>
<path d="M308.886 240.212H100.532C99.2988 240.212 98.3125 241.198 98.3125 242.431C98.3125 243.664 99.2988 244.896 100.532 244.896H308.886C310.119 244.896 311.105 243.664 311.105 242.431C311.105 241.198 310.119 240.212 308.886 240.212Z" fill="#FEFEFE"/>
<path d="M226.53 137.884L221.106 106.076C220.859 104.596 219.626 103.61 218.147 103.61L167.106 104.103C165.134 104.103 163.901 105.583 164.147 107.555L168.832 135.418L171.298 151.199C171.545 151.938 172.531 152.185 173.024 151.445L179.435 141.829L223.572 141.336C225.298 141.336 226.777 139.61 226.53 137.884Z" fill="#2E53A1"/>
<path d="M208.284 113.473H178.695C178.202 113.473 177.956 113.72 177.956 114.213L178.202 115.199C178.202 115.692 178.449 115.939 178.942 115.939H208.531C209.024 115.939 209.517 115.446 209.27 114.952V113.966C209.024 113.72 208.777 113.473 208.284 113.473Z" fill="#FEFEFE"/>
<path d="M209.27 121.117H179.928C179.188 121.117 178.942 121.61 178.942 122.103L179.188 123.089C179.188 123.336 179.435 123.829 179.928 123.829H209.517C210.01 123.829 210.503 123.336 210.257 122.843V121.856C210.257 121.61 209.764 121.117 209.27 121.117Z" fill="#FEFEFE"/>
<path d="M202.366 129.747H188.558C188.065 129.747 187.819 130.24 187.819 130.733L188.065 131.473C188.065 131.966 188.312 132.213 188.805 132.213H202.366C203.106 132.213 203.353 131.719 203.353 131.226L203.106 130.487C203.106 129.993 202.86 129.747 202.366 129.747Z" fill="#FEFEFE"/>
<path d="M433.899 87.5828L440.556 57.5009C441.049 56.268 440.31 55.2817 438.83 55.2817L390.748 55.7749C389.022 55.7749 387.05 57.2543 386.557 58.9803L380.639 85.1171L376.94 99.9115C376.694 100.898 377.68 100.898 378.42 100.405L388.283 91.0348L429.707 90.7883C431.433 90.7883 433.405 89.0622 433.899 87.5828Z" fill="#F8BF83"/>
<path d="M425.269 64.8981H398.885C398.392 64.8981 397.899 65.3912 397.652 65.6378V66.6241C397.406 66.8707 397.652 67.1172 398.146 67.1172H424.529C425.022 67.1172 425.515 66.6241 425.515 66.3775L425.762 65.6378C425.762 65.1446 425.515 64.8981 425.269 64.8981Z" fill="#FEFEFE"/>
<path d="M423.296 71.8021H396.913C396.419 71.8021 395.926 72.2953 395.926 72.7884L395.68 73.5281C395.433 74.0213 395.68 74.2679 396.173 74.2679H422.556C423.049 74.2679 423.542 73.7747 423.542 73.2816L423.789 72.5418C424.036 72.2953 423.789 71.8021 423.296 71.8021Z" fill="#FEFEFE"/>
<path d="M413.926 79.4459L401.844 79.6925C401.351 79.6925 400.858 79.9391 400.611 80.4322L400.365 81.1719C400.365 81.6651 400.611 81.9117 400.858 81.9117H413.186C413.679 81.9117 414.173 81.4185 414.173 80.9254L414.419 80.1856C414.666 79.6925 414.419 79.4459 413.926 79.4459Z" fill="#FEFEFE"/>
<path d="M159.216 137.637C159.956 138.13 160.942 137.637 160.696 136.651L154.038 98.9252C154.038 97.6923 152.805 96.7061 151.572 96.7061L108.422 97.1992C106.696 97.1992 105.71 98.6786 105.71 100.158L110.395 127.281C110.641 128.514 111.627 129.254 113.107 129.254L146.394 129.007C147.874 129.007 149.353 129.5 150.586 130.487L159.216 137.637Z" fill="#EA5854"/>
<path d="M145.655 108.048H116.066C115.573 108.048 115.326 108.541 115.326 109.035L115.573 110.021C115.573 110.267 115.819 110.761 116.312 110.761H145.901C146.394 110.761 146.641 110.267 146.641 109.774V108.788C146.394 108.541 146.148 108.048 145.655 108.048Z" fill="#FEFEFE"/>
<path d="M146.641 115.939H117.052C116.559 115.939 116.312 116.432 116.312 116.925L116.559 117.911C116.559 118.158 116.806 118.404 117.299 118.404H146.888C147.381 118.404 147.627 118.158 147.627 117.665V116.678C147.381 116.185 147.134 115.939 146.641 115.939Z" fill="#FEFEFE"/>
<path d="M387.543 200.513L387.296 206.431L383.844 344.512H369.543L356.968 226.403L340.94 266.102L351.79 344.512H346.612H337.982C337.982 344.512 311.845 266.348 312.338 261.417C312.831 256.239 332.31 201.006 332.31 201.006L387.543 200.513Z" fill="#2E53A1"/>
<path d="M389.022 115.199L362.146 111.5H361.653H348.831H348.584L333.297 115.446V201.253H389.022V115.199Z" fill="#F4A351"/>
<path d="M434.638 131.966C434.638 131.966 436.611 119.884 438.09 119.637C439.57 119.637 439.323 125.062 439.323 125.062C439.323 125.062 447.953 115.939 451.159 118.158C454.611 120.377 443.022 134.678 443.022 134.678L434.638 131.966Z" fill="#F5B8A5"/>
<path d="M348.831 111.5L350.31 206.431H330.091L328.858 180.541L302.228 180.048C299.516 180.294 297.297 177.582 298.283 174.87L311.352 129.007C312.831 123.582 317.269 119.391 322.694 118.158L348.584 111.5H348.831Z" fill="#F4A351"/>
<path d="M444.008 135.171L418.118 188.185C416.638 191.143 412.447 191.143 410.721 188.185L390.502 154.897L389.515 206.431H368.064L362.146 111.5L389.269 115.199C394.447 116.185 398.885 119.391 401.104 124.076L414.912 152.431C415.159 153.171 416.145 153.171 416.638 152.678L434.145 131.719L444.008 135.171Z" fill="#F4A351"/>
<path d="M328.612 180.787H354.749L354.995 167.473L328.858 166.979L328.612 180.787Z" fill="#F4A351"/>
<path d="M354.995 177.089C362.146 176.842 370.036 174.13 373.735 169.938C374.721 168.952 373.981 167.472 372.748 167.472H354.749L354.995 177.089Z" fill="#F5B8A5"/>
<path d="M383.844 344.512H382.858L373.241 206.431H387.296L383.844 344.512Z" fill="#234190"/>
<path d="M353.762 167.473H349.571V166.733C352.529 166.979 354.502 167.226 354.995 167.473C354.995 167.473 354.502 167.473 353.762 167.473Z" fill="#A4556F"/>
<path d="M320.968 169.445C320.228 169.445 319.735 169.445 319.735 169.199L325.899 147.993L326.146 148.486L326.639 163.281C326.639 164.76 341.434 165.993 349.57 166.733V167.472L328.858 166.979V168.952C325.406 169.199 322.694 169.445 320.968 169.445Z" fill="#3E68B0"/>
<path d="M328.858 168.952V166.979L349.571 167.473H353.762C350.064 167.719 337.735 168.459 328.858 168.952Z" fill="#3E68B0"/>
<path d="M414.419 190.404C415.899 190.404 417.378 189.664 418.118 188.185C417.378 189.664 415.899 190.404 414.419 190.404ZM418.118 188.185L429.214 165.5L418.118 188.185Z" fill="#7899CF"/>
<path d="M339.461 344.512C336.502 350.676 321.708 353.882 321.708 353.882C321.708 353.882 320.721 355.854 322.448 358.073C324.174 360.539 339.461 359.06 341.434 358.567C343.406 358.073 344.639 356.594 344.639 356.594C344.639 356.594 345.872 358.073 346.612 358.32C347.351 358.567 351.297 357.827 351.297 357.827C352.283 355.361 351.297 345.745 351.05 344.265L339.461 344.512Z" fill="#1E4589"/>
<path d="M382.365 344.512C385.57 350.676 400.118 353.882 400.118 353.882C400.118 353.882 401.104 355.854 399.625 358.073C397.899 360.539 382.611 359.06 380.639 358.567C378.666 358.073 377.433 356.594 377.433 356.594C377.433 356.594 375.954 358.073 375.214 358.32C374.475 358.567 370.776 357.827 370.776 357.827C369.79 355.361 370.776 345.745 371.023 344.265L382.365 344.512Z" fill="#1E4589"/>
<path d="M351.05 344.512V344.265H346.612C343.16 327.252 332.064 271.28 332.31 267.828C332.804 263.636 356.228 227.636 356.968 226.403L340.94 266.102L351.79 344.512H351.05Z" fill="#234190"/>
<path d="M346.612 344.512C346.612 344.512 346.612 344.512 346.612 344.265H351.05V344.512H346.612Z" fill="#263C74"/>
<path fill-rule="evenodd" clip-rule="evenodd" d="M362.146 111.747C360.173 113.226 355.488 116.432 355.488 116.432C355.488 116.432 350.803 113.226 348.831 111.747V100.405H362.146V111.747Z" fill="#F5B8A5"/>
<path fill-rule="evenodd" clip-rule="evenodd" d="M362.146 100.405V105.09C358.201 108.295 352.529 108.295 348.831 105.09V100.405H362.146Z" fill="#F5B8A5"/>
<path fill-rule="evenodd" clip-rule="evenodd" d="M340.447 93.0074H370.529L371.022 84.624C377.68 81.9116 372.748 65.8844 372.748 65.8844C373.241 69.8296 362.885 69.8296 358.694 69.3364C354.502 68.5967 351.79 70.3227 351.79 70.3227C351.79 70.3227 338.721 67.6104 339.461 85.8568C339.707 88.5691 339.954 90.7883 340.447 93.0074Z" fill="#1E4589"/>
<path fill-rule="evenodd" clip-rule="evenodd" d="M367.57 84.6239V92.2677C367.57 95.4731 366.091 98.432 363.872 100.651C363.379 101.144 363.132 101.391 362.639 101.884C358.447 105.583 352.283 105.583 348.091 101.884L347.105 100.651C344.639 98.432 343.406 95.4731 343.406 92.2677V86.3499C343.406 86.3499 346.858 84.1308 351.543 78.4596C351.543 78.4596 356.968 83.3911 367.57 84.6239Z" fill="#F5B8A5"/>
<path fill-rule="evenodd" clip-rule="evenodd" d="M362.146 102.131V105.089C358.201 108.295 352.529 108.295 348.831 105.089V102.377C352.529 105.336 358.201 105.336 362.146 102.131Z" fill="#F1947B"/>
<path fill-rule="evenodd" clip-rule="evenodd" d="M346.365 93.9938C348.584 90.0486 344.639 86.1034 340.94 88.5692C340.694 88.8157 340.447 89.0623 340.201 89.3089C337.982 93.0075 341.927 96.9526 345.625 94.7335C345.872 94.4869 346.118 94.2403 346.365 93.9938Z" fill="#F5B8A5"/>
<path fill-rule="evenodd" clip-rule="evenodd" d="M370.283 93.9938C372.748 90.2952 368.803 86.35 365.351 88.3226C364.858 88.5692 364.365 89.0623 364.118 89.5555C362.146 93.2541 365.844 96.9527 369.543 94.7335C369.789 94.4869 370.283 94.2404 370.283 93.9938Z" fill="#F5B8A5"/>
<path d="M370.283 85.8568H369.05V81.9116C369.05 75.5007 363.132 70.0761 355.735 70.0761H355.242C347.844 70.0761 341.68 75.5007 341.68 81.9116V85.8568H340.694V81.9116C340.694 74.761 347.105 68.8433 355.242 68.8433H355.735C363.625 68.8433 370.283 74.761 370.283 81.9116V85.8568Z" fill="#AC282C"/>
<path d="M369.296 83.8843C367.57 83.8843 366.091 85.3637 366.091 87.0897V92.7609C366.091 94.4869 367.57 95.9664 369.296 95.9664C371.022 95.9664 372.502 94.4869 372.502 92.7609V87.0897C372.502 85.3637 371.022 83.8843 369.296 83.8843Z" fill="#EA5854"/>
<path d="M369.296 83.8843C369.05 83.8843 368.557 83.8843 368.31 83.8843C369.543 84.3774 370.529 85.6103 370.529 87.0897V92.7609C370.529 94.2403 369.543 95.4732 368.31 95.9664C368.557 95.9664 369.05 95.9664 369.296 95.9664C371.022 95.9664 372.502 94.4869 372.502 92.7609V87.0897C372.502 85.3637 371.022 83.8843 369.296 83.8843Z" fill="#CF3740"/>
<path d="M341.68 83.8843C339.707 83.8843 338.475 85.3637 338.475 87.0897V92.7609C338.475 94.4869 339.707 95.9664 341.68 95.9664C343.406 95.9664 344.886 94.4869 344.886 92.7609V87.0897C344.886 85.3637 343.406 83.8843 341.68 83.8843Z" fill="#EA5854"/>
<path d="M341.68 83.8843C341.187 83.8843 340.94 83.8843 340.694 83.8843C341.927 84.3774 342.913 85.6103 342.913 87.0897V92.7609C342.913 94.2403 341.927 95.4732 340.694 95.9664C340.94 95.9664 341.187 95.9664 341.68 95.9664C343.406 95.9664 344.886 94.4869 344.886 92.7609V87.0897C344.886 85.3637 343.406 83.8843 341.68 83.8843Z" fill="#CF3740"/>
<path d="M360.666 99.6648L360.42 98.9251C364.118 98.6785 367.324 94.2402 367.324 94.2402L367.817 94.4868C367.817 94.7334 364.611 99.4183 360.666 99.6648Z" fill="#E8494F"/>
<path d="M361.16 99.4183C361.16 98.6786 360.42 98.432 359.434 98.432C358.201 98.432 357.461 98.9252 357.461 99.6649C357.461 100.158 358.447 100.651 359.434 100.651C360.42 100.405 361.406 99.9114 361.16 99.4183Z" fill="#E8494F"/>
<path d="M376.447 128.267H329.845C327.379 128.267 325.406 130.487 325.406 133.199L326.639 163.281C326.639 165.5 328.858 167.473 331.077 167.473H375.214C377.68 167.473 379.652 165.5 379.652 163.281L380.885 133.199C381.132 130.487 379.159 128.267 376.447 128.267Z" fill="#1E4589"/>
<path d="M376.447 128.267H329.845C328.612 128.267 327.379 128.761 326.639 129.747C326.886 129.5 327.379 129.5 327.872 129.5H374.474C377.187 129.5 379.159 131.719 378.913 134.432L377.68 164.514C377.68 165.5 377.187 166.486 376.447 167.226C378.173 166.733 379.652 165.253 379.652 163.281L380.885 133.199C381.132 130.487 379.159 128.267 376.447 128.267Z" fill="#2E53A1"/>
<path d="M358.201 148.733C358.201 145.774 355.735 143.308 352.776 143.308C349.817 143.308 347.598 145.774 347.598 148.733C347.598 151.692 349.817 153.911 352.776 153.911C355.735 153.911 358.201 151.692 358.201 148.733Z" fill="#5881C0"/>
</svg>
