<svg width="auto" height="auto" viewBox="0 0 507 507" fill="none" xmlns="http://www.w3.org/2000/svg">
<g clip-path="url(#clip0)">
<path d="M9.52173 168.39C16.5676 168.39 23.4231 168.39 30.2786 168.39C42.6565 168.39 55.0344 168.39 67.2219 168.39C76.3625 168.39 79.0285 168.2 88.1692 168.39C88.3596 162.868 86.6457 157.535 83.9797 154.679C81.885 152.394 78.0764 151.251 75.0295 152.013C71.0305 152.965 68.3645 155.631 65.8889 157.535C64.9367 149.918 61.8899 142.872 58.4621 141.349C52.5588 138.683 46.4651 142.872 43.6086 146.871C41.3235 150.299 40.1809 154.298 39.6096 158.297C35.9914 154.298 27.6125 151.061 24.7561 157.535C23.6135 160.011 23.6135 163.058 23.804 165.724C18.8528 164.581 13.5208 165.534 9.52173 168.39Z" fill="#D1DDF9" fill-opacity="0.45098"/>
<path d="M433.99 118.688C432.847 114.118 422.374 107.453 416.851 111.452C415.137 102.882 413.423 97.5502 407.901 93.3608C402.188 88.9809 392.857 94.5034 391.334 106.12C389.81 101.359 382.193 95.0746 376.099 100.407C370.386 105.358 369.815 113.737 370.386 118.688H433.99Z" fill="#D1DDF9" fill-opacity="0.45098"/>
<path d="M507.115 178.673C505.401 174.484 501.973 172.199 498.164 171.627C493.213 171.056 488.262 173.913 488.262 173.913C488.262 173.913 490.166 166.867 487.691 161.344C485.977 157.536 483.311 153.917 479.502 152.965C475.503 152.013 471.504 153.917 468.648 156.964C465.601 160.011 463.697 164.01 462.173 168.009C461.221 165.153 460.078 161.915 457.603 160.963C454.937 159.821 451.89 161.725 450.557 164.391C449.033 167.057 449.033 170.294 449.224 173.341C446.177 171.627 442.368 171.056 439.131 172.77C437.227 174.103 435.894 176.388 435.513 178.673H507.115Z" fill="#D1DDF9" fill-opacity="0.45098"/>
<path d="M153.487 275.221C137.491 269.699 123.399 259.035 113.116 245.704C102.642 232.374 90.8355 203.048 92.9302 178.292C139.014 192.003 157.867 234.85 160.533 260.939L153.487 275.221Z" fill="#D1DDF9"/>
<path d="M92.9302 178.292C92.9302 178.292 100.547 237.707 153.868 270.651" stroke="white" stroke-width="6.2504"/>
<path d="M92.9302 178.292C92.9302 178.292 124.351 234.66 158.819 269.127" stroke="white" stroke-width="6.2504"/>
<path d="M92.9302 178.292C92.9302 178.292 139.395 215.236 161.104 265.7" stroke="white" stroke-width="6.2504"/>
<path d="M153.678 373.483C135.396 380.338 115.211 380.529 96.5487 375.577C77.6961 370.626 46.6561 351.202 31.0409 326.066C75.6014 310.831 129.112 331.398 149.869 354.249L153.678 373.483Z" fill="#D1DDF9"/>
<path d="M31.0404 326.066C31.0404 326.066 79.7904 377.482 150.821 368.722" stroke="white" stroke-width="6.2504" stroke-linejoin="round"/>
<path d="M31.0404 326.066C31.0404 326.066 99.0238 356.534 154.248 363.39" stroke="white" stroke-width="6.2504" stroke-linejoin="round"/>
<path d="M31.0404 326.066C31.0404 326.066 98.8333 326.447 153.867 358.629" stroke="white" stroke-width="6.2504" stroke-linejoin="round"/>
<path d="M170.625 248.371C155.2 236.754 144.346 220.187 138.252 202.096C132.349 183.815 131.587 147.633 144.155 121.164C180.718 150.109 192.334 205.524 184.717 235.04L170.625 248.371Z" fill="#E8F0FF"/>
<path d="M144.155 121.164C144.155 121.164 127.778 189.147 173.1 243.419" stroke="white" stroke-width="6.2504" stroke-linejoin="round"/>
<path d="M144.155 121.164C144.155 121.164 155.39 193.908 179.385 243.419" stroke="white" stroke-width="6.2504" stroke-linejoin="round"/>
<path d="M144.155 121.164C144.155 121.164 180.337 177.531 183.193 240.563" stroke="white" stroke-width="6.2504" stroke-linejoin="round"/>
<path d="M310.782 239.801C326.206 236.754 340.679 228.756 352.105 217.711C363.531 206.666 378.384 181.149 379.717 157.916C335.157 164.581 312.115 201.715 306.021 225.519L310.782 239.801Z" fill="#D1DDF9"/>
<path d="M379.717 157.916C379.717 157.916 364.864 211.998 310.972 235.421" stroke="white" stroke-width="6.2504" stroke-linejoin="round"/>
<path d="M379.717 157.916C379.717 157.916 342.964 206.095 306.401 233.326" stroke="white" stroke-width="6.2504" stroke-linejoin="round"/>
<path d="M379.717 157.916C379.717 157.916 331.729 185.909 304.878 230.089" stroke="white" stroke-width="6.2504" stroke-linejoin="round"/>
<path d="M354.39 365.675C377.051 370.055 401.045 366.627 422.564 357.867C443.892 349.108 477.788 322.067 492.071 291.408C427.896 276.364 376.48 314.64 355.532 343.776L354.39 365.675Z" fill="#D1DDF9"/>
<path d="M492.07 291.407C492.07 291.407 442.749 356.915 356.865 359.962" stroke="white" stroke-width="6.2504" stroke-linejoin="round"/>
<path d="M492.071 291.407C492.071 291.407 424.468 336.539 355.342 349.298" stroke="white" stroke-width="6.2504" stroke-linejoin="round"/>
<path d="M492.071 291.407C492.071 291.407 411.709 303.785 351.724 349.298" stroke="white" stroke-width="6.2504" stroke-linejoin="round"/>
<path d="M290.596 233.707C310.21 225.328 326.206 210.284 337.441 192.003C348.486 173.912 358.579 135.065 351.724 103.263C304.878 124.972 278.027 181.91 278.98 215.807L290.596 233.707Z" fill="#E8F0FF"/>
<path d="M351.724 103.263C351.724 103.263 352.105 180.768 289.263 227.804" stroke="white" stroke-width="6.2504" stroke-linejoin="round"/>
<path d="M351.724 103.263C351.724 103.263 320.874 178.864 282.598 226.09" stroke="white" stroke-width="6.2504" stroke-linejoin="round"/>
<path d="M351.724 103.263C351.724 103.263 298.404 154.87 279.17 222.091" stroke="white" stroke-width="6.2504" stroke-linejoin="round"/>
<path d="M150.439 343.585C139.775 345.299 121.685 347.775 111.782 340.919C106.26 337.301 105.308 330.446 103.022 324.542C99.4043 314.259 91.7871 308.165 81.6943 306.451C77.6953 305.69 73.3154 303.976 71.4111 299.977C68.5547 294.264 72.1728 287.028 69.8877 280.934C68.5547 277.697 65.8887 275.411 63.6035 272.936C58.2715 266.652 56.9385 257.511 56.9385 257.511C56.9385 257.511 63.4131 259.415 70.6494 257.321C75.4101 255.797 80.3613 254.845 85.3125 255.607C89.1211 256.178 91.9775 258.273 94.6435 261.32C97.5 264.938 100.166 267.604 104.355 269.127C111.02 271.412 127.397 265.89 129.302 275.411C129.873 277.887 129.111 280.743 130.444 283.219C132.539 287.599 137.871 285.314 141.299 286.456C146.821 288.17 152.915 292.169 155.2 297.311C160.913 309.689 160.532 326.637 157.485 339.967L150.439 343.585Z" fill="#E8F0FF"/>
<path d="M57.7003 257.701C75.6007 276.935 102.642 284.362 120.161 304.166C125.303 310.07 129.492 316.925 134.443 323.209C139.395 329.493 145.488 335.206 152.725 337.491" stroke="white" stroke-width="6.2504" stroke-linejoin="round"/>
<path d="M70.0776 294.645C79.4087 295.787 93.6909 295.597 107.783 292.931C107.783 292.931 104.355 274.65 101.499 267.794" stroke="white" stroke-width="6.2504" stroke-linejoin="round"/>
<path d="M70.4587 288.741C80.7419 289.503 89.3113 288.741 101.308 288.36" stroke="white" stroke-width="6.2504" stroke-linejoin="round"/>
<path d="M68.9354 279.41C68.9354 279.41 77.6952 279.791 85.6932 278.649" stroke="white" stroke-width="6.2504" stroke-linejoin="round"/>
<path d="M60.3662 267.604C60.3662 267.794 63.0322 268.175 69.3164 267.985" stroke="white" stroke-width="6.2504" stroke-linejoin="round"/>
<path d="M82.0752 276.554C82.0752 276.554 77.8857 263.605 74.6484 256.178" stroke="white" stroke-width="6.2504" stroke-linejoin="round"/>
<path d="M98.8326 286.647C98.8326 286.647 94.8336 266.271 90.8346 257.701" stroke="white" stroke-width="6.2504" stroke-linejoin="round"/>
<path d="M90.8346 309.498C91.2155 309.689 108.735 311.022 123.208 307.784" stroke="white" stroke-width="6.2504" stroke-linejoin="round"/>
<path d="M118.828 302.643C118.828 302.643 117.114 280.934 114.258 269.698" stroke="white" stroke-width="6.2504" stroke-linejoin="round"/>
<path d="M132.92 283.79C134.824 297.311 135.205 323.971 135.205 323.971C135.205 323.971 112.544 327.018 103.022 324.542" stroke="white" stroke-width="6.2504" stroke-linejoin="round"/>
<path d="M144.917 333.492C144.917 333.492 145.678 303.214 143.965 287.408" stroke="white" stroke-width="6.2504" stroke-linejoin="round"/>
<path d="M104.737 330.446C104.737 330.446 123.018 333.112 138.443 327.78" stroke="white" stroke-width="6.2504" stroke-linejoin="round"/>
<path d="M148.726 335.968C148.726 335.968 153.867 311.974 150.059 291.027" stroke="white" stroke-width="6.2504" stroke-linejoin="round"/>
<path d="M296.69 213.712C301.641 201.144 309.449 188.766 304.688 175.055C302.022 167.438 293.833 164.201 287.549 160.202C276.885 153.156 272.124 142.301 272.886 129.733C273.267 124.591 272.315 119.069 268.506 115.641C262.793 110.88 253.272 113.165 247.178 108.976C243.75 106.691 242.036 102.882 239.561 99.4545C234.038 91.4564 223.946 87.4574 223.946 87.4574C223.946 87.4574 224.517 95.8363 219.947 104.215C216.9 109.547 214.424 115.451 214.043 121.544C213.662 126.305 215.186 130.304 217.852 134.113C221.089 138.683 223.565 142.301 224.136 148.014C224.898 156.583 213.853 175.245 224.326 179.816C227.183 180.958 230.42 180.958 232.896 183.053C237.276 186.671 233.277 192.575 233.658 197.145C234.038 204.191 236.895 212.57 242.036 216.759C254.605 226.471 274.029 230.47 290.025 229.899L296.69 213.712Z" fill="#E8F0FF"/>
<path d="M223.946 88.4094C241.085 114.879 241.846 149.728 259.556 175.817C264.888 183.624 271.553 190.48 277.266 197.906C282.979 205.524 287.93 214.093 288.692 223.614" stroke="white" stroke-width="6.2504" stroke-linejoin="round"/>
<path d="M250.225 157.916C250.225 157.916 230.42 149.347 223.374 144.015" stroke="white" stroke-width="6.2504" stroke-linejoin="round"/>
<path d="M255.748 111.642C253.843 124.21 250.606 134.494 246.797 148.966" stroke="white" stroke-width="6.2504" stroke-linejoin="round"/>
<path d="M245.655 107.452C245.655 107.452 243.56 118.117 240.132 127.638" stroke="white" stroke-width="6.2504" stroke-linejoin="round"/>
<path d="M234.61 94.1224C234.8 94.1224 234.42 97.5501 232.515 105.167" stroke="white" stroke-width="6.2504" stroke-linejoin="round"/>
<path d="M238.609 122.687C238.609 122.877 225.088 114.498 217.662 108.785" stroke="white" stroke-width="6.2504" stroke-linejoin="round"/>
<path d="M245.655 145.729C245.655 145.538 223.565 135.636 214.996 128.59" stroke="white" stroke-width="6.2504" stroke-linejoin="round"/>
<path d="M272.505 122.687C270.41 130.114 266.792 148.966 255.747 168.009" stroke="white" stroke-width="6.2504" stroke-linejoin="round"/>
<path d="M258.223 173.912C258.223 173.912 233.848 166.295 222.042 160.011" stroke="white" stroke-width="6.2504" stroke-linejoin="round"/>
<path d="M286.216 213.141C286.216 213.141 251.558 206.666 234.038 200.573" stroke="white" stroke-width="6.2504" stroke-linejoin="round"/>
<path d="M293.833 163.629C293.833 163.629 291.739 186.481 281.455 204" stroke="white" stroke-width="6.2504" stroke-linejoin="round"/>
<path d="M366.577 322.828C380.288 320.162 395.713 320.353 405.235 308.356C410.376 301.691 408.853 292.741 409.043 284.933C409.234 271.412 416.089 261.32 427.896 254.845C432.466 252.369 437.036 248.37 437.798 243.229C438.941 235.421 431.514 228.375 431.895 220.568C432.085 216.188 434.37 212.379 436.084 208.571C440.083 199.049 437.989 188.004 437.989 188.004C437.989 188.004 430.943 193.146 421.04 193.527C414.566 193.908 407.901 195.05 402.188 198.097C397.808 200.382 395.142 204 393.238 208.571C390.952 213.903 389.048 218.092 384.287 221.71C377.051 227.233 354.58 227.804 356.294 239.611C356.675 242.848 358.579 245.704 358.199 249.132C357.246 255.035 350.01 254.845 346.011 257.511C339.917 261.891 334.204 269.127 333.443 275.983C331.538 292.55 338.965 311.974 348.296 326.066L366.577 322.828Z" fill="#E8F0FF"/>
<path d="M437.227 188.385C423.135 218.473 392.666 238.468 379.526 268.747C375.527 277.887 373.052 287.599 369.624 296.93C366.006 306.261 361.055 315.402 353.247 321.305" stroke="white" stroke-width="6.2504" stroke-linejoin="round"/>
<path d="M437.226 236.373C426.181 241.705 408.471 247.418 390 250.465C390 250.465 386.762 228.185 387.524 218.854" stroke="white" stroke-width="6.2504" stroke-linejoin="round"/>
<path d="M434.37 229.708C421.992 234.85 411.137 237.897 396.093 242.467" stroke="white" stroke-width="6.2504" stroke-linejoin="round"/>
<path d="M432.466 218.282C432.466 218.282 421.802 222.472 411.518 224.567" stroke="white" stroke-width="6.2504" stroke-linejoin="round"/>
<path d="M438.178 201.144C438.178 201.334 434.941 202.858 427.134 205.524" stroke="white" stroke-width="6.2504" stroke-linejoin="round"/>
<path d="M414.946 220.568C414.946 220.758 414.565 204 415.708 194.288" stroke="white" stroke-width="6.2504" stroke-linejoin="round"/>
<path d="M398.379 239.611C398.569 239.611 395.142 214.283 396.475 202.858" stroke="white" stroke-width="6.2504" stroke-linejoin="round"/>
<path d="M417.803 262.462C417.613 262.843 396.284 271.793 377.241 274.459" stroke="white" stroke-width="6.2504" stroke-linejoin="round"/>
<path d="M380.478 266.652C380.478 266.652 373.623 240.753 372.48 226.661" stroke="white" stroke-width="6.2504" stroke-linejoin="round"/>
<path d="M355.342 250.846C358.389 267.223 369.053 298.073 369.053 298.073C369.053 298.073 398.379 291.979 409.043 284.933" stroke="white" stroke-width="6.2504" stroke-linejoin="round"/>
<path d="M361.055 313.117C361.055 313.117 347.534 278.839 343.154 259.796" stroke="white" stroke-width="6.2504" stroke-linejoin="round"/>
<path d="M409.423 292.55C409.423 292.55 387.905 303.405 366.577 303.786" stroke="white" stroke-width="6.2504" stroke-linejoin="round"/>
<path d="M357.437 317.496C357.437 317.496 341.06 292.36 337.061 266.652" stroke="white" stroke-width="6.2504" stroke-linejoin="round"/>
<path d="M310.591 266.652C312.495 270.46 320.113 287.218 322.017 291.027C315.923 293.121 310.21 295.597 304.307 297.882C301.641 301.31 307.354 294.454 307.735 290.836L310.591 266.652Z" fill="#F677BA"/>
<path d="M323.73 296.549L320.303 297.692C320.112 297.501 319.922 296.359 319.541 296.168C318.97 296.359 317.637 296.93 317.446 297.12C317.256 297.12 317.256 297.501 317.065 298.073C316.875 298.644 316.494 299.025 315.923 299.215L302.212 303.976C300.498 304.547 299.546 302.643 301.069 300.929C302.402 299.406 305.259 296.359 305.449 296.168C310.972 294.835 319.731 290.836 320.683 288.17C322.588 289.313 323.73 296.549 323.73 296.549Z" fill="#0A0A3A"/>
<path d="M309.067 221.52C309.448 230.47 308.496 248.561 309.639 256.178C310.4 260.939 319.16 284.933 319.16 284.933L307.734 290.836C307.734 290.836 297.832 275.792 292.31 257.892C288.691 246.276 288.501 233.517 288.501 223.043L309.067 221.52Z" fill="#F677BA"/>
<path d="M338.965 247.99C342.012 251.036 355.342 263.605 358.579 266.652C353.628 270.651 349.248 275.031 344.678 279.41C343.536 283.6 346.202 275.221 345.249 271.603L338.965 247.99Z" fill="#F677BA"/>
<path d="M362.198 271.031L359.341 273.317C359.151 273.126 358.579 272.174 358.199 271.984C357.627 272.555 356.675 273.507 356.485 273.698C356.485 273.888 356.485 274.459 356.485 274.84C356.675 275.411 356.485 275.983 355.913 276.364L345.059 285.885C343.726 287.028 342.012 285.504 342.774 283.409C343.536 281.696 344.869 277.697 345.059 277.506C349.82 274.078 356.294 267.223 356.294 264.366C358.389 264.557 362.198 271.031 362.198 271.031Z" fill="#0A0A3A"/>
<path d="M327.729 204.572C327.729 204.572 326.968 231.041 330.776 237.897C334.966 245.704 348.867 257.701 348.867 257.701L345.249 271.603C345.249 271.603 325.635 260.748 315.352 247.609C307.734 237.706 307.354 206.095 307.354 206.095L327.729 204.572Z" fill="#F677BA"/>
<path d="M326.587 182.482C340.488 193.146 339.346 235.802 339.346 235.802C339.346 235.802 323.921 239.801 311.543 239.801C298.975 239.801 286.026 237.706 286.026 237.706C286.787 201.144 293.262 191.622 296.88 185.338L326.587 182.482Z" fill="#182679"/>
<path d="M300.879 124.401C300.879 124.401 304.116 133.541 303.545 135.636C302.974 137.731 296.118 137.16 294.404 136.969C294.214 132.399 295.928 125.924 295.928 125.924L300.879 124.401Z" fill="#212136"/>
<path d="M302.022 135.065L302.784 140.206C302.784 140.206 306.402 142.491 309.449 141.158C312.686 140.016 312.495 138.112 312.495 138.112L308.687 128.971L302.022 135.065Z" fill="#F677BA"/>
<path d="M296.88 126.305C296.88 132.78 298.023 137.731 302.212 137.54C306.782 137.159 310.21 133.351 308.496 128.4C306.782 123.068 297.261 122.496 296.88 126.305Z" fill="#F677BA"/>
<path d="M302.403 137.921C304.688 137.54 307.354 136.398 308.497 133.351" stroke="#CC3189" stroke-width="3.1252" stroke-linejoin="round"/>
<path d="M307.735 128.019C307.735 128.019 307.735 128.019 307.735 128.209H307.925C307.925 128.019 307.925 128.019 307.925 128.019H307.735Z" fill="#FF8559"/>
<path d="M303.545 125.734C299.927 126.686 297.261 126.495 294.976 125.734C295.357 123.449 296.69 120.402 300.689 120.211C303.545 117.736 306.973 118.497 307.735 118.878C310.21 119.64 311.734 121.163 313.067 123.258C315.161 126.686 315.542 132.018 315.542 135.065C312.305 135.827 309.639 136.398 307.544 136.398C307.735 136.398 306.402 127.638 303.545 125.734Z" fill="#212136"/>
<path d="M305.83 130.114C305.64 129.923 305.83 129.352 306.401 128.971C307.163 128.59 308.115 129.542 308.115 130.495C308.306 131.256 308.115 131.637 307.735 132.208C307.354 132.97 306.782 133.351 306.211 132.589L305.83 130.114Z" fill="#F677BA"/>
<path d="M300.308 129.733C300.308 129.733 299.546 132.208 299.737 132.78C300.118 133.161 301.451 132.97 301.451 132.97" stroke="#CC3189" stroke-width="2.08347" stroke-linejoin="round"/>
<path d="M300.117 134.113L304.116 133.541C304.116 133.541 303.926 135.636 301.831 135.826C300.117 136.017 300.117 134.113 300.117 134.113Z" fill="white"/>
<path d="M298.403 129.352C298.403 129.542 298.403 129.733 298.403 129.923C298.403 130.495 298.975 130.495 298.975 129.923C298.975 129.733 298.975 129.542 298.975 129.352C298.975 129.161 298.594 129.161 298.403 129.352Z" fill="#00266E"/>
<path d="M299.546 128.209C299.546 128.209 298.594 127.638 298.023 128.4" stroke="#00266E" stroke-width="2.08347" stroke-linecap="round" stroke-linejoin="round"/>
<path d="M302.974 129.162C302.974 129.352 302.974 129.542 302.974 129.733C302.974 130.114 303.736 130.114 303.736 129.733C303.736 129.542 303.545 129.352 303.545 129.162C303.545 128.781 303.164 128.971 302.974 129.162Z" fill="#00266E"/>
<path d="M302.403 127.828C302.403 127.828 303.355 127.257 304.498 128.019" stroke="#00266E" stroke-width="2.08347" stroke-linecap="round" stroke-linejoin="round"/>
<path d="M298.594 162.106C286.217 179.435 260.699 195.05 260.699 195.05L255.367 188.385C255.367 188.385 274.41 172.389 286.026 154.108L298.594 162.106Z" fill="#F677BA"/>
<path d="M257.652 186.671C255.367 188.575 247.559 193.526 247.75 194.098C247.75 194.669 250.606 192.955 250.606 193.526C250.606 194.098 246.607 196.954 246.988 197.525C247.369 198.287 251.368 195.05 251.368 195.05C251.368 195.05 247.178 198.668 247.75 199.239C248.321 199.811 251.558 197.145 253.082 196.192C251.558 197.335 249.654 199.43 250.035 199.811C250.416 200.191 252.701 198.478 254.605 197.335C253.653 198.097 251.749 199.811 252.13 200.191C252.51 200.572 258.414 196.764 263.936 192.955L257.652 186.671Z" fill="#F677BA"/>
<path d="M251.558 193.527C251.558 193.527 254.605 193.527 255.938 192.955" stroke="#CC3189" stroke-width="3.1252" stroke-linejoin="round"/>
<path d="M301.26 140.206C295.928 139.254 290.977 143.063 288.882 146.49C284.502 153.346 282.217 158.678 282.217 158.678L294.976 166.295L302.403 143.443L301.26 140.206Z" fill="#FF9356"/>
<path d="M301.26 140.206C303.736 140.587 304.498 141.539 306.212 140.968C309.449 140.016 311.925 138.302 311.925 138.302C309.83 138.492 318.97 140.016 325.826 147.442C328.111 155.441 328.301 163.439 329.063 184.576C311.925 190.099 296.881 185.338 296.881 185.338C296.881 185.338 294.976 176.197 292.691 169.342C289.454 163.058 290.977 156.012 294.405 150.299C294.405 146.681 301.26 140.206 301.26 140.206Z" fill="#FF9356"/>
<path d="M311.734 136.207L305.83 141.158L309.639 145.157L313.447 139.254L311.734 136.207Z" fill="white"/>
<path d="M305.831 141.158L302.403 138.492L301.26 140.206L302.974 144.967L305.831 141.158Z" fill="white"/>
<path d="M290.977 162.106C290.786 158.107 293.071 151.822 293.071 151.822" stroke="#A52F2D" stroke-width="3.1252"/>
<path d="M355.151 406.046C354.77 406.046 354.58 406.046 354.389 405.856L269.838 399.953C264.126 399.572 259.936 394.621 260.317 388.908L262.031 363.961C262.221 362.438 263.364 361.295 265.078 361.295C265.649 361.295 266.411 361.676 266.982 362.057C269.648 364.533 272.695 366.056 276.123 366.247C276.504 366.247 276.884 366.247 277.265 366.247C285.835 366.247 293.071 358.629 293.642 348.727C294.404 338.634 287.739 329.684 278.789 329.113C278.408 329.113 278.027 329.113 277.837 329.113C274.79 329.113 271.743 330.065 269.077 331.969C268.696 332.35 268.125 332.541 267.363 332.541C266.601 332.541 265.839 332.16 265.268 331.588C264.697 330.827 264.506 330.065 264.506 329.303L266.22 304.357C266.601 299.025 271.171 294.835 276.504 294.835C276.884 294.835 277.075 294.835 277.265 294.835L302.973 296.74C304.116 296.74 305.258 297.501 305.639 298.644C306.02 299.787 305.639 300.929 304.878 301.691C301.831 304.357 300.117 307.975 299.926 311.593C299.355 320.543 307.163 328.541 317.255 329.303C317.827 329.303 318.398 329.303 318.779 329.303C328.491 329.303 336.489 322.638 337.06 314.259C337.251 310.641 336.108 306.833 333.632 303.786C332.871 302.833 332.68 301.691 333.252 300.739C333.632 299.596 334.775 299.025 335.918 299.025H336.108L361.816 300.739C367.529 301.12 371.718 306.071 371.337 311.784L365.434 396.334C365.053 401.666 360.483 406.046 355.151 406.046Z" fill="#82A3FB"/>
<path d="M276.504 295.407C276.694 295.407 277.075 295.407 277.265 295.407L302.973 297.311C305.068 297.311 305.83 299.977 304.497 301.31C301.45 303.976 299.546 307.594 299.355 311.593C298.593 320.924 306.782 329.113 317.256 329.874C317.827 329.874 318.398 329.874 318.779 329.874C328.681 329.874 337.06 323.209 337.632 314.259C337.822 310.26 336.489 306.452 334.013 303.405C332.68 301.881 333.823 299.596 335.918 299.596C335.918 299.596 335.918 299.596 336.108 299.596L361.816 301.31C367.148 301.691 371.147 306.452 370.766 311.784L364.863 396.334C364.482 401.476 360.102 405.285 355.151 405.285C354.77 405.285 354.58 405.285 354.389 405.285L269.839 399.381C264.506 399 260.507 394.24 260.888 388.908L262.602 364.152C262.793 362.819 263.745 361.867 265.078 361.867C265.459 361.867 266.22 362.057 266.601 362.628C269.267 364.913 272.505 366.627 276.123 366.818C276.504 366.818 276.884 366.818 277.265 366.818C286.025 366.818 293.642 359.01 294.214 348.917C294.975 338.253 288.12 329.113 278.789 328.541C278.408 328.541 278.217 328.541 277.837 328.541C274.599 328.541 271.362 329.494 268.886 331.398C268.315 331.779 267.934 331.779 267.363 331.779C266.22 331.779 264.887 330.827 265.078 329.303L266.792 304.547C267.173 299.406 271.552 295.407 276.504 295.407ZM276.504 294.264C270.791 294.264 266.03 298.644 265.649 304.357L263.935 329.303C263.745 330.255 264.126 331.207 264.887 331.969C265.459 332.731 266.411 333.112 267.363 333.112C268.125 333.112 268.886 332.731 269.458 332.35C271.933 330.636 274.79 329.684 277.837 329.684C278.027 329.684 278.408 329.684 278.789 329.684C287.358 330.255 293.833 338.825 293.071 348.727C292.5 358.248 285.454 365.675 277.265 365.675C276.884 365.675 276.504 365.675 276.123 365.675C272.885 365.485 269.839 363.961 267.363 361.676C266.792 361.105 265.84 360.724 265.078 360.724C263.173 360.724 261.65 362.057 261.46 363.961L259.746 388.908C259.174 394.811 263.745 400.143 269.839 400.524L354.389 406.618C354.58 406.618 354.77 406.618 355.151 406.618C360.864 406.618 365.625 402.047 366.006 396.334L371.909 311.974C372.48 305.88 367.91 300.548 361.816 300.167L336.108 298.453H335.918C334.394 298.453 333.252 299.215 332.68 300.358C332.109 301.691 332.299 303.024 333.061 304.166C335.537 307.213 336.679 310.641 336.489 314.259C335.918 322.257 328.11 328.732 318.779 328.732C318.398 328.732 317.827 328.732 317.446 328.541C312.495 328.351 308.115 326.256 304.878 323.019C301.831 319.972 300.307 315.783 300.498 311.784C300.688 308.165 302.402 304.738 305.258 302.262C306.211 301.31 306.591 299.786 306.211 298.453C305.639 297.12 304.497 296.168 302.973 295.978L277.265 294.264C277.075 294.264 276.884 294.264 276.504 294.264Z" fill="white"/>
<path d="M300.688 401.476C310.21 385.099 328.872 374.816 348.867 377.482C354.961 378.244 360.674 380.148 365.815 382.814" stroke="#90AAE4" stroke-width="45.8339"/>
<path d="M320.112 402.999C326.587 396.334 335.918 392.716 345.82 393.859C352.295 394.811 358.198 397.667 362.578 401.857" stroke="#90AAE4" stroke-width="45.8339"/>
<path d="M234.99 293.121C234.419 293.121 234.038 293.121 233.657 293.121L207.949 289.884C206.807 289.694 205.854 288.932 205.474 287.789C205.093 286.456 205.474 285.314 206.426 284.552C209.473 282.076 211.567 278.649 211.948 274.84C212.519 270.651 211.186 266.271 207.949 262.843C204.902 259.225 200.522 256.94 195.571 256.368C194.619 256.368 193.857 256.178 192.905 256.178C183.765 256.178 176.147 262.272 175.005 270.27C174.624 273.888 175.576 277.887 178.052 281.124C178.623 281.886 178.813 283.029 178.242 284.171C177.861 285.123 176.719 285.695 175.576 285.695C175.576 285.695 175.386 285.695 175.195 285.695L149.678 282.457C146.821 282.076 144.346 280.743 142.632 278.649C140.918 276.364 140.347 273.698 140.537 270.841L151.201 186.862C151.772 181.72 156.152 177.911 161.484 177.911C161.865 177.911 162.246 177.911 162.817 177.911L246.797 188.385C249.463 188.766 251.938 190.289 253.652 192.384C255.366 194.669 256.128 197.335 255.747 200.001L252.51 225.328C252.319 226.852 251.177 227.804 249.653 227.804C248.701 227.804 247.939 227.614 247.368 226.852C244.893 223.995 241.655 222.282 238.037 221.71C237.466 221.71 236.894 221.71 236.323 221.71C227.944 221.71 220.708 228.756 219.565 238.087C218.232 248.37 224.517 257.511 233.467 258.654C234.038 258.654 234.609 258.844 235.181 258.844C238.227 258.844 241.084 257.892 243.75 255.988C244.321 255.607 244.893 255.416 245.464 255.416C246.226 255.416 247.178 255.797 247.749 256.559C248.13 257.13 248.511 257.892 248.32 258.844L245.273 283.981C244.512 289.313 240.132 293.121 234.99 293.121Z" fill="#FFC6CA"/>
<path d="M161.484 178.483C161.865 178.483 162.246 178.483 162.626 178.483L246.606 189.147C252.128 189.718 255.747 194.669 255.175 200.001L251.938 225.138C251.747 226.471 250.795 227.233 249.653 227.233C249.081 227.233 248.32 227.042 247.939 226.471C245.273 223.615 242.036 221.71 238.037 221.139C237.465 221.139 236.894 220.949 236.323 220.949C227.753 220.949 220.136 228.375 218.994 238.087C217.661 248.561 224.135 258.082 233.276 259.225C233.847 259.225 234.609 259.415 235.18 259.415C238.417 259.415 241.464 258.273 244.13 256.559C244.511 256.178 244.892 255.988 245.463 255.988C246.796 255.988 247.939 257.13 247.748 258.654L244.511 283.981C243.94 288.932 239.75 292.55 234.99 292.55C234.609 292.55 234.038 292.55 233.657 292.55L207.949 289.313C206.044 288.932 205.283 286.456 206.806 285.123C209.853 282.457 212.138 279.03 212.519 274.84C213.662 265.7 206.235 257.13 195.571 255.797C194.619 255.607 193.857 255.607 192.905 255.607C183.574 255.607 175.576 261.701 174.433 270.079C174.052 274.269 175.195 278.077 177.48 281.315C178.623 283.029 177.48 285.123 175.576 285.123H175.385L149.677 281.886C144.345 281.315 140.537 276.364 141.108 271.032L151.772 187.052C152.343 182.101 156.533 178.483 161.484 178.483ZM161.484 177.15V178.483V177.15C155.961 177.15 151.201 181.339 150.629 186.862L139.965 270.841C139.204 276.744 143.583 282.267 149.487 283.029L175.195 286.266C175.385 286.266 175.576 286.266 175.576 286.266C176.909 286.266 178.242 285.504 178.813 284.362C179.384 283.219 179.384 281.696 178.432 280.743C176.147 277.506 175.195 273.888 175.576 270.27C176.718 262.653 183.955 256.749 192.905 256.749C193.666 256.749 194.619 256.94 195.38 256.94C205.283 258.273 212.519 266.271 211.376 274.84C210.996 278.458 209.091 281.696 206.044 284.171C204.902 285.123 204.521 286.456 204.902 287.789C205.283 289.313 206.425 290.265 207.949 290.455L233.466 293.693C234.038 293.693 234.418 293.693 234.99 293.693C240.512 293.693 245.082 289.694 245.844 284.171L248.891 258.844C249.081 257.892 248.701 256.94 248.129 256.178C247.368 255.226 246.415 254.845 245.463 254.845C244.702 254.845 243.94 255.035 243.369 255.416C240.893 257.321 238.037 258.082 235.18 258.082C234.609 258.082 234.038 258.082 233.466 258.082C229.277 257.511 225.659 255.226 223.183 251.417C220.707 247.799 219.565 243.038 220.136 238.278C221.279 229.137 228.134 222.282 236.323 222.282C236.894 222.282 237.465 222.282 238.037 222.282C241.464 222.853 244.511 224.567 246.987 227.233C247.748 227.994 248.51 228.566 249.653 228.566C251.367 228.566 252.89 227.233 253.081 225.328L256.318 200.192C256.699 197.145 255.937 194.288 254.033 192.003C252.319 189.718 249.653 188.195 246.796 187.814L162.817 177.34C162.436 177.34 161.865 177.15 161.484 177.15Z" fill="white"/>
<path d="M199.571 183.053C199.571 184.767 199.761 186.291 199.761 188.004M199.761 188.004C199.761 214.665 178.052 236.183 151.392 236.183C149.488 236.183 147.583 236.183 145.679 235.802L199.761 188.004Z" stroke="white" stroke-width="45.8339"/>
<path d="M182.813 180.958C183.194 182.863 183.384 184.958 183.384 186.862M183.384 186.862C183.384 205.143 168.531 219.806 150.44 219.806C149.488 219.806 148.536 219.806 147.583 219.806L183.384 186.862Z" stroke="white" stroke-width="45.8339"/>
<path d="M164.531 178.673C166.245 181.339 167.388 184.577 167.388 188.004M167.388 188.004C167.388 196.764 160.342 204 151.392 204C150.821 204 150.249 203.81 149.678 203.81L167.388 188.004Z" stroke="white" stroke-width="45.8339"/>
<path d="M311.734 319.591C306.592 319.591 301.641 317.687 297.832 314.45C294.214 311.022 292.119 306.642 292.119 301.881C292.31 297.882 294.024 293.883 296.88 290.836C297.642 290.075 297.451 289.313 297.261 288.932C297.071 288.361 296.499 287.789 295.738 287.789L269.839 287.599C266.983 287.409 264.507 286.456 262.412 284.362C260.508 282.457 259.556 279.791 259.556 277.125L259.746 251.989C259.746 251.417 259.556 251.036 259.365 250.656C258.985 250.465 258.413 250.275 258.032 250.275C257.652 250.275 257.271 250.275 256.89 250.656C254.033 253.131 250.415 254.274 246.607 254.274C241.846 254.274 237.466 252.179 234.229 248.37C230.991 244.562 229.278 239.611 229.278 234.469C229.468 223.615 237.276 214.855 246.797 214.855H246.988C250.796 214.855 254.224 216.188 257.271 218.854C257.652 219.044 258.032 219.235 258.413 219.235C259.175 219.235 260.127 218.473 260.127 217.521L260.508 192.384C260.508 186.671 265.078 182.101 270.791 182.101L355.532 183.053C358.389 183.053 360.864 184.196 362.959 186.1C364.863 188.004 365.816 190.67 365.816 193.527L364.863 278.077C364.863 283.79 360.293 288.361 354.58 288.361L328.491 288.17C327.73 288.17 327.158 288.742 326.968 289.122C326.587 289.884 326.778 290.646 327.349 291.027C330.205 294.264 331.729 298.263 331.729 302.452C331.729 311.783 322.779 319.591 312.114 319.591H311.734Z" fill="#B5C8F6"/>
<path d="M270.791 182.672L355.532 183.624C360.864 183.624 365.244 188.004 365.244 193.527L364.292 278.077C364.292 283.41 359.912 287.789 354.58 287.789L328.491 287.599C326.587 287.599 325.444 290.075 326.777 291.408C329.634 294.454 331.157 298.263 331.157 302.262C331.157 311.593 322.588 319.02 312.114 319.02C311.924 319.02 311.924 319.02 311.734 319.02C301.26 318.829 292.691 311.212 292.881 301.881C292.881 297.882 294.595 294.074 297.451 291.217C298.784 289.694 297.832 287.218 295.737 287.218L269.839 286.837C264.317 286.837 260.127 282.457 260.127 277.125L260.318 251.989C260.508 250.656 259.175 249.513 258.032 249.513C257.461 249.513 257.08 249.703 256.509 250.084C253.843 252.369 250.415 253.702 246.607 253.702C237.276 253.702 229.849 244.943 229.849 234.469C230.039 223.805 237.466 215.426 246.797 215.426C246.797 215.426 246.797 215.426 246.987 215.426C250.606 215.426 254.033 216.759 256.89 219.235C257.271 219.616 257.842 219.806 258.413 219.806C259.556 219.806 260.698 218.854 260.698 217.521L261.079 192.384C261.079 187.052 265.459 182.672 270.791 182.672ZM270.791 181.53C264.888 181.53 259.937 186.481 259.746 192.384L259.556 217.521C259.556 218.092 258.985 218.663 258.413 218.663C258.032 218.663 257.842 218.473 257.652 218.283C254.605 215.617 250.796 214.284 246.987 214.284H246.797C236.895 214.284 228.897 223.234 228.706 234.469C228.516 245.704 236.514 254.845 246.607 255.036C250.606 255.036 254.224 253.702 257.271 251.036C257.461 250.846 257.842 250.846 258.032 250.846C258.413 250.846 258.604 250.846 258.794 251.227C258.985 251.227 259.175 251.608 259.175 251.989L258.985 277.125C258.985 283.029 263.745 287.98 269.839 288.17L295.737 288.361C296.499 288.361 296.69 288.932 296.69 289.122C296.88 289.313 297.07 289.884 296.499 290.455C293.452 293.502 291.738 297.692 291.548 301.881C291.548 311.974 300.498 320.162 311.734 320.162H312.114C323.159 320.162 332.3 312.164 332.3 302.452C332.49 298.073 330.776 293.883 327.73 290.646C327.158 290.265 327.349 289.503 327.539 289.503C327.539 289.313 327.92 288.742 328.491 288.742L354.39 288.932H354.58C360.483 288.932 365.435 284.171 365.625 278.077L366.387 193.527C366.387 187.433 361.626 182.482 355.532 182.482L270.982 181.53H270.791Z" fill="white"/>
<path d="M274.98 191.242C273.647 191.432 272.504 190.48 272.314 189.337C272.124 188.004 272.885 186.862 274.218 186.671C275.361 186.481 276.694 187.243 276.884 188.576C277.075 189.718 276.123 191.051 274.98 191.242Z" fill="white"/>
<path d="M296.117 187.624C294.975 187.814 293.832 187.052 293.451 185.719C293.261 184.577 294.213 183.244 295.356 183.053C296.689 182.863 297.831 183.815 298.022 184.957C298.212 186.291 297.45 187.433 296.117 187.624Z" fill="white"/>
<path d="M317.446 184.005C316.494 184.196 315.732 183.815 315.161 183.244H318.779C318.398 183.625 318.017 184.005 317.446 184.005Z" fill="white"/>
<path d="M277.836 208.571C276.694 208.761 275.551 207.999 275.17 206.666C274.98 205.524 275.932 204.381 277.075 204.191C278.408 203.81 279.55 204.762 279.741 205.905C279.931 207.238 279.169 208.38 277.836 208.571Z" fill="white"/>
<path d="M299.164 204.953C297.831 205.143 296.689 204.381 296.498 203.239C296.308 201.906 297.07 200.763 298.403 200.573C299.545 200.382 300.688 201.144 301.069 202.477C301.259 203.62 300.307 204.762 299.164 204.953Z" fill="white"/>
<path d="M320.302 201.525C319.16 201.715 317.827 200.763 317.636 199.621C317.446 198.288 318.398 197.145 319.541 196.955C320.874 196.764 322.016 197.526 322.207 198.859C322.397 200.001 321.635 201.144 320.302 201.525Z" fill="white"/>
<path d="M341.631 197.907C340.298 198.097 339.155 197.145 338.965 196.002C338.774 194.669 339.536 193.527 340.869 193.336C342.011 193.146 343.154 193.908 343.344 195.241C343.725 196.383 342.773 197.716 341.631 197.907Z" fill="white"/>
<path d="M362.768 194.289C361.625 194.479 360.292 193.717 360.102 192.384C359.912 191.242 360.864 189.909 362.006 189.718C363.339 189.528 364.482 190.48 364.672 191.623C364.863 192.956 364.101 194.098 362.768 194.289Z" fill="white"/>
<path d="M238.418 233.136C237.085 233.327 235.942 232.565 235.752 231.232C235.561 230.089 236.323 228.947 237.656 228.756C238.798 228.566 240.131 229.328 240.322 230.47C240.512 231.803 239.56 232.946 238.418 233.136Z" fill="white"/>
<path d="M259.555 229.518C258.413 229.899 257.27 228.947 256.889 227.804C256.699 226.471 257.651 225.329 258.793 225.138C260.126 224.948 261.269 225.709 261.459 227.042C261.65 228.185 260.888 229.328 259.555 229.518Z" fill="white"/>
<path d="M280.883 226.09C279.55 226.281 278.408 225.329 278.217 224.186C278.027 222.853 278.788 221.71 280.122 221.52C281.264 221.33 282.407 222.091 282.788 223.424C282.978 224.567 282.026 225.9 280.883 226.09Z" fill="white"/>
<path d="M302.021 222.472C300.879 222.663 299.546 221.901 299.355 220.568C299.165 219.425 300.117 218.092 301.259 217.902C302.592 217.711 303.735 218.664 303.925 219.806C304.116 221.139 303.354 222.282 302.021 222.472Z" fill="white"/>
<path d="M323.349 218.854C322.016 219.044 320.874 218.283 320.683 216.95C320.493 215.807 321.255 214.665 322.588 214.284C323.73 214.093 324.873 215.045 325.063 216.188C325.444 217.521 324.492 218.664 323.349 218.854Z" fill="white"/>
<path d="M344.487 215.236C343.344 215.426 342.011 214.665 341.821 213.332C341.63 212.189 342.582 211.046 343.725 210.856C345.058 210.666 346.201 211.427 346.391 212.57C346.582 213.903 345.82 215.045 344.487 215.236Z" fill="white"/>
<path d="M365.053 211.808C364.101 211.618 363.34 210.856 363.149 209.904C362.959 208.571 363.72 207.428 365.053 207.238V211.808Z" fill="white"/>
<path d="M241.274 250.656C240.131 250.846 238.989 249.894 238.608 248.751C238.417 247.418 239.37 246.276 240.512 246.085C241.845 245.895 242.988 246.657 243.178 247.99C243.369 249.323 242.607 250.465 241.274 250.656Z" fill="white"/>
<path d="M262.602 247.037C261.269 247.228 260.126 246.466 259.936 245.133C259.746 243.991 260.507 242.658 261.84 242.467C262.983 242.277 264.126 243.229 264.506 244.371C264.697 245.704 263.745 246.847 262.602 247.037Z" fill="white"/>
<path d="M283.74 243.419C282.598 243.61 281.264 242.848 281.074 241.515C280.884 240.372 281.836 239.23 282.978 239.039C284.311 238.659 285.454 239.611 285.644 240.753C285.835 242.086 285.073 243.229 283.74 243.419Z" fill="white"/>
<path d="M305.068 239.801C303.735 239.992 302.592 239.23 302.402 238.087C302.211 236.754 302.973 235.612 304.306 235.421C305.449 235.231 306.591 235.993 306.782 237.326C307.162 238.468 306.21 239.611 305.068 239.801Z" fill="white"/>
<path d="M326.205 236.374C325.063 236.564 323.73 235.612 323.539 234.469C323.349 233.136 324.301 231.994 325.443 231.803C326.776 231.613 327.919 232.375 328.109 233.708C328.3 234.85 327.538 235.993 326.205 236.374Z" fill="white"/>
<path d="M347.533 232.755C346.2 232.946 345.058 231.994 344.867 230.851C344.677 229.518 345.439 228.375 346.772 228.185C347.914 227.995 349.057 228.756 349.247 230.089C349.438 231.232 348.676 232.565 347.533 232.755Z" fill="white"/>
<path d="M265.458 264.367C264.316 264.748 262.983 263.795 262.792 262.653C262.602 261.32 263.554 260.177 264.697 259.987C266.03 259.796 267.172 260.558 267.363 261.891C267.553 263.034 266.791 264.176 265.458 264.367Z" fill="white"/>
<path d="M286.787 260.939C285.454 261.129 284.311 260.177 284.121 259.035C283.93 257.702 284.692 256.559 286.025 256.369C287.167 256.178 288.31 256.94 288.5 258.273C288.881 259.415 287.929 260.748 286.787 260.939Z" fill="white"/>
<path d="M307.924 257.321C306.781 257.511 305.448 256.749 305.258 255.416C305.068 254.274 306.02 252.941 307.162 252.75C308.495 252.56 309.638 253.512 309.828 254.655C310.019 255.988 309.257 257.13 307.924 257.321Z" fill="white"/>
<path d="M329.062 253.703C327.919 253.893 326.777 253.131 326.586 251.798C326.396 250.656 327.157 249.513 328.49 249.132C329.633 248.942 330.776 249.894 330.966 251.037C331.156 252.37 330.395 253.512 329.062 253.703Z" fill="white"/>
<path d="M350.39 250.084C349.057 250.275 347.914 249.513 347.724 248.18C347.534 247.037 348.295 245.895 349.628 245.704C350.771 245.514 352.104 246.276 352.294 247.418C352.485 248.751 351.533 249.894 350.39 250.084Z" fill="white"/>
<path d="M268.505 281.886C267.172 282.077 266.03 281.315 265.839 279.982C265.649 278.839 266.411 277.506 267.744 277.316C268.886 277.125 270.029 278.078 270.219 279.22C270.41 280.553 269.648 281.696 268.505 281.886Z" fill="white"/>
<path d="M289.643 278.268C288.31 278.458 287.167 277.697 286.977 276.364C286.786 275.221 287.738 274.079 288.881 273.888C290.214 273.507 291.357 274.459 291.547 275.602C291.737 276.935 290.976 278.078 289.643 278.268Z" fill="white"/>
<path d="M310.781 274.65C309.638 274.84 308.496 274.079 308.305 272.936C308.115 271.603 308.876 270.46 310.019 270.27C311.352 270.079 312.495 270.841 312.685 272.174C312.875 273.317 312.114 274.459 310.781 274.65Z" fill="white"/>
<path d="M332.109 271.222C330.776 271.413 329.633 270.46 329.443 269.318C329.252 267.985 330.014 266.842 331.347 266.652C332.49 266.461 333.823 267.223 334.013 268.556C334.204 269.699 333.251 270.841 332.109 271.222Z" fill="white"/>
<path d="M353.247 267.604C352.104 267.794 350.962 266.842 350.771 265.7C350.39 264.367 351.342 263.224 352.485 263.034C353.818 262.843 354.961 263.605 355.151 264.938C355.341 266.271 354.58 267.414 353.247 267.604Z" fill="white"/>
<path d="M313.828 292.169C312.495 292.36 311.352 291.598 311.162 290.265C310.971 289.122 311.733 287.789 313.066 287.599C314.209 287.409 315.542 288.361 315.732 289.503C315.922 290.836 314.97 291.979 313.828 292.169Z" fill="white"/>
<path d="M332.68 287.599C332.49 287.409 332.49 287.028 332.49 286.647C332.109 285.504 333.061 284.362 334.204 283.981C335.537 283.79 336.679 284.743 336.87 285.885C337.06 286.456 336.87 287.218 336.489 287.599H332.68Z" fill="white"/>
<path d="M356.293 284.933C354.96 285.124 353.818 284.362 353.627 283.029C353.437 281.886 354.199 280.744 355.532 280.553C356.674 280.363 358.007 281.125 358.198 282.267C358.388 283.6 357.436 284.743 356.293 284.933Z" fill="white"/>
<path d="M294.404 308.737C294.404 308.737 294.594 308.737 294.785 308.737C295.927 308.356 297.26 309.308 297.451 310.451C297.451 311.212 297.26 311.974 296.88 312.545C295.927 311.403 294.975 310.07 294.404 308.737Z" fill="white"/>
<path d="M316.684 309.498C315.541 309.879 314.399 308.927 314.208 307.785C313.827 306.452 314.78 305.309 315.922 305.119C317.255 304.928 318.398 305.69 318.588 307.023C318.779 308.165 318.017 309.308 316.684 309.498Z" fill="white"/>
<path d="M156.914 405.665C151.391 405.665 147.011 401.285 146.63 395.763L141.87 311.212C141.489 305.499 145.869 300.739 151.582 300.358L177.48 298.834C178.242 298.834 178.813 298.263 179.004 297.692C179.194 297.12 179.004 296.359 178.623 295.787C175.385 292.931 173.672 289.122 173.291 284.933C172.91 275.411 181.289 267.032 192.143 266.461C192.524 266.461 193.095 266.461 193.476 266.461C203.759 266.461 212.329 273.698 212.9 282.838C213.09 286.837 211.757 290.836 208.901 294.073C208.52 294.645 208.33 295.406 208.711 295.978C208.901 296.549 209.472 297.12 210.234 297.12H210.424L236.132 295.597C236.323 295.597 236.513 295.597 236.704 295.597C242.226 295.597 246.796 299.786 247.177 305.309L248.51 330.636C248.51 331.779 249.462 332.35 250.224 332.35C250.605 332.35 251.176 332.35 251.557 331.779C254.414 328.922 258.032 327.399 261.84 327.208C262.221 327.018 262.602 327.018 262.793 327.018C272.124 327.018 279.931 335.397 280.503 345.87C280.693 351.202 279.17 356.154 276.123 360.153C273.076 364.152 268.886 366.437 264.126 366.627C263.935 366.627 263.554 366.627 263.173 366.627C259.746 366.627 256.318 365.485 253.271 363.009C252.89 362.819 252.509 362.819 252.129 362.819C251.748 362.819 251.176 363.009 250.986 363.39C250.605 363.58 250.415 363.961 250.415 364.532L251.938 389.86C251.938 392.716 250.986 395.382 249.272 397.477C247.368 399.381 244.892 400.714 242.036 400.905L157.485 405.665C157.295 405.665 157.104 405.665 156.914 405.665Z" fill="#9EBFFF"/>
<path d="M193.476 267.032C203.379 267.032 211.758 273.888 212.329 282.838C212.519 286.837 210.996 290.646 208.52 293.693C207.187 295.406 208.33 297.692 210.234 297.692C210.425 297.692 210.425 297.692 210.425 297.692L236.323 296.168C236.323 296.168 236.513 296.168 236.704 296.168C241.846 296.168 246.225 300.167 246.606 305.309L247.939 330.636C247.939 331.969 249.082 332.921 250.224 332.921C250.796 332.921 251.557 332.731 251.938 332.35C254.604 329.684 258.032 327.97 262.031 327.78C262.221 327.78 262.602 327.78 262.793 327.78C271.743 327.78 279.36 335.587 279.931 345.87C280.503 356.534 273.457 365.485 264.126 366.056C263.745 366.056 263.554 366.056 263.174 366.056C259.746 366.056 256.318 364.723 253.652 362.628C253.271 362.247 252.7 362.057 252.129 362.057C250.986 362.057 249.844 363.199 249.844 364.723L251.177 389.86C251.557 395.382 247.368 399.952 242.036 400.143L157.485 404.903C157.295 404.903 157.104 404.903 156.914 404.903C151.772 404.903 147.583 400.904 147.202 395.763L142.441 311.212C142.251 305.88 146.25 301.31 151.582 300.929L177.48 299.405C179.575 299.405 180.527 296.93 179.004 295.406C175.957 292.74 174.243 289.122 174.053 284.933C173.481 275.602 181.67 267.604 192.143 267.032C192.524 267.032 193.096 267.032 193.476 267.032ZM193.476 265.89C192.905 265.89 192.524 265.89 192.143 265.89C186.621 266.271 181.67 268.365 178.052 271.984C174.433 275.602 172.529 280.172 172.72 285.123C173.1 289.313 175.005 293.312 178.052 296.359C178.623 296.739 178.432 297.311 178.432 297.501C178.432 297.692 178.052 298.263 177.29 298.263L151.582 299.786C145.488 300.167 140.918 305.309 141.299 311.212L146.059 395.763C146.44 401.666 151.201 406.236 156.914 406.236C157.104 406.236 157.295 406.236 157.485 406.236L242.036 401.476C245.083 401.285 247.749 399.952 249.653 397.858C251.557 395.572 252.7 392.716 252.51 389.86L250.986 364.532C250.986 364.152 251.177 363.961 251.367 363.771C251.557 363.39 251.938 363.39 252.129 363.39C252.51 363.39 252.7 363.39 252.89 363.58C255.937 366.056 259.555 367.198 263.174 367.198C263.554 367.198 263.935 367.198 264.126 367.198C269.077 367.008 273.457 364.532 276.694 360.533C279.741 356.534 281.264 351.202 281.074 345.87C280.503 335.016 272.505 326.446 262.793 326.446C262.412 326.446 262.221 326.446 261.841 326.446C257.842 326.827 254.033 328.351 251.177 331.398C250.796 331.779 250.605 331.779 250.224 331.779C249.844 331.779 249.082 331.398 249.082 330.636L247.749 305.309C247.368 299.596 242.607 295.026 236.704 295.026C236.513 295.026 236.323 295.026 236.133 295.026L210.425 296.359C210.425 296.359 210.425 296.359 210.234 296.359C209.663 296.359 209.282 295.978 209.282 295.787C209.092 295.597 208.901 295.026 209.472 294.454C212.329 291.217 213.662 287.028 213.471 282.838C212.9 273.317 204.14 265.89 193.476 265.89Z" fill="white"/>
<path d="M160.151 355.011C158.818 355.392 157.675 354.63 157.294 353.487C157.104 352.154 157.675 351.012 159.008 350.631C160.151 350.25 161.484 351.012 161.674 352.345C162.055 353.487 161.293 354.82 160.151 355.011Z" fill="white" fill-opacity="0.34902"/>
<path d="M180.908 349.869C179.765 350.25 178.432 349.488 178.242 348.155C177.861 347.013 178.623 345.68 179.956 345.489C181.098 345.109 182.241 345.87 182.622 347.013C183.003 348.346 182.241 349.488 180.908 349.869Z" fill="white" fill-opacity="0.34902"/>
<path d="M201.855 344.728C200.713 344.918 199.38 344.156 199.189 343.014C198.808 341.681 199.57 340.538 200.713 340.157C202.046 339.967 203.188 340.729 203.569 341.871C203.759 343.014 202.998 344.347 201.855 344.728Z" fill="white" fill-opacity="0.34902"/>
<path d="M222.803 339.396C221.47 339.777 220.327 339.015 219.946 337.682C219.756 336.539 220.327 335.397 221.66 335.016C222.803 334.635 224.136 335.397 224.326 336.73C224.707 337.872 223.945 339.205 222.803 339.396Z" fill="white" fill-opacity="0.34902"/>
<path d="M164.34 372.15C163.198 372.53 161.865 371.769 161.674 370.626C161.294 369.293 162.055 368.151 163.198 367.77C164.531 367.389 165.673 368.151 166.054 369.484C166.245 370.626 165.673 371.959 164.34 372.15Z" fill="white" fill-opacity="0.34902"/>
<path d="M185.288 367.008C183.955 367.389 182.812 366.627 182.431 365.294C182.241 364.152 183.003 362.819 184.145 362.628C185.288 362.247 186.621 363.009 187.002 364.152C187.192 365.485 186.43 366.627 185.288 367.008Z" fill="white" fill-opacity="0.34902"/>
<path d="M206.044 361.866C204.902 362.057 203.759 361.295 203.378 360.152C202.997 358.819 203.759 357.677 205.092 357.296C206.235 357.106 207.568 357.867 207.758 359.01C208.139 360.343 207.377 361.485 206.044 361.866Z" fill="white" fill-opacity="0.34902"/>
<path d="M226.992 356.534C225.849 356.915 224.516 356.153 224.326 355.011C223.945 353.678 224.706 352.535 225.849 352.154C227.182 351.774 228.325 352.535 228.705 353.868C228.896 355.011 228.325 356.344 226.992 356.534Z" fill="white" fill-opacity="0.34902"/>
<path d="M147.773 394.62C147.583 394.62 147.392 394.62 147.202 394.62L146.821 390.05C147.963 389.859 149.106 390.621 149.487 391.764C149.677 393.097 148.916 394.239 147.773 394.62Z" fill="white" fill-opacity="0.34902"/>
<path d="M168.72 389.288C167.387 389.669 166.245 388.907 165.864 387.765C165.483 386.432 166.245 385.289 167.578 384.908C168.72 384.718 170.053 385.289 170.244 386.622C170.625 387.765 169.863 389.098 168.72 389.288Z" fill="white" fill-opacity="0.34902"/>
<path d="M189.477 384.147C188.335 384.528 187.002 383.766 186.811 382.433C186.43 381.29 187.192 379.957 188.335 379.767C189.668 379.386 190.81 380.148 191.191 381.29C191.572 382.623 190.81 383.766 189.477 384.147Z" fill="white" fill-opacity="0.34902"/>
<path d="M210.424 379.005C209.282 379.196 207.949 378.434 207.568 377.291C207.377 376.149 208.139 374.816 209.282 374.435C210.615 374.244 211.757 375.006 212.138 376.149C212.328 377.482 211.567 378.624 210.424 379.005Z" fill="white" fill-opacity="0.34902"/>
<path d="M231.372 373.673C230.039 374.054 228.896 373.292 228.515 372.15C228.134 370.817 228.896 369.674 230.229 369.293C231.372 368.912 232.705 369.674 232.895 371.007C233.276 372.15 232.514 373.483 231.372 373.673Z" fill="white" fill-opacity="0.34902"/>
<path d="M170.053 404.332C170.053 403.189 170.815 402.428 171.767 402.047C173.1 401.857 174.243 402.428 174.624 403.761V403.951L170.053 404.332Z" fill="white" fill-opacity="0.34902"/>
<path d="M193.857 401.285C192.524 401.666 191.381 400.904 191.001 399.571C190.81 398.429 191.572 397.096 192.714 396.905C193.857 396.525 195.19 397.286 195.38 398.619C195.761 399.762 195 400.904 193.857 401.285Z" fill="white" fill-opacity="0.34902"/>
<path d="M214.614 396.144C213.471 396.334 212.138 395.572 211.948 394.43C211.567 393.287 212.329 391.954 213.662 391.573C214.804 391.383 216.137 392.145 216.328 393.287C216.708 394.62 215.947 395.763 214.614 396.144Z" fill="white" fill-opacity="0.34902"/>
<path d="M235.561 390.812C234.418 391.192 233.085 390.431 232.895 389.288C232.514 387.955 233.276 386.813 234.418 386.432C235.751 386.051 236.894 386.813 237.275 388.146C237.465 389.288 236.894 390.621 235.561 390.812Z" fill="white" fill-opacity="0.34902"/>
<path d="M42.6565 284.552C42.6565 284.552 41.7043 319.21 39.6096 331.208C37.3245 344.538 17.5198 371.388 17.5198 371.388L22.0901 375.958L28.7551 379.196C28.7551 379.196 46.2746 362.628 55.9866 341.681C64.5559 323.781 64.7463 286.457 64.7463 286.457L42.6565 284.552Z" fill="#F677BA"/>
<path d="M37.7052 390.241C37.8956 389.479 37.8956 388.336 37.7052 387.956L30.6593 377.482C23.8039 376.339 17.9005 370.246 17.9005 370.246L11.9972 376.72C11.8068 376.911 11.9972 377.292 12.1876 377.482L35.9913 392.526C36.3722 392.716 37.7052 390.241 37.7052 390.241Z" fill="#00266E"/>
<path d="M32.3734 379.386C31.4213 379.767 30.4691 380.148 29.517 380.719" stroke="#1A3887" stroke-width="3.1252" stroke-linejoin="round"/>
<path d="M33.1351 380.91C32.183 381.291 31.6117 381.481 30.85 382.052" stroke="#1A3887" stroke-width="3.1252" stroke-linejoin="round"/>
<path d="M33.8969 382.052C33.1351 382.243 32.3734 382.814 31.6117 383.195" stroke="#1A3887" stroke-width="3.1252" stroke-linejoin="round"/>
<path d="M12.7587 375.768L37.3241 391.002" stroke="#1A3887" stroke-width="3.1252" stroke-linejoin="round"/>
<path d="M15.8057 372.531C15.8057 372.531 21.5186 376.339 19.8047 379.958" stroke="#1A3887" stroke-width="3.1252" stroke-linejoin="round"/>
<path d="M36.1815 385.861C36.1815 385.861 33.1346 387.003 32.1825 387.956" stroke="#1A3887" stroke-width="3.1252" stroke-linejoin="round"/>
<path d="M67.9835 299.025C67.9835 299.025 69.3165 319.21 70.2687 334.635C71.2208 350.25 72.9347 385.67 72.9347 385.67L79.7902 387.194L87.2169 385.861C87.2169 385.861 89.1212 355.392 89.1212 335.206C89.1212 314.259 88.3595 284.552 88.3595 284.552L67.9835 299.025Z" fill="#F677BA"/>
<path d="M100.357 391.383C100.167 390.622 99.5955 389.669 99.2146 389.479L87.5984 384.528C81.1238 387.003 72.9353 385.099 72.9353 385.099L71.4119 393.859C71.4119 394.049 71.7927 394.24 71.9832 394.24H100.167C100.738 394.24 100.357 391.383 100.357 391.383Z" fill="#00266E"/>
<path d="M90.0735 384.909C89.5022 385.861 88.9309 386.813 88.55 387.765" stroke="#1A3887" stroke-width="3.1252" stroke-linejoin="round"/>
<path d="M91.5971 385.861C90.8353 386.813 90.6449 387.384 90.264 388.146" stroke="#1A3887" stroke-width="3.1252" stroke-linejoin="round"/>
<path d="M92.7396 386.432C92.3588 387.194 91.7875 387.955 91.597 388.717" stroke="#1A3887" stroke-width="3.1252" stroke-linejoin="round"/>
<path d="M71.6018 392.526L100.547 392.335" stroke="#1A3887" stroke-width="3.1252" stroke-linejoin="round"/>
<path d="M72.3634 388.146C72.3634 388.146 79.2189 388.336 79.7902 392.335" stroke="#1A3887" stroke-width="3.1252" stroke-linejoin="round"/>
<path d="M96.7385 388.527C96.7385 388.527 94.8342 391.193 94.4534 392.335" stroke="#1A3887" stroke-width="3.1252" stroke-linejoin="round"/>
<path d="M67.6029 184.386C63.9848 183.434 60.3666 185.91 58.8432 188.576C58.2719 189.337 57.891 190.099 57.3197 190.861C53.7016 195.622 39.2289 194.289 42.0853 203.62C42.2758 204.762 43.0375 205.714 43.0375 206.857C43.2279 208.38 42.4662 209.713 42.0853 211.046C40.7523 215.426 43.9896 220.568 48.3695 221.52C50.4643 222.091 52.7494 221.71 54.4633 222.853C56.1771 223.805 56.7484 225.9 57.891 227.423C61.1283 231.613 67.4125 232.375 72.3637 230.661C74.268 229.899 76.1723 228.756 76.934 227.042C77.3148 225.9 77.5053 224.757 78.0765 223.805C79.2191 221.901 81.6947 221.52 83.599 220.568C86.265 219.044 87.9789 215.236 86.6459 212.379C85.5033 209.333 82.8373 206.476 82.0756 203.239C81.6947 201.525 82.266 199.621 81.8851 197.716C81.6947 196.383 80.933 195.241 79.7904 194.479C79.0287 193.717 78.267 193.336 77.5053 192.765C75.9818 191.623 75.7914 189.337 74.268 188.004C72.5541 186.671 70.4594 186.291 68.7455 185.148L67.6029 184.386Z" fill="#FFE1AC"/>
<path d="M74.2678 206.667C83.4084 204.001 96.9289 204.572 107.783 193.908C118.447 183.244 123.208 175.055 123.208 175.055L131.397 181.72C131.397 181.72 120.542 202.668 110.83 209.713C98.0715 218.854 89.3118 220.378 81.885 221.711L74.2678 206.667Z" fill="#F677BA"/>
<path d="M120.923 178.483C123.208 175.055 128.731 165.153 129.493 165.153C130.254 165.343 128.35 168.771 129.112 168.771C129.683 168.771 132.73 163.629 133.492 163.82C134.634 164.201 131.206 169.533 131.206 169.533C131.206 169.533 131.968 168.581 132.73 169.152C133.301 169.533 132.73 171.056 132.73 171.056C132.73 171.056 133.682 170.104 134.253 170.485C134.825 171.056 134.063 172.96 134.063 172.96C134.063 172.96 134.825 172.389 135.396 172.96C135.967 173.341 133.111 179.435 128.16 187.624L120.923 178.483Z" fill="#F677BA"/>
<path d="M128.349 170.104C128.349 170.104 128.159 172.008 128.349 173.151C128.54 175.246 127.969 176.198 127.969 176.198" stroke="#CC3189" stroke-width="3.1252" stroke-linejoin="round"/>
<path d="M130.826 169.914C130.635 170.485 130.445 171.056 130.254 171.627C130.064 172.008 130.064 172.199 130.064 172.58C129.873 172.77 129.873 173.151 129.873 173.341C130.064 173.532 130.064 173.532 130.064 173.532C130.254 173.532 130.254 173.532 130.445 173.341C130.635 173.341 130.826 173.151 131.016 172.77C131.587 172.389 131.968 172.008 132.349 171.437C132.349 171.247 132.539 171.247 132.73 171.437V171.627V171.818C132.349 172.199 132.159 172.77 131.968 173.341C131.778 173.722 131.778 173.913 131.587 174.293C131.587 174.484 131.587 174.865 131.587 175.055C131.587 175.055 131.778 175.055 131.968 175.055C132.159 174.865 132.349 174.674 132.539 174.484C132.92 174.103 133.301 173.532 133.492 172.96C133.682 172.96 133.872 172.96 133.872 172.96C134.063 172.96 134.063 173.151 134.063 173.341C133.872 173.722 133.492 174.293 133.301 174.865C133.111 175.246 132.92 175.817 132.92 176.388C132.92 176.388 132.92 176.579 132.92 176.769C132.92 176.769 132.92 176.769 133.111 176.769C133.301 176.769 133.492 176.579 133.682 176.388C134.063 176.007 134.444 175.436 134.825 175.055C134.634 175.626 134.253 176.007 133.872 176.388C133.682 176.769 133.492 176.959 133.111 176.959C133.111 176.959 132.92 177.15 132.92 176.959C132.73 176.959 132.73 176.959 132.539 176.769C132.539 176.579 132.539 176.579 132.539 176.388C132.539 175.817 132.73 175.246 132.92 174.674C133.111 174.103 133.301 173.532 133.492 172.96L134.063 173.341C133.682 173.913 133.301 174.293 132.92 174.865C132.73 175.055 132.539 175.246 132.159 175.436C131.968 175.626 131.778 175.626 131.587 175.626C131.397 175.626 131.206 175.626 131.206 175.436C131.016 175.436 131.016 175.246 131.016 175.055C130.826 174.674 131.016 174.293 131.016 174.103C131.206 173.722 131.206 173.532 131.397 173.151C131.587 172.58 131.968 172.008 132.349 171.437L132.73 171.818C132.349 172.199 131.968 172.77 131.397 173.151C131.206 173.341 131.016 173.532 130.635 173.722C130.445 173.913 130.254 173.913 130.064 173.913C129.873 173.913 129.873 173.913 129.683 173.722V173.532C129.493 172.77 129.873 172.199 130.064 171.627C130.254 171.056 130.445 170.485 130.826 169.914Z" fill="#CC3189"/>
<path d="M65.3176 185.148C64.9368 184.767 64.3655 184.958 63.9846 184.577C63.4133 184.005 63.4133 183.053 63.6038 182.292C63.9846 181.149 65.5081 180.768 66.6506 180.959C69.3167 181.339 68.9358 183.815 67.4124 184.958L65.3176 185.148Z" fill="#FFE1AC"/>
<path d="M50.4641 251.036C50.4641 251.036 40.7522 261.51 38.8479 275.602C36.9436 289.694 36.9436 312.736 36.9436 312.736C36.9436 312.736 64.9368 317.877 90.4543 312.164C89.5022 300.548 90.4543 267.604 81.5041 251.036H50.4641Z" fill="#2A2A67"/>
<path d="M42.0852 313.497C42.0852 313.497 41.133 278.078 45.3225 266.08C48.5598 256.559 55.6057 247.418 55.6057 247.418" stroke="#5464AA" stroke-width="3.1252"/>
<path d="M90.8354 204L94.2632 219.806C94.2632 219.806 87.7885 222.472 80.9331 222.853C77.3149 222.853 71.7925 208.761 73.8872 205.905C79.9809 204.191 90.8354 204 90.8354 204Z" fill="#2D7EF9"/>
<path d="M49.7029 221.71C49.7029 221.71 49.322 240.372 50.4646 251.036C66.0799 254.464 81.5047 251.036 81.5047 251.036L82.6472 234.279C90.4548 226.09 83.5994 215.807 83.5994 215.807L73.8875 205.905L64.1756 205.333L49.7029 221.71Z" fill="#2D7EF9"/>
<path d="M64.175 205.333C64.175 205.333 55.6057 204 47.4172 210.856C45.5129 212.379 43.0374 215.616 41.1331 219.615L54.6536 228.375L62.4612 219.615L64.175 205.333Z" fill="#2D7EF9"/>
<path d="M86.0748 222.091C85.5035 219.615 83.5992 215.807 83.5992 213.331" stroke="#1A3887" stroke-width="3.1252" stroke-linejoin="round"/>
<path d="M88.3599 204L92.1685 220.568" stroke="#1A3887" stroke-width="3.1252" stroke-linejoin="round"/>
<path d="M42.2759 217.33L51.9878 223.424" stroke="#1A3887" stroke-width="3.1252" stroke-linejoin="round"/>
<path d="M74.6485 188.195C74.6485 188.195 78.2667 197.335 75.6007 200.192C74.0772 201.715 69.3165 200.953 67.6026 199.43C66.2696 198.478 64.3653 192.384 65.127 191.242C67.9835 186.671 74.6485 188.195 74.6485 188.195Z" fill="#F677BA"/>
<path d="M64.5558 196.383L64.1749 205.334C64.9366 207.619 72.7443 209.904 73.8868 205.905L73.1251 199.049L64.5558 196.383Z" fill="#F677BA"/>
<path d="M60.5568 195.241C60.1759 194.479 60.1759 193.527 60.1759 192.575C60.1759 191.432 60.3663 190.29 60.7472 189.147C61.3185 187.243 62.8419 185.719 64.5558 184.767C66.2697 184.005 69.6974 183.244 72.5538 184.767C73.8868 184.767 75.4103 185.148 76.5528 186.1C77.505 187.052 78.0763 188.576 77.6954 189.909C75.0294 189.718 72.3634 189.337 69.6974 188.957C69.3165 190.48 68.3644 191.623 67.0314 192.575C65.8888 193.336 64.3654 194.479 64.9366 196.193C65.1271 196.764 64.3654 196.955 64.3654 198.288C63.0323 198.288 60.9376 196.193 60.5568 195.431C60.5568 195.241 60.5568 195.241 60.5568 195.241Z" fill="#FFE1AC"/>
<path d="M65.8887 194.86C64.9366 193.527 64.1748 193.717 63.794 194.289C63.0323 195.05 63.9844 197.145 64.5557 197.336C65.5078 198.097 66.46 198.097 66.46 197.336L65.8887 194.86Z" fill="#F677BA"/>
<path d="M73.3154 201.334C69.8877 201.334 67.6025 199.43 67.6025 199.43" stroke="#CC3189" stroke-width="3.1252" stroke-linejoin="round"/>
<path d="M72.7441 192.765C72.7441 192.765 75.0293 194.86 74.8389 195.431C74.8389 196.002 73.5059 196.383 73.5059 196.383" stroke="#CC3189" stroke-width="2.08347" stroke-linejoin="round"/>
<path d="M75.0289 196.764L71.2203 197.907C71.2203 197.907 72.3629 199.811 74.4576 199.049C75.7907 198.668 75.0289 196.764 75.0289 196.764Z" fill="white"/>
<path d="M74.2679 192.194C74.2679 192.384 74.4584 192.384 74.4584 192.575C74.6488 192.956 75.2201 192.765 75.0297 192.384C75.0297 192.194 74.8392 192.003 74.8392 192.003C74.6488 191.623 74.2679 191.813 74.2679 192.194Z" fill="#00266E"/>
<path d="M73.5057 191.242C73.5057 191.242 73.8866 190.29 74.8387 190.861" stroke="#00266E" stroke-width="2.08347" stroke-linecap="round" stroke-linejoin="round"/>
<path d="M70.0779 193.717C70.0779 193.908 70.0779 194.098 70.0779 194.288C70.2683 194.669 70.8396 194.479 70.8396 194.098C70.6492 193.908 70.6492 193.717 70.4588 193.527C70.2683 193.336 69.8875 193.527 70.0779 193.717Z" fill="#00266E"/>
<path d="M70.4592 192.003C70.4592 192.003 69.5071 191.813 68.5549 193.146" stroke="#00266E" stroke-width="2.08347" stroke-linecap="round" stroke-linejoin="round"/>
<path d="M41.1337 219.616C36.9443 227.994 34.4687 240.372 43.2285 243.991C52.3691 247.99 76.5536 218.473 76.5536 218.473L69.1269 211.998L49.1318 224.757L41.1337 219.616Z" fill="#F677BA"/>
<path d="M49.1317 224.757L43.2284 229.518" stroke="#CC3189" stroke-width="3.1252" stroke-linejoin="round"/>
<path d="M76.553 214.474C75.4104 214.284 74.6487 213.141 74.8391 211.808L76.3625 203.239L80.7424 204.191L79.219 212.76C79.0286 213.903 77.886 214.665 76.553 214.474Z" fill="#2A2A67"/>
<path d="M81.5042 206.095L77.886 205.143C75.4105 204.572 73.887 202.096 74.4583 199.621C75.22 197.145 77.6956 195.622 80.1712 196.193L83.5989 196.955C83.7894 197.145 83.9798 197.335 83.9798 197.526L81.8851 205.714C81.8851 205.905 81.6946 206.095 81.5042 206.095Z" fill="#4275CF"/>
<path d="M84.1701 201.906C83.4084 204.381 82.2658 206.286 81.5041 206.095C80.5519 205.714 80.3615 203.62 80.9328 201.144C81.6945 198.668 82.8371 196.764 83.5988 196.955C84.551 197.145 84.7414 199.43 84.1701 201.906Z" fill="#9CCFFF"/>
<path d="M92.3589 213.712C92.3589 213.712 85.8843 208.19 82.0757 206.095C80.9331 204.953 81.314 202.667 81.6948 201.525C82.4565 198.288 83.5991 197.907 83.5991 197.907C88.7407 198.288 96.9292 195.812 96.9292 195.812L92.3589 213.712Z" fill="#2A2A67"/>
<path d="M92.7398 204C91.4068 209.523 91.5972 214.474 93.1207 214.855C94.6441 215.236 97.1197 211.046 98.6431 205.524C99.9761 199.811 99.7857 194.86 98.2623 194.479C96.5484 194.098 94.2632 198.287 92.7398 204Z" fill="#9CCFFF"/>
<path d="M93.692 204.191C92.5494 208.952 92.5494 213.141 93.692 213.331C95.025 213.712 96.9293 210.094 98.0719 205.333C99.2145 200.573 99.2145 196.574 98.0719 196.193C96.9293 195.812 94.8346 199.43 93.692 204.191Z" fill="#4275CF"/>
<path d="M95.7865 206.857C94.6439 206.666 93.6918 206.666 93.1205 206.857C93.3109 206.095 93.5013 205.143 93.6918 204.191C93.8822 203.239 94.2631 202.477 94.4535 201.715C95.0248 202.096 95.7865 202.477 96.9291 202.858L95.7865 206.857Z" fill="#2A2A67"/>
<path d="M95.7865 204.762C95.5961 205.905 95.5961 206.857 95.7865 207.047C96.1674 207.047 96.5482 206.095 96.9291 204.952C97.1195 203.81 97.1195 202.858 96.9291 202.858C96.5482 202.667 96.1674 203.619 95.7865 204.762Z" fill="#FFE1AC"/>
<path d="M65.5085 214.284C70.4597 211.046 73.8875 209.142 74.6492 208.952C76.5535 207.999 78.6482 208.38 80.3621 208.952C80.7429 209.142 81.3142 209.523 81.6951 209.904C82.0759 210.475 82.2664 211.237 82.2664 211.998C82.2664 211.998 82.2664 212.189 82.0759 212.379C81.8855 212.379 81.6951 211.998 81.5046 211.808C81.1238 211.237 80.3621 210.856 79.6003 210.856C79.9812 210.856 80.1716 211.237 80.3621 211.618C80.5525 211.998 80.3621 212.379 79.9812 212.57C80.3621 212.57 80.5525 212.951 80.7429 213.331C80.7429 213.522 80.5525 213.903 80.1716 214.093C80.3621 214.284 80.5525 214.474 80.5525 214.664C80.5525 215.045 80.3621 215.236 80.1716 215.426C79.4099 216.378 78.6482 217.14 77.696 217.711C75.03 220.187 69.5076 226.281 69.5076 226.281L65.5085 214.284Z" fill="#F677BA"/>
<path d="M95.7862 390.05L73.3155 388.527L65.8888 389.288L66.0792 417.091C66.0792 417.853 66.6505 418.424 67.4122 418.424C67.9835 418.424 68.3644 418.043 68.5548 417.662L74.2677 405.094L97.6905 407.951L95.7862 390.05Z" fill="#F677BA"/>
<path d="M66.4602 419.757C67.4124 419.376 68.3645 418.805 68.5549 418.234L74.2678 405.094C71.4114 397.858 73.6965 388.336 73.6965 388.336L63.6038 387.575C63.4133 387.575 63.0325 387.955 63.0325 388.336L63.2229 419.376C63.2229 420.138 66.4602 419.757 66.4602 419.757Z" fill="#2D7EF9"/>
<path d="M73.6968 407.951C72.7446 407.189 71.7925 406.618 70.6499 406.046" stroke="#1A3887" stroke-width="3.1252" stroke-linejoin="round"/>
<path d="M72.744 409.665C71.7919 408.903 71.0302 408.522 70.078 408.141" stroke="#1A3887" stroke-width="3.1252" stroke-linejoin="round"/>
<path d="M71.9828 410.998C71.4115 410.426 70.4594 410.045 69.5072 409.665" stroke="#1A3887" stroke-width="3.1252" stroke-linejoin="round"/>
<path d="M65.318 387.765V419.757" stroke="#1A3887" stroke-width="3.1252" stroke-linejoin="round"/>
<path d="M70.0787 388.146C70.0787 388.146 69.8883 395.573 65.318 396.144" stroke="#1A3887" stroke-width="3.1252" stroke-linejoin="round"/>
<path d="M69.8883 415.568C69.8883 415.568 66.8414 413.473 65.318 413.092" stroke="#1A3887" stroke-width="3.1252" stroke-linejoin="round"/>
<path d="M135.015 343.966C135.396 344.728 139.585 374.435 142.632 395.001C144.536 407.951 144.727 416.139 125.874 414.616C99.9758 412.521 81.885 411.378 81.885 411.378L81.1233 387.956L116.924 389.669L112.163 366.627C112.163 366.627 103.594 355.202 109.878 342.062L135.015 343.966Z" fill="#806EC1"/>
<path d="M85.1223 388.146L86.0745 411.378" stroke="#4B3F89" stroke-width="3.1252"/>
<path d="M128.731 359.391L135.015 395.763" stroke="#4B3F89" stroke-width="3.1252"/>
<path d="M135.015 395.763C135.205 396.715 134.443 397.667 133.491 397.667" stroke="#4B3F89" stroke-width="3.1252"/>
<path d="M133.491 397.667L81.3136 394.43" stroke="#4B3F89" stroke-width="3.1252"/>
<path d="M162.055 387.194L157.295 409.665L157.104 416.901L185.859 416.71C186.621 416.71 187.192 416.139 187.192 415.568C187.192 414.997 186.811 414.425 186.43 414.235L173.862 408.522L179.765 385.099L162.055 387.194Z" fill="#F677BA"/>
<path d="M188.525 416.52C188.145 415.568 187.573 414.425 187.002 414.235L173.862 408.522C166.626 411.569 157.104 409.284 157.104 409.284L155.391 419.186C155.391 419.567 155.771 419.757 156.152 419.757H188.335C188.906 419.757 188.525 416.52 188.525 416.52Z" fill="#2D7EF9"/>
<path d="M176.719 409.093C175.957 410.045 175.386 411.188 174.814 412.331" stroke="#1A3887" stroke-width="3.1252" stroke-linejoin="round"/>
<path d="M178.433 410.236C177.671 411.188 177.29 411.759 176.909 412.902" stroke="#1A3887" stroke-width="3.1252" stroke-linejoin="round"/>
<path d="M179.766 410.807C179.195 411.569 178.814 412.521 178.433 413.283" stroke="#1A3887" stroke-width="3.1252" stroke-linejoin="round"/>
<path d="M155.581 417.663L188.526 417.472" stroke="#1A3887" stroke-width="3.1252" stroke-linejoin="round"/>
<path d="M156.533 412.902C156.533 412.902 164.341 412.902 164.912 417.663" stroke="#1A3887" stroke-width="3.1252" stroke-linejoin="round"/>
<path d="M184.336 413.092C184.336 413.092 182.241 416.139 181.86 417.472" stroke="#1A3887" stroke-width="3.1252" stroke-linejoin="round"/>
<path d="M147.012 337.301L148.726 343.776C148.916 344.728 149.868 345.299 150.82 345.299H173.101C178.623 345.299 184.336 345.49 187.573 350.25C190.049 354.059 189.097 360.534 187.002 367.96C185.288 374.435 178.814 403.571 178.814 403.571H155.772L162.246 368.722H135.586C135.586 368.722 118.447 368.913 120.923 351.583L147.012 337.301Z" fill="#806EC1"/>
<path d="M156.343 399.953H179.385" stroke="#4B3F89" stroke-width="3.1252"/>
<path d="M138.823 368.722H135.586" stroke="#4B3F89" stroke-width="3.1252"/>
<path d="M135.586 368.722C135.586 368.722 119.209 368.722 119.019 351.583" stroke="#4B3F89" stroke-width="3.1252"/>
<path d="M136.919 342.824C136.919 342.824 137.3 362.057 153.677 362.057" stroke="#4B3F89" stroke-width="3.1252"/>
<path d="M153.677 362.057H165.864" stroke="#4B3F89" stroke-width="3.1252"/>
<path d="M165.864 362.057C167.388 362.057 168.53 363.39 168.149 364.913" stroke="#4B3F89" stroke-width="3.1252"/>
<path d="M168.15 364.914L160.152 403.38" stroke="#4B3F89" stroke-width="3.1252"/>
<path d="M138.633 350.822C138.633 351.203 145.298 349.298 145.298 342.824" stroke="#4B3F89" stroke-width="3.1252"/>
<path d="M124.541 353.488C124.541 353.488 127.969 353.488 131.206 352.536" stroke="#4B3F89" stroke-width="3.1252"/>
<path d="M107.593 353.488C107.593 353.488 110.83 353.678 113.306 353.488" stroke="#4B3F89" stroke-width="3.1252"/>
<path d="M127.208 272.936C127.208 272.936 135.206 248.18 150.059 228.375L139.966 222.091C123.97 239.611 113.306 268.746 113.306 268.746L127.208 272.936Z" fill="#F677BA"/>
<path d="M107.213 314.831C107.213 314.831 103.785 284.362 116.353 258.844L131.207 263.605L127.208 283.219L107.213 314.831Z" fill="#FFE1AC"/>
<path d="M115.211 261.701L129.874 266.842" stroke="#D19A4B" stroke-width="3.1252"/>
<path d="M147.964 231.232C150.44 227.614 159.009 218.092 158.629 217.331C158.248 216.569 155.01 219.806 154.82 219.044C154.629 218.283 159.009 212.951 158.438 212.379C157.676 211.427 153.296 217.14 153.296 217.14C153.296 217.14 157.676 210.665 156.724 210.094C155.963 209.523 152.535 214.474 150.821 216.188C152.344 214.093 154.439 210.475 153.677 210.094C152.916 209.713 150.44 212.951 148.536 215.236C149.678 213.712 151.392 210.665 150.821 210.285C150.25 209.904 141.871 218.664 135.396 227.423L147.964 231.232Z" fill="#F677BA"/>
<path d="M137.11 307.213C137.11 307.213 152.345 312.926 163.39 313.688C178.053 314.64 195.001 309.308 195.001 309.308C195.001 309.308 197.286 297.311 191.383 297.882C184.146 299.025 171.768 299.977 162.437 298.834C156.534 298.263 144.156 291.598 144.156 291.598L137.11 307.213Z" fill="#F677BA"/>
<path d="M188.145 298.454C192.334 297.882 204.712 294.074 205.284 294.835C205.665 295.597 201.475 296.93 202.046 297.501C202.427 297.882 209.283 296.359 209.664 297.121C210.044 298.263 202.999 299.596 202.999 299.596C202.999 299.596 210.806 298.644 210.997 299.787C210.997 300.548 205.093 301.691 202.999 302.262C205.474 301.881 209.473 301.691 209.473 302.453C209.664 303.214 205.665 304.166 202.618 304.928C204.522 304.547 208.14 304.166 208.14 304.928C208.331 305.69 198.619 308.356 189.668 310.641L188.145 298.454Z" fill="#F677BA"/>
<path d="M121.495 278.458L119.4 288.932C119.4 288.932 125.113 294.835 131.207 289.313V282.457L121.495 278.458Z" fill="#F677BA"/>
<path d="M132.54 268.746C132.54 268.746 137.491 278.649 134.444 281.886C132.73 283.6 130.445 284.362 128.35 282.838C126.637 281.505 120.733 274.459 121.495 273.126C124.732 267.794 132.54 268.746 132.54 268.746Z" fill="#F677BA"/>
<path d="M134.444 274.269C134.444 274.269 136.349 276.173 136.349 277.316C136.349 277.887 134.444 278.078 134.444 278.078V274.269Z" fill="#F677BA"/>
<path d="M134.444 279.03L131.207 278.458C131.017 279.791 133.302 282.838 134.444 279.03Z" fill="white"/>
<path d="M131.969 274.078C131.969 274.459 131.969 274.84 132.349 275.031C132.349 275.221 132.54 275.031 132.54 274.84C132.54 274.65 132.54 274.459 132.54 274.078C132.349 273.888 131.969 273.888 131.969 274.078Z" fill="#00266E"/>
<path d="M130.445 273.507C130.826 273.126 131.397 272.746 131.969 272.746C132.159 272.555 132.54 272.746 132.73 272.746" stroke="#00266E" stroke-width="2.08347" stroke-linecap="round" stroke-linejoin="round"/>
<path d="M120.352 269.508C120.923 265.89 124.542 265.128 131.207 266.271C132.159 266.271 133.682 265.89 134.063 266.652C134.634 267.794 134.444 269.889 133.301 270.841C132.349 271.603 131.016 271.222 129.874 271.603C127.969 272.174 128.921 273.888 127.969 275.221C126.446 277.316 127.398 280.363 124.732 282.077C123.209 283.029 121.304 282.648 119.59 282.457C119.4 282.267 119.21 282.267 119.019 282.267C118.448 281.696 118.638 280.172 118.448 279.411C118.067 277.125 117.686 274.84 117.877 272.555C118.067 270.46 119.59 269.318 120.352 269.508Z" fill="#0A0A3A"/>
<path d="M127.97 275.792C127.589 273.698 126.066 274.269 125.494 275.031C124.733 275.983 125.875 278.268 126.447 278.649C127.589 279.601 128.732 279.601 128.922 278.649L127.97 275.792Z" fill="#F677BA"/>
<path d="M131.207 283.79C128.922 283.029 127.398 281.886 127.398 281.886" stroke="#CC3189" stroke-width="3.1252" stroke-linejoin="round"/>
<path d="M119.209 285.695C119.209 285.695 110.259 289.694 107.403 303.976C106.26 310.26 108.545 344.538 108.545 344.538C128.16 348.346 149.297 342.633 149.297 342.633C149.297 342.633 146.822 320.353 145.679 311.974C143.204 292.55 129.874 286.457 129.874 286.457L119.209 285.695Z" fill="#FFE1AC"/>
<path d="M129.873 286.456C129.873 286.456 137.491 287.599 142.251 289.884C147.012 292.169 158.057 297.501 158.057 297.501L152.344 312.926L132.539 306.642L129.873 286.456Z" fill="#FFE1AC"/>
<path d="M145.489 310.641L134.444 307.213" stroke="#D19A4B" stroke-width="3.1252"/>
<path d="M154.63 295.788L149.298 311.784" stroke="#D19A4B" stroke-width="3.1252"/>
<path d="M108.355 342.062C108.355 342.062 127.398 344.918 148.916 340.538" stroke="#D19A4B" stroke-width="3.1252"/>
<path d="M412.66 385.099L417.231 407.57L416.469 414.996L388.666 414.806C387.904 414.806 387.333 414.235 387.333 413.473C387.333 412.902 387.714 412.521 388.095 412.33L400.663 406.617L394.76 383.195L412.66 385.099Z" fill="#F677BA"/>
<path d="M386 414.425C386.381 413.473 386.952 412.521 387.524 412.33L400.663 406.617C407.9 409.474 417.421 407.189 417.421 407.189L418.183 417.281C418.183 417.472 417.802 417.853 417.612 417.853L386.381 417.662C385.619 417.662 386 414.425 386 414.425Z" fill="#182679"/>
<path d="M397.807 407.189C398.569 408.141 399.14 409.093 399.711 410.236" stroke="#5464AA" stroke-width="3.1252"/>
<path d="M396.093 408.141C396.855 409.283 397.236 409.855 397.617 410.807" stroke="#5464AA" stroke-width="3.1252"/>
<path d="M394.76 408.903C395.331 409.474 395.712 410.616 396.283 411.378" stroke="#5464AA" stroke-width="3.1252"/>
<path d="M417.993 415.758L386.001 415.568" stroke="#5464AA" stroke-width="3.1252"/>
<path d="M417.612 410.807C417.612 410.807 410.185 410.997 409.614 415.568" stroke="#5464AA" stroke-width="3.1252"/>
<path d="M390.19 411.188C390.19 411.188 392.285 414.044 392.666 415.568" stroke="#5464AA" stroke-width="3.1252"/>
<path d="M402.568 303.405C402.568 303.405 384.668 343.395 385.62 357.677C386.572 370.817 396.474 404.142 396.474 404.142L417.993 400.333C417.993 400.333 407.71 359.01 408.281 354.821C408.662 350.441 421.801 321.114 421.801 321.114C421.801 321.114 426.943 314.259 425.229 302.262L402.568 303.405Z" fill="#2D7EF9"/>
<path d="M414.375 400.905C414.375 400.905 404.282 359.201 404.853 355.011C405.424 350.822 417.802 321.876 417.802 321.876" stroke="#1A3887" stroke-width="3.1252" stroke-linejoin="round"/>
<path d="M417.04 396.334L395.522 400.714" stroke="#1A3887" stroke-width="3.1252" stroke-linejoin="round"/>
<path d="M443.51 374.625L453.603 395.573L456.078 402.428L430.561 414.235C429.989 414.425 429.228 414.235 429.037 413.663C428.656 413.092 428.847 412.521 429.228 412.14L437.987 401.666L426.562 380.338L443.51 374.625Z" fill="#F677BA"/>
<path d="M428.276 414.996C428.086 414.044 428.086 412.902 428.467 412.521L438.179 401.666C445.986 401.285 453.603 395.192 453.603 395.192L458.364 403.951C458.555 404.142 458.364 404.523 458.174 404.713L429.8 417.853C429.228 418.043 428.276 414.996 428.276 414.996Z" fill="#182679"/>
<path d="M435.703 403.38C436.846 403.951 437.798 404.713 438.75 405.475" stroke="#5464AA" stroke-width="3.1252"/>
<path d="M434.751 405.094C435.893 405.665 436.274 406.046 437.226 406.808" stroke="#5464AA" stroke-width="3.1252"/>
<path d="M433.608 406.237C434.37 406.618 435.322 407.379 436.084 407.951" stroke="#5464AA" stroke-width="3.1252"/>
<path d="M457.602 402.618L428.466 415.948" stroke="#5464AA" stroke-width="3.1252"/>
<path d="M455.317 398.429C455.317 398.429 448.652 401.666 449.985 406.046" stroke="#5464AA" stroke-width="3.1252"/>
<path d="M430.561 410.236C430.561 410.236 433.798 412.14 434.75 413.092" stroke="#5464AA" stroke-width="3.1252"/>
<path d="M416.659 304.738C416.659 304.738 409.804 342.443 413.041 356.344C416.659 371.769 432.274 397.858 432.274 397.858L451.508 388.336C451.508 388.336 434.94 356.534 434.94 349.679C434.94 345.299 438.749 318.829 438.749 318.829C438.749 318.829 442.558 311.212 438.749 299.786L416.659 304.738Z" fill="#2D7EF9"/>
<path d="M447.129 390.621C447.129 390.621 430.371 359.391 430.371 350.631C430.371 346.251 433.037 326.256 434.179 319.781C435.512 313.307 437.798 305.88 434.37 300.548" stroke="#1A3887" stroke-width="3.1252" stroke-linejoin="round"/>
<path d="M412.279 343.395C413.232 332.731 414.565 318.639 416.088 305.88" stroke="#1A3887" stroke-width="3.1252" stroke-linejoin="round"/>
<path d="M427.514 305.88C427.514 305.88 428.847 309.118 435.893 311.022" stroke="#1A3887" stroke-width="3.1252" stroke-linejoin="round"/>
<path d="M413.041 306.642C413.041 306.642 411.899 314.449 412.66 315.402C412.851 315.973 415.136 316.354 415.136 316.354" stroke="#1A3887" stroke-width="3.1252" stroke-linejoin="round"/>
<path d="M399.902 309.689C399.902 309.689 404.092 309.879 406.567 307.023" stroke="#1A3887" stroke-width="3.1252" stroke-linejoin="round"/>
<path d="M449.794 384.908L430.18 394.43" stroke="#1A3887" stroke-width="3.1252" stroke-linejoin="round"/>
<path d="M408.471 246.847C408.471 246.847 400.473 249.132 399.14 264.747C398.188 271.031 400.854 306.642 400.854 306.642C420.468 309.879 441.416 303.785 441.416 303.785C441.416 303.785 437.798 281.696 436.274 273.317C432.846 252.179 418.374 247.799 418.374 247.799L408.471 246.847Z" fill="#182679"/>
<path d="M411.899 246.847C411.899 246.847 407.138 238.468 399.712 230.28C390 219.425 375.146 210.284 375.146 210.284C375.146 210.284 365.244 217.14 369.814 220.948C375.908 224.948 383.525 233.136 389.428 240.372C393.237 245.133 400.664 259.034 400.664 259.034L411.899 246.847Z" fill="#F677BA"/>
<path d="M372.48 222.662C369.052 220.187 357.626 214.284 357.817 213.331C358.007 212.379 362.006 214.474 362.006 213.712C361.816 212.951 355.913 209.332 356.293 208.571C356.674 207.428 362.768 211.427 362.768 211.427C362.768 211.427 356.484 206.666 357.055 205.905C357.626 205.143 362.578 208.571 364.672 209.523C362.578 208.19 359.531 205.524 359.912 204.953C360.483 204.191 363.911 206.476 366.577 207.999C365.053 206.857 362.197 204.572 362.768 204C363.149 203.429 371.909 207.809 380.097 213.522L372.48 222.662Z" fill="#F677BA"/>
<path d="M426.753 272.936C426.753 272.936 419.517 287.409 411.9 295.407C401.616 305.88 385.43 313.307 385.43 313.307C385.43 313.307 375.718 306.071 380.479 302.452C386.573 298.644 396.475 290.836 402.569 283.79C406.377 279.22 412.661 265.319 412.661 265.319L426.753 272.936Z" fill="#F677BA"/>
<path d="M383.335 300.739C379.717 303.214 368.101 308.737 368.291 309.689C368.291 310.45 372.481 308.546 372.29 309.308C372.29 310.07 366.197 313.497 366.577 314.259C366.958 315.402 373.052 311.783 373.052 311.783C373.052 311.783 366.577 316.163 367.339 317.115C367.72 317.687 372.862 314.64 374.956 313.688C372.862 315.021 369.624 317.496 370.196 318.068C370.576 318.829 374.195 316.735 376.861 315.211C375.337 316.354 372.29 318.448 372.862 319.02C373.242 319.781 382.193 315.211 390.381 310.641L383.335 300.739Z" fill="#F677BA"/>
<path d="M412.28 261.7C410.186 268.365 404.854 279.791 404.854 279.791L419.517 287.408C419.517 287.408 426.943 278.268 429.8 267.223L412.28 261.7Z" fill="#182679"/>
<path d="M419.517 287.408C419.517 287.408 427.515 275.983 429.038 269.889" stroke="#5464AA" stroke-width="3.1252"/>
<path d="M404.854 279.791C404.854 279.791 410.376 269.318 411.519 264.176" stroke="#5464AA" stroke-width="3.1252"/>
<path d="M398.95 269.318C398.759 263.605 396.093 251.608 387.905 240.753L400.663 230.47C400.663 230.47 412.089 239.611 415.327 247.609L398.95 269.318Z" fill="#182679"/>
<path d="M405.996 230.28C405.996 230.28 402.758 239.42 405.615 242.467C407.138 243.99 411.709 244.181 413.613 242.657C414.946 241.515 417.041 234.469 416.279 233.326C413.232 228.566 405.996 230.28 405.996 230.28Z" fill="#F677BA"/>
<path d="M407.9 234.66C407.9 234.66 405.996 236.754 406.186 237.516C406.186 238.087 407.709 238.278 407.709 238.278" stroke="#CC3189" stroke-width="2.08347" stroke-linejoin="round"/>
<path d="M405.995 239.039L409.994 239.992C409.994 239.992 409.042 242.086 406.757 241.325C405.234 240.753 405.995 239.039 405.995 239.039Z" fill="white"/>
<path d="M406.186 233.707C405.996 233.898 405.996 234.088 405.996 234.279C405.805 234.659 406.376 234.85 406.567 234.469C406.567 234.279 406.567 234.088 406.757 233.898C406.757 233.517 406.376 233.326 406.186 233.707Z" fill="#00266E"/>
<path d="M407.709 232.946C407.709 232.946 407.138 231.994 406.186 232.565" stroke="#00266E" stroke-width="2.08347" stroke-linecap="round" stroke-linejoin="round"/>
<path d="M410.756 235.231C410.756 235.421 410.566 235.802 410.566 235.992C410.375 236.373 411.137 236.373 411.137 235.992C411.328 235.992 411.328 235.802 411.328 235.612C411.328 235.231 410.947 235.04 410.756 235.231Z" fill="#00266E"/>
<path d="M410.756 233.707C410.756 233.707 411.899 233.517 412.851 234.85" stroke="#00266E" stroke-width="2.08347" stroke-linecap="round" stroke-linejoin="round"/>
<path d="M416.469 238.658L418.373 247.799C418.373 247.799 411.518 252.941 407.709 247.418L407.519 241.515L416.469 238.658Z" fill="#F677BA"/>
<path d="M419.897 237.135C419.897 236.754 419.897 236.373 420.088 236.183C420.468 235.421 420.849 234.659 421.04 233.898C421.801 232.374 421.23 230.47 419.897 229.518C419.707 229.327 419.516 229.137 419.326 228.947C418.755 228.566 418.564 227.804 418.374 227.233C418.183 226.661 417.802 226.281 417.422 226.09C416.279 225.519 414.946 226.281 413.803 225.709C413.613 225.519 413.422 225.328 413.232 225.138C411.518 223.995 409.804 224.376 408.09 224.948C407.329 225.138 407.138 225.519 406.377 226.09C405.805 226.471 404.663 226.471 404.091 227.042C403.33 227.614 403.139 228.756 403.139 229.708C403.139 229.899 403.139 230.28 403.139 230.66C403.33 231.041 403.711 231.422 404.282 231.613C405.234 231.993 406.186 231.803 407.329 231.803C408.281 231.613 409.423 230.851 410.376 231.232C411.328 231.613 411.709 232.755 412.851 232.946C413.232 232.946 413.803 232.946 414.184 233.326C414.375 233.707 414.184 234.279 414.565 234.85C414.756 235.231 415.136 235.802 415.517 236.183C416.089 236.945 416.85 237.516 416.66 238.658C416.279 239.42 415.517 240.753 415.898 241.515C416.089 242.086 417.231 242.086 418.183 241.324C419.135 240.563 419.326 239.23 419.516 238.278C419.707 237.897 419.707 237.516 419.897 237.135Z" fill="#212136"/>
<path d="M415.708 237.325C416.469 235.802 417.422 235.992 417.802 236.564C418.564 237.516 417.612 239.611 417.041 239.992C416.089 240.753 415.136 240.944 414.946 239.992L415.708 237.325Z" fill="#F677BA"/>
<path d="M407.899 243.8C411.137 243.991 413.803 242.277 413.803 242.277" stroke="#CC3189" stroke-width="3.1252" stroke-linejoin="round"/>
<path d="M398.759 267.223C398.759 267.223 398.95 258.273 397.998 255.607" stroke="#5464AA" stroke-width="3.1252"/>
<path d="M406.757 249.132C406.757 249.132 408.281 251.989 412.661 251.798C417.802 251.798 419.706 248.37 419.706 248.37" stroke="#5464AA" stroke-width="3.1252"/>
<path d="M320.493 201.906C319.921 206.095 316.874 215.807 317.446 216.378C318.017 216.759 319.54 212.951 319.921 213.331C320.493 213.712 318.779 219.425 319.54 219.616C320.493 219.996 321.826 214.474 321.826 214.474C321.826 214.474 320.683 220.568 321.635 220.568C322.397 220.758 323.539 216.188 323.92 214.474C323.73 216.378 323.159 219.425 323.92 219.616C324.492 219.616 325.444 216.95 326.015 214.474C325.825 215.997 325.063 219.044 325.634 219.044C326.396 219.235 328.681 212.379 330.205 203.81L320.493 201.906Z" fill="#F677BA"/>
<path d="M332.87 159.059C335.727 181.339 329.252 208.19 329.252 208.19L319.921 206.095C319.921 206.095 323.349 181.911 319.54 160.773L332.87 159.059Z" fill="#F677BA"/>
<path d="M313.447 139.254C317.827 139.254 322.207 140.587 326.206 143.825C332.49 148.585 334.013 159.821 334.013 159.821L319.541 162.677C319.541 162.677 318.779 153.346 318.589 150.109L313.447 139.254Z" fill="#FF9356"/>
<path d="M318.97 162.677C318.398 158.297 317.065 154.489 317.065 154.489" stroke="#A52F2D" stroke-width="3.1252"/>
<path d="M414.946 155.06L410.185 137.541L427.895 132.589L432.656 150.299L414.946 155.06Z" stroke="#90AAE4" stroke-width="6.2504"/>
<path d="M10.8546 346.823L11.9972 337.873L20.757 339.015L19.6144 347.965L10.8546 346.823Z" stroke="#90AAE4" stroke-width="6.2504"/>
<path d="M469.028 354.249C469.028 358.248 465.791 361.486 461.792 361.486C457.793 361.486 454.555 358.248 454.555 354.249C454.555 350.25 457.793 347.013 461.792 347.013C465.791 347.013 469.028 350.25 469.028 354.249Z" stroke="#FF9C93" stroke-width="6.2504"/>
<path d="M177.861 106.881C177.861 108.976 176.148 110.5 174.243 110.5C172.149 110.5 170.625 108.976 170.625 106.881C170.625 104.977 172.149 103.263 174.243 103.263C176.148 103.263 177.861 104.977 177.861 106.881Z" stroke="#90AAE4" stroke-width="6.2504"/>
<path d="M477.407 266.081C477.407 268.175 475.883 269.699 473.789 269.699C471.884 269.699 470.171 268.175 470.171 266.081C470.171 264.176 471.884 262.463 473.789 262.463C475.883 262.463 477.407 264.176 477.407 266.081Z" stroke="#90AAE4" stroke-width="6.2504"/>
<path d="M481.025 340.729C481.025 342.824 479.502 344.347 477.407 344.347C475.503 344.347 473.789 342.824 473.789 340.729C473.789 338.825 475.503 337.111 477.407 337.111C479.502 337.111 481.025 338.825 481.025 340.729Z" stroke="#90AAE4" stroke-width="6.2504"/>
<path d="M7.23633 314.45C7.23633 316.544 5.52246 318.068 3.61816 318.068C1.71387 318.068 0 316.544 0 314.45C0 312.545 1.71387 310.832 3.61816 310.832C5.52246 310.832 7.23633 312.545 7.23633 314.45Z" stroke="#FF9C93" stroke-width="6.2504"/>
<path d="M94.6437 120.212L95.0245 122.687" stroke="#90AAE4" stroke-width="6.2504"/>
<path d="M95.0248 122.687C95.2152 123.639 96.1674 124.591 97.1195 124.401" stroke="#90AAE4" stroke-width="6.2504"/>
<path d="M97.1194 124.401H98.8333" stroke="#90AAE4" stroke-width="6.2504"/>
<path d="M98.833 124.401C99.7852 124.401 100.737 125.163 100.928 126.305" stroke="#90AAE4" stroke-width="6.2504"/>
<path d="M100.927 126.305L101.118 127.829" stroke="#90AAE4" stroke-width="6.2504"/>
<path d="M101.118 127.829C101.309 128.971 102.261 129.733 103.404 129.733" stroke="#90AAE4" stroke-width="6.2504"/>
<path d="M103.403 129.733L104.927 129.542" stroke="#90AAE4" stroke-width="6.2504"/>
<path d="M104.927 129.542C106.069 129.542 107.021 130.304 107.212 131.447" stroke="#90AAE4" stroke-width="6.2504"/>
<path d="M107.212 131.447L107.402 132.97" stroke="#90AAE4" stroke-width="6.2504"/>
<path d="M107.402 132.97C107.593 134.113 108.545 134.875 109.687 134.875" stroke="#90AAE4" stroke-width="6.2504"/>
<path d="M109.688 134.875H111.592" stroke="#90AAE4" stroke-width="6.2504"/>
<path d="M25.3268 278.268L24.5651 275.983" stroke="#90AAE4" stroke-width="6.2504"/>
<path d="M24.5654 275.983C24.1846 275.031 23.2324 274.269 22.0898 274.459" stroke="#90AAE4" stroke-width="6.2504"/>
<path d="M22.09 274.46L20.5665 274.84" stroke="#90AAE4" stroke-width="6.2504"/>
<path d="M20.5665 274.84C19.424 275.031 18.4718 274.459 18.0909 273.317" stroke="#90AAE4" stroke-width="6.2504"/>
<path d="M18.0908 273.317L17.5195 271.793" stroke="#90AAE4" stroke-width="6.2504"/>
<path d="M17.5193 271.793C17.3289 270.841 16.1863 270.27 15.2341 270.46" stroke="#90AAE4" stroke-width="6.2504"/>
<path d="M15.2345 270.46L13.5206 270.651" stroke="#90AAE4" stroke-width="6.2504"/>
<path d="M13.5205 270.651C12.5684 270.841 11.4258 270.27 11.0449 269.127" stroke="#90AAE4" stroke-width="6.2504"/>
<path d="M11.0447 269.127L10.6638 267.604" stroke="#90AAE4" stroke-width="6.2504"/>
<path d="M10.6637 267.604C10.2828 266.652 9.33069 266.081 8.18811 266.271" stroke="#90AAE4" stroke-width="6.2504"/>
<path d="M8.18811 266.271L6.28381 266.461" stroke="#90AAE4" stroke-width="6.2504"/>
<path d="M395.903 182.482L398.379 182.292" stroke="#90AAE4" stroke-width="6.2504"/>
<path d="M398.379 182.292C399.331 182.292 400.283 181.339 400.283 180.387" stroke="#90AAE4" stroke-width="6.2504"/>
<path d="M400.283 180.387L400.474 178.673" stroke="#90AAE4" stroke-width="6.2504"/>
<path d="M400.473 178.673C400.473 177.721 401.235 176.769 402.378 176.579" stroke="#90AAE4" stroke-width="6.2504"/>
<path d="M402.378 176.579H403.901" stroke="#90AAE4" stroke-width="6.2504"/>
<path d="M403.901 176.579C405.044 176.388 405.805 175.626 405.996 174.484" stroke="#90AAE4" stroke-width="6.2504"/>
<path d="M405.996 174.484V172.96" stroke="#90AAE4" stroke-width="6.2504"/>
<path d="M405.996 172.961C405.996 171.818 406.948 170.866 408.09 170.866" stroke="#90AAE4" stroke-width="6.2504"/>
<path d="M408.091 170.866L409.614 170.675" stroke="#90AAE4" stroke-width="6.2504"/>
<path d="M409.614 170.675C410.757 170.675 411.518 169.723 411.518 168.581" stroke="#90AAE4" stroke-width="6.2504"/>
<path d="M411.518 168.581L411.709 166.867" stroke="#90AAE4" stroke-width="6.2504"/>
<path d="M470.933 217.711L468.457 218.473" stroke="#90AAE4" stroke-width="6.2504"/>
<path d="M468.457 218.473C467.504 218.854 466.933 219.806 467.124 220.949" stroke="#90AAE4" stroke-width="6.2504"/>
<path d="M467.124 220.949L467.314 222.472" stroke="#90AAE4" stroke-width="6.2504"/>
<path d="M467.314 222.472C467.505 223.424 466.934 224.567 465.791 224.948" stroke="#90AAE4" stroke-width="6.2504"/>
<path d="M465.791 224.948L464.267 225.329" stroke="#90AAE4" stroke-width="6.2504"/>
<path d="M464.267 225.328C463.315 225.709 462.744 226.661 462.934 227.804" stroke="#90AAE4" stroke-width="6.2504"/>
<path d="M462.934 227.804L463.125 229.328" stroke="#90AAE4" stroke-width="6.2504"/>
<path d="M463.125 229.328C463.315 230.47 462.744 231.422 461.601 231.803" stroke="#90AAE4" stroke-width="6.2504"/>
<path d="M461.601 231.803L460.078 232.375" stroke="#90AAE4" stroke-width="6.2504"/>
<path d="M460.078 232.375C459.126 232.565 458.555 233.708 458.745 234.66" stroke="#90AAE4" stroke-width="6.2504"/>
<path d="M458.745 234.66L458.935 236.564" stroke="#90AAE4" stroke-width="6.2504"/>
<path d="M484.072 323.209L485.977 324.542" stroke="#90AAE4" stroke-width="6.2504"/>
<path d="M485.976 324.543C486.928 325.114 488.071 324.923 488.833 324.162" stroke="#90AAE4" stroke-width="6.2504"/>
<path d="M488.833 324.162L489.975 323.019" stroke="#90AAE4" stroke-width="6.2504"/>
<path d="M489.975 323.019C490.737 322.257 491.88 322.067 492.832 322.638" stroke="#90AAE4" stroke-width="6.2504"/>
<path d="M492.832 322.638L494.165 323.59" stroke="#90AAE4" stroke-width="6.2504"/>
<path d="M494.165 323.59C494.926 324.162 496.259 323.971 496.831 323.209" stroke="#90AAE4" stroke-width="6.2504"/>
<path d="M496.831 323.209L497.974 322.067" stroke="#90AAE4" stroke-width="6.2504"/>
<path d="M497.973 322.067C498.735 321.115 499.878 321.115 500.83 321.686" stroke="#90AAE4" stroke-width="6.2504"/>
<path d="M500.83 321.686L502.163 322.448" stroke="#90AAE4" stroke-width="6.2504"/>
<path d="M502.163 322.448C503.115 323.209 504.257 323.019 505.019 322.257" stroke="#90AAE4" stroke-width="6.2504"/>
<path d="M505.019 322.257L506.162 320.734" stroke="#90AAE4" stroke-width="6.2504"/>
<path d="M462.934 247.609L454.555 252.75" stroke="#FF9C93" stroke-width="6.2504"/>
<path d="M378.574 139.064L370.767 145.348" stroke="#FF9C93" stroke-width="6.2504"/>
<path d="M207.568 153.346L198.047 151.061" stroke="#FF9C93" stroke-width="6.2504"/>
<path d="M26.4695 194.86L19.2332 188.385" stroke="#FF9C93" stroke-width="6.2504"/>
</g>
<defs>
<clipPath id="clip0">
<rect width="507" height="507" fill="white"/>
</clipPath>
</defs>
</svg>
