<svg viewBox="0 0 542 362" fill="none" xmlns="http://www.w3.org/2000/svg">
<path fill-rule="evenodd" clip-rule="evenodd" d="M392.954 330.046C378.712 330.046 365.731 326.892 349.596 323.424C353.801 323.213 357.9 322.53 361.999 321.427C370.25 324.843 379.342 326.367 387.278 326.367C397.789 326.367 406.356 323.739 408.826 319.272C412.032 313.438 404.569 304.662 400.943 296.988C404.937 292.469 407.932 287.896 409.562 283.745C412.715 283.797 416.289 284.323 419.968 284.848C423.909 285.374 428.008 285.952 431.687 285.952C436.575 285.952 440.884 285.006 443.565 281.853C452.184 271.815 434.105 251.791 442.776 239.861C446.35 234.921 452.604 233.975 459.489 233.975C461.644 233.975 463.851 234.08 466.058 234.185C468.266 234.238 470.473 234.343 472.628 234.343C479.618 234.343 486.082 233.397 489.866 228.404C497.171 218.839 491.232 199.289 479.828 188.515C471.839 181 460.698 177.268 450.765 177.268C443.144 177.268 436.26 179.475 432.003 183.785C430.373 185.467 429.27 187.359 428.429 189.408C418.128 177.216 397.474 166.652 399.734 151.937C400.575 146.786 403.886 143.055 408.353 140.007C429.375 151.306 445.457 141.688 468.213 152.83C501.113 168.912 517.457 232.924 493.597 276.492C475.623 309.234 440.622 320.06 425.749 324.685C413.24 328.574 402.782 330.046 392.954 330.046ZM174.273 321.9C161.239 321.9 146.944 320.323 128.917 315.803C116.252 312.65 63.539 298.407 62.3302 275.861C61.3316 256.994 99.2239 247.009 95.3348 228.299C91.1829 208.433 58.2835 210.43 46.4586 187.727C28.3796 152.83 70.1083 79.0428 109.262 77.9917C109.577 77.9917 109.84 77.9917 110.103 77.9917C126.605 77.9917 139.323 90.9202 150.78 103.901C155.405 109.104 159.767 114.307 164.182 118.669C163.394 118.827 162.71 119.195 162.132 119.878L158.086 125.028C149.572 107.317 133.963 96.1231 119.142 96.1231C115.463 96.1231 111.89 96.8064 108.421 98.2253C90.1844 105.741 83.4573 131.44 93.4428 155.615C95.4924 160.556 98.0676 165.075 101.063 169.017C110.523 181.63 115.148 197.344 113.361 213.006C111.785 227.038 113.887 242.541 120.088 257.572C129.39 280.066 145.84 296.673 163.972 304.189C170.804 307.079 177.11 311.126 182.471 316.224C184.521 318.221 186.728 319.902 189.04 321.269C184.205 321.637 179.318 321.9 174.273 321.9ZM326.525 318.904C325.736 318.799 324.948 318.694 324.107 318.536C324.37 318.378 324.633 318.273 324.895 318.116C325.421 318.378 325.946 318.641 326.525 318.904ZM379.29 257.782C377.293 257.152 375.401 256.469 373.719 255.68C375.296 250.214 376.399 244.539 377.083 238.705C378.607 237.917 380.236 237.233 381.918 236.498C381.813 244.591 383.021 253.525 379.29 257.782ZM417.813 228.036C414.975 228.036 411.874 227.09 408.668 225.829C415.973 222.676 422.753 219.102 427.483 214.845C427.483 219.943 426.642 224.2 423.068 226.565C421.492 227.616 419.705 228.036 417.813 228.036ZM186.36 165.653C181.473 162.5 177.11 158.664 173.327 154.354C173.432 153.303 174.01 152.357 174.851 151.779L185.099 145.315C187.464 143.843 187.043 140.322 184.468 139.323L173.116 135.172C172.065 134.804 171.277 133.91 171.014 132.859L168.439 122.611C173.537 126.973 178.635 129.811 184.1 129.811C185.362 129.811 186.623 129.653 187.884 129.338C195.768 127.393 199.499 120.351 202.495 110.891L208.696 109.104C209.117 108.999 209.537 108.947 209.905 108.947C210.903 108.947 211.902 109.314 212.69 109.945L224.883 120.036C225.724 120.771 226.722 121.087 227.668 121.087C229.876 121.087 231.978 119.405 232.083 116.83L232.661 101.063C232.766 99.5918 233.502 98.2779 234.711 97.4896L248.112 89.0808C251.161 87.1362 250.688 82.5114 247.272 81.2501L232.398 75.7843C231.085 75.2588 230.033 74.1551 229.666 72.7361L225.776 57.3901C225.619 56.8645 225.409 56.3915 225.146 55.9711C227.09 53.7112 229.245 51.5039 231.663 49.4543C247.482 35.8425 270.869 29.2206 294.519 29.2206C322.425 29.2206 350.752 38.4703 367.36 56.4441C373.719 63.2237 377.766 70.2135 380.551 77.1508C368.516 82.7742 359.477 93.2326 357.322 103.323C356.639 106.634 356.691 109.735 357.269 112.678L354.904 111.679C354.274 111.417 353.801 110.839 353.643 110.155L352.066 102.798C351.856 101.694 350.963 101.116 350.017 101.116C349.439 101.116 348.86 101.326 348.44 101.852L343.5 107.58C343.132 108.053 342.554 108.316 341.923 108.316C341.871 108.316 341.766 108.316 341.713 108.316L334.198 107.528C334.093 107.528 334.04 107.528 333.935 107.528C332.358 107.528 331.307 109.314 332.148 110.733L336.142 117.145C336.51 117.776 336.51 118.512 336.247 119.142L333.199 126.027C332.516 127.446 333.62 128.97 335.091 128.97C335.249 128.97 335.406 128.97 335.564 128.917L342.922 127.183C343.079 127.131 343.29 127.078 343.447 127.078C343.92 127.078 344.446 127.288 344.814 127.656L350.437 132.701C350.858 133.069 351.383 133.227 351.856 133.227C352.855 133.227 353.853 132.491 353.958 131.282L354.536 123.767C354.589 123.084 355.009 122.453 355.588 122.085L359.634 119.773C364.574 130.704 373.929 139.639 369.83 149.624C367.255 155.826 361.106 158.401 354.169 160.188C334.828 136.433 305.345 121.244 272.34 121.244C236.813 121.244 205.438 138.798 186.36 165.653ZM290.629 103.166C291.418 103.166 292.259 103.428 292.889 104.006L301.876 112.1C302.507 112.678 303.295 112.941 304.084 112.941C305.713 112.941 307.289 111.732 307.447 109.84L308.393 97.8049C308.498 96.7012 309.129 95.7027 310.075 95.1771L320.533 89.1333C322.951 87.7143 322.688 84.1931 320.113 83.0895L308.971 78.4646C307.92 78.0442 307.184 77.1508 306.974 76.0997L304.451 64.2748C304.084 62.593 302.612 61.5945 301.14 61.5945C300.247 61.5945 299.301 61.9624 298.618 62.8032L290.787 71.9478C290.104 72.7361 289.21 73.1566 288.212 73.1566C288.107 73.1566 288.002 73.1566 287.844 73.104L275.861 71.8427C275.704 71.8427 275.599 71.8427 275.494 71.8427C272.918 71.8427 271.237 74.6807 272.656 76.9406L278.962 87.2413C279.54 88.1873 279.593 89.3961 279.172 90.3946L274.232 101.431C273.234 103.691 274.968 106.161 277.28 106.161C277.543 106.161 277.806 106.109 278.069 106.056L289.841 103.218C290.104 103.166 290.367 103.166 290.629 103.166Z" fill="#D0DCFF"/>
<path d="M138.64 270.238C132.176 261.514 123.504 255.733 114.833 253.578C107.107 251.633 100.327 246.798 96.123 240.019C95.7026 239.283 95.2296 238.6 94.704 237.917C86.9784 227.406 74.2601 223.622 66.3243 229.455C58.4411 235.289 58.2834 248.533 66.0615 259.044C67.6382 261.198 69.4251 263.038 71.317 264.615C77.466 269.607 81.5653 276.65 82.6164 284.428C83.5624 291.418 86.4529 298.67 91.288 305.187C98.488 314.962 108.473 321.006 118.144 322.478C121.77 323.056 125.344 324.264 128.549 326.104C133.858 329.152 140.006 329.362 144.421 326.051C149.256 322.53 150.728 315.908 148.783 309.444C147.68 305.818 147.312 301.981 147.574 298.145C148.1 289.158 145.157 279.067 138.64 270.238Z" fill="#91B3FA"/>
<path d="M77.3609 238.6C83.5099 244.749 89.4486 251.108 95.3347 257.572C96.8063 259.149 98.2778 260.778 99.7494 262.407L101.904 264.825L104.059 267.295C105.478 268.924 106.949 270.553 108.368 272.235L112.573 277.228C115.358 280.539 118.196 283.902 120.929 287.318C122.295 289 123.662 290.682 125.028 292.416L129.023 297.567C134.278 304.504 139.376 311.599 144.106 318.904L143.843 319.114L140.059 313.753L139.113 312.44L138.167 311.126L136.223 308.498L134.278 305.87C133.647 304.977 132.964 304.136 132.281 303.242C130.967 301.561 129.653 299.826 128.339 298.092C122.926 291.26 117.408 284.533 111.784 277.858C108.946 274.6 106.161 271.236 103.271 267.978L101.168 265.508L98.961 263.09C97.542 261.461 96.1231 259.832 94.6515 258.203C91.761 254.944 88.8705 251.686 85.9274 248.48C82.9843 245.222 80.0412 242.016 77.0981 238.863L77.3609 238.6Z" fill="#DCE5FE"/>
<path d="M229.35 212.48C221.046 192.351 207.014 176.953 191.195 168.544C177.058 161.028 166.232 148.363 161.344 133.122C160.818 131.493 160.24 129.916 159.557 128.287C149.572 104.164 126.71 90.6573 108.421 98.2252C90.1845 105.741 83.4574 131.44 93.4429 155.615C95.4925 160.555 98.0677 165.075 101.063 169.017C110.523 181.63 115.148 197.344 113.361 213.005C111.785 227.038 113.887 242.541 120.088 257.572C129.391 280.066 145.84 296.673 163.972 304.188C170.804 307.079 177.11 311.126 182.471 316.223C191.405 324.737 203.23 328.101 213.479 323.896C224.515 319.324 230.664 307.184 230.033 293.677C229.666 286.004 230.822 278.384 233.134 271.079C238.6 253.841 237.759 232.766 229.35 212.48Z" fill="#BDD0FB"/>
<path d="M125.449 121.297C134.436 136.275 142.95 151.516 151.253 166.862C153.355 170.699 155.353 174.588 157.402 178.424L160.45 184.205L163.446 190.039C165.443 193.928 167.493 197.765 169.437 201.706L175.271 213.426C179.055 221.309 182.891 229.14 186.518 237.076C188.357 241.017 190.249 244.959 192.036 248.953L197.292 260.936C204.176 277.018 210.693 293.257 216.369 309.759L215.633 310.022L210.956 297.829L209.747 294.781L208.538 291.733L206.016 285.689L203.546 279.645C202.705 277.648 201.811 275.651 200.918 273.654C199.183 269.66 197.502 265.666 195.715 261.671C188.515 245.8 181.105 229.981 173.379 214.372C169.437 206.594 165.601 198.763 161.607 190.985L158.664 185.151L155.615 179.37C153.618 175.481 151.621 171.592 149.572 167.756C145.525 160.03 141.426 152.304 137.274 144.631C133.174 136.958 129.023 129.285 124.818 121.665L125.449 121.297Z" fill="#DCE5FE"/>
<path d="M330.729 320.691C299.563 309.339 284.532 265.035 296.305 248.848C306.343 235.131 332.673 246.273 340.399 232.661C349.543 216.579 317.8 191.931 326.945 173.484C334.775 157.718 363.365 165.128 369.83 149.624C375.821 135.119 353.222 122.769 357.322 103.323C360.843 86.6633 383.231 69.0048 406.881 73.7873C428.061 78.0442 443.828 98.9086 440.937 113.939C437.101 133.858 402.572 133.648 399.734 151.937C396.633 172.013 436.365 184.416 434 203.756C431.004 227.826 365.993 234.08 366.834 248.848C367.465 260.358 407.354 259.412 410.77 274.705C414.817 292.574 369.041 334.671 330.729 320.691Z" fill="#91B3FA"/>
<path d="M402.729 102.587L386.332 151.884L378.186 176.532L374.139 188.883L370.145 201.233C368.779 205.332 367.465 209.432 366.151 213.584C364.837 217.683 363.523 221.835 362.262 225.934L358.373 238.337L354.641 250.74C353.327 254.892 352.171 259.044 350.962 263.196L349.123 269.397C348.492 271.499 347.967 273.601 347.336 275.651L345.602 281.905C345.024 284.007 344.393 286.057 343.868 288.159L342.291 294.466L340.609 300.72L340.031 300.615C343.289 283.587 347.494 266.717 352.066 250.004L355.587 237.496L359.266 225.041C360.475 220.889 361.789 216.737 363.103 212.585C364.417 208.486 365.678 204.334 366.992 200.235L371.038 187.832L375.138 175.534C376.504 171.435 377.976 167.335 379.395 163.236C380.814 159.137 382.233 155.037 383.704 150.991C386.647 142.845 389.643 134.699 392.691 126.605C395.792 118.512 398.893 110.418 402.204 102.377L402.729 102.587Z" fill="#DCE5FE"/>
<path d="M396.265 106.844C391.009 97.069 396.055 80.8822 396.107 80.7245L396.633 80.8822C396.58 81.0398 391.587 97.0165 396.738 106.581L396.265 106.844Z" fill="#DCE5FE"/>
<path d="M393.427 114.938C383.967 103.849 384.913 87.6618 384.965 87.5042H385.491C385.491 87.6618 384.545 103.691 393.847 114.57L393.427 114.938Z" fill="#DCE5FE"/>
<path d="M389.013 122.138C374.664 113.992 371.668 96.9113 371.668 96.7011L372.194 96.6486C372.247 96.8062 375.19 113.624 389.275 121.665L389.013 122.138Z" fill="#DCE5FE"/>
<path d="M388.276 129.653C373.666 123.347 365.52 108.999 365.468 108.841L365.941 108.579C366.046 108.684 374.087 122.874 388.539 129.128L388.276 129.653Z" fill="#DCE5FE"/>
<path d="M360.265 212.48C345.97 198.553 338.454 168.649 338.349 168.334L338.927 168.229C338.98 168.491 346.495 198.29 360.685 212.112L360.265 212.48Z" fill="#DCE5FE"/>
<path d="M354.116 225.146C336.142 202.232 332.2 174.22 332.148 173.957L332.726 173.852C332.726 174.167 336.72 202.022 354.589 224.83L354.116 225.146Z" fill="#DCE5FE"/>
<path d="M352.171 235.131L346.968 226.144L347.441 225.881L352.644 234.816L352.171 235.131Z" fill="#DCE5FE"/>
<path d="M348.965 244.013L343.972 234.448L344.498 234.185L349.491 243.75L348.965 244.013Z" fill="#DCE5FE"/>
<path d="M347.021 253.368L339.505 240.649L339.978 240.334L347.546 253.052L347.021 253.368Z" fill="#DCE5FE"/>
<path d="M344.971 261.987L332.778 245.064L333.251 244.749L345.392 261.672L344.971 261.987Z" fill="#DCE5FE"/>
<path d="M342.502 268.924C332.096 257.52 324.107 245.274 324.002 245.169L324.475 244.854C324.58 244.959 332.516 257.152 342.922 268.556L342.502 268.924Z" fill="#DCE5FE"/>
<path d="M338.244 278.384C323.213 267.137 314.016 248.165 313.911 248.007L314.437 247.744C314.489 247.955 323.686 266.769 338.559 277.964L338.244 278.384Z" fill="#DCE5FE"/>
<path d="M334.986 290.209C313.491 275.178 303.874 249.479 303.769 249.216L304.294 249.006C304.399 249.269 313.964 274.81 335.301 289.736L334.986 290.209Z" fill="#DCE5FE"/>
<path d="M333.199 300.562C306.186 288.527 299.091 262.67 299.038 262.407L299.564 262.25C299.669 262.512 306.659 288.159 333.462 300.089L333.199 300.562Z" fill="#DCE5FE"/>
<path d="M333.198 313.859C312.387 306.396 298.512 277.385 298.355 277.07L298.88 276.86C299.038 277.123 312.807 305.975 333.408 313.333C333.566 313.386 333.671 313.438 333.829 313.438L333.619 313.964C333.514 313.964 333.356 313.911 333.198 313.859Z" fill="#DCE5FE"/>
<path d="M339.873 302.717C329.993 284.27 336.825 256.836 348.755 252.527C353.8 250.687 358.951 253.368 363.786 255.996C368.831 258.728 373.561 261.514 377.608 259.201C387.12 253.683 376.662 229.298 386.857 222.255C391.745 218.839 398.367 221.625 404.989 224.357C411.558 227.09 418.128 229.823 423.068 226.565C433.631 219.575 420.282 195.82 432.002 183.785C441.777 173.799 465.743 175.271 479.827 188.515C491.232 199.289 497.17 218.839 489.865 228.404C484.873 234.921 475.413 234.553 466.058 234.185C456.703 233.765 447.453 233.397 442.776 239.861C434.104 251.791 452.183 271.815 443.564 281.853C438.782 287.423 429.112 286.11 419.967 284.848C411.296 283.639 403.15 282.431 400.101 287.003C394.531 295.254 413.661 310.548 408.825 319.272C402.414 330.834 354.536 330.151 339.873 302.717Z" fill="#91B3FA"/>
<path d="M379.868 322.32C372.09 321.374 364.732 319.166 358.53 315.855C351.488 312.072 346.285 307.079 343.027 301.035C337.088 289.893 338.034 275.704 341.555 266.506C343.657 260.936 346.758 257.047 349.964 255.89C350.962 255.522 352.066 255.417 353.275 255.575C356.165 255.943 359.424 257.73 362.577 259.411C365.888 261.251 369.357 263.143 372.878 263.563C375.243 263.879 377.45 263.406 379.395 262.302C385.912 258.518 385.754 249.952 385.596 241.595C385.439 234.763 385.333 227.668 388.907 225.198C390.063 224.41 391.535 224.147 393.479 224.357C396.423 224.725 400.101 226.197 403.623 227.668C407.564 229.297 411.716 231.032 415.71 231.505C419.284 231.925 422.437 231.295 425.065 229.56C431.897 225.041 431.319 216.211 430.741 207.645C430.215 199.604 429.69 191.353 434.577 186.308C438.729 182.103 446.612 180.106 455.231 181.157C463.588 182.156 471.629 185.782 477.357 191.143C482.402 195.873 486.554 202.862 488.394 209.852C490.233 216.684 489.76 222.623 487.027 226.197C483.138 231.242 474.94 230.927 466.163 230.559C456.072 230.138 445.666 229.718 439.833 237.759C434.42 245.274 437.258 254.629 439.78 262.933C441.83 269.712 443.775 276.071 440.831 279.487C437.888 282.904 431.161 282.641 424.96 281.852C423.383 281.695 421.701 281.432 420.125 281.222C418.548 281.012 416.919 280.801 415.342 280.591C410.402 280.013 401.152 278.909 397.106 285.006C393.059 291.05 397.369 298.46 401.205 304.977C403.938 309.654 407.091 315.015 405.672 317.537C404.726 319.272 401.625 320.796 397.369 321.794C392.376 322.898 386.174 323.056 379.868 322.32Z" fill="#BDD0FB"/>
<path d="M462.957 201.601C454.969 210.798 446.77 219.785 438.467 228.667C434.315 233.082 430.058 237.444 425.853 241.858C423.751 244.013 421.596 246.168 419.494 248.375C417.339 250.53 415.237 252.685 413.082 254.839L406.566 261.251C404.411 263.406 402.256 265.508 400.049 267.61L398.42 269.239L396.738 270.816L393.479 273.917L390.169 277.07L386.805 280.171C377.871 288.422 368.726 296.515 359.003 303.821L358.846 303.61C367.99 295.57 376.662 287.161 385.386 278.647L388.644 275.494L391.85 272.288L395.109 269.082L396.738 267.505L398.315 265.876C400.469 263.721 402.624 261.566 404.779 259.464L411.191 253L436.942 227.196C445.509 218.577 454.075 209.958 462.747 201.444L462.957 201.601Z" fill="#DCE5FE"/>
<path fill-rule="evenodd" clip-rule="evenodd" d="M272.34 332.095C253.736 332.095 236.287 327.313 221.099 318.851C188.777 300.825 166.915 266.296 166.915 226.67C166.915 219.47 167.598 212.427 169.017 205.648C169.227 204.544 169.49 203.388 169.753 202.337C172.906 188.935 178.634 176.532 186.36 165.653C205.437 138.798 236.813 121.244 272.34 121.244C305.345 121.244 334.828 136.433 354.168 160.188C361.106 168.702 366.729 178.319 370.723 188.778C371.354 190.407 371.985 192.089 372.51 193.823C375.926 204.124 377.766 215.213 377.766 226.67C377.766 230.717 377.503 234.763 377.082 238.705C376.399 244.538 375.295 250.214 373.719 255.68C373.298 257.099 372.878 258.466 372.458 259.885C372.037 260.988 371.669 262.144 371.249 263.301C365.52 278.699 356.323 292.469 344.551 303.505C343.657 304.346 342.764 305.134 341.818 305.975C338.927 308.498 335.932 310.863 332.778 313.07C332.568 313.228 332.411 313.333 332.2 313.491C329.835 315.12 327.418 316.644 324.895 318.116C324.632 318.273 324.37 318.378 324.107 318.536C308.813 327.208 291.155 332.095 272.34 332.095ZM274.652 139.744C225.356 139.744 185.414 179.686 185.414 228.982C185.414 278.279 225.356 318.221 274.652 318.221C323.897 318.221 363.838 278.279 363.838 228.982C363.838 179.686 323.897 139.744 274.652 139.744ZM176.532 208.854C176.374 208.854 176.164 209.011 176.164 209.222C175.428 213.268 174.955 217.368 174.693 221.519C174.693 221.73 174.903 221.94 175.113 221.94H175.166C175.376 221.94 175.534 221.782 175.586 221.519C175.796 217.473 176.269 213.373 176.953 209.379C177.005 209.116 176.847 208.906 176.637 208.906C176.585 208.854 176.585 208.854 176.532 208.854ZM272.34 128.917C253.893 128.917 235.919 134.12 220.416 143.843C205.28 153.356 193.034 166.81 184.994 182.681C184.888 182.891 184.994 183.154 185.204 183.259C185.256 183.312 185.309 183.312 185.414 183.312C185.572 183.312 185.677 183.207 185.782 183.102C193.718 167.283 205.858 153.986 220.836 144.579C236.235 134.909 254.051 129.811 272.34 129.811C278.226 129.811 284.06 130.336 289.788 131.335C289.841 131.388 289.841 131.388 289.893 131.388C290.104 131.388 290.261 131.23 290.314 131.02C290.366 130.809 290.209 130.547 289.946 130.547C284.165 129.496 278.279 128.917 272.34 128.917Z" fill="#FE776B"/>
<path fill-rule="evenodd" clip-rule="evenodd" d="M185.414 183.312C185.309 183.312 185.256 183.312 185.204 183.259C184.994 183.154 184.889 182.891 184.994 182.681C193.035 166.81 205.28 153.356 220.416 143.843C235.919 134.12 253.893 128.917 272.34 128.917C278.278 128.917 284.165 129.496 289.946 130.547C290.208 130.547 290.366 130.809 290.314 131.02C290.261 131.23 290.103 131.388 289.893 131.388C289.841 131.388 289.841 131.388 289.788 131.335C284.06 130.336 278.226 129.811 272.34 129.811C254.051 129.811 236.235 134.909 220.836 144.579C205.858 153.986 193.718 167.283 185.782 183.102C185.677 183.207 185.572 183.312 185.414 183.312Z" fill="#FE776B" stroke="#FE776B" stroke-width="0.900044"/>
<path fill-rule="evenodd" clip-rule="evenodd" d="M274.653 318.221C225.356 318.221 185.414 278.279 185.414 228.982C185.414 179.686 225.356 139.744 274.653 139.744C323.897 139.744 363.838 179.686 363.838 228.982C363.838 278.279 323.897 318.221 274.653 318.221Z" fill="#FFD8D5"/>
<path fill-rule="evenodd" clip-rule="evenodd" d="M301.929 195.242C301.929 210.378 289.683 226.67 274.6 226.67C259.464 226.67 247.219 210.378 247.219 195.242C247.219 180.159 259.464 169.437 274.6 169.437C289.683 169.437 301.929 180.159 301.929 195.242Z" fill="#FE776B"/>
<path fill-rule="evenodd" clip-rule="evenodd" d="M240.649 284.848H307.447C314.437 284.848 320.691 280.329 322.793 273.602L326.419 262.407C329.047 254.156 324.79 245.274 316.644 242.279C289.473 232.346 261.356 233.607 232.608 243.225C224.515 245.905 220.048 254.524 222.255 262.723L225.04 272.918C226.932 279.961 233.344 284.848 240.649 284.848Z" fill="#FE776B"/>
<path d="M192.299 113.571C189.303 113.571 187.043 110.523 188.252 107.58L194.086 92.8648C194.611 91.5509 194.453 90.0268 193.665 88.818L184.836 75.6793C182.891 72.7362 185.046 68.8471 188.462 68.8471C188.567 68.8471 188.672 68.8471 188.778 68.8471L204.544 69.8457C204.649 69.8982 204.754 69.8982 204.859 69.8982C206.173 69.8982 207.435 69.2676 208.275 68.2165L218.103 55.7609C218.997 54.6573 220.258 54.1317 221.519 54.1317C222.886 54.1317 224.305 54.7624 225.146 55.9711C224.462 56.7069 223.832 57.4427 223.254 58.231L223.201 58.0733C223.043 57.4427 222.623 57.0748 222.308 56.9171C222.045 56.812 221.782 56.7595 221.519 56.7595C221.257 56.7595 221.046 56.812 220.836 56.9171C220.573 57.0222 220.363 57.1799 220.153 57.4427L210.378 69.8457C209.694 70.7391 208.748 71.4749 207.697 71.8953C206.804 72.3158 205.805 72.526 204.859 72.526C204.702 72.526 204.544 72.526 204.386 72.526L188.62 71.4749C188.567 71.4749 188.515 71.4749 188.462 71.4749C188.252 71.4749 187.989 71.5274 187.779 71.6325C187.359 71.8428 186.991 72.2632 186.833 72.7888C186.728 73.1041 186.675 73.6296 187.043 74.2077L195.872 87.3465C197.134 89.2385 197.397 91.7086 196.556 93.8633L190.722 108.526C190.354 109.472 190.827 110.103 191.037 110.366C191.195 110.523 191.615 110.944 192.299 110.944C192.456 110.944 192.614 110.891 192.772 110.839L203.388 107.843C203.125 108.894 202.81 109.893 202.494 110.891L193.507 113.414C193.087 113.519 192.667 113.571 192.299 113.571Z" fill="#FE776B" stroke="#FE776B" stroke-width="0.900044"/>
<path fill-rule="evenodd" clip-rule="evenodd" d="M227.668 121.087C226.722 121.087 225.724 120.771 224.883 120.036L212.69 109.945C211.902 109.314 210.903 108.947 209.905 108.947C209.537 108.947 209.117 108.999 208.696 109.104L202.495 110.891C202.81 109.893 203.125 108.894 203.388 107.843L208.013 106.582C208.644 106.371 209.274 106.319 209.905 106.319C211.534 106.319 213.111 106.844 214.425 107.895L226.565 118.039C226.933 118.354 227.353 118.406 227.668 118.406C227.984 118.406 228.246 118.354 228.404 118.249C228.667 118.144 229.403 117.723 229.403 116.725L230.033 100.958C230.138 98.6457 231.347 96.491 233.292 95.2822L246.693 86.8209C247.481 86.2953 247.481 85.507 247.481 85.1917C247.429 84.8238 247.271 84.0355 246.325 83.7201L231.505 78.2544C229.35 77.4661 227.668 75.6266 227.143 73.3668L223.254 58.2309C223.832 57.4426 224.462 56.7068 225.146 55.9711C225.408 56.3915 225.619 56.8645 225.776 57.3901L229.665 72.7361C230.033 74.1551 231.084 75.2588 232.398 75.7843L247.271 81.25C250.687 82.5114 251.16 87.1362 248.112 89.0807L234.711 97.4895C233.502 98.2779 232.766 99.5917 232.661 101.063L232.083 116.83C231.978 119.405 229.876 121.087 227.668 121.087Z" fill="#FE776B" stroke="#FE776B" stroke-width="0.900044"/>
<path fill-rule="evenodd" clip-rule="evenodd" d="M227.668 118.406C227.353 118.406 226.933 118.354 226.565 118.039L214.424 107.895C213.111 106.844 211.534 106.319 209.905 106.319C209.274 106.319 208.643 106.371 208.013 106.582L203.388 107.843L192.772 110.839C192.614 110.891 192.456 110.944 192.299 110.944C191.616 110.944 191.195 110.523 191.037 110.366C190.827 110.103 190.354 109.472 190.722 108.526L196.556 93.8632C197.397 91.7085 197.134 89.2384 195.873 87.3464L187.043 74.2077C186.675 73.6296 186.728 73.104 186.833 72.7887C186.991 72.2631 187.359 71.8427 187.779 71.6325C187.989 71.5274 188.252 71.4748 188.462 71.4748C188.515 71.4748 188.567 71.4748 188.62 71.4748L204.386 72.5259C204.544 72.5259 204.702 72.5259 204.859 72.5259C205.805 72.5259 206.804 72.3157 207.697 71.8952C208.749 71.4748 209.695 70.739 210.378 69.8456L220.153 57.4426C220.363 57.1798 220.573 57.0222 220.836 56.9171C221.046 56.812 221.257 56.7594 221.519 56.7594C221.782 56.7594 222.045 56.812 222.308 56.9171C222.623 57.0747 223.044 57.4426 223.201 58.0733L223.254 58.2309L227.143 73.3668C227.668 75.6267 229.35 77.4661 231.505 78.2544L246.325 83.7201C247.271 84.0355 247.429 84.8238 247.482 85.1917C247.482 85.507 247.482 86.2953 246.693 86.8209L233.292 95.2822C231.347 96.491 230.138 98.6458 230.033 100.958L229.403 116.725C229.403 117.723 228.667 118.144 228.404 118.249C228.246 118.354 227.984 118.406 227.668 118.406ZM209.905 104.059C212.06 104.059 214.162 104.795 215.843 106.161L222.15 111.417C222.728 111.89 223.464 112.152 224.2 112.152C224.673 112.152 225.093 112.1 225.566 111.89C226.67 111.364 227.406 110.313 227.458 109.052L227.773 100.853C227.879 97.8049 229.508 95.0195 232.083 93.3903L239.02 88.9756C239.598 88.6603 240.019 88.1348 240.229 87.6092C240.334 87.399 240.229 87.1362 240.071 87.0837C240.019 87.0311 239.966 87.0311 239.914 87.0311C239.756 87.0311 239.598 87.1362 239.546 87.2413C239.336 87.7143 239.02 88.0296 238.6 88.2924L231.663 92.707C228.877 94.4939 227.143 97.4895 226.985 100.853L226.67 108.999C226.617 109.945 226.092 110.786 225.198 111.154C224.883 111.312 224.568 111.364 224.2 111.364C223.674 111.364 223.096 111.206 222.676 110.786L216.369 105.583C214.53 104.059 212.217 103.271 209.905 103.271C209.011 103.271 208.065 103.376 207.172 103.638L199.289 105.846C199.078 105.898 198.816 105.951 198.605 105.951C197.922 105.951 197.292 105.688 196.819 105.163C196.188 104.427 195.978 103.481 196.346 102.587L199.394 94.9669C200.602 91.9187 200.235 88.3975 198.395 85.6647L193.823 78.8325C193.35 78.0967 193.297 77.2559 193.613 76.4675C193.981 75.6792 194.716 75.1537 195.557 75.0485C195.767 74.996 195.925 74.8383 195.873 74.5756C195.873 74.4179 195.715 74.2602 195.505 74.2602H195.452C195.137 74.3128 194.821 74.3653 194.559 74.523C193.823 74.8383 193.245 75.3639 192.929 76.1522C192.456 77.1508 192.562 78.307 193.192 79.253L197.712 86.0851C199.446 88.6077 199.762 91.8662 198.658 94.7041L195.61 102.325C195.137 103.481 195.4 104.742 196.188 105.688C196.819 106.371 197.712 106.739 198.605 106.739C198.921 106.739 199.183 106.687 199.499 106.634L207.382 104.374C208.223 104.164 209.064 104.059 209.905 104.059ZM226.722 77.7289C226.67 77.7289 226.617 77.7289 226.565 77.7814C226.565 77.7814 226.512 77.834 226.46 77.834C226.302 77.9916 226.302 78.2544 226.46 78.4121C227.563 79.6208 228.93 80.5668 230.454 81.0924L236.077 83.1946C236.13 83.1946 236.182 83.1946 236.235 83.1946C236.393 83.1946 236.55 83.142 236.603 82.9844C236.708 82.7741 236.603 82.5114 236.393 82.4588L230.717 80.3566C229.298 79.8311 228.036 78.9902 227.038 77.8865C226.985 77.7814 226.827 77.7289 226.722 77.7289ZM204.229 74.7858C204.019 74.7858 203.861 74.9434 203.808 75.1537C203.808 75.3639 203.966 75.5215 204.176 75.5741C204.386 75.5741 204.649 75.5741 204.859 75.5741C206.278 75.5741 207.645 75.2588 208.959 74.6807C210.43 74.05 211.744 72.9989 212.795 71.7376L214.109 70.0558C214.214 69.8982 214.214 69.6354 214.004 69.5303C213.951 69.4252 213.846 69.4252 213.794 69.4252C213.741 69.4252 213.636 69.4252 213.584 69.4777C213.531 69.4777 213.478 69.5303 213.478 69.5828L212.165 71.212C211.219 72.4208 210.01 73.3668 208.643 73.9974C207.435 74.523 206.121 74.7858 204.859 74.7858C204.649 74.7858 204.439 74.7858 204.229 74.7858Z" fill="#FE776B" stroke="#FE776B" stroke-width="0.900044"/>
<path fill-rule="evenodd" clip-rule="evenodd" d="M236.235 83.1946C236.182 83.1946 236.13 83.1946 236.077 83.1946L230.454 81.0924C228.93 80.5669 227.563 79.6209 226.46 78.4121C226.302 78.2544 226.302 77.9917 226.46 77.834C226.512 77.834 226.565 77.7814 226.565 77.7814C226.617 77.7289 226.67 77.7289 226.722 77.7289C226.827 77.7289 226.985 77.7814 227.038 77.8865C228.036 78.9902 229.298 79.8311 230.716 80.3566L236.392 82.4588C236.603 82.5114 236.708 82.7742 236.603 82.9844C236.55 83.142 236.392 83.1946 236.235 83.1946Z" fill="#FE776B" stroke="#FE776B" stroke-width="0.900044"/>
<path fill-rule="evenodd" clip-rule="evenodd" d="M204.859 75.5741C204.649 75.5741 204.386 75.5741 204.176 75.5741C203.966 75.5216 203.808 75.3639 203.808 75.1537C203.861 74.9435 204.018 74.7858 204.229 74.7858C204.439 74.7858 204.649 74.7858 204.859 74.7858C206.121 74.7858 207.435 74.523 208.643 73.9975C210.01 73.3668 211.219 72.4208 212.165 71.212L213.479 69.5828C213.479 69.5303 213.531 69.4777 213.584 69.4777C213.636 69.4252 213.741 69.4252 213.794 69.4252C213.847 69.4252 213.952 69.4252 214.004 69.5303C214.214 69.6354 214.214 69.8982 214.109 70.0558L212.795 71.7376C211.744 72.9989 210.43 74.05 208.959 74.6807C207.645 75.2588 206.278 75.5741 204.859 75.5741Z" fill="#FE776B" stroke="#FE776B" stroke-width="0.900044"/>
<path fill-rule="evenodd" clip-rule="evenodd" d="M224.2 112.152C223.464 112.152 222.728 111.89 222.15 111.417L215.843 106.161C214.162 104.795 212.059 104.059 209.905 104.059C209.064 104.059 208.223 104.164 207.382 104.374L199.499 106.634C199.183 106.687 198.921 106.739 198.605 106.739C197.712 106.739 196.819 106.371 196.188 105.688C195.4 104.742 195.137 103.481 195.61 102.325L198.658 94.7042C199.762 91.8662 199.446 88.6078 197.712 86.0851L193.192 79.253C192.562 78.307 192.456 77.1508 192.929 76.1522C193.245 75.3639 193.823 74.8384 194.559 74.523C194.821 74.3654 195.137 74.3128 195.452 74.2603H195.505C195.715 74.2603 195.873 74.4179 195.873 74.5756C195.925 74.8384 195.767 74.996 195.557 75.0486C194.716 75.1537 193.981 75.6792 193.613 76.4676C193.297 77.2559 193.35 78.0968 193.823 78.8325L198.395 85.6647C200.235 88.3976 200.602 91.9187 199.394 94.9669L196.346 102.587C195.978 103.481 196.188 104.427 196.819 105.163C197.291 105.688 197.922 105.951 198.605 105.951C198.816 105.951 199.078 105.898 199.289 105.846L207.172 103.639C208.065 103.376 209.011 103.271 209.905 103.271C212.217 103.271 214.529 104.059 216.369 105.583L222.675 110.786C223.096 111.206 223.674 111.364 224.2 111.364C224.567 111.364 224.883 111.312 225.198 111.154C226.092 110.786 226.617 109.945 226.67 108.999L226.985 100.853C227.143 97.4896 228.877 94.4939 231.662 92.7071L238.6 88.2924C239.02 88.0297 239.335 87.7143 239.546 87.2413C239.598 87.1362 239.756 87.0311 239.913 87.0311C239.966 87.0311 240.019 87.0311 240.071 87.0837C240.229 87.1362 240.334 87.399 240.229 87.6092C240.019 88.1348 239.598 88.6603 239.02 88.9757L232.083 93.3903C229.508 95.0195 227.878 97.8049 227.773 100.853L227.458 109.052C227.405 110.313 226.67 111.364 225.566 111.89C225.093 112.1 224.673 112.152 224.2 112.152Z" fill="#FE776B" stroke="#FE776B" stroke-width="0.900044"/>
<path d="M151.621 217.841C151.148 217.841 150.728 217.683 150.307 217.315L144.474 212.48C144.106 212.165 143.633 212.007 143.16 212.007C142.949 212.007 142.739 212.06 142.582 212.112L135.276 214.162C135.066 214.214 134.909 214.214 134.698 214.214C133.279 214.214 132.176 212.795 132.754 211.376L135.539 204.334C135.802 203.703 135.749 202.968 135.382 202.389L131.177 196.083C130.231 194.664 131.23 192.825 132.911 192.825C132.911 192.825 132.964 192.825 133.017 192.825L140.585 193.298C140.637 193.298 140.69 193.298 140.69 193.298C141.373 193.298 141.951 193.035 142.371 192.509L147.049 186.571C147.469 186.045 148.1 185.782 148.678 185.782C149.571 185.782 150.465 186.36 150.728 187.359L152.62 194.664C152.777 195.347 153.25 195.925 153.933 196.135L161.028 198.763C162.658 199.341 162.868 201.549 161.396 202.495L154.985 206.541C154.406 206.909 154.039 207.54 154.039 208.223L153.723 215.791C153.671 217 152.672 217.841 151.621 217.841ZM143.16 210.746C143.895 210.746 144.684 211.008 145.314 211.534L151.096 216.369C151.306 216.527 151.463 216.527 151.621 216.527C151.779 216.527 151.884 216.527 151.989 216.474C152.147 216.422 152.462 216.211 152.462 215.738L152.777 208.171C152.83 207.067 153.408 206.068 154.354 205.49L160.713 201.444C161.134 201.181 161.134 200.813 161.081 200.655C161.081 200.498 161.028 200.13 160.555 199.972L153.46 197.344C152.409 196.924 151.621 196.083 151.358 194.979L149.519 187.674C149.414 187.359 149.204 187.201 149.046 187.149C148.941 187.096 148.836 187.044 148.678 187.044C148.573 187.044 148.468 187.096 148.363 187.096C148.258 187.149 148.152 187.254 148.047 187.359L143.37 193.298C143.002 193.718 142.582 194.086 142.109 194.296C141.636 194.506 141.163 194.611 140.69 194.611C140.637 194.611 140.585 194.611 140.479 194.559L132.964 194.086C132.911 194.086 132.911 194.086 132.911 194.086C132.754 194.086 132.649 194.138 132.544 194.138C132.333 194.244 132.176 194.454 132.071 194.717C132.071 194.874 132.018 195.137 132.228 195.4L136.433 201.654C137.011 202.6 137.168 203.756 136.748 204.807L133.963 211.797C133.752 212.27 134.015 212.585 134.12 212.69C134.173 212.795 134.383 212.953 134.698 212.953C134.803 212.953 134.856 212.953 134.961 212.953L142.214 210.851C142.529 210.798 142.844 210.746 143.16 210.746Z" fill="#DFE8FD"/>
<path fill-rule="evenodd" clip-rule="evenodd" d="M151.621 216.527C151.464 216.527 151.306 216.527 151.096 216.369L145.315 211.534C144.684 211.008 143.896 210.746 143.16 210.746C142.845 210.746 142.529 210.798 142.214 210.851L134.961 212.953C134.856 212.953 134.804 212.953 134.699 212.953C134.383 212.953 134.173 212.795 134.12 212.69C134.015 212.585 133.753 212.27 133.963 211.797L136.748 204.807C137.169 203.756 137.011 202.6 136.433 201.654L132.228 195.4C132.018 195.137 132.071 194.874 132.071 194.716C132.176 194.454 132.334 194.243 132.544 194.138C132.649 194.138 132.754 194.086 132.912 194.086C132.912 194.086 132.912 194.086 132.964 194.086L140.48 194.559C140.585 194.611 140.637 194.611 140.69 194.611C141.163 194.611 141.636 194.506 142.109 194.296C142.582 194.086 143.002 193.718 143.37 193.297L148.048 187.359C148.153 187.254 148.258 187.148 148.363 187.096C148.468 187.096 148.573 187.043 148.678 187.043C148.836 187.043 148.941 187.096 149.046 187.148C149.204 187.201 149.414 187.359 149.519 187.674L151.359 194.979C151.621 196.083 152.41 196.924 153.461 197.344L160.556 199.972C161.029 200.13 161.081 200.497 161.081 200.655C161.134 200.813 161.134 201.181 160.713 201.443L154.354 205.49C153.408 206.068 152.83 207.067 152.778 208.17L152.462 215.738C152.462 216.211 152.147 216.422 151.989 216.474C151.884 216.527 151.779 216.527 151.621 216.527ZM143.16 209.642C144.158 209.642 145.157 210.01 145.998 210.693L148.994 213.216C149.256 213.426 149.624 213.531 149.992 213.531C150.202 213.531 150.413 213.531 150.623 213.426C151.148 213.163 151.516 212.638 151.516 212.06L151.674 208.17C151.726 206.699 152.515 205.332 153.776 204.544L157.087 202.442C157.35 202.284 157.508 202.074 157.665 201.811C157.718 201.706 157.665 201.601 157.56 201.549C157.56 201.549 157.508 201.549 157.455 201.549C157.402 201.549 157.35 201.549 157.297 201.654C157.192 201.864 157.087 202.022 156.877 202.127L153.566 204.229C152.199 205.07 151.359 206.541 151.306 208.118L151.148 212.06C151.148 212.48 150.886 212.9 150.465 213.058C150.307 213.163 150.15 213.163 149.992 213.163C149.729 213.163 149.467 213.058 149.256 212.9L146.208 210.378C145.367 209.695 144.264 209.274 143.16 209.274C142.687 209.274 142.266 209.327 141.846 209.484L138.062 210.535C137.957 210.588 137.852 210.588 137.747 210.588C137.379 210.588 137.116 210.43 136.853 210.168C136.538 209.852 136.485 209.379 136.643 208.959L138.115 205.332C138.693 203.861 138.483 202.179 137.642 200.865L135.434 197.607C135.224 197.239 135.172 196.871 135.329 196.451C135.539 196.083 135.855 195.82 136.275 195.82C136.38 195.767 136.433 195.662 136.433 195.557C136.433 195.505 136.328 195.4 136.223 195.4C136.065 195.452 135.907 195.452 135.802 195.557C135.434 195.662 135.172 195.978 135.014 196.293C134.804 196.819 134.804 197.344 135.119 197.817L137.326 201.076C138.115 202.284 138.272 203.808 137.747 205.175L136.275 208.854C136.065 209.379 136.17 210.01 136.591 210.43C136.906 210.798 137.326 210.956 137.747 210.956C137.852 210.956 138.01 210.956 138.167 210.903L141.951 209.852C142.319 209.747 142.739 209.642 143.16 209.642ZM151.201 197.081C151.148 197.081 151.148 197.081 151.096 197.081L151.043 197.134C150.991 197.186 150.991 197.344 151.043 197.397C151.569 197.975 152.252 198.448 152.988 198.711L155.668 199.709H155.721C155.826 199.709 155.878 199.657 155.931 199.604C155.931 199.499 155.878 199.394 155.773 199.341L153.093 198.343C152.41 198.08 151.832 197.659 151.306 197.134C151.306 197.081 151.253 197.081 151.201 197.081ZM140.427 195.662C140.322 195.662 140.217 195.715 140.217 195.82C140.217 195.925 140.322 196.03 140.427 196.03C140.532 196.03 140.585 196.03 140.69 196.03C141.373 196.03 142.056 195.925 142.687 195.61C143.37 195.294 144.001 194.821 144.526 194.191L145.157 193.402C145.21 193.35 145.21 193.192 145.104 193.14C145.052 193.14 145.052 193.087 144.999 193.087C144.947 193.087 144.947 193.087 144.894 193.14C144.894 193.14 144.842 193.14 144.842 193.192L144.211 193.981C143.791 194.559 143.16 194.979 142.529 195.294C141.951 195.557 141.321 195.662 140.69 195.662C140.637 195.662 140.532 195.662 140.427 195.662Z" fill="#FE776B"/>
<path fill-rule="evenodd" clip-rule="evenodd" d="M149.992 213.531C149.624 213.531 149.256 213.426 148.993 213.216L145.998 210.693C145.157 210.01 144.158 209.642 143.16 209.642C142.739 209.642 142.319 209.747 141.951 209.852L138.167 210.903C138.009 210.956 137.852 210.956 137.747 210.956C137.326 210.956 136.906 210.798 136.59 210.43C136.17 210.01 136.065 209.379 136.275 208.854L137.747 205.175C138.272 203.808 138.114 202.284 137.326 201.076L135.119 197.817C134.803 197.344 134.803 196.819 135.014 196.293C135.171 195.978 135.434 195.663 135.802 195.558C135.907 195.452 136.065 195.452 136.222 195.4C136.328 195.4 136.433 195.505 136.433 195.558C136.433 195.663 136.38 195.768 136.275 195.82C135.855 195.82 135.539 196.083 135.329 196.451C135.171 196.871 135.224 197.239 135.434 197.607L137.641 200.865C138.482 202.179 138.693 203.861 138.114 205.332L136.643 208.959C136.485 209.379 136.538 209.852 136.853 210.167C137.116 210.43 137.379 210.588 137.747 210.588C137.852 210.588 137.957 210.588 138.062 210.535L141.846 209.484C142.266 209.327 142.687 209.274 143.16 209.274C144.263 209.274 145.367 209.694 146.208 210.378L149.256 212.9C149.466 213.058 149.729 213.163 149.992 213.163C150.15 213.163 150.307 213.163 150.465 213.058C150.885 212.9 151.148 212.48 151.148 212.059L151.306 208.118C151.358 206.541 152.199 205.07 153.566 204.229L156.877 202.127C157.087 202.022 157.192 201.864 157.297 201.654C157.35 201.549 157.402 201.549 157.455 201.549C157.507 201.549 157.56 201.549 157.56 201.549C157.665 201.601 157.718 201.706 157.665 201.811C157.507 202.074 157.35 202.284 157.087 202.442L153.776 204.544C152.515 205.332 151.726 206.699 151.674 208.17L151.516 212.059C151.516 212.637 151.148 213.163 150.623 213.426C150.412 213.531 150.202 213.531 149.992 213.531Z" fill="url(#paint0_linear)"/>
<path fill-rule="evenodd" clip-rule="evenodd" d="M304.084 112.941C303.295 112.941 302.507 112.678 301.876 112.1L292.889 104.006C292.259 103.428 291.418 103.166 290.63 103.166C290.367 103.166 290.104 103.166 289.841 103.218L278.069 106.056C277.806 106.109 277.543 106.161 277.281 106.161C274.968 106.161 273.234 103.691 274.232 101.431L279.173 90.3946C279.593 89.3961 279.54 88.1873 278.962 87.2413L272.656 76.9406C271.237 74.6807 272.919 71.8427 275.494 71.8427C275.599 71.8427 275.704 71.8427 275.862 71.8427L287.844 73.104C288.002 73.1566 288.107 73.1566 288.212 73.1566C289.211 73.1566 290.104 72.7361 290.787 71.9478L298.618 62.8032C299.301 61.9624 300.247 61.5945 301.14 61.5945C302.612 61.5945 304.084 62.593 304.451 64.2748L306.974 76.0997C307.184 77.1508 307.92 78.0442 308.971 78.4646L320.113 83.0895C322.688 84.1931 322.951 87.7143 320.533 89.1333L310.075 95.1771C309.129 95.7027 308.498 96.7012 308.393 97.8049L307.447 109.84C307.289 111.732 305.713 112.941 304.084 112.941ZM290.63 101.116C291.943 101.116 293.205 101.589 294.203 102.482L303.19 110.576C303.505 110.839 303.821 110.944 304.084 110.944C304.294 110.944 304.504 110.891 304.609 110.839C304.819 110.733 305.345 110.418 305.45 109.682L306.396 97.6472C306.501 95.8604 307.5 94.2837 309.024 93.3903L319.535 87.3464C320.165 86.9786 320.165 86.3479 320.165 86.1377C320.165 85.8749 320.06 85.2442 319.377 84.9815L308.183 80.3566C306.554 79.6734 305.345 78.2544 304.977 76.5201L302.454 64.6952C302.349 64.1697 302.034 63.9069 301.824 63.8018C301.613 63.6967 301.351 63.6441 301.14 63.6441C300.983 63.6441 300.825 63.6441 300.667 63.6967C300.457 63.8018 300.3 63.9069 300.142 64.1171L292.311 73.2617C291.733 73.9449 290.997 74.4705 290.209 74.7858C289.578 75.0486 288.895 75.1537 288.212 75.1537C288.002 75.1537 287.844 75.1537 287.634 75.1537L275.651 73.8924C275.599 73.8924 275.546 73.8924 275.494 73.8924C275.284 73.8924 275.126 73.8924 275.021 73.9449C274.653 74.1026 274.338 74.4179 274.232 74.7858C274.127 75.0486 274.075 75.469 274.338 75.8895L280.697 86.1902C281.59 87.7143 281.748 89.6063 281.012 91.183L276.072 102.272C275.809 102.955 276.124 103.428 276.282 103.639C276.44 103.796 276.755 104.112 277.281 104.112C277.386 104.112 277.491 104.112 277.596 104.059L289.368 101.274C289.789 101.168 290.209 101.116 290.63 101.116Z" fill="#FE776B" stroke="#FE776B" stroke-width="0.900044"/>
<path fill-rule="evenodd" clip-rule="evenodd" d="M304.083 110.944C303.82 110.944 303.505 110.839 303.189 110.576L294.202 102.482C293.204 101.589 291.943 101.116 290.629 101.116C290.208 101.116 289.788 101.168 289.367 101.274L277.595 104.059C277.49 104.112 277.385 104.112 277.28 104.112C276.754 104.112 276.439 103.796 276.281 103.639C276.123 103.428 275.808 102.955 276.071 102.272L281.011 91.183C281.747 89.6063 281.589 87.7144 280.696 86.1903L274.336 75.8895C274.074 75.469 274.126 75.0486 274.231 74.7858C274.336 74.4179 274.652 74.1026 275.02 73.945C275.125 73.8924 275.282 73.8924 275.493 73.8924C275.545 73.8924 275.598 73.8924 275.65 73.8924L287.633 75.1537C287.843 75.1537 288.001 75.1537 288.211 75.1537C288.894 75.1537 289.578 75.0486 290.208 74.7858C290.997 74.4705 291.732 73.945 292.31 73.2617L300.141 64.1172C300.299 63.9069 300.457 63.8018 300.667 63.6967C300.824 63.6442 300.982 63.6442 301.14 63.6442C301.35 63.6442 301.613 63.6967 301.823 63.8018C302.033 63.9069 302.349 64.1697 302.454 64.6953L304.976 76.5201C305.344 78.2545 306.553 79.6734 308.182 80.3567L319.377 84.9815C320.06 85.2443 320.165 85.8749 320.165 86.1377C320.165 86.3479 320.165 86.9786 319.534 87.3465L309.023 93.3903C307.499 94.2837 306.5 95.8604 306.395 97.6473L305.449 109.682C305.344 110.418 304.819 110.733 304.608 110.839C304.503 110.891 304.293 110.944 304.083 110.944ZM290.629 99.3816C292.363 99.3816 294.045 100.012 295.359 101.221L300.036 105.425C300.509 105.846 301.087 106.056 301.665 106.056C301.981 106.056 302.296 106.004 302.611 105.846C303.505 105.531 304.083 104.69 304.188 103.744L304.661 97.4896C304.819 95.1772 306.185 93.075 308.182 91.9188L313.595 88.7655C314.436 88.2925 314.909 87.399 314.857 86.453C314.804 85.5071 314.174 84.7187 313.333 84.3508L307.552 81.9333C305.344 81.0399 303.768 79.1479 303.295 76.888L301.981 70.7391C301.823 69.8982 301.245 69.215 300.404 68.8997C300.141 68.7946 299.826 68.7946 299.563 68.7946C299.248 68.7946 298.932 68.8471 298.67 68.9522C298.407 69.0573 298.197 69.1624 298.039 69.3201C297.881 69.4252 297.881 69.5829 297.986 69.7405C298.039 69.7931 298.144 69.8457 298.197 69.8457C298.302 69.8457 298.354 69.8457 298.407 69.7931C298.722 69.5303 299.143 69.3727 299.563 69.3727C299.773 69.3727 299.984 69.4252 300.194 69.4778C300.824 69.688 301.245 70.2135 301.403 70.8442L302.716 76.9931C303.242 79.4632 304.976 81.5129 307.289 82.5114L313.07 84.929C313.753 85.1917 314.174 85.7698 314.226 86.5056C314.279 87.2414 313.911 87.872 313.28 88.2399L307.867 91.3932C305.66 92.6545 304.241 94.9144 304.03 97.437L303.557 103.691C303.505 104.427 303.084 105.005 302.401 105.32C302.138 105.373 301.928 105.425 301.665 105.425C301.245 105.425 300.772 105.268 300.457 104.952L295.779 100.748C294.36 99.4867 292.521 98.8035 290.629 98.8035C289.998 98.8035 289.42 98.856 288.842 99.0137L282.745 100.433C282.588 100.485 282.43 100.485 282.272 100.485C282.062 100.485 281.852 100.485 281.642 100.38C281.642 100.38 281.589 100.38 281.537 100.38C281.431 100.38 281.326 100.485 281.274 100.59C281.221 100.748 281.274 100.906 281.431 100.958C281.694 101.063 282.01 101.116 282.272 101.116C282.483 101.116 282.693 101.116 282.85 101.063L288.947 99.5918C289.525 99.4341 290.051 99.3816 290.629 99.3816ZM283.481 88.2399C283.429 88.2399 283.376 88.2399 283.376 88.2399C283.271 88.2925 283.166 88.3976 283.166 88.5552C283.271 89.7115 283.061 90.8677 282.588 91.9188L280.696 96.1232C280.643 96.2808 280.696 96.4385 280.853 96.4911C280.906 96.5436 280.958 96.5436 281.011 96.5436C281.116 96.5436 281.221 96.4911 281.274 96.3334L283.113 92.129C283.639 91.0253 283.849 89.764 283.796 88.5027C283.796 88.345 283.639 88.2399 283.481 88.2399ZM285.846 76.6778C285.794 76.6778 285.741 76.6778 285.741 76.7304C285.636 76.7304 285.531 76.8355 285.531 76.9406C285.531 77.1508 285.636 77.2559 285.794 77.3085L287.423 77.4661C287.686 77.4661 287.948 77.5187 288.211 77.5187C289.21 77.5187 290.156 77.3085 291.049 76.9406C292.205 76.4676 293.256 75.7318 294.097 74.7858C294.202 74.6807 294.15 74.4705 294.045 74.3654C293.992 74.3128 293.94 74.3128 293.835 74.3128C293.782 74.3128 293.677 74.3128 293.624 74.4179C292.889 75.2588 291.89 75.942 290.839 76.3625C289.998 76.7304 289.105 76.888 288.211 76.888C287.948 76.888 287.738 76.888 287.475 76.8355L285.846 76.6778Z" fill="#FE776B" stroke="#FE776B" stroke-width="0.900044"/>
<path fill-rule="evenodd" clip-rule="evenodd" d="M281.012 96.5436C280.959 96.5436 280.906 96.5436 280.854 96.491C280.696 96.4384 280.644 96.2808 280.696 96.1231L282.588 91.9187C283.061 90.8676 283.272 89.7114 283.166 88.5552C283.166 88.3975 283.272 88.2924 283.377 88.2399C283.377 88.2399 283.429 88.2399 283.482 88.2399C283.639 88.2399 283.797 88.345 283.797 88.5026C283.85 89.764 283.639 91.0253 283.114 92.1289L281.274 96.3333C281.222 96.491 281.117 96.5436 281.012 96.5436Z" fill="#FE776B" stroke="#FE776B" stroke-width="0.900044"/>
<path fill-rule="evenodd" clip-rule="evenodd" d="M288.212 77.5187C287.949 77.5187 287.686 77.4662 287.423 77.4662L285.794 77.3085C285.636 77.2559 285.531 77.1508 285.531 76.9406C285.531 76.8355 285.636 76.7304 285.741 76.7304C285.741 76.6778 285.794 76.6778 285.847 76.6778L287.476 76.8355C287.739 76.8881 287.949 76.8881 288.212 76.8881C289.105 76.8881 289.999 76.7304 290.839 76.3625C291.891 75.9421 292.889 75.2589 293.625 74.418C293.678 74.3129 293.783 74.3129 293.835 74.3129C293.94 74.3129 293.993 74.3129 294.045 74.3654C294.151 74.4705 294.203 74.6808 294.098 74.7859C293.257 75.7319 292.206 76.4676 291.05 76.9406C290.156 77.3085 289.21 77.5187 288.212 77.5187Z" fill="#FE776B" stroke="#FE776B" stroke-width="0.900044"/>
<path fill-rule="evenodd" clip-rule="evenodd" d="M301.666 106.056C301.088 106.056 300.51 105.846 300.037 105.425L295.359 101.221C294.045 100.012 292.364 99.3816 290.629 99.3816C290.051 99.3816 289.526 99.4341 288.947 99.5918L282.851 101.063C282.693 101.116 282.483 101.116 282.273 101.116C282.01 101.116 281.695 101.063 281.432 100.958C281.274 100.906 281.222 100.748 281.274 100.59C281.327 100.485 281.432 100.38 281.537 100.38C281.59 100.38 281.642 100.38 281.642 100.38C281.852 100.485 282.063 100.485 282.273 100.485C282.431 100.485 282.588 100.485 282.746 100.433L288.842 99.0137C289.42 98.856 289.999 98.8035 290.629 98.8035C292.521 98.8035 294.361 99.4867 295.78 100.748L300.457 104.952C300.772 105.268 301.245 105.425 301.666 105.425C301.929 105.425 302.139 105.373 302.402 105.32C303.085 105.005 303.505 104.427 303.558 103.691L304.031 97.4371C304.241 94.9144 305.66 92.6545 307.867 91.3932L313.281 88.2399C313.911 87.872 314.279 87.2414 314.227 86.5056C314.174 85.7698 313.754 85.1917 313.07 84.929L307.289 82.5114C304.977 81.5129 303.242 79.4632 302.717 76.9931L301.403 70.8442C301.245 70.2135 300.825 69.688 300.194 69.4778C299.984 69.4252 299.774 69.3727 299.564 69.3727C299.143 69.3727 298.723 69.5303 298.407 69.7931C298.355 69.8457 298.302 69.8457 298.197 69.8457C298.145 69.8457 298.039 69.7931 297.987 69.7405C297.882 69.5829 297.882 69.4252 298.039 69.3201C298.197 69.1624 298.407 69.0573 298.67 68.9522C298.933 68.8471 299.248 68.7946 299.564 68.7946C299.826 68.7946 300.142 68.7946 300.404 68.8997C301.245 69.215 301.823 69.8982 301.981 70.7391L303.295 76.888C303.768 79.1479 305.345 81.0399 307.552 81.9333L313.333 84.3508C314.174 84.7187 314.805 85.5071 314.857 86.453C314.91 87.399 314.437 88.2925 313.596 88.7655L308.183 91.9188C306.186 93.075 304.819 95.1772 304.661 97.4896L304.188 103.744C304.083 104.69 303.505 105.531 302.612 105.846C302.296 106.004 301.981 106.056 301.666 106.056Z" fill="#FE776B" stroke="#FE776B" stroke-width="0.900044"/>
<path fill-rule="evenodd" clip-rule="evenodd" d="M351.856 133.227C351.383 133.227 350.857 133.069 350.437 132.701L344.814 127.656C344.446 127.288 343.92 127.078 343.447 127.078C343.29 127.078 343.079 127.131 342.922 127.183L335.564 128.917C335.406 128.97 335.249 128.97 335.091 128.97C333.619 128.97 332.516 127.446 333.199 126.027L336.247 119.142C336.51 118.512 336.51 117.776 336.142 117.145L332.148 110.733C331.307 109.315 332.358 107.528 333.935 107.528C334.04 107.528 334.092 107.528 334.197 107.528L341.713 108.316C341.765 108.316 341.871 108.316 341.923 108.316C342.554 108.316 343.132 108.053 343.5 107.58L348.44 101.852C348.86 101.326 349.438 101.116 350.017 101.116C350.963 101.116 351.856 101.694 352.066 102.798L353.643 110.155C353.801 110.839 354.274 111.417 354.904 111.679L357.269 112.678C357.374 113.151 357.479 113.677 357.637 114.15L354.431 112.836C353.38 112.415 352.644 111.522 352.434 110.418L350.857 103.06C350.752 102.745 350.595 102.588 350.437 102.482C350.279 102.43 350.174 102.377 350.017 102.377C349.911 102.377 349.806 102.377 349.701 102.43C349.596 102.482 349.491 102.588 349.386 102.693L344.498 108.421C344.13 108.842 343.657 109.157 343.184 109.367C342.764 109.525 342.344 109.577 341.923 109.577C341.818 109.577 341.713 109.577 341.555 109.577L334.04 108.789C334.04 108.789 333.987 108.789 333.935 108.789C333.83 108.789 333.724 108.789 333.672 108.842C333.409 108.947 333.251 109.157 333.146 109.367C333.094 109.525 333.094 109.788 333.251 110.05L337.193 116.515C337.771 117.461 337.876 118.617 337.403 119.615L334.355 126.552C334.145 126.973 334.355 127.288 334.46 127.393C334.565 127.498 334.776 127.709 335.091 127.709C335.143 127.709 335.196 127.709 335.301 127.709L342.659 125.922C342.922 125.869 343.184 125.817 343.447 125.817C344.236 125.817 345.076 126.132 345.707 126.71L351.33 131.755C351.488 131.913 351.698 131.966 351.856 131.966C352.014 131.966 352.119 131.913 352.171 131.913C352.329 131.861 352.644 131.65 352.697 131.23L353.275 123.662C353.38 122.558 354.011 121.56 354.957 121.034L359.109 118.617C359.319 118.985 359.477 119.405 359.634 119.773L355.587 122.085C355.009 122.453 354.589 123.084 354.536 123.767L353.958 131.282C353.853 132.491 352.855 133.227 351.856 133.227Z" fill="#FE776B" stroke="#FE776B" stroke-width="0.900044"/>
<path d="M359.634 119.773C359.476 119.405 359.318 118.985 359.108 118.617L361.526 117.25C361.894 116.987 361.946 116.62 361.946 116.462C361.894 116.304 361.841 115.936 361.421 115.726L357.636 114.15C357.479 113.677 357.374 113.151 357.269 112.678L361.894 114.57C363.523 115.253 363.628 117.46 362.156 118.301L359.634 119.773Z" fill="#FE776B" stroke="#FE776B" stroke-width="0.900044"/>
<path fill-rule="evenodd" clip-rule="evenodd" d="M351.856 131.966C351.698 131.966 351.488 131.913 351.33 131.755L345.707 126.71C345.076 126.132 344.235 125.817 343.447 125.817C343.184 125.817 342.921 125.869 342.659 125.922L335.301 127.709C335.196 127.709 335.143 127.709 335.091 127.709C334.775 127.709 334.565 127.499 334.46 127.393C334.355 127.288 334.145 126.973 334.355 126.553L337.403 119.615C337.876 118.617 337.771 117.46 337.193 116.515L333.251 110.05C333.094 109.787 333.094 109.525 333.146 109.367C333.251 109.157 333.409 108.947 333.672 108.841C333.724 108.789 333.829 108.789 333.935 108.789C333.987 108.789 334.04 108.789 334.04 108.789L341.555 109.577C341.713 109.577 341.818 109.577 341.923 109.577C342.343 109.577 342.764 109.525 343.184 109.367C343.657 109.157 344.13 108.841 344.498 108.421L349.386 102.693C349.491 102.587 349.596 102.482 349.701 102.43C349.806 102.377 349.911 102.377 350.016 102.377C350.174 102.377 350.279 102.43 350.437 102.482C350.594 102.587 350.752 102.745 350.857 103.06L352.434 110.418C352.644 111.522 353.38 112.415 354.431 112.836L357.637 114.15L361.421 115.726C361.841 115.936 361.894 116.304 361.946 116.462C361.946 116.62 361.894 116.987 361.526 117.25L359.108 118.617L354.956 121.034C354.01 121.56 353.38 122.558 353.275 123.662L352.697 131.23C352.644 131.65 352.329 131.861 352.171 131.913C352.119 131.913 352.013 131.966 351.856 131.966ZM343.447 124.766C344.498 124.766 345.602 125.134 346.39 125.922L349.333 128.497C349.596 128.76 349.964 128.917 350.332 128.917C350.542 128.917 350.752 128.865 350.91 128.812C351.488 128.602 351.856 128.077 351.908 127.499L352.224 123.557C352.329 122.138 353.17 120.824 354.431 120.088L357.794 118.144C358.32 117.828 358.635 117.25 358.583 116.672C358.53 116.094 358.162 115.569 357.637 115.358L354.01 113.834C352.644 113.256 351.646 112.1 351.383 110.681L350.542 106.844C350.437 106.319 350.069 105.846 349.543 105.688C349.386 105.636 349.175 105.583 349.018 105.583C348.808 105.583 348.65 105.636 348.44 105.688C348.335 105.741 348.177 105.846 348.072 105.951C347.967 106.003 347.967 106.109 348.019 106.214C348.072 106.266 348.124 106.266 348.177 106.266C348.229 106.266 348.282 106.266 348.282 106.214C348.492 106.056 348.755 105.951 349.018 105.951C349.175 105.951 349.281 106.003 349.438 106.056C349.806 106.161 350.069 106.476 350.174 106.897L351.015 110.733C351.33 112.31 352.381 113.571 353.853 114.202L357.479 115.674C357.9 115.884 358.162 116.252 358.215 116.672C358.215 117.145 358.005 117.566 357.637 117.776L354.221 119.773C352.854 120.561 351.961 121.98 351.856 123.557L351.54 127.446C351.488 127.919 351.225 128.287 350.805 128.444C350.647 128.497 350.489 128.55 350.332 128.55C350.069 128.55 349.806 128.444 349.596 128.234L346.653 125.607C345.759 124.818 344.603 124.398 343.447 124.398C343.079 124.398 342.659 124.398 342.291 124.503L338.507 125.449C338.402 125.449 338.297 125.449 338.191 125.449C338.086 125.449 337.929 125.449 337.824 125.396H337.771C337.666 125.396 337.613 125.449 337.561 125.501C337.561 125.607 337.613 125.712 337.666 125.764C337.876 125.817 338.034 125.817 338.191 125.817C338.349 125.817 338.454 125.817 338.559 125.817L342.396 124.871C342.711 124.818 343.079 124.766 343.447 124.766ZM338.98 117.776H338.927C338.927 117.776 338.927 117.776 338.875 117.776C338.822 117.828 338.77 117.881 338.77 117.986C338.822 118.669 338.664 119.405 338.402 120.088L337.245 122.716C337.193 122.821 337.245 122.926 337.298 122.979C337.351 122.979 337.351 122.979 337.403 122.979C337.456 122.979 337.561 122.926 337.561 122.874L338.717 120.246C339.085 119.51 339.19 118.722 339.137 117.933C339.137 117.828 339.032 117.776 338.98 117.776ZM340.451 110.523C340.399 110.523 340.399 110.576 340.346 110.576C340.294 110.576 340.241 110.628 340.241 110.733C340.241 110.839 340.294 110.891 340.399 110.944L341.397 111.049C341.608 111.049 341.765 111.049 341.923 111.049C342.554 111.049 343.132 110.944 343.71 110.733C344.445 110.418 345.076 109.945 345.602 109.367C345.654 109.262 345.654 109.157 345.549 109.104C345.549 109.052 345.497 109.052 345.444 109.052C345.391 109.052 345.339 109.052 345.286 109.104C344.813 109.682 344.235 110.103 343.552 110.366C343.027 110.576 342.501 110.681 341.923 110.681C341.765 110.681 341.608 110.681 341.45 110.681L340.451 110.576C340.451 110.523 340.451 110.523 340.451 110.523Z" fill="#FE776B" stroke="#FE776B" stroke-width="0.900044"/>
<path fill-rule="evenodd" clip-rule="evenodd" d="M337.403 122.979C337.351 122.979 337.351 122.979 337.298 122.979C337.246 122.926 337.193 122.821 337.246 122.716L338.402 120.088C338.665 119.405 338.822 118.669 338.77 117.986C338.77 117.881 338.822 117.828 338.875 117.776C338.927 117.776 338.927 117.776 338.927 117.776H338.98C339.032 117.776 339.138 117.828 339.138 117.933C339.19 118.722 339.085 119.51 338.717 120.246L337.561 122.874C337.561 122.926 337.456 122.979 337.403 122.979Z" fill="#FE776B" stroke="#FE776B" stroke-width="0.900044"/>
<path fill-rule="evenodd" clip-rule="evenodd" d="M341.923 111.049C341.765 111.049 341.607 111.049 341.397 111.049L340.398 110.944C340.293 110.891 340.241 110.839 340.241 110.733C340.241 110.628 340.293 110.576 340.346 110.576C340.398 110.576 340.398 110.523 340.451 110.523C340.451 110.523 340.451 110.523 340.451 110.576L341.45 110.681C341.607 110.681 341.765 110.681 341.923 110.681C342.501 110.681 343.026 110.576 343.552 110.366C344.235 110.103 344.814 109.682 345.287 109.104C345.339 109.052 345.392 109.052 345.444 109.052C345.497 109.052 345.549 109.052 345.549 109.104C345.654 109.157 345.654 109.262 345.602 109.367C345.076 109.945 344.446 110.418 343.71 110.733C343.132 110.944 342.553 111.049 341.923 111.049Z" fill="#FE776B" stroke="#FE776B" stroke-width="0.900044"/>
<path fill-rule="evenodd" clip-rule="evenodd" d="M350.332 128.917C349.964 128.917 349.596 128.76 349.333 128.497L346.39 125.922C345.602 125.133 344.498 124.766 343.447 124.766C343.079 124.766 342.711 124.818 342.396 124.871L338.559 125.817C338.454 125.817 338.349 125.817 338.191 125.817C338.034 125.817 337.876 125.817 337.666 125.764C337.613 125.712 337.561 125.606 337.561 125.501C337.613 125.449 337.666 125.396 337.771 125.396H337.823C337.928 125.449 338.086 125.449 338.191 125.449C338.296 125.449 338.401 125.449 338.507 125.449L342.291 124.503C342.658 124.398 343.079 124.398 343.447 124.398C344.603 124.398 345.759 124.818 346.653 125.606L349.596 128.234C349.806 128.444 350.069 128.55 350.332 128.55C350.489 128.55 350.647 128.497 350.805 128.444C351.225 128.287 351.488 127.919 351.54 127.446L351.856 123.557C351.961 121.98 352.854 120.561 354.221 119.773L357.637 117.776C358.005 117.566 358.215 117.145 358.215 116.672C358.162 116.252 357.9 115.884 357.479 115.674L353.853 114.202C352.381 113.571 351.33 112.31 351.015 110.733L350.174 106.897C350.069 106.476 349.806 106.161 349.438 106.056C349.281 106.003 349.175 105.951 349.018 105.951C348.755 105.951 348.492 106.056 348.282 106.214C348.282 106.266 348.229 106.266 348.177 106.266C348.124 106.266 348.072 106.266 348.019 106.214C347.967 106.109 347.967 106.003 348.072 105.951C348.177 105.846 348.335 105.741 348.44 105.688C348.65 105.636 348.808 105.583 349.018 105.583C349.175 105.583 349.386 105.636 349.543 105.688C350.069 105.846 350.437 106.319 350.542 106.844L351.383 110.681C351.646 112.1 352.644 113.256 354.011 113.834L357.637 115.358C358.162 115.568 358.53 116.094 358.583 116.672C358.635 117.25 358.32 117.828 357.795 118.144L354.431 120.088C353.17 120.824 352.329 122.138 352.224 123.557L351.908 127.498C351.856 128.077 351.488 128.602 350.91 128.812C350.752 128.865 350.542 128.917 350.332 128.917Z" fill="#FE776B" stroke="#FE776B" stroke-width="0.900044"/>
<path fill-rule="evenodd" clip-rule="evenodd" d="M165.286 323.108C165.286 323.108 164.813 325.684 164.55 328.259C164.497 329.257 165.233 330.151 166.232 330.203C169.648 330.361 176.953 330.729 179.581 330.624C179.948 330.624 180.211 330.203 180.054 329.836C179.948 329.52 179.738 329.257 179.423 329.152L167.44 323.476L165.286 323.108Z" fill="#0C0367"/>
<path fill-rule="evenodd" clip-rule="evenodd" d="M164.917 321.584L165.285 324.685C165.285 324.685 167.387 325.683 168.859 324.58L168.018 321.164L164.917 321.584Z" fill="#FF9A96"/>
<path fill-rule="evenodd" clip-rule="evenodd" d="M165.758 263.406C165.601 264.247 164.55 303.715 168.596 321.479C168.649 321.794 168.491 322.057 168.228 322.162C167.598 322.425 166.284 322.793 164.812 322.846C164.339 322.846 163.919 322.53 163.761 322.11C162.605 317.958 157.034 297.356 156.456 277.648C155.826 255.68 156.456 276.912 156.456 276.912L157.087 263.353L165.758 263.406Z" fill="#0C0367"/>
<path fill-rule="evenodd" clip-rule="evenodd" d="M151.411 324.317C151.411 324.317 150.675 325.631 149.939 329.1C149.834 329.73 150.255 330.308 150.885 330.413C151.989 330.519 153.723 330.676 155.142 330.676C155.773 330.676 156.299 330.151 156.193 329.467C156.088 328.206 155.615 326.157 154.144 324.527L151.411 324.317Z" fill="#0C0367"/>
<path fill-rule="evenodd" clip-rule="evenodd" d="M150.833 320.375L151.621 325.053C151.621 325.053 152.462 325.683 154.144 325.21L153.829 320.218L150.833 320.375Z" fill="#FF9A96"/>
<path fill-rule="evenodd" clip-rule="evenodd" d="M149.046 264.457C145.367 285.269 149.309 316.013 150.675 322.057C150.728 322.425 151.043 322.688 151.411 322.74C152.041 322.845 153.093 322.951 154.091 322.688C154.459 322.583 154.722 322.267 154.722 321.899C154.985 317.012 154.932 287.213 158.243 275.493C158.401 274.863 158.768 274.39 159.294 274.022L165.601 269.607L166.126 262.46L149.046 264.457Z" fill="#0C0367"/>
<path fill-rule="evenodd" clip-rule="evenodd" d="M171.435 225.198C161.081 224.936 149.624 227.721 149.624 227.721C146.366 245.695 148.731 266.454 148.731 266.454C156.719 268.661 165.811 265.35 165.811 265.35C167.178 257.835 173.589 236.708 173.589 236.708C178.687 236.13 182.839 234.711 186.308 232.819C183.733 229.771 182.524 225.882 181.998 223.569C178.319 224.673 174.64 225.251 171.435 225.198Z" fill="#4143E4"/>
<path fill-rule="evenodd" clip-rule="evenodd" d="M202.179 210.22C201.128 209.011 199.867 209.537 199.867 209.537C198.29 216.001 190.249 221.099 181.998 223.569C182.524 225.882 183.732 229.771 186.308 232.819C200.024 225.303 202.179 210.22 202.179 210.22Z" fill="#FF9A96"/>
<path fill-rule="evenodd" clip-rule="evenodd" d="M201.916 210.535C202.022 210.903 200.76 211.376 200.077 210.01C200.024 209.327 199.657 206.489 200.077 205.963C202.232 203.072 206.331 199.499 206.331 199.499C207.014 200.234 206.436 200.865 206.436 200.865L204.439 202.915C204.86 203.703 205.333 204.334 205.595 205.227C205.753 205.91 205.648 206.646 205.28 207.277C204.912 207.908 204.439 208.696 203.966 209.327C203.125 210.535 201.916 210.535 201.916 210.535Z" fill="#FF9A96"/>
<path fill-rule="evenodd" clip-rule="evenodd" d="M203.545 204.281L201.706 205.753L201.128 207.277L202.757 209.116C202.757 209.116 203.335 206.068 203.703 205.438C204.123 204.754 203.913 204.439 203.545 204.281Z" fill="#FF9A96"/>
<path fill-rule="evenodd" clip-rule="evenodd" d="M153.513 237.759L149.624 227.721C149.624 227.721 139.901 234.185 138.22 242.489C140.059 242.647 143.37 243.172 146.629 244.801C147.364 240.912 153.513 237.759 153.513 237.759Z" fill="url(#paint1_linear)"/>
<path fill-rule="evenodd" clip-rule="evenodd" d="M161.869 247.271C161.869 247.271 150.938 253.315 147.364 248.007C146.576 246.956 146.418 245.852 146.628 244.801C143.37 243.172 140.059 242.647 138.22 242.489C137.747 245.012 137.957 247.692 139.428 250.372C145.735 262.197 163.288 249.952 163.288 249.952L161.869 247.271Z" fill="#FF9A96"/>
<path fill-rule="evenodd" clip-rule="evenodd" d="M161.028 216.684L157.665 226.197C157.612 226.354 157.665 226.512 157.77 226.564C158.663 227.09 161.922 228.561 165.811 226.144C166.231 225.881 166.547 225.461 166.599 224.988L167.755 216.737L161.028 216.684Z" fill="#FF9A96"/>
<path fill-rule="evenodd" clip-rule="evenodd" d="M169.122 207.277C169.122 207.277 171.855 214.792 171.33 217.525C170.857 220.258 166.389 220.048 162.5 217.735L159.82 210.378C161.502 207.382 165.496 206.489 169.122 207.277Z" fill="#FEB3B1"/>
<path fill-rule="evenodd" clip-rule="evenodd" d="M165.864 200.813C163.656 201.076 163.551 202.968 160.03 204.387C157.928 205.28 157.245 204.86 156.299 205.806C154.88 207.33 154.565 210.22 155.616 212.27C157.455 215.791 162.448 217.788 162.658 217.157C162.763 217 163.919 215.003 162.658 213.741C162.343 213.426 162.29 212.953 162.448 212.533C162.605 212.217 162.553 211.849 162.395 211.587C161.87 210.536 161.975 209.695 162.08 209.432C162.658 208.171 165.653 209.642 168.544 207.96C168.754 207.908 171.382 206.331 171.277 204.387C171.172 202.39 168.229 200.498 165.864 200.813Z" fill="url(#paint2_linear)"/>
<path fill-rule="evenodd" clip-rule="evenodd" d="M163.131 213.321C163.131 213.321 160.556 212.795 160.345 214.267C160.135 215.738 162.605 216.422 163.867 215.896L163.131 213.321Z" fill="#FEB3B1"/>
<path fill-rule="evenodd" clip-rule="evenodd" d="M159.662 256.784L165.601 236.025C165.653 235.814 165.864 235.657 166.074 235.604C167.177 235.499 170.278 235.131 173.904 234.816C178.214 234.448 183.259 234.133 186.307 234.395C186.728 234.448 186.991 234.921 186.78 235.289C185.099 238.758 178.056 252.843 174.483 257.467C174.377 257.625 174.22 257.73 174.01 257.73L160.24 257.573C159.82 257.573 159.504 257.205 159.662 256.784Z" fill="#0C0367"/>
<path fill-rule="evenodd" clip-rule="evenodd" d="M161.081 251.791C161.081 251.791 160.24 248.375 160.556 247.166C160.924 245.958 161.554 244.433 163.709 244.749C165.864 245.117 168.439 246.01 168.439 246.01C168.439 246.01 168.281 247.587 166.652 247.061L167.651 247.85C167.651 247.85 167.546 249.111 166.127 248.428L167.073 249.479C167.073 249.479 166.494 250.53 165.496 249.847C164.445 249.216 163.972 252.212 161.081 251.791Z" fill="#FF9A96"/>
<path fill-rule="evenodd" clip-rule="evenodd" d="M166.126 242.121L165.916 242.068L167.125 237.969C167.335 237.338 167.808 236.865 168.439 236.76C172.275 235.92 182.681 235.762 182.786 235.762V235.972C182.681 235.972 172.328 236.182 168.491 236.971C167.966 237.076 167.493 237.496 167.335 238.022L166.126 242.121Z" fill="url(#paint3_linear)"/>
<path fill-rule="evenodd" clip-rule="evenodd" d="M173.326 154.354C172.801 153.724 172.275 153.093 171.75 152.462C172.17 151.516 172.853 150.675 173.799 150.097L183.995 143.633C184.626 143.213 184.626 142.582 184.626 142.372C184.573 142.109 184.468 141.531 183.732 141.268L172.433 137.064C170.751 136.485 169.49 135.066 169.069 133.332L166.074 121.665C165.969 121.139 165.601 120.877 165.391 120.772C165.18 120.666 164.97 120.614 164.76 120.614C164.602 120.614 164.392 120.666 164.234 120.772C164.077 120.824 163.866 120.982 163.761 121.139L159.031 127.078C158.769 126.395 158.453 125.712 158.085 125.028L162.132 119.878C162.71 119.195 163.393 118.827 164.182 118.669C165.601 120.088 167.02 121.402 168.439 122.611L171.014 132.859C171.277 133.91 172.065 134.804 173.116 135.172L184.468 139.323C187.043 140.322 187.464 143.843 185.099 145.315L174.85 151.779C174.01 152.357 173.431 153.303 173.326 154.354Z" fill="#FE776B" stroke="#FE776B" stroke-width="0.900044"/>
<path fill-rule="evenodd" clip-rule="evenodd" d="M168.439 122.611C167.02 121.402 165.601 120.088 164.182 118.669C164.34 118.617 164.55 118.617 164.76 118.617C166.232 118.617 167.651 119.51 168.018 121.139L168.439 122.611Z" fill="#FE776B" stroke="#FE776B" stroke-width="0.900044"/>
<path d="M169.49 169.805C168.754 169.805 168.018 169.543 167.335 169.017L158.033 161.291C157.455 160.818 156.666 160.556 155.931 160.556C155.615 160.556 155.3 160.556 154.985 160.661L148.836 162.395C148.52 161.817 148.153 161.186 147.837 160.556L154.459 158.716C154.932 158.559 155.405 158.506 155.931 158.506C157.139 158.506 158.348 158.926 159.347 159.767L168.649 167.493C168.912 167.703 169.227 167.808 169.49 167.808C169.7 167.808 169.91 167.703 170.016 167.651C170.278 167.545 170.804 167.23 170.804 166.494L171.277 154.407C171.329 153.723 171.487 153.04 171.75 152.462C172.275 153.093 172.801 153.723 173.326 154.354C173.326 154.407 173.326 154.459 173.326 154.512L172.853 166.599C172.748 168.491 171.172 169.805 169.49 169.805ZM142.424 164.077C140.164 164.077 138.43 161.764 139.323 159.505L141.846 153.145C142.266 153.934 142.687 154.722 143.107 155.51L141.215 160.24C140.952 160.924 141.32 161.449 141.478 161.607C141.583 161.764 141.951 162.08 142.424 162.08C142.529 162.08 142.687 162.027 142.792 161.975L146.05 161.081C146.366 161.712 146.681 162.29 147.049 162.921L143.37 163.972C143.055 164.024 142.739 164.077 142.424 164.077ZM143.896 153.461C143.475 152.672 143.055 151.937 142.634 151.148L143.79 148.258C144.211 147.207 144.106 146.05 143.475 145.157L136.748 135.119C135.224 132.859 136.906 129.864 139.533 129.864C139.586 129.864 139.691 129.864 139.744 129.864L151.831 130.652C151.884 130.652 151.989 130.652 152.042 130.652C153.04 130.652 154.039 130.179 154.669 129.391L158.085 125.028C158.453 125.712 158.769 126.395 159.031 127.078L156.246 130.652C155.721 131.335 155.037 131.861 154.249 132.228C153.513 132.544 152.777 132.701 152.042 132.701C151.937 132.701 151.779 132.701 151.674 132.701L139.639 131.913C139.586 131.913 139.586 131.913 139.533 131.913C139.323 131.913 139.166 131.913 139.008 132.018C138.64 132.176 138.377 132.491 138.272 132.859C138.167 133.122 138.167 133.542 138.43 133.963L145.157 144.001C146.155 145.472 146.313 147.364 145.682 148.994L143.896 153.461Z" fill="#FE776B" stroke="#FE776B" stroke-width="0.900044"/>
<path d="M147.049 162.921C146.681 162.29 146.366 161.712 146.05 161.081L147.837 160.556C148.153 161.186 148.52 161.817 148.836 162.395L147.049 162.921ZM143.107 155.51C142.687 154.722 142.266 153.934 141.846 153.145L142.634 151.148C143.055 151.937 143.475 152.672 143.896 153.461L143.107 155.51Z" fill="#FE776B" stroke="#FE776B" stroke-width="0.900044"/>
<path fill-rule="evenodd" clip-rule="evenodd" d="M169.49 167.808C169.227 167.808 168.912 167.703 168.649 167.493L159.347 159.767C158.348 158.926 157.139 158.506 155.931 158.506C155.405 158.506 154.932 158.558 154.459 158.716L147.837 160.556L146.05 161.081L142.792 161.975C142.687 162.027 142.529 162.08 142.424 162.08C141.951 162.08 141.583 161.764 141.478 161.607C141.32 161.449 140.953 160.923 141.215 160.24L143.107 155.51L143.896 153.461L145.682 148.993C146.313 147.364 146.155 145.472 145.157 144.001L138.43 133.963C138.167 133.542 138.167 133.122 138.272 132.859C138.377 132.491 138.64 132.176 139.008 132.018C139.166 131.913 139.323 131.913 139.534 131.913C139.586 131.913 139.586 131.913 139.639 131.913L151.674 132.701C151.779 132.701 151.937 132.701 152.042 132.701C152.777 132.701 153.513 132.544 154.249 132.228C155.037 131.861 155.72 131.335 156.246 130.652L159.031 127.078L163.761 121.139C163.867 120.982 164.077 120.824 164.234 120.771C164.392 120.666 164.602 120.614 164.76 120.614C164.97 120.614 165.18 120.666 165.391 120.771C165.601 120.877 165.969 121.139 166.074 121.665L169.069 133.332C169.49 135.066 170.751 136.485 172.433 137.063L183.732 141.268C184.468 141.531 184.573 142.109 184.626 142.372C184.626 142.582 184.626 143.212 183.995 143.633L173.799 150.097C172.853 150.675 172.17 151.516 171.75 152.462C171.487 153.04 171.329 153.723 171.277 154.407L170.804 166.494C170.804 167.23 170.278 167.545 170.015 167.651C169.91 167.703 169.7 167.808 169.49 167.808ZM155.931 156.772C157.56 156.772 159.137 157.35 160.45 158.401L165.286 162.448C165.706 162.815 166.284 162.973 166.862 162.973C167.177 162.973 167.545 162.921 167.861 162.763C168.702 162.395 169.28 161.554 169.332 160.608L169.595 154.354C169.648 152.042 170.909 149.887 172.853 148.626L178.161 145.262C178.582 144.999 178.897 144.631 179.107 144.211C179.16 144.053 179.107 143.896 178.95 143.791C178.897 143.791 178.845 143.791 178.845 143.791C178.687 143.791 178.582 143.843 178.529 143.948C178.424 144.264 178.161 144.579 177.846 144.789L172.538 148.1C170.383 149.466 169.069 151.779 168.964 154.354L168.702 160.608C168.702 161.291 168.281 161.922 167.598 162.237C167.335 162.342 167.072 162.395 166.862 162.395C166.389 162.395 166.021 162.237 165.653 161.975L160.818 157.98C159.452 156.772 157.665 156.194 155.931 156.194C155.195 156.194 154.512 156.299 153.829 156.456L147.785 158.191C147.627 158.243 147.417 158.243 147.259 158.243C146.734 158.243 146.261 158.033 145.893 157.613C145.42 157.087 145.262 156.351 145.525 155.668L147.837 149.834C148.783 147.522 148.52 144.842 147.101 142.739L143.633 137.536C143.265 136.958 143.212 136.275 143.475 135.697C143.738 135.119 144.263 134.699 144.947 134.593C145.104 134.593 145.209 134.436 145.209 134.278C145.157 134.12 145.052 134.015 144.894 134.015H144.842C144.579 134.068 144.369 134.12 144.158 134.226C143.633 134.436 143.16 134.856 142.897 135.434C142.529 136.223 142.634 137.116 143.107 137.852L146.576 143.055C147.89 144.999 148.153 147.469 147.259 149.624L144.947 155.458C144.631 156.351 144.789 157.35 145.42 158.033C145.893 158.558 146.576 158.874 147.259 158.874C147.469 158.874 147.732 158.821 147.942 158.769L153.986 157.034C154.617 156.877 155.247 156.772 155.931 156.772ZM168.754 136.696C168.754 136.696 168.702 136.696 168.649 136.696C168.596 136.696 168.596 136.748 168.544 136.748C168.439 136.853 168.439 137.063 168.544 137.169C169.385 138.115 170.436 138.85 171.592 139.271L175.902 140.847C175.954 140.847 176.007 140.847 176.007 140.847C176.164 140.847 176.27 140.795 176.322 140.69C176.375 140.532 176.27 140.322 176.112 140.269L171.802 138.693C170.751 138.272 169.753 137.642 169.017 136.801C168.964 136.696 168.859 136.696 168.754 136.696ZM151.569 134.383C151.411 134.383 151.253 134.541 151.253 134.699C151.253 134.856 151.358 135.014 151.516 135.014C151.726 135.014 151.884 135.014 152.042 135.014C153.093 135.014 154.196 134.804 155.195 134.331C156.299 133.858 157.35 133.069 158.085 132.071L159.084 130.809C159.189 130.704 159.189 130.494 159.031 130.389C158.979 130.336 158.926 130.336 158.874 130.336C158.821 130.336 158.769 130.336 158.716 130.336C158.664 130.389 158.664 130.389 158.611 130.442L157.612 131.703C156.929 132.596 155.983 133.332 154.932 133.805C154.039 134.226 153.04 134.436 152.042 134.436C151.884 134.436 151.726 134.436 151.569 134.383Z" fill="#FE776B" stroke="#FE776B" stroke-width="0.900044"/>
<path fill-rule="evenodd" clip-rule="evenodd" d="M176.007 140.848C176.007 140.848 175.954 140.848 175.902 140.848L171.592 139.271C170.436 138.85 169.385 138.115 168.544 137.169C168.439 137.064 168.439 136.853 168.544 136.748C168.596 136.748 168.596 136.696 168.649 136.696C168.702 136.696 168.754 136.696 168.754 136.696C168.859 136.696 168.964 136.696 169.017 136.801C169.753 137.642 170.751 138.272 171.802 138.693L176.112 140.269C176.27 140.322 176.375 140.532 176.322 140.69C176.27 140.795 176.165 140.848 176.007 140.848Z" fill="#FE776B" stroke="#FE776B" stroke-width="0.900044"/>
<path fill-rule="evenodd" clip-rule="evenodd" d="M152.041 135.014C151.884 135.014 151.726 135.014 151.516 135.014C151.358 135.014 151.253 134.856 151.253 134.698C151.253 134.541 151.411 134.383 151.568 134.383C151.726 134.436 151.884 134.436 152.041 134.436C153.04 134.436 154.039 134.225 154.932 133.805C155.983 133.332 156.929 132.596 157.612 131.703L158.611 130.442C158.663 130.389 158.663 130.389 158.716 130.336C158.768 130.336 158.821 130.336 158.873 130.336C158.926 130.336 158.979 130.336 159.031 130.389C159.189 130.494 159.189 130.704 159.084 130.809L158.085 132.071C157.349 133.069 156.298 133.858 155.195 134.331C154.196 134.804 153.093 135.014 152.041 135.014Z" fill="#FE776B" stroke="#FE776B" stroke-width="0.900044"/>
<path fill-rule="evenodd" clip-rule="evenodd" d="M166.862 162.973C166.284 162.973 165.706 162.816 165.285 162.448L160.45 158.401C159.137 157.35 157.56 156.772 155.931 156.772C155.247 156.772 154.617 156.877 153.986 157.034L147.942 158.769C147.732 158.821 147.469 158.874 147.259 158.874C146.576 158.874 145.893 158.559 145.42 158.033C144.789 157.35 144.631 156.351 144.947 155.458L147.259 149.624C148.153 147.469 147.89 144.999 146.576 143.055L143.107 137.852C142.634 137.116 142.529 136.223 142.897 135.434C143.16 134.856 143.633 134.436 144.158 134.226C144.369 134.12 144.579 134.068 144.842 134.015H144.894C145.052 134.015 145.157 134.12 145.209 134.278C145.209 134.436 145.104 134.593 144.947 134.593C144.263 134.699 143.738 135.119 143.475 135.697C143.212 136.275 143.265 136.958 143.633 137.537L147.101 142.74C148.52 144.842 148.783 147.522 147.837 149.834L145.525 155.668C145.262 156.351 145.42 157.087 145.893 157.613C146.261 158.033 146.734 158.243 147.259 158.243C147.417 158.243 147.627 158.243 147.785 158.191L153.828 156.456C154.512 156.299 155.195 156.194 155.931 156.194C157.665 156.194 159.452 156.772 160.818 157.98L165.653 161.975C166.021 162.237 166.389 162.395 166.862 162.395C167.072 162.395 167.335 162.343 167.598 162.237C168.281 161.922 168.702 161.291 168.702 160.608L168.964 154.354C169.069 151.779 170.383 149.467 172.538 148.1L177.846 144.789C178.161 144.579 178.424 144.264 178.529 143.948C178.582 143.843 178.687 143.791 178.845 143.791C178.845 143.791 178.897 143.791 178.95 143.791C179.107 143.896 179.16 144.053 179.107 144.211C178.897 144.631 178.582 144.999 178.161 145.262L172.853 148.626C170.909 149.887 169.648 152.042 169.595 154.354L169.332 160.608C169.28 161.554 168.702 162.395 167.861 162.763C167.545 162.921 167.177 162.973 166.862 162.973Z" fill="#FE776B" stroke="#FE776B" stroke-width="0.900044"/>
<path fill-rule="evenodd" clip-rule="evenodd" d="M134.12 176.532L132.912 176.27C132.544 176.217 132.281 175.797 132.386 175.429C132.439 175.061 132.807 174.798 133.174 174.851L134.436 175.113C134.804 175.218 135.014 175.586 134.961 175.954C134.909 176.322 134.541 176.585 134.173 176.532H134.12Z" fill="#FE776B" stroke="#FE776B" stroke-width="0.900044"/>
<path fill-rule="evenodd" clip-rule="evenodd" d="M130.126 175.796L128.917 175.639C128.497 175.586 128.234 175.271 128.287 174.851C128.339 174.43 128.655 174.167 129.075 174.22L130.336 174.378C130.704 174.43 130.967 174.798 130.914 175.166C130.862 175.586 130.546 175.849 130.126 175.796Z" fill="#FE776B" stroke="#FE776B" stroke-width="0.900044"/>
<path fill-rule="evenodd" clip-rule="evenodd" d="M126.08 175.429L124.871 175.324C124.45 175.324 124.135 174.956 124.135 174.588C124.188 174.167 124.503 173.852 124.923 173.852L126.185 173.957C126.553 173.957 126.868 174.325 126.868 174.693C126.815 175.113 126.5 175.429 126.08 175.429Z" fill="#FE776B" stroke="#FE776B" stroke-width="0.900044"/>
<path fill-rule="evenodd" clip-rule="evenodd" d="M122.033 175.324H120.824H120.771C120.404 175.376 120.036 175.008 120.036 174.588C120.036 174.22 120.351 173.852 120.771 173.852L121.98 173.799C122.401 173.799 122.716 174.115 122.769 174.535C122.769 174.956 122.453 175.324 122.033 175.324Z" fill="#FE776B" stroke="#FE776B" stroke-width="0.900044"/>
<path fill-rule="evenodd" clip-rule="evenodd" d="M75.0485 275.388L75.7843 276.387C76.0996 276.807 76.0471 277.438 75.6266 277.753C75.2062 278.069 74.5756 278.016 74.2602 277.596L73.5245 276.545C73.2092 276.124 73.2617 275.493 73.6821 275.178C74.1026 274.863 74.7332 274.915 75.0485 275.336V275.388Z" fill="url(#paint4_linear)"/>
<defs>
<linearGradient id="paint0_linear" x1="143.524" y1="216.55" x2="151.577" y2="167.767" gradientUnits="userSpaceOnUse">
<stop stop-color="#FFD8D5"/>
<stop offset="1" stop-color="#FFE2E0"/>
</linearGradient>
<linearGradient id="paint1_linear" x1="148.588" y1="239.995" x2="228.922" y2="324.558" gradientUnits="userSpaceOnUse">
<stop stop-color="#4042E2"/>
<stop offset="1" stop-color="#4F52FF"/>
</linearGradient>
<linearGradient id="paint2_linear" x1="161.091" y1="194.733" x2="165.067" y2="217.115" gradientUnits="userSpaceOnUse">
<stop stop-color="#09005D"/>
<stop offset="1" stop-color="#1A0F91"/>
</linearGradient>
<linearGradient id="paint3_linear" x1="169.142" y1="230.684" x2="160.601" y2="260.029" gradientUnits="userSpaceOnUse">
<stop stop-color="#FF928E"/>
<stop offset="1" stop-color="#FEB3B1"/>
</linearGradient>
<linearGradient id="paint4_linear" x1="73.464" y1="276.54" x2="75.8474" y2="276.385" gradientUnits="userSpaceOnUse">
<stop stop-color="#DAE3FE"/>
<stop offset="1" stop-color="#E9EFFD"/>
</linearGradient>
</defs>
</svg>
