<svg width="auto" height="auto" viewBox="0 0 507 362" fill="none" xmlns="http://www.w3.org/2000/svg">
<g clip-path="url(#clip0)">
<path d="M9.52173 95.39C16.5676 95.39 23.4231 95.39 30.2786 95.39C42.6565 95.39 55.0344 95.39 67.2219 95.39C76.3625 95.39 79.0285 95.1995 88.1692 95.39C88.3596 89.8675 86.6457 84.5355 83.9797 81.679C81.885 79.3939 78.0764 78.2513 75.0295 79.013C71.0305 79.9652 68.3645 82.6312 65.8889 84.5355C64.9367 76.9183 61.8899 69.8724 58.4621 68.349C52.5588 65.6829 46.4651 69.8724 43.6086 73.8714C41.3235 77.2992 40.1809 81.2982 39.6096 85.2972C35.9914 81.2982 27.6125 78.0609 24.7561 84.5355C23.6135 87.0111 23.6135 90.0579 23.804 92.724C18.8528 91.5814 13.5208 92.5335 9.52173 95.39Z" fill="#D1DDF9" fill-opacity="0.45098"/>
<path d="M433.99 45.6879C432.847 41.1176 422.374 34.4526 416.851 38.4516C415.137 29.8823 413.423 24.5502 407.901 20.3608C402.188 15.9809 392.857 21.5034 391.334 33.1196C389.81 28.3588 382.193 22.0746 376.099 27.4067C370.386 32.3578 369.815 40.7367 370.386 45.6879H433.99Z" fill="#D1DDF9" fill-opacity="0.45098"/>
<path d="M507.115 105.673C505.401 101.484 501.973 99.1987 498.164 98.6274C493.213 98.0561 488.262 100.913 488.262 100.913C488.262 100.913 490.166 93.8666 487.691 88.3442C485.977 84.5356 483.311 80.9174 479.502 79.9653C475.503 79.0131 471.504 80.9174 468.648 83.9643C465.601 87.0112 463.697 91.0102 462.173 95.0092C461.221 92.1528 460.078 88.9155 457.603 87.9633C454.937 86.8207 451.89 88.725 450.557 91.391C449.033 94.0571 449.033 97.2944 449.224 100.341C446.177 98.6274 442.368 98.0561 439.131 99.7699C437.227 101.103 435.894 103.388 435.513 105.673H507.115Z" fill="#D1DDF9" fill-opacity="0.45098"/>
<path d="M153.487 202.221C137.491 196.699 123.399 186.035 113.116 172.704C102.642 159.374 90.8355 130.048 92.9302 105.292C139.014 119.003 157.867 161.85 160.533 187.939L153.487 202.221Z" fill="#D1DDF9"/>
<path d="M92.9302 105.292C92.9302 105.292 100.547 164.707 153.868 197.651" stroke="white" stroke-width="6.2504"/>
<path d="M92.9302 105.292C92.9302 105.292 124.351 161.66 158.819 196.127" stroke="white" stroke-width="6.2504"/>
<path d="M92.9302 105.292C92.9302 105.292 139.395 142.236 161.104 192.7" stroke="white" stroke-width="6.2504"/>
<path d="M153.678 300.483C135.396 307.338 115.211 307.529 96.5487 302.577C77.6961 297.626 46.6561 278.202 31.0409 253.066C75.6014 237.831 129.112 258.398 149.869 281.249L153.678 300.483Z" fill="#D1DDF9"/>
<path d="M31.0404 253.066C31.0404 253.066 79.7904 304.482 150.821 295.722" stroke="white" stroke-width="6.2504" stroke-linejoin="round"/>
<path d="M31.0404 253.066C31.0404 253.066 99.0238 283.534 154.248 290.39" stroke="white" stroke-width="6.2504" stroke-linejoin="round"/>
<path d="M31.0404 253.066C31.0404 253.066 98.8333 253.447 153.867 285.629" stroke="white" stroke-width="6.2504" stroke-linejoin="round"/>
<path d="M170.625 175.371C155.2 163.754 144.346 147.187 138.252 129.096C132.349 110.815 131.587 74.6333 144.155 48.1636C180.718 77.1089 192.334 132.524 184.717 162.04L170.625 175.371Z" fill="#E8F0FF"/>
<path d="M144.155 48.1636C144.155 48.1636 127.778 116.147 173.1 170.419" stroke="white" stroke-width="6.2504" stroke-linejoin="round"/>
<path d="M144.155 48.1636C144.155 48.1636 155.39 120.908 179.385 170.419" stroke="white" stroke-width="6.2504" stroke-linejoin="round"/>
<path d="M144.155 48.1636C144.155 48.1636 180.337 104.531 183.193 167.563" stroke="white" stroke-width="6.2504" stroke-linejoin="round"/>
<path d="M310.782 166.801C326.206 163.754 340.679 155.756 352.105 144.711C363.531 133.666 378.384 108.149 379.717 84.9163C335.157 91.5813 312.115 128.715 306.021 152.519L310.782 166.801Z" fill="#D1DDF9"/>
<path d="M379.717 84.9163C379.717 84.9163 364.864 138.998 310.972 162.421" stroke="white" stroke-width="6.2504" stroke-linejoin="round"/>
<path d="M379.717 84.9163C379.717 84.9163 342.964 133.095 306.401 160.326" stroke="white" stroke-width="6.2504" stroke-linejoin="round"/>
<path d="M379.717 84.9163C379.717 84.9163 331.729 112.909 304.878 157.089" stroke="white" stroke-width="6.2504" stroke-linejoin="round"/>
<path d="M354.39 292.675C377.051 297.055 401.045 293.627 422.564 284.867C443.892 276.108 477.788 249.067 492.071 218.408C427.896 203.364 376.48 241.64 355.532 270.776L354.39 292.675Z" fill="#D1DDF9"/>
<path d="M492.07 218.407C492.07 218.407 442.749 283.915 356.865 286.962" stroke="white" stroke-width="6.2504" stroke-linejoin="round"/>
<path d="M492.071 218.407C492.071 218.407 424.468 263.539 355.342 276.298" stroke="white" stroke-width="6.2504" stroke-linejoin="round"/>
<path d="M492.071 218.407C492.071 218.407 411.709 230.785 351.724 276.298" stroke="white" stroke-width="6.2504" stroke-linejoin="round"/>
<path d="M290.596 160.707C310.21 152.328 326.206 137.284 337.441 119.003C348.486 100.912 358.579 62.0648 351.724 30.2631C304.878 51.972 278.027 108.91 278.98 142.807L290.596 160.707Z" fill="#E8F0FF"/>
<path d="M351.724 30.2631C351.724 30.2631 352.105 107.768 289.263 154.804" stroke="white" stroke-width="6.2504" stroke-linejoin="round"/>
<path d="M351.724 30.2631C351.724 30.2631 320.874 105.864 282.598 153.09" stroke="white" stroke-width="6.2504" stroke-linejoin="round"/>
<path d="M351.724 30.2631C351.724 30.2631 298.404 81.8695 279.17 149.091" stroke="white" stroke-width="6.2504" stroke-linejoin="round"/>
<path d="M150.439 270.585C139.775 272.299 121.685 274.775 111.782 267.919C106.26 264.301 105.308 257.446 103.022 251.542C99.4043 241.259 91.7871 235.165 81.6943 233.451C77.6953 232.69 73.3154 230.976 71.4111 226.977C68.5547 221.264 72.1728 214.028 69.8877 207.934C68.5547 204.697 65.8887 202.411 63.6035 199.936C58.2715 193.652 56.9385 184.511 56.9385 184.511C56.9385 184.511 63.4131 186.415 70.6494 184.321C75.4101 182.797 80.3613 181.845 85.3125 182.607C89.1211 183.178 91.9775 185.273 94.6435 188.32C97.5 191.938 100.166 194.604 104.355 196.127C111.02 198.412 127.397 192.89 129.302 202.411C129.873 204.887 129.111 207.743 130.444 210.219C132.539 214.599 137.871 212.314 141.299 213.456C146.821 215.17 152.915 219.169 155.2 224.311C160.913 236.689 160.532 253.637 157.485 266.967L150.439 270.585Z" fill="#E8F0FF"/>
<path d="M57.7003 184.701C75.6007 203.935 102.642 211.362 120.161 231.166C125.303 237.07 129.492 243.925 134.443 250.209C139.395 256.493 145.488 262.206 152.725 264.491" stroke="white" stroke-width="6.2504" stroke-linejoin="round"/>
<path d="M70.0776 221.645C79.4087 222.787 93.6909 222.597 107.783 219.931C107.783 219.931 104.355 201.65 101.499 194.794" stroke="white" stroke-width="6.2504" stroke-linejoin="round"/>
<path d="M70.4587 215.741C80.7419 216.503 89.3113 215.741 101.308 215.36" stroke="white" stroke-width="6.2504" stroke-linejoin="round"/>
<path d="M68.9354 206.41C68.9354 206.41 77.6952 206.791 85.6932 205.649" stroke="white" stroke-width="6.2504" stroke-linejoin="round"/>
<path d="M60.3662 194.604C60.3662 194.794 63.0322 195.175 69.3164 194.985" stroke="white" stroke-width="6.2504" stroke-linejoin="round"/>
<path d="M82.0752 203.554C82.0752 203.554 77.8857 190.605 74.6484 183.178" stroke="white" stroke-width="6.2504" stroke-linejoin="round"/>
<path d="M98.8326 213.647C98.8326 213.647 94.8336 193.271 90.8346 184.701" stroke="white" stroke-width="6.2504" stroke-linejoin="round"/>
<path d="M90.8346 236.498C91.2155 236.689 108.735 238.022 123.208 234.784" stroke="white" stroke-width="6.2504" stroke-linejoin="round"/>
<path d="M118.828 229.643C118.828 229.643 117.114 207.934 114.258 196.698" stroke="white" stroke-width="6.2504" stroke-linejoin="round"/>
<path d="M132.92 210.79C134.824 224.311 135.205 250.971 135.205 250.971C135.205 250.971 112.544 254.018 103.022 251.542" stroke="white" stroke-width="6.2504" stroke-linejoin="round"/>
<path d="M144.917 260.492C144.917 260.492 145.678 230.214 143.965 214.408" stroke="white" stroke-width="6.2504" stroke-linejoin="round"/>
<path d="M104.737 257.446C104.737 257.446 123.018 260.112 138.443 254.78" stroke="white" stroke-width="6.2504" stroke-linejoin="round"/>
<path d="M148.726 262.968C148.726 262.968 153.867 238.974 150.059 218.027" stroke="white" stroke-width="6.2504" stroke-linejoin="round"/>
<path d="M296.69 140.712C301.641 128.144 309.449 115.766 304.688 102.055C302.022 94.4378 293.833 91.2005 287.549 87.2015C276.885 80.1556 272.124 69.3011 272.886 56.7328C273.267 51.5912 272.315 46.0687 268.506 42.641C262.793 37.8802 253.272 40.1654 247.178 35.9759C243.75 33.6908 242.036 29.8822 239.561 26.4545C234.038 18.4564 223.946 14.4574 223.946 14.4574C223.946 14.4574 224.517 22.8363 219.947 31.2152C216.9 36.5472 214.424 42.4506 214.043 48.5443C213.662 53.305 215.186 57.3041 217.852 61.1127C221.089 65.683 223.565 69.3011 224.136 75.014C224.898 83.5833 213.853 102.245 224.326 106.816C227.183 107.958 230.42 107.958 232.896 110.053C237.276 113.671 233.277 119.575 233.658 124.145C234.038 131.191 236.895 139.57 242.036 143.759C254.605 153.471 274.029 157.47 290.025 156.899L296.69 140.712Z" fill="#E8F0FF"/>
<path d="M223.946 15.4094C241.085 41.8791 241.846 76.7278 259.556 102.817C264.888 110.624 271.553 117.48 277.266 124.906C282.979 132.524 287.93 141.093 288.692 150.614" stroke="white" stroke-width="6.2504" stroke-linejoin="round"/>
<path d="M250.225 84.9163C250.225 84.9163 230.42 76.3469 223.374 71.0149" stroke="white" stroke-width="6.2504" stroke-linejoin="round"/>
<path d="M255.748 38.642C253.843 51.2103 250.606 61.4935 246.797 75.9662" stroke="white" stroke-width="6.2504" stroke-linejoin="round"/>
<path d="M245.655 34.4525C245.655 34.4525 243.56 45.1165 240.132 54.638" stroke="white" stroke-width="6.2504" stroke-linejoin="round"/>
<path d="M234.61 21.1224C234.8 21.1224 234.42 24.5501 232.515 32.1673" stroke="white" stroke-width="6.2504" stroke-linejoin="round"/>
<path d="M238.609 49.6868C238.609 49.8772 225.088 41.4983 217.662 35.7854" stroke="white" stroke-width="6.2504" stroke-linejoin="round"/>
<path d="M245.655 72.7288C245.655 72.5383 223.565 62.636 214.996 55.5901" stroke="white" stroke-width="6.2504" stroke-linejoin="round"/>
<path d="M272.505 49.6869C270.41 57.1136 266.792 75.9662 255.747 95.0091" stroke="white" stroke-width="6.2504" stroke-linejoin="round"/>
<path d="M258.223 100.912C258.223 100.912 233.848 93.2953 222.042 87.0111" stroke="white" stroke-width="6.2504" stroke-linejoin="round"/>
<path d="M286.216 140.141C286.216 140.141 251.558 133.666 234.038 127.573" stroke="white" stroke-width="6.2504" stroke-linejoin="round"/>
<path d="M293.833 90.6292C293.833 90.6292 291.739 113.481 281.455 131" stroke="white" stroke-width="6.2504" stroke-linejoin="round"/>
<path d="M366.577 249.828C380.288 247.162 395.713 247.353 405.235 235.356C410.376 228.691 408.853 219.741 409.043 211.933C409.234 198.412 416.089 188.32 427.896 181.845C432.466 179.369 437.036 175.37 437.798 170.229C438.941 162.421 431.514 155.375 431.895 147.568C432.085 143.188 434.37 139.379 436.084 135.571C440.083 126.049 437.989 115.004 437.989 115.004C437.989 115.004 430.943 120.146 421.04 120.527C414.566 120.908 407.901 122.05 402.188 125.097C397.808 127.382 395.142 131 393.238 135.571C390.952 140.903 389.048 145.092 384.287 148.71C377.051 154.233 354.58 154.804 356.294 166.611C356.675 169.848 358.579 172.704 358.199 176.132C357.246 182.035 350.01 181.845 346.011 184.511C339.917 188.891 334.204 196.127 333.443 202.983C331.538 219.55 338.965 238.974 348.296 253.066L366.577 249.828Z" fill="#E8F0FF"/>
<path d="M437.227 115.385C423.135 145.473 392.666 165.468 379.526 195.747C375.527 204.887 373.052 214.599 369.624 223.93C366.006 233.261 361.055 242.402 353.247 248.305" stroke="white" stroke-width="6.2504" stroke-linejoin="round"/>
<path d="M437.226 163.373C426.181 168.705 408.471 174.418 390 177.465C390 177.465 386.762 155.185 387.524 145.854" stroke="white" stroke-width="6.2504" stroke-linejoin="round"/>
<path d="M434.37 156.708C421.992 161.85 411.137 164.897 396.093 169.467" stroke="white" stroke-width="6.2504" stroke-linejoin="round"/>
<path d="M432.466 145.282C432.466 145.282 421.802 149.472 411.518 151.567" stroke="white" stroke-width="6.2504" stroke-linejoin="round"/>
<path d="M438.178 128.144C438.178 128.334 434.941 129.858 427.134 132.524" stroke="white" stroke-width="6.2504" stroke-linejoin="round"/>
<path d="M414.946 147.568C414.946 147.758 414.565 131 415.708 121.288" stroke="white" stroke-width="6.2504" stroke-linejoin="round"/>
<path d="M398.379 166.611C398.569 166.611 395.142 141.283 396.475 129.858" stroke="white" stroke-width="6.2504" stroke-linejoin="round"/>
<path d="M417.803 189.462C417.613 189.843 396.284 198.793 377.241 201.459" stroke="white" stroke-width="6.2504" stroke-linejoin="round"/>
<path d="M380.478 193.652C380.478 193.652 373.623 167.753 372.48 153.661" stroke="white" stroke-width="6.2504" stroke-linejoin="round"/>
<path d="M355.342 177.846C358.389 194.223 369.053 225.073 369.053 225.073C369.053 225.073 398.379 218.979 409.043 211.933" stroke="white" stroke-width="6.2504" stroke-linejoin="round"/>
<path d="M361.055 240.117C361.055 240.117 347.534 205.839 343.154 186.796" stroke="white" stroke-width="6.2504" stroke-linejoin="round"/>
<path d="M409.423 219.55C409.423 219.55 387.905 230.405 366.577 230.786" stroke="white" stroke-width="6.2504" stroke-linejoin="round"/>
<path d="M357.437 244.496C357.437 244.496 341.06 219.36 337.061 193.652" stroke="white" stroke-width="6.2504" stroke-linejoin="round"/>
<path d="M310.591 193.652C312.495 197.46 320.113 214.218 322.017 218.027C315.923 220.121 310.21 222.597 304.307 224.882C301.641 228.31 307.354 221.454 307.735 217.836L310.591 193.652Z" fill="#F677BA"/>
<path d="M323.73 223.549L320.303 224.692C320.112 224.501 319.922 223.359 319.541 223.168C318.97 223.359 317.637 223.93 317.446 224.12C317.256 224.12 317.256 224.501 317.065 225.073C316.875 225.644 316.494 226.025 315.923 226.215L302.212 230.976C300.498 231.547 299.546 229.643 301.069 227.929C302.402 226.406 305.259 223.359 305.449 223.168C310.972 221.835 319.731 217.836 320.683 215.17C322.588 216.313 323.73 223.549 323.73 223.549Z" fill="#0A0A3A"/>
<path d="M309.067 148.52C309.448 157.47 308.496 175.561 309.639 183.178C310.4 187.939 319.16 211.933 319.16 211.933L307.734 217.836C307.734 217.836 297.832 202.792 292.31 184.892C288.691 173.276 288.501 160.517 288.501 150.043L309.067 148.52Z" fill="#F677BA"/>
<path d="M338.965 174.99C342.012 178.036 355.342 190.605 358.579 193.652C353.628 197.651 349.248 202.031 344.678 206.41C343.536 210.6 346.202 202.221 345.249 198.603L338.965 174.99Z" fill="#F677BA"/>
<path d="M362.198 198.031L359.341 200.317C359.151 200.126 358.579 199.174 358.199 198.984C357.627 199.555 356.675 200.507 356.485 200.698C356.485 200.888 356.485 201.459 356.485 201.84C356.675 202.411 356.485 202.983 355.913 203.364L345.059 212.885C343.726 214.028 342.012 212.504 342.774 210.409C343.536 208.696 344.869 204.697 345.059 204.506C349.82 201.078 356.294 194.223 356.294 191.366C358.389 191.557 362.198 198.031 362.198 198.031Z" fill="#0A0A3A"/>
<path d="M327.729 131.572C327.729 131.572 326.968 158.041 330.776 164.897C334.966 172.704 348.867 184.701 348.867 184.701L345.249 198.603C345.249 198.603 325.635 187.748 315.352 174.609C307.734 164.706 307.354 133.095 307.354 133.095L327.729 131.572Z" fill="#F677BA"/>
<path d="M326.587 109.482C340.488 120.146 339.346 162.802 339.346 162.802C339.346 162.802 323.921 166.801 311.543 166.801C298.975 166.801 286.026 164.706 286.026 164.706C286.787 128.144 293.262 118.622 296.88 112.338L326.587 109.482Z" fill="#182679"/>
<path d="M300.879 51.4008C300.879 51.4008 304.116 60.5414 303.545 62.6361C302.974 64.7308 296.118 64.1595 294.404 63.9691C294.214 59.3988 295.928 52.9242 295.928 52.9242L300.879 51.4008Z" fill="#212136"/>
<path d="M302.022 62.0647L302.784 67.2063C302.784 67.2063 306.402 69.4914 309.449 68.1584C312.686 67.0159 312.495 65.1116 312.495 65.1116L308.687 55.9709L302.022 62.0647Z" fill="#F677BA"/>
<path d="M296.88 53.305C296.88 59.7796 298.023 64.7308 302.212 64.5403C306.782 64.1595 310.21 60.3509 308.496 55.3997C306.782 50.0677 297.261 49.4964 296.88 53.305Z" fill="#F677BA"/>
<path d="M302.403 64.9213C304.688 64.5404 307.354 63.3978 308.497 60.351" stroke="#CC3189" stroke-width="3.1252" stroke-linejoin="round"/>
<path d="M307.735 55.0188C307.735 55.0188 307.735 55.0188 307.735 55.2092H307.925C307.925 55.0188 307.925 55.0188 307.925 55.0188H307.735Z" fill="#FF8559"/>
<path d="M303.545 52.7338C299.927 53.6859 297.261 53.4955 294.976 52.7338C295.357 50.4486 296.69 47.4017 300.689 47.2113C303.545 44.7357 306.973 45.4974 307.735 45.8783C310.21 46.64 311.734 48.1634 313.067 50.2582C315.161 53.6859 315.542 59.0179 315.542 62.0648C312.305 62.8265 309.639 63.3978 307.544 63.3978C307.735 63.3978 306.402 54.638 303.545 52.7338Z" fill="#212136"/>
<path d="M305.83 57.1137C305.64 56.9233 305.83 56.352 306.401 55.9711C307.163 55.5903 308.115 56.5424 308.115 57.4946C308.306 58.2563 308.115 58.6371 307.735 59.2084C307.354 59.9701 306.782 60.351 306.211 59.5893L305.83 57.1137Z" fill="#F677BA"/>
<path d="M300.308 56.7328C300.308 56.7328 299.546 59.2084 299.737 59.7797C300.118 60.1605 301.451 59.9701 301.451 59.9701" stroke="#CC3189" stroke-width="2.08347" stroke-linejoin="round"/>
<path d="M300.117 61.1125L304.116 60.5413C304.116 60.5413 303.926 62.636 301.831 62.8264C300.117 63.0168 300.117 61.1125 300.117 61.1125Z" fill="white"/>
<path d="M298.403 56.3519C298.403 56.5424 298.403 56.7328 298.403 56.9232C298.403 57.4945 298.975 57.4945 298.975 56.9232C298.975 56.7328 298.975 56.5424 298.975 56.3519C298.975 56.1615 298.594 56.1615 298.403 56.3519Z" fill="#00266E"/>
<path d="M299.546 55.2095C299.546 55.2095 298.594 54.6382 298.023 55.3999" stroke="#00266E" stroke-width="2.08347" stroke-linecap="round" stroke-linejoin="round"/>
<path d="M302.974 56.1615C302.974 56.352 302.974 56.5424 302.974 56.7328C302.974 57.1137 303.736 57.1137 303.736 56.7328C303.736 56.5424 303.545 56.352 303.545 56.1615C303.545 55.7807 303.164 55.9711 302.974 56.1615Z" fill="#00266E"/>
<path d="M302.403 54.8285C302.403 54.8285 303.355 54.2572 304.498 55.0189" stroke="#00266E" stroke-width="2.08347" stroke-linecap="round" stroke-linejoin="round"/>
<path d="M298.594 89.1056C286.217 106.435 260.699 122.05 260.699 122.05L255.367 115.385C255.367 115.385 274.41 99.3888 286.026 81.1075L298.594 89.1056Z" fill="#F677BA"/>
<path d="M257.652 113.671C255.367 115.575 247.559 120.526 247.75 121.098C247.75 121.669 250.606 119.955 250.606 120.526C250.606 121.098 246.607 123.954 246.988 124.525C247.369 125.287 251.368 122.05 251.368 122.05C251.368 122.05 247.178 125.668 247.75 126.239C248.321 126.811 251.558 124.145 253.082 123.192C251.558 124.335 249.654 126.43 250.035 126.811C250.416 127.191 252.701 125.478 254.605 124.335C253.653 125.097 251.749 126.811 252.13 127.191C252.51 127.572 258.414 123.764 263.936 119.955L257.652 113.671Z" fill="#F677BA"/>
<path d="M251.558 120.527C251.558 120.527 254.605 120.527 255.938 119.955" stroke="#CC3189" stroke-width="3.1252" stroke-linejoin="round"/>
<path d="M301.26 67.2062C295.928 66.254 290.977 70.0626 288.882 73.4903C284.502 80.3458 282.217 85.6778 282.217 85.6778L294.976 93.295L302.403 70.4435L301.26 67.2062Z" fill="#FF9356"/>
<path d="M301.26 67.2062C303.736 67.587 304.498 68.5392 306.212 67.9679C309.449 67.0157 311.925 65.3019 311.925 65.3019C309.83 65.4923 318.97 67.0157 325.826 74.4425C328.111 82.4405 328.301 90.4386 329.063 111.576C311.925 117.099 296.881 112.338 296.881 112.338C296.881 112.338 294.976 103.197 292.691 96.3419C289.454 90.0577 290.977 83.0118 294.405 77.2989C294.405 73.6808 301.26 67.2062 301.26 67.2062Z" fill="#FF9356"/>
<path d="M311.734 63.2073L305.83 68.1584L309.639 72.1575L313.447 66.2542L311.734 63.2073Z" fill="white"/>
<path d="M305.831 68.1583L302.403 65.4923L301.26 67.2062L302.974 71.9669L305.831 68.1583Z" fill="white"/>
<path d="M290.977 89.1056C290.786 85.1066 293.071 78.8224 293.071 78.8224" stroke="#A52F2D" stroke-width="3.1252"/>
<path d="M355.151 333.046C354.77 333.046 354.58 333.046 354.389 332.856L269.838 326.953C264.126 326.572 259.936 321.621 260.317 315.908L262.031 290.961C262.221 289.438 263.364 288.295 265.078 288.295C265.649 288.295 266.411 288.676 266.982 289.057C269.648 291.533 272.695 293.056 276.123 293.247C276.504 293.247 276.884 293.247 277.265 293.247C285.835 293.247 293.071 285.629 293.642 275.727C294.404 265.634 287.739 256.684 278.789 256.113C278.408 256.113 278.027 256.113 277.837 256.113C274.79 256.113 271.743 257.065 269.077 258.969C268.696 259.35 268.125 259.541 267.363 259.541C266.601 259.541 265.839 259.16 265.268 258.588C264.697 257.827 264.506 257.065 264.506 256.303L266.22 231.357C266.601 226.025 271.171 221.835 276.504 221.835C276.884 221.835 277.075 221.835 277.265 221.835L302.973 223.74C304.116 223.74 305.258 224.501 305.639 225.644C306.02 226.787 305.639 227.929 304.878 228.691C301.831 231.357 300.117 234.975 299.926 238.593C299.355 247.543 307.163 255.541 317.255 256.303C317.827 256.303 318.398 256.303 318.779 256.303C328.491 256.303 336.489 249.638 337.06 241.259C337.251 237.641 336.108 233.833 333.632 230.786C332.871 229.833 332.68 228.691 333.252 227.739C333.632 226.596 334.775 226.025 335.918 226.025H336.108L361.816 227.739C367.529 228.12 371.718 233.071 371.337 238.784L365.434 323.334C365.053 328.666 360.483 333.046 355.151 333.046Z" fill="#82A3FB"/>
<path d="M276.504 222.407C276.694 222.407 277.075 222.407 277.265 222.407L302.973 224.311C305.068 224.311 305.83 226.977 304.497 228.31C301.45 230.976 299.546 234.594 299.355 238.593C298.593 247.924 306.782 256.113 317.256 256.874C317.827 256.874 318.398 256.874 318.779 256.874C328.681 256.874 337.06 250.209 337.632 241.259C337.822 237.26 336.489 233.452 334.013 230.405C332.68 228.881 333.823 226.596 335.918 226.596C335.918 226.596 335.918 226.596 336.108 226.596L361.816 228.31C367.148 228.691 371.147 233.452 370.766 238.784L364.863 323.334C364.482 328.476 360.102 332.285 355.151 332.285C354.77 332.285 354.58 332.285 354.389 332.285L269.839 326.381C264.506 326 260.507 321.24 260.888 315.908L262.602 291.152C262.793 289.819 263.745 288.867 265.078 288.867C265.459 288.867 266.22 289.057 266.601 289.628C269.267 291.913 272.505 293.627 276.123 293.818C276.504 293.818 276.884 293.818 277.265 293.818C286.025 293.818 293.642 286.01 294.214 275.917C294.975 265.253 288.12 256.113 278.789 255.541C278.408 255.541 278.217 255.541 277.837 255.541C274.599 255.541 271.362 256.494 268.886 258.398C268.315 258.779 267.934 258.779 267.363 258.779C266.22 258.779 264.887 257.827 265.078 256.303L266.792 231.547C267.173 226.406 271.552 222.407 276.504 222.407ZM276.504 221.264C270.791 221.264 266.03 225.644 265.649 231.357L263.935 256.303C263.745 257.255 264.126 258.207 264.887 258.969C265.459 259.731 266.411 260.112 267.363 260.112C268.125 260.112 268.886 259.731 269.458 259.35C271.933 257.636 274.79 256.684 277.837 256.684C278.027 256.684 278.408 256.684 278.789 256.684C287.358 257.255 293.833 265.825 293.071 275.727C292.5 285.248 285.454 292.675 277.265 292.675C276.884 292.675 276.504 292.675 276.123 292.675C272.885 292.485 269.839 290.961 267.363 288.676C266.792 288.105 265.84 287.724 265.078 287.724C263.173 287.724 261.65 289.057 261.46 290.961L259.746 315.908C259.174 321.811 263.745 327.143 269.839 327.524L354.389 333.618C354.58 333.618 354.77 333.618 355.151 333.618C360.864 333.618 365.625 329.047 366.006 323.334L371.909 238.974C372.48 232.88 367.91 227.548 361.816 227.167L336.108 225.453H335.918C334.394 225.453 333.252 226.215 332.68 227.358C332.109 228.691 332.299 230.024 333.061 231.166C335.537 234.213 336.679 237.641 336.489 241.259C335.918 249.257 328.11 255.732 318.779 255.732C318.398 255.732 317.827 255.732 317.446 255.541C312.495 255.351 308.115 253.256 304.878 250.019C301.831 246.972 300.307 242.783 300.498 238.784C300.688 235.165 302.402 231.738 305.258 229.262C306.211 228.31 306.591 226.786 306.211 225.453C305.639 224.12 304.497 223.168 302.973 222.978L277.265 221.264C277.075 221.264 276.884 221.264 276.504 221.264Z" fill="white"/>
<path d="M300.688 328.476C310.21 312.099 328.872 301.816 348.867 304.482C354.961 305.244 360.674 307.148 365.815 309.814" stroke="#90AAE4" stroke-width="45.8339"/>
<path d="M320.112 329.999C326.587 323.334 335.918 319.716 345.82 320.859C352.295 321.811 358.198 324.667 362.578 328.857" stroke="#90AAE4" stroke-width="45.8339"/>
<path d="M234.99 220.121C234.419 220.121 234.038 220.121 233.657 220.121L207.949 216.884C206.807 216.694 205.854 215.932 205.474 214.789C205.093 213.456 205.474 212.314 206.426 211.552C209.473 209.076 211.567 205.649 211.948 201.84C212.519 197.651 211.186 193.271 207.949 189.843C204.902 186.225 200.522 183.94 195.571 183.368C194.619 183.368 193.857 183.178 192.905 183.178C183.765 183.178 176.147 189.272 175.005 197.27C174.624 200.888 175.576 204.887 178.052 208.124C178.623 208.886 178.813 210.029 178.242 211.171C177.861 212.123 176.719 212.695 175.576 212.695C175.576 212.695 175.386 212.695 175.195 212.695L149.678 209.457C146.821 209.076 144.346 207.743 142.632 205.649C140.918 203.364 140.347 200.698 140.537 197.841L151.201 113.862C151.772 108.72 156.152 104.911 161.484 104.911C161.865 104.911 162.246 104.911 162.817 104.911L246.797 115.385C249.463 115.766 251.938 117.289 253.652 119.384C255.366 121.669 256.128 124.335 255.747 127.001L252.51 152.328C252.319 153.852 251.177 154.804 249.653 154.804C248.701 154.804 247.939 154.614 247.368 153.852C244.893 150.995 241.655 149.282 238.037 148.71C237.466 148.71 236.894 148.71 236.323 148.71C227.944 148.71 220.708 155.756 219.565 165.087C218.232 175.37 224.517 184.511 233.467 185.654C234.038 185.654 234.609 185.844 235.181 185.844C238.227 185.844 241.084 184.892 243.75 182.988C244.321 182.607 244.893 182.416 245.464 182.416C246.226 182.416 247.178 182.797 247.749 183.559C248.13 184.13 248.511 184.892 248.32 185.844L245.273 210.981C244.512 216.313 240.132 220.121 234.99 220.121Z" fill="#FFC6CA"/>
<path d="M161.484 105.483C161.865 105.483 162.246 105.483 162.626 105.483L246.606 116.147C252.128 116.718 255.747 121.669 255.175 127.001L251.938 152.138C251.747 153.471 250.795 154.233 249.653 154.233C249.081 154.233 248.32 154.042 247.939 153.471C245.273 150.615 242.036 148.71 238.037 148.139C237.465 148.139 236.894 147.949 236.323 147.949C227.753 147.949 220.136 155.375 218.994 165.087C217.661 175.561 224.135 185.082 233.276 186.225C233.847 186.225 234.609 186.415 235.18 186.415C238.417 186.415 241.464 185.273 244.13 183.559C244.511 183.178 244.892 182.988 245.463 182.988C246.796 182.988 247.939 184.13 247.748 185.654L244.511 210.981C243.94 215.932 239.75 219.55 234.99 219.55C234.609 219.55 234.038 219.55 233.657 219.55L207.949 216.313C206.044 215.932 205.283 213.456 206.806 212.123C209.853 209.457 212.138 206.03 212.519 201.84C213.662 192.7 206.235 184.13 195.571 182.797C194.619 182.607 193.857 182.607 192.905 182.607C183.574 182.607 175.576 188.701 174.433 197.079C174.052 201.269 175.195 205.077 177.48 208.315C178.623 210.029 177.48 212.123 175.576 212.123H175.385L149.677 208.886C144.345 208.315 140.537 203.364 141.108 198.032L151.772 114.052C152.343 109.101 156.533 105.483 161.484 105.483ZM161.484 104.15V105.483V104.15C155.961 104.15 151.201 108.339 150.629 113.862L139.965 197.841C139.204 203.744 143.583 209.267 149.487 210.029L175.195 213.266C175.385 213.266 175.576 213.266 175.576 213.266C176.909 213.266 178.242 212.504 178.813 211.362C179.384 210.219 179.384 208.696 178.432 207.743C176.147 204.506 175.195 200.888 175.576 197.27C176.718 189.653 183.955 183.749 192.905 183.749C193.666 183.749 194.619 183.94 195.38 183.94C205.283 185.273 212.519 193.271 211.376 201.84C210.996 205.458 209.091 208.696 206.044 211.171C204.902 212.123 204.521 213.456 204.902 214.789C205.283 216.313 206.425 217.265 207.949 217.455L233.466 220.693C234.038 220.693 234.418 220.693 234.99 220.693C240.512 220.693 245.082 216.694 245.844 211.171L248.891 185.844C249.081 184.892 248.701 183.94 248.129 183.178C247.368 182.226 246.415 181.845 245.463 181.845C244.702 181.845 243.94 182.035 243.369 182.416C240.893 184.321 238.037 185.082 235.18 185.082C234.609 185.082 234.038 185.082 233.466 185.082C229.277 184.511 225.659 182.226 223.183 178.417C220.707 174.799 219.565 170.038 220.136 165.278C221.279 156.137 228.134 149.282 236.323 149.282C236.894 149.282 237.465 149.282 238.037 149.282C241.464 149.853 244.511 151.567 246.987 154.233C247.748 154.994 248.51 155.566 249.653 155.566C251.367 155.566 252.89 154.233 253.081 152.328L256.318 127.192C256.699 124.145 255.937 121.288 254.033 119.003C252.319 116.718 249.653 115.195 246.796 114.814L162.817 104.34C162.436 104.34 161.865 104.15 161.484 104.15Z" fill="white"/>
<path d="M199.571 110.053C199.571 111.767 199.761 113.291 199.761 115.004M199.761 115.004C199.761 141.665 178.052 163.183 151.392 163.183C149.488 163.183 147.583 163.183 145.679 162.802L199.761 115.004Z" stroke="white" stroke-width="45.8339"/>
<path d="M182.813 107.958C183.194 109.863 183.384 111.958 183.384 113.862M183.384 113.862C183.384 132.143 168.531 146.806 150.44 146.806C149.488 146.806 148.536 146.806 147.583 146.806L183.384 113.862Z" stroke="white" stroke-width="45.8339"/>
<path d="M164.531 105.673C166.245 108.339 167.388 111.577 167.388 115.004M167.388 115.004C167.388 123.764 160.342 131 151.392 131C150.821 131 150.249 130.81 149.678 130.81L167.388 115.004Z" stroke="white" stroke-width="45.8339"/>
<path d="M311.734 246.591C306.592 246.591 301.641 244.687 297.832 241.45C294.214 238.022 292.119 233.642 292.119 228.881C292.31 224.882 294.024 220.883 296.88 217.836C297.642 217.075 297.451 216.313 297.261 215.932C297.071 215.361 296.499 214.789 295.738 214.789L269.839 214.599C266.983 214.409 264.507 213.456 262.412 211.362C260.508 209.457 259.556 206.791 259.556 204.125L259.746 178.989C259.746 178.417 259.556 178.036 259.365 177.656C258.985 177.465 258.413 177.275 258.032 177.275C257.652 177.275 257.271 177.275 256.89 177.656C254.033 180.131 250.415 181.274 246.607 181.274C241.846 181.274 237.466 179.179 234.229 175.37C230.991 171.562 229.278 166.611 229.278 161.469C229.468 150.615 237.276 141.855 246.797 141.855H246.988C250.796 141.855 254.224 143.188 257.271 145.854C257.652 146.044 258.032 146.235 258.413 146.235C259.175 146.235 260.127 145.473 260.127 144.521L260.508 119.384C260.508 113.671 265.078 109.101 270.791 109.101L355.532 110.053C358.389 110.053 360.864 111.196 362.959 113.1C364.863 115.004 365.816 117.67 365.816 120.527L364.863 205.077C364.863 210.79 360.293 215.361 354.58 215.361L328.491 215.17C327.73 215.17 327.158 215.742 326.968 216.122C326.587 216.884 326.778 217.646 327.349 218.027C330.205 221.264 331.729 225.263 331.729 229.452C331.729 238.783 322.779 246.591 312.114 246.591H311.734Z" fill="#B5C8F6"/>
<path d="M270.791 109.672L355.532 110.624C360.864 110.624 365.244 115.004 365.244 120.527L364.292 205.077C364.292 210.41 359.912 214.789 354.58 214.789L328.491 214.599C326.587 214.599 325.444 217.075 326.777 218.408C329.634 221.454 331.157 225.263 331.157 229.262C331.157 238.593 322.588 246.02 312.114 246.02C311.924 246.02 311.924 246.02 311.734 246.02C301.26 245.829 292.691 238.212 292.881 228.881C292.881 224.882 294.595 221.074 297.451 218.217C298.784 216.694 297.832 214.218 295.737 214.218L269.839 213.837C264.317 213.837 260.127 209.457 260.127 204.125L260.318 178.989C260.508 177.656 259.175 176.513 258.032 176.513C257.461 176.513 257.08 176.703 256.509 177.084C253.843 179.369 250.415 180.702 246.607 180.702C237.276 180.702 229.849 171.943 229.849 161.469C230.039 150.805 237.466 142.426 246.797 142.426C246.797 142.426 246.797 142.426 246.987 142.426C250.606 142.426 254.033 143.759 256.89 146.235C257.271 146.616 257.842 146.806 258.413 146.806C259.556 146.806 260.698 145.854 260.698 144.521L261.079 119.384C261.079 114.052 265.459 109.672 270.791 109.672ZM270.791 108.53C264.888 108.53 259.937 113.481 259.746 119.384L259.556 144.521C259.556 145.092 258.985 145.663 258.413 145.663C258.032 145.663 257.842 145.473 257.652 145.283C254.605 142.617 250.796 141.284 246.987 141.284H246.797C236.895 141.284 228.897 150.234 228.706 161.469C228.516 172.704 236.514 181.845 246.607 182.036C250.606 182.036 254.224 180.702 257.271 178.036C257.461 177.846 257.842 177.846 258.032 177.846C258.413 177.846 258.604 177.846 258.794 178.227C258.985 178.227 259.175 178.608 259.175 178.989L258.985 204.125C258.985 210.029 263.745 214.98 269.839 215.17L295.737 215.361C296.499 215.361 296.69 215.932 296.69 216.122C296.88 216.313 297.07 216.884 296.499 217.455C293.452 220.502 291.738 224.692 291.548 228.881C291.548 238.974 300.498 247.162 311.734 247.162H312.114C323.159 247.162 332.3 239.164 332.3 229.452C332.49 225.073 330.776 220.883 327.73 217.646C327.158 217.265 327.349 216.503 327.539 216.503C327.539 216.313 327.92 215.742 328.491 215.742L354.39 215.932H354.58C360.483 215.932 365.435 211.171 365.625 205.077L366.387 120.527C366.387 114.433 361.626 109.482 355.532 109.482L270.982 108.53H270.791Z" fill="white"/>
<path d="M274.98 118.242C273.647 118.432 272.504 117.48 272.314 116.337C272.124 115.004 272.885 113.862 274.218 113.671C275.361 113.481 276.694 114.243 276.884 115.576C277.075 116.718 276.123 118.051 274.98 118.242Z" fill="white"/>
<path d="M296.117 114.624C294.975 114.814 293.832 114.052 293.451 112.719C293.261 111.577 294.213 110.244 295.356 110.053C296.689 109.863 297.831 110.815 298.022 111.957C298.212 113.291 297.45 114.433 296.117 114.624Z" fill="white"/>
<path d="M317.446 111.005C316.494 111.196 315.732 110.815 315.161 110.244H318.779C318.398 110.625 318.017 111.005 317.446 111.005Z" fill="white"/>
<path d="M277.836 135.571C276.694 135.761 275.551 134.999 275.17 133.666C274.98 132.524 275.932 131.381 277.075 131.191C278.408 130.81 279.55 131.762 279.741 132.905C279.931 134.238 279.169 135.38 277.836 135.571Z" fill="white"/>
<path d="M299.164 131.953C297.831 132.143 296.689 131.381 296.498 130.239C296.308 128.906 297.07 127.763 298.403 127.573C299.545 127.382 300.688 128.144 301.069 129.477C301.259 130.62 300.307 131.762 299.164 131.953Z" fill="white"/>
<path d="M320.302 128.525C319.16 128.715 317.827 127.763 317.636 126.621C317.446 125.288 318.398 124.145 319.541 123.955C320.874 123.764 322.016 124.526 322.207 125.859C322.397 127.001 321.635 128.144 320.302 128.525Z" fill="white"/>
<path d="M341.631 124.907C340.298 125.097 339.155 124.145 338.965 123.002C338.774 121.669 339.536 120.527 340.869 120.336C342.011 120.146 343.154 120.908 343.344 122.241C343.725 123.383 342.773 124.716 341.631 124.907Z" fill="white"/>
<path d="M362.768 121.289C361.625 121.479 360.292 120.717 360.102 119.384C359.912 118.242 360.864 116.909 362.006 116.718C363.339 116.528 364.482 117.48 364.672 118.623C364.863 119.956 364.101 121.098 362.768 121.289Z" fill="white"/>
<path d="M238.418 160.136C237.085 160.327 235.942 159.565 235.752 158.232C235.561 157.089 236.323 155.947 237.656 155.756C238.798 155.566 240.131 156.328 240.322 157.47C240.512 158.803 239.56 159.946 238.418 160.136Z" fill="white"/>
<path d="M259.555 156.518C258.413 156.899 257.27 155.947 256.889 154.804C256.699 153.471 257.651 152.329 258.793 152.138C260.126 151.948 261.269 152.709 261.459 154.042C261.65 155.185 260.888 156.328 259.555 156.518Z" fill="white"/>
<path d="M280.883 153.09C279.55 153.281 278.408 152.329 278.217 151.186C278.027 149.853 278.788 148.71 280.122 148.52C281.264 148.33 282.407 149.091 282.788 150.424C282.978 151.567 282.026 152.9 280.883 153.09Z" fill="white"/>
<path d="M302.021 149.472C300.879 149.663 299.546 148.901 299.355 147.568C299.165 146.425 300.117 145.092 301.259 144.902C302.592 144.711 303.735 145.664 303.925 146.806C304.116 148.139 303.354 149.282 302.021 149.472Z" fill="white"/>
<path d="M323.349 145.854C322.016 146.044 320.874 145.283 320.683 143.95C320.493 142.807 321.255 141.665 322.588 141.284C323.73 141.093 324.873 142.045 325.063 143.188C325.444 144.521 324.492 145.664 323.349 145.854Z" fill="white"/>
<path d="M344.487 142.236C343.344 142.426 342.011 141.665 341.821 140.332C341.63 139.189 342.582 138.046 343.725 137.856C345.058 137.666 346.201 138.427 346.391 139.57C346.582 140.903 345.82 142.045 344.487 142.236Z" fill="white"/>
<path d="M365.053 138.808C364.101 138.618 363.34 137.856 363.149 136.904C362.959 135.571 363.72 134.428 365.053 134.238V138.808Z" fill="white"/>
<path d="M241.274 177.656C240.131 177.846 238.989 176.894 238.608 175.751C238.417 174.418 239.37 173.276 240.512 173.085C241.845 172.895 242.988 173.657 243.178 174.99C243.369 176.323 242.607 177.465 241.274 177.656Z" fill="white"/>
<path d="M262.602 174.037C261.269 174.228 260.126 173.466 259.936 172.133C259.746 170.991 260.507 169.658 261.84 169.467C262.983 169.277 264.126 170.229 264.506 171.371C264.697 172.704 263.745 173.847 262.602 174.037Z" fill="white"/>
<path d="M283.74 170.419C282.598 170.61 281.264 169.848 281.074 168.515C280.884 167.372 281.836 166.23 282.978 166.039C284.311 165.659 285.454 166.611 285.644 167.753C285.835 169.086 285.073 170.229 283.74 170.419Z" fill="white"/>
<path d="M305.068 166.801C303.735 166.992 302.592 166.23 302.402 165.087C302.211 163.754 302.973 162.612 304.306 162.421C305.449 162.231 306.591 162.993 306.782 164.326C307.162 165.468 306.21 166.611 305.068 166.801Z" fill="white"/>
<path d="M326.205 163.374C325.063 163.564 323.73 162.612 323.539 161.469C323.349 160.136 324.301 158.994 325.443 158.803C326.776 158.613 327.919 159.375 328.109 160.708C328.3 161.85 327.538 162.993 326.205 163.374Z" fill="white"/>
<path d="M347.533 159.755C346.2 159.946 345.058 158.994 344.867 157.851C344.677 156.518 345.439 155.375 346.772 155.185C347.914 154.995 349.057 155.756 349.247 157.089C349.438 158.232 348.676 159.565 347.533 159.755Z" fill="white"/>
<path d="M265.458 191.367C264.316 191.748 262.983 190.795 262.792 189.653C262.602 188.32 263.554 187.177 264.697 186.987C266.03 186.796 267.172 187.558 267.363 188.891C267.553 190.034 266.791 191.176 265.458 191.367Z" fill="white"/>
<path d="M286.787 187.939C285.454 188.129 284.311 187.177 284.121 186.035C283.93 184.702 284.692 183.559 286.025 183.369C287.167 183.178 288.31 183.94 288.5 185.273C288.881 186.415 287.929 187.748 286.787 187.939Z" fill="white"/>
<path d="M307.924 184.321C306.781 184.511 305.448 183.749 305.258 182.416C305.068 181.274 306.02 179.941 307.162 179.75C308.495 179.56 309.638 180.512 309.828 181.655C310.019 182.988 309.257 184.13 307.924 184.321Z" fill="white"/>
<path d="M329.062 180.703C327.919 180.893 326.777 180.131 326.586 178.798C326.396 177.656 327.157 176.513 328.49 176.132C329.633 175.942 330.776 176.894 330.966 178.037C331.156 179.37 330.395 180.512 329.062 180.703Z" fill="white"/>
<path d="M350.39 177.084C349.057 177.275 347.914 176.513 347.724 175.18C347.534 174.037 348.295 172.895 349.628 172.704C350.771 172.514 352.104 173.276 352.294 174.418C352.485 175.751 351.533 176.894 350.39 177.084Z" fill="white"/>
<path d="M268.505 208.886C267.172 209.077 266.03 208.315 265.839 206.982C265.649 205.839 266.411 204.506 267.744 204.316C268.886 204.125 270.029 205.078 270.219 206.22C270.41 207.553 269.648 208.696 268.505 208.886Z" fill="white"/>
<path d="M289.643 205.268C288.31 205.458 287.167 204.697 286.977 203.364C286.786 202.221 287.738 201.079 288.881 200.888C290.214 200.507 291.357 201.459 291.547 202.602C291.737 203.935 290.976 205.078 289.643 205.268Z" fill="white"/>
<path d="M310.781 201.65C309.638 201.84 308.496 201.079 308.305 199.936C308.115 198.603 308.876 197.46 310.019 197.27C311.352 197.079 312.495 197.841 312.685 199.174C312.875 200.317 312.114 201.459 310.781 201.65Z" fill="white"/>
<path d="M332.109 198.222C330.776 198.413 329.633 197.46 329.443 196.318C329.252 194.985 330.014 193.842 331.347 193.652C332.49 193.461 333.823 194.223 334.013 195.556C334.204 196.699 333.251 197.841 332.109 198.222Z" fill="white"/>
<path d="M353.247 194.604C352.104 194.794 350.962 193.842 350.771 192.7C350.39 191.367 351.342 190.224 352.485 190.034C353.818 189.843 354.961 190.605 355.151 191.938C355.341 193.271 354.58 194.414 353.247 194.604Z" fill="white"/>
<path d="M313.828 219.169C312.495 219.36 311.352 218.598 311.162 217.265C310.971 216.122 311.733 214.789 313.066 214.599C314.209 214.409 315.542 215.361 315.732 216.503C315.922 217.836 314.97 218.979 313.828 219.169Z" fill="white"/>
<path d="M332.68 214.599C332.49 214.409 332.49 214.028 332.49 213.647C332.109 212.504 333.061 211.362 334.204 210.981C335.537 210.79 336.679 211.743 336.87 212.885C337.06 213.456 336.87 214.218 336.489 214.599H332.68Z" fill="white"/>
<path d="M356.293 211.933C354.96 212.124 353.818 211.362 353.627 210.029C353.437 208.886 354.199 207.744 355.532 207.553C356.674 207.363 358.007 208.125 358.198 209.267C358.388 210.6 357.436 211.743 356.293 211.933Z" fill="white"/>
<path d="M294.404 235.737C294.404 235.737 294.594 235.737 294.785 235.737C295.927 235.356 297.26 236.308 297.451 237.451C297.451 238.212 297.26 238.974 296.88 239.545C295.927 238.403 294.975 237.07 294.404 235.737Z" fill="white"/>
<path d="M316.684 236.498C315.541 236.879 314.399 235.927 314.208 234.785C313.827 233.452 314.78 232.309 315.922 232.119C317.255 231.928 318.398 232.69 318.588 234.023C318.779 235.165 318.017 236.308 316.684 236.498Z" fill="white"/>
<path d="M156.914 332.665C151.391 332.665 147.011 328.285 146.63 322.763L141.87 238.212C141.489 232.499 145.869 227.739 151.582 227.358L177.48 225.834C178.242 225.834 178.813 225.263 179.004 224.692C179.194 224.12 179.004 223.359 178.623 222.787C175.385 219.931 173.672 216.122 173.291 211.933C172.91 202.411 181.289 194.032 192.143 193.461C192.524 193.461 193.095 193.461 193.476 193.461C203.759 193.461 212.329 200.698 212.9 209.838C213.09 213.837 211.757 217.836 208.901 221.073C208.52 221.645 208.33 222.406 208.711 222.978C208.901 223.549 209.472 224.12 210.234 224.12H210.424L236.132 222.597C236.323 222.597 236.513 222.597 236.704 222.597C242.226 222.597 246.796 226.786 247.177 232.309L248.51 257.636C248.51 258.779 249.462 259.35 250.224 259.35C250.605 259.35 251.176 259.35 251.557 258.779C254.414 255.922 258.032 254.399 261.84 254.208C262.221 254.018 262.602 254.018 262.793 254.018C272.124 254.018 279.931 262.397 280.503 272.87C280.693 278.202 279.17 283.154 276.123 287.153C273.076 291.152 268.886 293.437 264.126 293.627C263.935 293.627 263.554 293.627 263.173 293.627C259.746 293.627 256.318 292.485 253.271 290.009C252.89 289.819 252.509 289.819 252.129 289.819C251.748 289.819 251.176 290.009 250.986 290.39C250.605 290.58 250.415 290.961 250.415 291.532L251.938 316.86C251.938 319.716 250.986 322.382 249.272 324.477C247.368 326.381 244.892 327.714 242.036 327.905L157.485 332.665C157.295 332.665 157.104 332.665 156.914 332.665Z" fill="#9EBFFF"/>
<path d="M193.476 194.032C203.379 194.032 211.758 200.888 212.329 209.838C212.519 213.837 210.996 217.646 208.52 220.693C207.187 222.406 208.33 224.692 210.234 224.692C210.425 224.692 210.425 224.692 210.425 224.692L236.323 223.168C236.323 223.168 236.513 223.168 236.704 223.168C241.846 223.168 246.225 227.167 246.606 232.309L247.939 257.636C247.939 258.969 249.082 259.921 250.224 259.921C250.796 259.921 251.557 259.731 251.938 259.35C254.604 256.684 258.032 254.97 262.031 254.78C262.221 254.78 262.602 254.78 262.793 254.78C271.743 254.78 279.36 262.587 279.931 272.87C280.503 283.534 273.457 292.485 264.126 293.056C263.745 293.056 263.554 293.056 263.174 293.056C259.746 293.056 256.318 291.723 253.652 289.628C253.271 289.247 252.7 289.057 252.129 289.057C250.986 289.057 249.844 290.199 249.844 291.723L251.177 316.86C251.557 322.382 247.368 326.952 242.036 327.143L157.485 331.903C157.295 331.903 157.104 331.903 156.914 331.903C151.772 331.903 147.583 327.904 147.202 322.763L142.441 238.212C142.251 232.88 146.25 228.31 151.582 227.929L177.48 226.405C179.575 226.405 180.527 223.93 179.004 222.406C175.957 219.74 174.243 216.122 174.053 211.933C173.481 202.602 181.67 194.604 192.143 194.032C192.524 194.032 193.096 194.032 193.476 194.032ZM193.476 192.89C192.905 192.89 192.524 192.89 192.143 192.89C186.621 193.271 181.67 195.365 178.052 198.984C174.433 202.602 172.529 207.172 172.72 212.123C173.1 216.313 175.005 220.312 178.052 223.359C178.623 223.739 178.432 224.311 178.432 224.501C178.432 224.692 178.052 225.263 177.29 225.263L151.582 226.786C145.488 227.167 140.918 232.309 141.299 238.212L146.059 322.763C146.44 328.666 151.201 333.236 156.914 333.236C157.104 333.236 157.295 333.236 157.485 333.236L242.036 328.476C245.083 328.285 247.749 326.952 249.653 324.858C251.557 322.572 252.7 319.716 252.51 316.86L250.986 291.532C250.986 291.152 251.177 290.961 251.367 290.771C251.557 290.39 251.938 290.39 252.129 290.39C252.51 290.39 252.7 290.39 252.89 290.58C255.937 293.056 259.555 294.198 263.174 294.198C263.554 294.198 263.935 294.198 264.126 294.198C269.077 294.008 273.457 291.532 276.694 287.533C279.741 283.534 281.264 278.202 281.074 272.87C280.503 262.016 272.505 253.446 262.793 253.446C262.412 253.446 262.221 253.446 261.841 253.446C257.842 253.827 254.033 255.351 251.177 258.398C250.796 258.779 250.605 258.779 250.224 258.779C249.844 258.779 249.082 258.398 249.082 257.636L247.749 232.309C247.368 226.596 242.607 222.026 236.704 222.026C236.513 222.026 236.323 222.026 236.133 222.026L210.425 223.359C210.425 223.359 210.425 223.359 210.234 223.359C209.663 223.359 209.282 222.978 209.282 222.787C209.092 222.597 208.901 222.026 209.472 221.454C212.329 218.217 213.662 214.028 213.471 209.838C212.9 200.317 204.14 192.89 193.476 192.89Z" fill="white"/>
<path d="M160.151 282.011C158.818 282.392 157.675 281.63 157.294 280.487C157.104 279.154 157.675 278.012 159.008 277.631C160.151 277.25 161.484 278.012 161.674 279.345C162.055 280.487 161.293 281.82 160.151 282.011Z" fill="white" fill-opacity="0.34902"/>
<path d="M180.908 276.869C179.765 277.25 178.432 276.488 178.242 275.155C177.861 274.013 178.623 272.68 179.956 272.489C181.098 272.109 182.241 272.87 182.622 274.013C183.003 275.346 182.241 276.488 180.908 276.869Z" fill="white" fill-opacity="0.34902"/>
<path d="M201.855 271.728C200.713 271.918 199.38 271.156 199.189 270.014C198.808 268.681 199.57 267.538 200.713 267.157C202.046 266.967 203.188 267.729 203.569 268.871C203.759 270.014 202.998 271.347 201.855 271.728Z" fill="white" fill-opacity="0.34902"/>
<path d="M222.803 266.396C221.47 266.777 220.327 266.015 219.946 264.682C219.756 263.539 220.327 262.397 221.66 262.016C222.803 261.635 224.136 262.397 224.326 263.73C224.707 264.872 223.945 266.205 222.803 266.396Z" fill="white" fill-opacity="0.34902"/>
<path d="M164.34 299.15C163.198 299.53 161.865 298.769 161.674 297.626C161.294 296.293 162.055 295.151 163.198 294.77C164.531 294.389 165.673 295.151 166.054 296.484C166.245 297.626 165.673 298.959 164.34 299.15Z" fill="white" fill-opacity="0.34902"/>
<path d="M185.288 294.008C183.955 294.389 182.812 293.627 182.431 292.294C182.241 291.152 183.003 289.819 184.145 289.628C185.288 289.247 186.621 290.009 187.002 291.152C187.192 292.485 186.43 293.627 185.288 294.008Z" fill="white" fill-opacity="0.34902"/>
<path d="M206.044 288.866C204.902 289.057 203.759 288.295 203.378 287.152C202.997 285.819 203.759 284.677 205.092 284.296C206.235 284.106 207.568 284.867 207.758 286.01C208.139 287.343 207.377 288.485 206.044 288.866Z" fill="white" fill-opacity="0.34902"/>
<path d="M226.992 283.534C225.849 283.915 224.516 283.153 224.326 282.011C223.945 280.678 224.706 279.535 225.849 279.154C227.182 278.774 228.325 279.535 228.705 280.868C228.896 282.011 228.325 283.344 226.992 283.534Z" fill="white" fill-opacity="0.34902"/>
<path d="M147.773 321.62C147.583 321.62 147.392 321.62 147.202 321.62L146.821 317.05C147.963 316.859 149.106 317.621 149.487 318.764C149.677 320.097 148.916 321.239 147.773 321.62Z" fill="white" fill-opacity="0.34902"/>
<path d="M168.72 316.288C167.387 316.669 166.245 315.907 165.864 314.765C165.483 313.432 166.245 312.289 167.578 311.908C168.72 311.718 170.053 312.289 170.244 313.622C170.625 314.765 169.863 316.098 168.72 316.288Z" fill="white" fill-opacity="0.34902"/>
<path d="M189.477 311.147C188.335 311.528 187.002 310.766 186.811 309.433C186.43 308.29 187.192 306.957 188.335 306.767C189.668 306.386 190.81 307.148 191.191 308.29C191.572 309.623 190.81 310.766 189.477 311.147Z" fill="white" fill-opacity="0.34902"/>
<path d="M210.424 306.005C209.282 306.196 207.949 305.434 207.568 304.291C207.377 303.149 208.139 301.816 209.282 301.435C210.615 301.244 211.757 302.006 212.138 303.149C212.328 304.482 211.567 305.624 210.424 306.005Z" fill="white" fill-opacity="0.34902"/>
<path d="M231.372 300.673C230.039 301.054 228.896 300.292 228.515 299.15C228.134 297.817 228.896 296.674 230.229 296.293C231.372 295.912 232.705 296.674 232.895 298.007C233.276 299.15 232.514 300.483 231.372 300.673Z" fill="white" fill-opacity="0.34902"/>
<path d="M170.053 331.332C170.053 330.189 170.815 329.428 171.767 329.047C173.1 328.857 174.243 329.428 174.624 330.761V330.951L170.053 331.332Z" fill="white" fill-opacity="0.34902"/>
<path d="M193.857 328.285C192.524 328.666 191.381 327.904 191.001 326.571C190.81 325.429 191.572 324.096 192.714 323.905C193.857 323.525 195.19 324.286 195.38 325.619C195.761 326.762 195 327.904 193.857 328.285Z" fill="white" fill-opacity="0.34902"/>
<path d="M214.614 323.144C213.471 323.334 212.138 322.572 211.948 321.43C211.567 320.287 212.329 318.954 213.662 318.573C214.804 318.383 216.137 319.145 216.328 320.287C216.708 321.62 215.947 322.763 214.614 323.144Z" fill="white" fill-opacity="0.34902"/>
<path d="M235.561 317.812C234.418 318.192 233.085 317.431 232.895 316.288C232.514 314.955 233.276 313.813 234.418 313.432C235.751 313.051 236.894 313.813 237.275 315.146C237.465 316.288 236.894 317.621 235.561 317.812Z" fill="white" fill-opacity="0.34902"/>
<path d="M42.6565 211.552C42.6565 211.552 41.7043 246.21 39.6096 258.208C37.3245 271.538 17.5198 298.388 17.5198 298.388L22.0901 302.958L28.7551 306.196C28.7551 306.196 46.2746 289.628 55.9866 268.681C64.5559 250.781 64.7463 213.457 64.7463 213.457L42.6565 211.552Z" fill="#F677BA"/>
<path d="M37.7052 317.241C37.8956 316.479 37.8956 315.336 37.7052 314.956L30.6593 304.482C23.8039 303.339 17.9005 297.246 17.9005 297.246L11.9972 303.72C11.8068 303.911 11.9972 304.292 12.1876 304.482L35.9913 319.526C36.3722 319.716 37.7052 317.241 37.7052 317.241Z" fill="#00266E"/>
<path d="M32.3734 306.386C31.4213 306.767 30.4691 307.148 29.517 307.719" stroke="#1A3887" stroke-width="3.1252" stroke-linejoin="round"/>
<path d="M33.1351 307.91C32.183 308.291 31.6117 308.481 30.85 309.052" stroke="#1A3887" stroke-width="3.1252" stroke-linejoin="round"/>
<path d="M33.8969 309.052C33.1351 309.243 32.3734 309.814 31.6117 310.195" stroke="#1A3887" stroke-width="3.1252" stroke-linejoin="round"/>
<path d="M12.7587 302.768L37.3241 318.002" stroke="#1A3887" stroke-width="3.1252" stroke-linejoin="round"/>
<path d="M15.8057 299.531C15.8057 299.531 21.5186 303.339 19.8047 306.958" stroke="#1A3887" stroke-width="3.1252" stroke-linejoin="round"/>
<path d="M36.1815 312.861C36.1815 312.861 33.1346 314.003 32.1825 314.956" stroke="#1A3887" stroke-width="3.1252" stroke-linejoin="round"/>
<path d="M67.9835 226.025C67.9835 226.025 69.3165 246.21 70.2687 261.635C71.2208 277.25 72.9347 312.67 72.9347 312.67L79.7902 314.194L87.2169 312.861C87.2169 312.861 89.1212 282.392 89.1212 262.206C89.1212 241.259 88.3595 211.552 88.3595 211.552L67.9835 226.025Z" fill="#F677BA"/>
<path d="M100.357 318.383C100.167 317.622 99.5955 316.669 99.2146 316.479L87.5984 311.528C81.1238 314.003 72.9353 312.099 72.9353 312.099L71.4119 320.859C71.4119 321.049 71.7927 321.24 71.9832 321.24H100.167C100.738 321.24 100.357 318.383 100.357 318.383Z" fill="#00266E"/>
<path d="M90.0735 311.909C89.5022 312.861 88.9309 313.813 88.55 314.765" stroke="#1A3887" stroke-width="3.1252" stroke-linejoin="round"/>
<path d="M91.5971 312.861C90.8353 313.813 90.6449 314.384 90.264 315.146" stroke="#1A3887" stroke-width="3.1252" stroke-linejoin="round"/>
<path d="M92.7396 313.432C92.3588 314.194 91.7875 314.955 91.597 315.717" stroke="#1A3887" stroke-width="3.1252" stroke-linejoin="round"/>
<path d="M71.6018 319.526L100.547 319.335" stroke="#1A3887" stroke-width="3.1252" stroke-linejoin="round"/>
<path d="M72.3634 315.146C72.3634 315.146 79.2189 315.336 79.7902 319.335" stroke="#1A3887" stroke-width="3.1252" stroke-linejoin="round"/>
<path d="M96.7385 315.527C96.7385 315.527 94.8342 318.193 94.4534 319.335" stroke="#1A3887" stroke-width="3.1252" stroke-linejoin="round"/>
<path d="M67.6029 111.386C63.9848 110.434 60.3666 112.91 58.8432 115.576C58.2719 116.337 57.891 117.099 57.3197 117.861C53.7016 122.622 39.2289 121.289 42.0853 130.62C42.2758 131.762 43.0375 132.714 43.0375 133.857C43.2279 135.38 42.4662 136.713 42.0853 138.046C40.7523 142.426 43.9896 147.568 48.3695 148.52C50.4643 149.091 52.7494 148.71 54.4633 149.853C56.1771 150.805 56.7484 152.9 57.891 154.423C61.1283 158.613 67.4125 159.375 72.3637 157.661C74.268 156.899 76.1723 155.756 76.934 154.042C77.3148 152.9 77.5053 151.757 78.0765 150.805C79.2191 148.901 81.6947 148.52 83.599 147.568C86.265 146.044 87.9789 142.236 86.6459 139.379C85.5033 136.333 82.8373 133.476 82.0756 130.239C81.6947 128.525 82.266 126.621 81.8851 124.716C81.6947 123.383 80.933 122.241 79.7904 121.479C79.0287 120.717 78.267 120.336 77.5053 119.765C75.9818 118.623 75.7914 116.337 74.268 115.004C72.5541 113.671 70.4594 113.291 68.7455 112.148L67.6029 111.386Z" fill="#FFE1AC"/>
<path d="M74.2678 133.667C83.4084 131.001 96.9289 131.572 107.783 120.908C118.447 110.244 123.208 102.055 123.208 102.055L131.397 108.72C131.397 108.72 120.542 129.668 110.83 136.713C98.0715 145.854 89.3118 147.378 81.885 148.711L74.2678 133.667Z" fill="#F677BA"/>
<path d="M120.923 105.483C123.208 102.055 128.731 92.1529 129.493 92.1529C130.254 92.3433 128.35 95.771 129.112 95.771C129.683 95.771 132.73 90.6294 133.492 90.8199C134.634 91.2007 131.206 96.5327 131.206 96.5327C131.206 96.5327 131.968 95.5806 132.73 96.1519C133.301 96.5327 132.73 98.0562 132.73 98.0562C132.73 98.0562 133.682 97.104 134.253 97.4849C134.825 98.0562 134.063 99.9605 134.063 99.9605C134.063 99.9605 134.825 99.3892 135.396 99.9605C135.967 100.341 133.111 106.435 128.16 114.624L120.923 105.483Z" fill="#F677BA"/>
<path d="M128.349 97.104C128.349 97.104 128.159 99.0083 128.349 100.151C128.54 102.246 127.969 103.198 127.969 103.198" stroke="#CC3189" stroke-width="3.1252" stroke-linejoin="round"/>
<path d="M130.826 96.9136C130.635 97.4849 130.445 98.0561 130.254 98.6274C130.064 99.0083 130.064 99.1987 130.064 99.5796C129.873 99.77 129.873 100.151 129.873 100.341C130.064 100.532 130.064 100.532 130.064 100.532C130.254 100.532 130.254 100.532 130.445 100.341C130.635 100.341 130.826 100.151 131.016 99.77C131.587 99.3892 131.968 99.0083 132.349 98.437C132.349 98.2466 132.539 98.2466 132.73 98.437V98.6274V98.8179C132.349 99.1987 132.159 99.77 131.968 100.341C131.778 100.722 131.778 100.913 131.587 101.293C131.587 101.484 131.587 101.865 131.587 102.055C131.587 102.055 131.778 102.055 131.968 102.055C132.159 101.865 132.349 101.674 132.539 101.484C132.92 101.103 133.301 100.532 133.492 99.9604C133.682 99.9604 133.872 99.9604 133.872 99.9604C134.063 99.9604 134.063 100.151 134.063 100.341C133.872 100.722 133.492 101.293 133.301 101.865C133.111 102.246 132.92 102.817 132.92 103.388C132.92 103.388 132.92 103.579 132.92 103.769C132.92 103.769 132.92 103.769 133.111 103.769C133.301 103.769 133.492 103.579 133.682 103.388C134.063 103.007 134.444 102.436 134.825 102.055C134.634 102.626 134.253 103.007 133.872 103.388C133.682 103.769 133.492 103.959 133.111 103.959C133.111 103.959 132.92 104.15 132.92 103.959C132.73 103.959 132.73 103.959 132.539 103.769C132.539 103.579 132.539 103.579 132.539 103.388C132.539 102.817 132.73 102.246 132.92 101.674C133.111 101.103 133.301 100.532 133.492 99.9604L134.063 100.341C133.682 100.913 133.301 101.293 132.92 101.865C132.73 102.055 132.539 102.246 132.159 102.436C131.968 102.626 131.778 102.626 131.587 102.626C131.397 102.626 131.206 102.626 131.206 102.436C131.016 102.436 131.016 102.246 131.016 102.055C130.826 101.674 131.016 101.293 131.016 101.103C131.206 100.722 131.206 100.532 131.397 100.151C131.587 99.5796 131.968 99.0083 132.349 98.437L132.73 98.8179C132.349 99.1987 131.968 99.77 131.397 100.151C131.206 100.341 131.016 100.532 130.635 100.722C130.445 100.913 130.254 100.913 130.064 100.913C129.873 100.913 129.873 100.913 129.683 100.722V100.532C129.493 99.77 129.873 99.1987 130.064 98.6274C130.254 98.0561 130.445 97.4849 130.826 96.9136Z" fill="#CC3189"/>
<path d="M65.3176 112.148C64.9368 111.767 64.3655 111.958 63.9846 111.577C63.4133 111.005 63.4133 110.053 63.6038 109.292C63.9846 108.149 65.5081 107.768 66.6506 107.959C69.3167 108.339 68.9358 110.815 67.4124 111.958L65.3176 112.148Z" fill="#FFE1AC"/>
<path d="M50.4641 178.036C50.4641 178.036 40.7522 188.51 38.8479 202.602C36.9436 216.694 36.9436 239.736 36.9436 239.736C36.9436 239.736 64.9368 244.877 90.4543 239.164C89.5022 227.548 90.4543 194.604 81.5041 178.036H50.4641Z" fill="#2A2A67"/>
<path d="M42.0852 240.497C42.0852 240.497 41.133 205.078 45.3225 193.08C48.5598 183.559 55.6057 174.418 55.6057 174.418" stroke="#5464AA" stroke-width="3.1252"/>
<path d="M90.8354 131L94.2632 146.806C94.2632 146.806 87.7885 149.472 80.9331 149.853C77.3149 149.853 71.7925 135.761 73.8872 132.905C79.9809 131.191 90.8354 131 90.8354 131Z" fill="#2D7EF9"/>
<path d="M49.7029 148.71C49.7029 148.71 49.322 167.372 50.4646 178.036C66.0799 181.464 81.5047 178.036 81.5047 178.036L82.6472 161.279C90.4548 153.09 83.5994 142.807 83.5994 142.807L73.8875 132.905L64.1756 132.333L49.7029 148.71Z" fill="#2D7EF9"/>
<path d="M64.175 132.333C64.175 132.333 55.6057 131 47.4172 137.856C45.5129 139.379 43.0374 142.616 41.1331 146.615L54.6536 155.375L62.4612 146.615L64.175 132.333Z" fill="#2D7EF9"/>
<path d="M86.0748 149.091C85.5035 146.615 83.5992 142.807 83.5992 140.331" stroke="#1A3887" stroke-width="3.1252" stroke-linejoin="round"/>
<path d="M88.3599 131L92.1685 147.568" stroke="#1A3887" stroke-width="3.1252" stroke-linejoin="round"/>
<path d="M42.2759 144.33L51.9878 150.424" stroke="#1A3887" stroke-width="3.1252" stroke-linejoin="round"/>
<path d="M74.6485 115.195C74.6485 115.195 78.2667 124.335 75.6007 127.192C74.0772 128.715 69.3165 127.953 67.6026 126.43C66.2696 125.478 64.3653 119.384 65.127 118.242C67.9835 113.671 74.6485 115.195 74.6485 115.195Z" fill="#F677BA"/>
<path d="M64.5558 123.383L64.1749 132.334C64.9366 134.619 72.7443 136.904 73.8868 132.905L73.1251 126.049L64.5558 123.383Z" fill="#F677BA"/>
<path d="M60.5568 122.241C60.1759 121.479 60.1759 120.527 60.1759 119.575C60.1759 118.432 60.3663 117.29 60.7472 116.147C61.3185 114.243 62.8419 112.719 64.5558 111.767C66.2697 111.005 69.6974 110.244 72.5538 111.767C73.8868 111.767 75.4103 112.148 76.5528 113.1C77.505 114.052 78.0763 115.576 77.6954 116.909C75.0294 116.718 72.3634 116.337 69.6974 115.957C69.3165 117.48 68.3644 118.623 67.0314 119.575C65.8888 120.336 64.3654 121.479 64.9366 123.193C65.1271 123.764 64.3654 123.955 64.3654 125.288C63.0323 125.288 60.9376 123.193 60.5568 122.431C60.5568 122.241 60.5568 122.241 60.5568 122.241Z" fill="#FFE1AC"/>
<path d="M65.8887 121.86C64.9366 120.527 64.1748 120.717 63.794 121.289C63.0323 122.05 63.9844 124.145 64.5557 124.336C65.5078 125.097 66.46 125.097 66.46 124.336L65.8887 121.86Z" fill="#F677BA"/>
<path d="M73.3154 128.334C69.8877 128.334 67.6025 126.43 67.6025 126.43" stroke="#CC3189" stroke-width="3.1252" stroke-linejoin="round"/>
<path d="M72.7441 119.765C72.7441 119.765 75.0293 121.86 74.8389 122.431C74.8389 123.002 73.5059 123.383 73.5059 123.383" stroke="#CC3189" stroke-width="2.08347" stroke-linejoin="round"/>
<path d="M75.0289 123.764L71.2203 124.907C71.2203 124.907 72.3629 126.811 74.4576 126.049C75.7907 125.668 75.0289 123.764 75.0289 123.764Z" fill="white"/>
<path d="M74.2679 119.194C74.2679 119.384 74.4584 119.384 74.4584 119.575C74.6488 119.956 75.2201 119.765 75.0297 119.384C75.0297 119.194 74.8392 119.003 74.8392 119.003C74.6488 118.623 74.2679 118.813 74.2679 119.194Z" fill="#00266E"/>
<path d="M73.5057 118.242C73.5057 118.242 73.8866 117.29 74.8387 117.861" stroke="#00266E" stroke-width="2.08347" stroke-linecap="round" stroke-linejoin="round"/>
<path d="M70.0779 120.717C70.0779 120.908 70.0779 121.098 70.0779 121.288C70.2683 121.669 70.8396 121.479 70.8396 121.098C70.6492 120.908 70.6492 120.717 70.4588 120.527C70.2683 120.336 69.8875 120.527 70.0779 120.717Z" fill="#00266E"/>
<path d="M70.4592 119.003C70.4592 119.003 69.5071 118.813 68.5549 120.146" stroke="#00266E" stroke-width="2.08347" stroke-linecap="round" stroke-linejoin="round"/>
<path d="M41.1337 146.616C36.9443 154.994 34.4687 167.372 43.2285 170.991C52.3691 174.99 76.5536 145.473 76.5536 145.473L69.1269 138.998L49.1318 151.757L41.1337 146.616Z" fill="#F677BA"/>
<path d="M49.1317 151.757L43.2284 156.518" stroke="#CC3189" stroke-width="3.1252" stroke-linejoin="round"/>
<path d="M76.553 141.474C75.4104 141.284 74.6487 140.141 74.8391 138.808L76.3625 130.239L80.7424 131.191L79.219 139.76C79.0286 140.903 77.886 141.665 76.553 141.474Z" fill="#2A2A67"/>
<path d="M81.5042 133.095L77.886 132.143C75.4105 131.572 73.887 129.096 74.4583 126.621C75.22 124.145 77.6956 122.622 80.1712 123.193L83.5989 123.955C83.7894 124.145 83.9798 124.335 83.9798 124.526L81.8851 132.714C81.8851 132.905 81.6946 133.095 81.5042 133.095Z" fill="#4275CF"/>
<path d="M84.1701 128.906C83.4084 131.381 82.2658 133.286 81.5041 133.095C80.5519 132.714 80.3615 130.62 80.9328 128.144C81.6945 125.668 82.8371 123.764 83.5988 123.955C84.551 124.145 84.7414 126.43 84.1701 128.906Z" fill="#9CCFFF"/>
<path d="M92.3589 140.712C92.3589 140.712 85.8843 135.19 82.0757 133.095C80.9331 131.953 81.314 129.667 81.6948 128.525C82.4565 125.288 83.5991 124.907 83.5991 124.907C88.7407 125.288 96.9292 122.812 96.9292 122.812L92.3589 140.712Z" fill="#2A2A67"/>
<path d="M92.7398 131C91.4068 136.523 91.5972 141.474 93.1207 141.855C94.6441 142.236 97.1197 138.046 98.6431 132.524C99.9761 126.811 99.7857 121.86 98.2623 121.479C96.5484 121.098 94.2632 125.287 92.7398 131Z" fill="#9CCFFF"/>
<path d="M93.692 131.191C92.5494 135.952 92.5494 140.141 93.692 140.331C95.025 140.712 96.9293 137.094 98.0719 132.333C99.2145 127.573 99.2145 123.574 98.0719 123.193C96.9293 122.812 94.8346 126.43 93.692 131.191Z" fill="#4275CF"/>
<path d="M95.7865 133.857C94.6439 133.666 93.6918 133.666 93.1205 133.857C93.3109 133.095 93.5013 132.143 93.6918 131.191C93.8822 130.239 94.2631 129.477 94.4535 128.715C95.0248 129.096 95.7865 129.477 96.9291 129.858L95.7865 133.857Z" fill="#2A2A67"/>
<path d="M95.7865 131.762C95.5961 132.905 95.5961 133.857 95.7865 134.047C96.1674 134.047 96.5482 133.095 96.9291 131.952C97.1195 130.81 97.1195 129.858 96.9291 129.858C96.5482 129.667 96.1674 130.619 95.7865 131.762Z" fill="#FFE1AC"/>
<path d="M65.5085 141.284C70.4597 138.046 73.8875 136.142 74.6492 135.952C76.5535 134.999 78.6482 135.38 80.3621 135.952C80.7429 136.142 81.3142 136.523 81.6951 136.904C82.0759 137.475 82.2664 138.237 82.2664 138.998C82.2664 138.998 82.2664 139.189 82.0759 139.379C81.8855 139.379 81.6951 138.998 81.5046 138.808C81.1238 138.237 80.3621 137.856 79.6003 137.856C79.9812 137.856 80.1716 138.237 80.3621 138.618C80.5525 138.998 80.3621 139.379 79.9812 139.57C80.3621 139.57 80.5525 139.951 80.7429 140.331C80.7429 140.522 80.5525 140.903 80.1716 141.093C80.3621 141.284 80.5525 141.474 80.5525 141.664C80.5525 142.045 80.3621 142.236 80.1716 142.426C79.4099 143.378 78.6482 144.14 77.696 144.711C75.03 147.187 69.5076 153.281 69.5076 153.281L65.5085 141.284Z" fill="#F677BA"/>
<path d="M95.7862 317.05L73.3155 315.527L65.8888 316.288L66.0792 344.091C66.0792 344.853 66.6505 345.424 67.4122 345.424C67.9835 345.424 68.3644 345.043 68.5548 344.662L74.2677 332.094L97.6905 334.951L95.7862 317.05Z" fill="#F677BA"/>
<path d="M66.4602 346.757C67.4124 346.376 68.3645 345.805 68.5549 345.234L74.2678 332.094C71.4114 324.858 73.6965 315.336 73.6965 315.336L63.6038 314.575C63.4133 314.575 63.0325 314.955 63.0325 315.336L63.2229 346.376C63.2229 347.138 66.4602 346.757 66.4602 346.757Z" fill="#2D7EF9"/>
<path d="M73.6968 334.951C72.7446 334.189 71.7925 333.618 70.6499 333.046" stroke="#1A3887" stroke-width="3.1252" stroke-linejoin="round"/>
<path d="M72.744 336.665C71.7919 335.903 71.0302 335.522 70.078 335.141" stroke="#1A3887" stroke-width="3.1252" stroke-linejoin="round"/>
<path d="M71.9828 337.998C71.4115 337.426 70.4594 337.045 69.5072 336.665" stroke="#1A3887" stroke-width="3.1252" stroke-linejoin="round"/>
<path d="M65.318 314.765V346.757" stroke="#1A3887" stroke-width="3.1252" stroke-linejoin="round"/>
<path d="M70.0787 315.146C70.0787 315.146 69.8883 322.573 65.318 323.144" stroke="#1A3887" stroke-width="3.1252" stroke-linejoin="round"/>
<path d="M69.8883 342.568C69.8883 342.568 66.8414 340.473 65.318 340.092" stroke="#1A3887" stroke-width="3.1252" stroke-linejoin="round"/>
<path d="M135.015 270.966C135.396 271.728 139.585 301.435 142.632 322.001C144.536 334.951 144.727 343.139 125.874 341.616C99.9758 339.521 81.885 338.378 81.885 338.378L81.1233 314.956L116.924 316.669L112.163 293.627C112.163 293.627 103.594 282.202 109.878 269.062L135.015 270.966Z" fill="#806EC1"/>
<path d="M85.1223 315.146L86.0745 338.378" stroke="#4B3F89" stroke-width="3.1252"/>
<path d="M128.731 286.391L135.015 322.763" stroke="#4B3F89" stroke-width="3.1252"/>
<path d="M135.015 322.763C135.205 323.715 134.443 324.667 133.491 324.667" stroke="#4B3F89" stroke-width="3.1252"/>
<path d="M133.491 324.667L81.3136 321.43" stroke="#4B3F89" stroke-width="3.1252"/>
<path d="M162.055 314.194L157.295 336.665L157.104 343.901L185.859 343.71C186.621 343.71 187.192 343.139 187.192 342.568C187.192 341.997 186.811 341.425 186.43 341.235L173.862 335.522L179.765 312.099L162.055 314.194Z" fill="#F677BA"/>
<path d="M188.525 343.52C188.145 342.568 187.573 341.425 187.002 341.235L173.862 335.522C166.626 338.569 157.104 336.284 157.104 336.284L155.391 346.186C155.391 346.567 155.771 346.757 156.152 346.757H188.335C188.906 346.757 188.525 343.52 188.525 343.52Z" fill="#2D7EF9"/>
<path d="M176.719 336.093C175.957 337.045 175.386 338.188 174.814 339.331" stroke="#1A3887" stroke-width="3.1252" stroke-linejoin="round"/>
<path d="M178.433 337.236C177.671 338.188 177.29 338.759 176.909 339.902" stroke="#1A3887" stroke-width="3.1252" stroke-linejoin="round"/>
<path d="M179.766 337.807C179.195 338.569 178.814 339.521 178.433 340.283" stroke="#1A3887" stroke-width="3.1252" stroke-linejoin="round"/>
<path d="M155.581 344.663L188.526 344.472" stroke="#1A3887" stroke-width="3.1252" stroke-linejoin="round"/>
<path d="M156.533 339.902C156.533 339.902 164.341 339.902 164.912 344.663" stroke="#1A3887" stroke-width="3.1252" stroke-linejoin="round"/>
<path d="M184.336 340.092C184.336 340.092 182.241 343.139 181.86 344.472" stroke="#1A3887" stroke-width="3.1252" stroke-linejoin="round"/>
<path d="M147.012 264.301L148.726 270.776C148.916 271.728 149.868 272.299 150.82 272.299H173.101C178.623 272.299 184.336 272.49 187.573 277.25C190.049 281.059 189.097 287.534 187.002 294.96C185.288 301.435 178.814 330.571 178.814 330.571H155.772L162.246 295.722H135.586C135.586 295.722 118.447 295.913 120.923 278.583L147.012 264.301Z" fill="#806EC1"/>
<path d="M156.343 326.953H179.385" stroke="#4B3F89" stroke-width="3.1252"/>
<path d="M138.823 295.722H135.586" stroke="#4B3F89" stroke-width="3.1252"/>
<path d="M135.586 295.722C135.586 295.722 119.209 295.722 119.019 278.583" stroke="#4B3F89" stroke-width="3.1252"/>
<path d="M136.919 269.824C136.919 269.824 137.3 289.057 153.677 289.057" stroke="#4B3F89" stroke-width="3.1252"/>
<path d="M153.677 289.057H165.864" stroke="#4B3F89" stroke-width="3.1252"/>
<path d="M165.864 289.057C167.388 289.057 168.53 290.39 168.149 291.913" stroke="#4B3F89" stroke-width="3.1252"/>
<path d="M168.15 291.914L160.152 330.38" stroke="#4B3F89" stroke-width="3.1252"/>
<path d="M138.633 277.822C138.633 278.203 145.298 276.298 145.298 269.824" stroke="#4B3F89" stroke-width="3.1252"/>
<path d="M124.541 280.488C124.541 280.488 127.969 280.488 131.206 279.536" stroke="#4B3F89" stroke-width="3.1252"/>
<path d="M107.593 280.488C107.593 280.488 110.83 280.678 113.306 280.488" stroke="#4B3F89" stroke-width="3.1252"/>
<path d="M127.208 199.936C127.208 199.936 135.206 175.18 150.059 155.375L139.966 149.091C123.97 166.611 113.306 195.746 113.306 195.746L127.208 199.936Z" fill="#F677BA"/>
<path d="M107.213 241.831C107.213 241.831 103.785 211.362 116.353 185.844L131.207 190.605L127.208 210.219L107.213 241.831Z" fill="#FFE1AC"/>
<path d="M115.211 188.701L129.874 193.842" stroke="#D19A4B" stroke-width="3.1252"/>
<path d="M147.964 158.232C150.44 154.614 159.009 145.092 158.629 144.331C158.248 143.569 155.01 146.806 154.82 146.044C154.629 145.283 159.009 139.951 158.438 139.379C157.676 138.427 153.296 144.14 153.296 144.14C153.296 144.14 157.676 137.665 156.724 137.094C155.963 136.523 152.535 141.474 150.821 143.188C152.344 141.093 154.439 137.475 153.677 137.094C152.916 136.713 150.44 139.951 148.536 142.236C149.678 140.712 151.392 137.665 150.821 137.285C150.25 136.904 141.871 145.664 135.396 154.423L147.964 158.232Z" fill="#F677BA"/>
<path d="M137.11 234.213C137.11 234.213 152.345 239.926 163.39 240.688C178.053 241.64 195.001 236.308 195.001 236.308C195.001 236.308 197.286 224.311 191.383 224.882C184.146 226.025 171.768 226.977 162.437 225.834C156.534 225.263 144.156 218.598 144.156 218.598L137.11 234.213Z" fill="#F677BA"/>
<path d="M188.145 225.454C192.334 224.882 204.712 221.074 205.284 221.835C205.665 222.597 201.475 223.93 202.046 224.501C202.427 224.882 209.283 223.359 209.664 224.121C210.044 225.263 202.999 226.596 202.999 226.596C202.999 226.596 210.806 225.644 210.997 226.787C210.997 227.548 205.093 228.691 202.999 229.262C205.474 228.881 209.473 228.691 209.473 229.453C209.664 230.214 205.665 231.166 202.618 231.928C204.522 231.547 208.14 231.166 208.14 231.928C208.331 232.69 198.619 235.356 189.668 237.641L188.145 225.454Z" fill="#F677BA"/>
<path d="M121.495 205.458L119.4 215.932C119.4 215.932 125.113 221.835 131.207 216.313V209.457L121.495 205.458Z" fill="#F677BA"/>
<path d="M132.54 195.746C132.54 195.746 137.491 205.649 134.444 208.886C132.73 210.6 130.445 211.362 128.35 209.838C126.637 208.505 120.733 201.459 121.495 200.126C124.732 194.794 132.54 195.746 132.54 195.746Z" fill="#F677BA"/>
<path d="M134.444 201.269C134.444 201.269 136.349 203.173 136.349 204.316C136.349 204.887 134.444 205.078 134.444 205.078V201.269Z" fill="#F677BA"/>
<path d="M134.444 206.03L131.207 205.458C131.017 206.791 133.302 209.838 134.444 206.03Z" fill="white"/>
<path d="M131.969 201.078C131.969 201.459 131.969 201.84 132.349 202.031C132.349 202.221 132.54 202.031 132.54 201.84C132.54 201.65 132.54 201.459 132.54 201.078C132.349 200.888 131.969 200.888 131.969 201.078Z" fill="#00266E"/>
<path d="M130.445 200.507C130.826 200.126 131.397 199.746 131.969 199.746C132.159 199.555 132.54 199.746 132.73 199.746" stroke="#00266E" stroke-width="2.08347" stroke-linecap="round" stroke-linejoin="round"/>
<path d="M120.352 196.508C120.923 192.89 124.542 192.128 131.207 193.271C132.159 193.271 133.682 192.89 134.063 193.652C134.634 194.794 134.444 196.889 133.301 197.841C132.349 198.603 131.016 198.222 129.874 198.603C127.969 199.174 128.921 200.888 127.969 202.221C126.446 204.316 127.398 207.363 124.732 209.077C123.209 210.029 121.304 209.648 119.59 209.457C119.4 209.267 119.21 209.267 119.019 209.267C118.448 208.696 118.638 207.172 118.448 206.411C118.067 204.125 117.686 201.84 117.877 199.555C118.067 197.46 119.59 196.318 120.352 196.508Z" fill="#0A0A3A"/>
<path d="M127.97 202.792C127.589 200.698 126.066 201.269 125.494 202.031C124.733 202.983 125.875 205.268 126.447 205.649C127.589 206.601 128.732 206.601 128.922 205.649L127.97 202.792Z" fill="#F677BA"/>
<path d="M131.207 210.79C128.922 210.029 127.398 208.886 127.398 208.886" stroke="#CC3189" stroke-width="3.1252" stroke-linejoin="round"/>
<path d="M119.209 212.695C119.209 212.695 110.259 216.694 107.403 230.976C106.26 237.26 108.545 271.538 108.545 271.538C128.16 275.346 149.297 269.633 149.297 269.633C149.297 269.633 146.822 247.353 145.679 238.974C143.204 219.55 129.874 213.457 129.874 213.457L119.209 212.695Z" fill="#FFE1AC"/>
<path d="M129.873 213.456C129.873 213.456 137.491 214.599 142.251 216.884C147.012 219.169 158.057 224.501 158.057 224.501L152.344 239.926L132.539 233.642L129.873 213.456Z" fill="#FFE1AC"/>
<path d="M145.489 237.641L134.444 234.213" stroke="#D19A4B" stroke-width="3.1252"/>
<path d="M154.63 222.788L149.298 238.784" stroke="#D19A4B" stroke-width="3.1252"/>
<path d="M108.355 269.062C108.355 269.062 127.398 271.918 148.916 267.538" stroke="#D19A4B" stroke-width="3.1252"/>
<path d="M412.66 312.099L417.231 334.57L416.469 341.996L388.666 341.806C387.904 341.806 387.333 341.235 387.333 340.473C387.333 339.902 387.714 339.521 388.095 339.33L400.663 333.617L394.76 310.195L412.66 312.099Z" fill="#F677BA"/>
<path d="M386 341.425C386.381 340.473 386.952 339.521 387.524 339.33L400.663 333.617C407.9 336.474 417.421 334.189 417.421 334.189L418.183 344.281C418.183 344.472 417.802 344.853 417.612 344.853L386.381 344.662C385.619 344.662 386 341.425 386 341.425Z" fill="#182679"/>
<path d="M397.807 334.189C398.569 335.141 399.14 336.093 399.711 337.236" stroke="#5464AA" stroke-width="3.1252"/>
<path d="M396.093 335.141C396.855 336.283 397.236 336.855 397.617 337.807" stroke="#5464AA" stroke-width="3.1252"/>
<path d="M394.76 335.903C395.331 336.474 395.712 337.616 396.283 338.378" stroke="#5464AA" stroke-width="3.1252"/>
<path d="M417.993 342.758L386.001 342.568" stroke="#5464AA" stroke-width="3.1252"/>
<path d="M417.612 337.807C417.612 337.807 410.185 337.997 409.614 342.568" stroke="#5464AA" stroke-width="3.1252"/>
<path d="M390.19 338.188C390.19 338.188 392.285 341.044 392.666 342.568" stroke="#5464AA" stroke-width="3.1252"/>
<path d="M402.568 230.405C402.568 230.405 384.668 270.395 385.62 284.677C386.572 297.817 396.474 331.142 396.474 331.142L417.993 327.333C417.993 327.333 407.71 286.01 408.281 281.821C408.662 277.441 421.801 248.114 421.801 248.114C421.801 248.114 426.943 241.259 425.229 229.262L402.568 230.405Z" fill="#2D7EF9"/>
<path d="M414.375 327.905C414.375 327.905 404.282 286.201 404.853 282.011C405.424 277.822 417.802 248.876 417.802 248.876" stroke="#1A3887" stroke-width="3.1252" stroke-linejoin="round"/>
<path d="M417.04 323.334L395.522 327.714" stroke="#1A3887" stroke-width="3.1252" stroke-linejoin="round"/>
<path d="M443.51 301.625L453.603 322.573L456.078 329.428L430.561 341.235C429.989 341.425 429.228 341.235 429.037 340.663C428.656 340.092 428.847 339.521 429.228 339.14L437.987 328.666L426.562 307.338L443.51 301.625Z" fill="#F677BA"/>
<path d="M428.276 341.996C428.086 341.044 428.086 339.902 428.467 339.521L438.179 328.666C445.986 328.285 453.603 322.192 453.603 322.192L458.364 330.951C458.555 331.142 458.364 331.523 458.174 331.713L429.8 344.853C429.228 345.043 428.276 341.996 428.276 341.996Z" fill="#182679"/>
<path d="M435.703 330.38C436.846 330.951 437.798 331.713 438.75 332.475" stroke="#5464AA" stroke-width="3.1252"/>
<path d="M434.751 332.094C435.893 332.665 436.274 333.046 437.226 333.808" stroke="#5464AA" stroke-width="3.1252"/>
<path d="M433.608 333.237C434.37 333.618 435.322 334.379 436.084 334.951" stroke="#5464AA" stroke-width="3.1252"/>
<path d="M457.602 329.618L428.466 342.948" stroke="#5464AA" stroke-width="3.1252"/>
<path d="M455.317 325.429C455.317 325.429 448.652 328.666 449.985 333.046" stroke="#5464AA" stroke-width="3.1252"/>
<path d="M430.561 337.236C430.561 337.236 433.798 339.14 434.75 340.092" stroke="#5464AA" stroke-width="3.1252"/>
<path d="M416.659 231.738C416.659 231.738 409.804 269.443 413.041 283.344C416.659 298.769 432.274 324.858 432.274 324.858L451.508 315.336C451.508 315.336 434.94 283.534 434.94 276.679C434.94 272.299 438.749 245.829 438.749 245.829C438.749 245.829 442.558 238.212 438.749 226.786L416.659 231.738Z" fill="#2D7EF9"/>
<path d="M447.129 317.621C447.129 317.621 430.371 286.391 430.371 277.631C430.371 273.251 433.037 253.256 434.179 246.781C435.512 240.307 437.798 232.88 434.37 227.548" stroke="#1A3887" stroke-width="3.1252" stroke-linejoin="round"/>
<path d="M412.279 270.395C413.232 259.731 414.565 245.639 416.088 232.88" stroke="#1A3887" stroke-width="3.1252" stroke-linejoin="round"/>
<path d="M427.514 232.88C427.514 232.88 428.847 236.118 435.893 238.022" stroke="#1A3887" stroke-width="3.1252" stroke-linejoin="round"/>
<path d="M413.041 233.642C413.041 233.642 411.899 241.449 412.66 242.402C412.851 242.973 415.136 243.354 415.136 243.354" stroke="#1A3887" stroke-width="3.1252" stroke-linejoin="round"/>
<path d="M399.902 236.689C399.902 236.689 404.092 236.879 406.567 234.023" stroke="#1A3887" stroke-width="3.1252" stroke-linejoin="round"/>
<path d="M449.794 311.908L430.18 321.43" stroke="#1A3887" stroke-width="3.1252" stroke-linejoin="round"/>
<path d="M408.471 173.847C408.471 173.847 400.473 176.132 399.14 191.747C398.188 198.031 400.854 233.642 400.854 233.642C420.468 236.879 441.416 230.785 441.416 230.785C441.416 230.785 437.798 208.696 436.274 200.317C432.846 179.179 418.374 174.799 418.374 174.799L408.471 173.847Z" fill="#182679"/>
<path d="M411.899 173.847C411.899 173.847 407.138 165.468 399.712 157.28C390 146.425 375.146 137.284 375.146 137.284C375.146 137.284 365.244 144.14 369.814 147.948C375.908 151.948 383.525 160.136 389.428 167.372C393.237 172.133 400.664 186.034 400.664 186.034L411.899 173.847Z" fill="#F677BA"/>
<path d="M372.48 149.662C369.052 147.187 357.626 141.284 357.817 140.331C358.007 139.379 362.006 141.474 362.006 140.712C361.816 139.951 355.913 136.332 356.293 135.571C356.674 134.428 362.768 138.427 362.768 138.427C362.768 138.427 356.484 133.666 357.055 132.905C357.626 132.143 362.578 135.571 364.672 136.523C362.578 135.19 359.531 132.524 359.912 131.953C360.483 131.191 363.911 133.476 366.577 134.999C365.053 133.857 362.197 131.572 362.768 131C363.149 130.429 371.909 134.809 380.097 140.522L372.48 149.662Z" fill="#F677BA"/>
<path d="M426.753 199.936C426.753 199.936 419.517 214.409 411.9 222.407C401.616 232.88 385.43 240.307 385.43 240.307C385.43 240.307 375.718 233.071 380.479 229.452C386.573 225.644 396.475 217.836 402.569 210.79C406.377 206.22 412.661 192.319 412.661 192.319L426.753 199.936Z" fill="#F677BA"/>
<path d="M383.335 227.739C379.717 230.214 368.101 235.737 368.291 236.689C368.291 237.45 372.481 235.546 372.29 236.308C372.29 237.07 366.197 240.497 366.577 241.259C366.958 242.402 373.052 238.783 373.052 238.783C373.052 238.783 366.577 243.163 367.339 244.115C367.72 244.687 372.862 241.64 374.956 240.688C372.862 242.021 369.624 244.496 370.196 245.068C370.576 245.829 374.195 243.735 376.861 242.211C375.337 243.354 372.29 245.448 372.862 246.02C373.242 246.781 382.193 242.211 390.381 237.641L383.335 227.739Z" fill="#F677BA"/>
<path d="M412.28 188.7C410.186 195.365 404.854 206.791 404.854 206.791L419.517 214.408C419.517 214.408 426.943 205.268 429.8 194.223L412.28 188.7Z" fill="#182679"/>
<path d="M419.517 214.408C419.517 214.408 427.515 202.983 429.038 196.889" stroke="#5464AA" stroke-width="3.1252"/>
<path d="M404.854 206.791C404.854 206.791 410.376 196.318 411.519 191.176" stroke="#5464AA" stroke-width="3.1252"/>
<path d="M398.95 196.318C398.759 190.605 396.093 178.608 387.905 167.753L400.663 157.47C400.663 157.47 412.089 166.611 415.327 174.609L398.95 196.318Z" fill="#182679"/>
<path d="M405.996 157.28C405.996 157.28 402.758 166.42 405.615 169.467C407.138 170.99 411.709 171.181 413.613 169.657C414.946 168.515 417.041 161.469 416.279 160.326C413.232 155.566 405.996 157.28 405.996 157.28Z" fill="#F677BA"/>
<path d="M407.9 161.66C407.9 161.66 405.996 163.754 406.186 164.516C406.186 165.087 407.709 165.278 407.709 165.278" stroke="#CC3189" stroke-width="2.08347" stroke-linejoin="round"/>
<path d="M405.995 166.039L409.994 166.992C409.994 166.992 409.042 169.086 406.757 168.325C405.234 167.753 405.995 166.039 405.995 166.039Z" fill="white"/>
<path d="M406.186 160.707C405.996 160.898 405.996 161.088 405.996 161.279C405.805 161.659 406.376 161.85 406.567 161.469C406.567 161.279 406.567 161.088 406.757 160.898C406.757 160.517 406.376 160.326 406.186 160.707Z" fill="#00266E"/>
<path d="M407.709 159.946C407.709 159.946 407.138 158.994 406.186 159.565" stroke="#00266E" stroke-width="2.08347" stroke-linecap="round" stroke-linejoin="round"/>
<path d="M410.756 162.231C410.756 162.421 410.566 162.802 410.566 162.992C410.375 163.373 411.137 163.373 411.137 162.992C411.328 162.992 411.328 162.802 411.328 162.612C411.328 162.231 410.947 162.04 410.756 162.231Z" fill="#00266E"/>
<path d="M410.756 160.707C410.756 160.707 411.899 160.517 412.851 161.85" stroke="#00266E" stroke-width="2.08347" stroke-linecap="round" stroke-linejoin="round"/>
<path d="M416.469 165.658L418.373 174.799C418.373 174.799 411.518 179.941 407.709 174.418L407.519 168.515L416.469 165.658Z" fill="#F677BA"/>
<path d="M419.897 164.135C419.897 163.754 419.897 163.373 420.088 163.183C420.468 162.421 420.849 161.659 421.04 160.898C421.801 159.374 421.23 157.47 419.897 156.518C419.707 156.327 419.516 156.137 419.326 155.947C418.755 155.566 418.564 154.804 418.374 154.233C418.183 153.661 417.802 153.281 417.422 153.09C416.279 152.519 414.946 153.281 413.803 152.709C413.613 152.519 413.422 152.328 413.232 152.138C411.518 150.995 409.804 151.376 408.09 151.948C407.329 152.138 407.138 152.519 406.377 153.09C405.805 153.471 404.663 153.471 404.091 154.042C403.33 154.614 403.139 155.756 403.139 156.708C403.139 156.899 403.139 157.28 403.139 157.66C403.33 158.041 403.711 158.422 404.282 158.613C405.234 158.993 406.186 158.803 407.329 158.803C408.281 158.613 409.423 157.851 410.376 158.232C411.328 158.613 411.709 159.755 412.851 159.946C413.232 159.946 413.803 159.946 414.184 160.326C414.375 160.707 414.184 161.279 414.565 161.85C414.756 162.231 415.136 162.802 415.517 163.183C416.089 163.945 416.85 164.516 416.66 165.658C416.279 166.42 415.517 167.753 415.898 168.515C416.089 169.086 417.231 169.086 418.183 168.324C419.135 167.563 419.326 166.23 419.516 165.278C419.707 164.897 419.707 164.516 419.897 164.135Z" fill="#212136"/>
<path d="M415.708 164.325C416.469 162.802 417.422 162.992 417.802 163.564C418.564 164.516 417.612 166.611 417.041 166.992C416.089 167.753 415.136 167.944 414.946 166.992L415.708 164.325Z" fill="#F677BA"/>
<path d="M407.899 170.8C411.137 170.991 413.803 169.277 413.803 169.277" stroke="#CC3189" stroke-width="3.1252" stroke-linejoin="round"/>
<path d="M398.759 194.223C398.759 194.223 398.95 185.273 397.998 182.607" stroke="#5464AA" stroke-width="3.1252"/>
<path d="M406.757 176.132C406.757 176.132 408.281 178.989 412.661 178.798C417.802 178.798 419.706 175.37 419.706 175.37" stroke="#5464AA" stroke-width="3.1252"/>
<path d="M320.493 128.906C319.921 133.095 316.874 142.807 317.446 143.378C318.017 143.759 319.54 139.951 319.921 140.331C320.493 140.712 318.779 146.425 319.54 146.616C320.493 146.996 321.826 141.474 321.826 141.474C321.826 141.474 320.683 147.568 321.635 147.568C322.397 147.758 323.539 143.188 323.92 141.474C323.73 143.378 323.159 146.425 323.92 146.616C324.492 146.616 325.444 143.95 326.015 141.474C325.825 142.997 325.063 146.044 325.634 146.044C326.396 146.235 328.681 139.379 330.205 130.81L320.493 128.906Z" fill="#F677BA"/>
<path d="M332.87 86.059C335.727 108.339 329.252 135.19 329.252 135.19L319.921 133.095C319.921 133.095 323.349 108.911 319.54 87.7728L332.87 86.059Z" fill="#F677BA"/>
<path d="M313.447 66.2544C317.827 66.2544 322.207 67.5874 326.206 70.8247C332.49 75.5855 334.013 86.8208 334.013 86.8208L319.541 89.6773C319.541 89.6773 318.779 80.3462 318.589 77.1089L313.447 66.2544Z" fill="#FF9356"/>
<path d="M318.97 89.6771C318.398 85.2972 317.065 81.4886 317.065 81.4886" stroke="#A52F2D" stroke-width="3.1252"/>
<path d="M414.946 82.06L410.185 64.5405L427.895 59.5894L432.656 77.2993L414.946 82.06Z" stroke="#90AAE4" stroke-width="6.2504"/>
<path d="M10.8546 273.823L11.9972 264.873L20.757 266.015L19.6144 274.965L10.8546 273.823Z" stroke="#90AAE4" stroke-width="6.2504"/>
<path d="M469.028 281.249C469.028 285.248 465.791 288.486 461.792 288.486C457.793 288.486 454.555 285.248 454.555 281.249C454.555 277.25 457.793 274.013 461.792 274.013C465.791 274.013 469.028 277.25 469.028 281.249Z" stroke="#FF9C93" stroke-width="6.2504"/>
<path d="M177.861 33.8813C177.861 35.9761 176.148 37.4995 174.243 37.4995C172.149 37.4995 170.625 35.9761 170.625 33.8813C170.625 31.9771 172.149 30.2632 174.243 30.2632C176.148 30.2632 177.861 31.9771 177.861 33.8813Z" stroke="#90AAE4" stroke-width="6.2504"/>
<path d="M477.407 193.081C477.407 195.175 475.883 196.699 473.789 196.699C471.884 196.699 470.171 195.175 470.171 193.081C470.171 191.176 471.884 189.463 473.789 189.463C475.883 189.463 477.407 191.176 477.407 193.081Z" stroke="#90AAE4" stroke-width="6.2504"/>
<path d="M481.025 267.729C481.025 269.824 479.502 271.347 477.407 271.347C475.503 271.347 473.789 269.824 473.789 267.729C473.789 265.825 475.503 264.111 477.407 264.111C479.502 264.111 481.025 265.825 481.025 267.729Z" stroke="#90AAE4" stroke-width="6.2504"/>
<path d="M7.23633 241.45C7.23633 243.544 5.52246 245.068 3.61816 245.068C1.71387 245.068 0 243.544 0 241.45C0 239.545 1.71387 237.832 3.61816 237.832C5.52246 237.832 7.23633 239.545 7.23633 241.45Z" stroke="#FF9C93" stroke-width="6.2504"/>
<path d="M94.6437 47.2115L95.0245 49.6871" stroke="#90AAE4" stroke-width="6.2504"/>
<path d="M95.0248 49.687C95.2152 50.6392 96.1674 51.5913 97.1195 51.4009" stroke="#90AAE4" stroke-width="6.2504"/>
<path d="M97.1194 51.4009H98.8333" stroke="#90AAE4" stroke-width="6.2504"/>
<path d="M98.833 51.4009C99.7852 51.4009 100.737 52.1626 100.928 53.3052" stroke="#90AAE4" stroke-width="6.2504"/>
<path d="M100.927 53.3052L101.118 54.8286" stroke="#90AAE4" stroke-width="6.2504"/>
<path d="M101.118 54.8287C101.309 55.9713 102.261 56.733 103.404 56.733" stroke="#90AAE4" stroke-width="6.2504"/>
<path d="M103.403 56.7329L104.927 56.5425" stroke="#90AAE4" stroke-width="6.2504"/>
<path d="M104.927 56.5425C106.069 56.5425 107.021 57.3042 107.212 58.4468" stroke="#90AAE4" stroke-width="6.2504"/>
<path d="M107.212 58.4468L107.402 59.9702" stroke="#90AAE4" stroke-width="6.2504"/>
<path d="M107.402 59.9703C107.593 61.1129 108.545 61.8746 109.687 61.8746" stroke="#90AAE4" stroke-width="6.2504"/>
<path d="M109.688 61.8745H111.592" stroke="#90AAE4" stroke-width="6.2504"/>
<path d="M25.3268 205.268L24.5651 202.983" stroke="#90AAE4" stroke-width="6.2504"/>
<path d="M24.5654 202.983C24.1846 202.031 23.2324 201.269 22.0898 201.459" stroke="#90AAE4" stroke-width="6.2504"/>
<path d="M22.09 201.46L20.5665 201.84" stroke="#90AAE4" stroke-width="6.2504"/>
<path d="M20.5665 201.84C19.424 202.031 18.4718 201.459 18.0909 200.317" stroke="#90AAE4" stroke-width="6.2504"/>
<path d="M18.0908 200.317L17.5195 198.793" stroke="#90AAE4" stroke-width="6.2504"/>
<path d="M17.5193 198.793C17.3289 197.841 16.1863 197.27 15.2341 197.46" stroke="#90AAE4" stroke-width="6.2504"/>
<path d="M15.2345 197.46L13.5206 197.651" stroke="#90AAE4" stroke-width="6.2504"/>
<path d="M13.5205 197.651C12.5684 197.841 11.4258 197.27 11.0449 196.127" stroke="#90AAE4" stroke-width="6.2504"/>
<path d="M11.0447 196.127L10.6638 194.604" stroke="#90AAE4" stroke-width="6.2504"/>
<path d="M10.6637 194.604C10.2828 193.652 9.33069 193.081 8.18811 193.271" stroke="#90AAE4" stroke-width="6.2504"/>
<path d="M8.18811 193.271L6.28381 193.461" stroke="#90AAE4" stroke-width="6.2504"/>
<path d="M395.903 109.482L398.379 109.292" stroke="#90AAE4" stroke-width="6.2504"/>
<path d="M398.379 109.292C399.331 109.292 400.283 108.339 400.283 107.387" stroke="#90AAE4" stroke-width="6.2504"/>
<path d="M400.283 107.387L400.474 105.673" stroke="#90AAE4" stroke-width="6.2504"/>
<path d="M400.473 105.673C400.473 104.721 401.235 103.769 402.378 103.579" stroke="#90AAE4" stroke-width="6.2504"/>
<path d="M402.378 103.579H403.901" stroke="#90AAE4" stroke-width="6.2504"/>
<path d="M403.901 103.579C405.044 103.388 405.805 102.626 405.996 101.484" stroke="#90AAE4" stroke-width="6.2504"/>
<path d="M405.996 101.484V99.9604" stroke="#90AAE4" stroke-width="6.2504"/>
<path d="M405.996 99.9606C405.996 98.818 406.948 97.8658 408.09 97.8658" stroke="#90AAE4" stroke-width="6.2504"/>
<path d="M408.091 97.8658L409.614 97.6754" stroke="#90AAE4" stroke-width="6.2504"/>
<path d="M409.614 97.6753C410.757 97.6753 411.518 96.7232 411.518 95.5806" stroke="#90AAE4" stroke-width="6.2504"/>
<path d="M411.518 95.5806L411.709 93.8667" stroke="#90AAE4" stroke-width="6.2504"/>
<path d="M470.933 144.711L468.457 145.473" stroke="#90AAE4" stroke-width="6.2504"/>
<path d="M468.457 145.473C467.504 145.854 466.933 146.806 467.124 147.949" stroke="#90AAE4" stroke-width="6.2504"/>
<path d="M467.124 147.949L467.314 149.472" stroke="#90AAE4" stroke-width="6.2504"/>
<path d="M467.314 149.472C467.505 150.424 466.934 151.567 465.791 151.948" stroke="#90AAE4" stroke-width="6.2504"/>
<path d="M465.791 151.948L464.267 152.329" stroke="#90AAE4" stroke-width="6.2504"/>
<path d="M464.267 152.328C463.315 152.709 462.744 153.661 462.934 154.804" stroke="#90AAE4" stroke-width="6.2504"/>
<path d="M462.934 154.804L463.125 156.328" stroke="#90AAE4" stroke-width="6.2504"/>
<path d="M463.125 156.328C463.315 157.47 462.744 158.422 461.601 158.803" stroke="#90AAE4" stroke-width="6.2504"/>
<path d="M461.601 158.803L460.078 159.375" stroke="#90AAE4" stroke-width="6.2504"/>
<path d="M460.078 159.375C459.126 159.565 458.555 160.708 458.745 161.66" stroke="#90AAE4" stroke-width="6.2504"/>
<path d="M458.745 161.66L458.935 163.564" stroke="#90AAE4" stroke-width="6.2504"/>
<path d="M484.072 250.209L485.977 251.542" stroke="#90AAE4" stroke-width="6.2504"/>
<path d="M485.976 251.543C486.928 252.114 488.071 251.923 488.833 251.162" stroke="#90AAE4" stroke-width="6.2504"/>
<path d="M488.833 251.162L489.975 250.019" stroke="#90AAE4" stroke-width="6.2504"/>
<path d="M489.975 250.019C490.737 249.257 491.88 249.067 492.832 249.638" stroke="#90AAE4" stroke-width="6.2504"/>
<path d="M492.832 249.638L494.165 250.59" stroke="#90AAE4" stroke-width="6.2504"/>
<path d="M494.165 250.59C494.926 251.162 496.259 250.971 496.831 250.209" stroke="#90AAE4" stroke-width="6.2504"/>
<path d="M496.831 250.209L497.974 249.067" stroke="#90AAE4" stroke-width="6.2504"/>
<path d="M497.973 249.067C498.735 248.115 499.878 248.115 500.83 248.686" stroke="#90AAE4" stroke-width="6.2504"/>
<path d="M500.83 248.686L502.163 249.448" stroke="#90AAE4" stroke-width="6.2504"/>
<path d="M502.163 249.448C503.115 250.209 504.257 250.019 505.019 249.257" stroke="#90AAE4" stroke-width="6.2504"/>
<path d="M505.019 249.257L506.162 247.734" stroke="#90AAE4" stroke-width="6.2504"/>
<path d="M462.934 174.609L454.555 179.75" stroke="#FF9C93" stroke-width="6.2504"/>
<path d="M378.574 66.064L370.767 72.3481" stroke="#FF9C93" stroke-width="6.2504"/>
<path d="M207.568 80.3462L198.047 78.061" stroke="#FF9C93" stroke-width="6.2504"/>
<path d="M26.4695 121.86L19.2332 115.385" stroke="#FF9C93" stroke-width="6.2504"/>
</g>
<defs>
<clipPath id="clip0">
<rect width="507" height="362" fill="white"/>
</clipPath>
</defs>
</svg>
