<svg width="52" height="52" viewBox="0 0 52 52" fill="none" xmlns="http://www.w3.org/2000/svg">
<path d="M2 40.9594H30.7805V2H2V40.9594Z" fill="#FCE5AC"/>
<path d="M9.12195 7.78861H26.1951V6.48779H9.12195V7.78861Z" fill="#F99C1D"/>
<path d="M9.12195 10.7481H26.1951V9.44727H9.12195V10.7481Z" fill="#F99C1D"/>
<path d="M9.12195 13.7073H26.1951V12.439H9.12195V13.7073Z" fill="#F99C1D"/>
<path d="M9.12195 16.6667H26.1951V15.3984H9.12195V16.6667Z" fill="#F99C1D"/>
<path d="M9.12195 19.626H26.1951V18.3577H9.12195V19.626Z" fill="#F99C1D"/>
<path d="M9.12195 22.5854H26.1951V21.3171H9.12195V22.5854Z" fill="#F99C1D"/>
<path d="M9.12195 25.5447H26.1951V24.2764H9.12195V25.5447Z" fill="#F99C1D"/>
<path d="M9.12195 28.5041H26.1951V27.2358H9.12195V28.5041Z" fill="#F99C1D"/>
<path d="M9.12195 31.4634H26.1951V30.1951H9.12195V31.4634Z" fill="#F99C1D"/>
<path d="M34.3252 19.3984C42.6504 19.3984 49.4146 26.1627 49.4146 34.5204C49.4146 42.8456 42.6504 49.6098 34.3252 49.6098V19.3984Z" fill="#37A4F6"/>
<path d="M34.3252 49.6098C25.9675 49.6098 19.2032 42.8456 19.2032 34.5204C19.2032 26.1627 25.9675 19.3984 34.3252 19.3984V49.6098Z" fill="#004592"/>
<path d="M34.3252 22.748C40.8293 22.748 46.0976 28.0163 46.0976 34.5204C46.0976 41.0245 40.8293 46.2928 34.3252 46.2928V22.748Z" fill="#96E0F4"/>
<path d="M34.3251 46.2928C27.8211 46.2928 22.5203 41.0245 22.5203 34.5204C22.5203 28.0163 27.8211 22.748 34.3251 22.748V46.2928Z" fill="#96E0F4"/>
<path d="M34.3252 25.5122C39.3008 25.5122 43.3333 29.5447 43.3333 34.5203C43.3333 39.4959 39.3008 43.5285 34.3252 43.5285V25.5122Z" fill="#37A4F6"/>
<path d="M34.3251 43.5285C29.3495 43.5285 25.317 39.4959 25.317 34.5203C25.317 29.5447 29.3495 25.5122 34.3251 25.5122V43.5285Z" fill="#004592"/>
<path d="M34.3252 28.0488C37.8699 28.0488 40.7642 30.9431 40.7642 34.5204C40.7642 38.0976 37.8699 40.9594 34.3252 40.9594V28.0488Z" fill="#96E0F4"/>
<path d="M34.3252 40.9594C30.7479 40.9594 27.8536 38.0976 27.8536 34.5204C27.8536 30.9431 30.7479 28.0488 34.3252 28.0488V40.9594Z" fill="#96E0F4"/>
<path d="M34.3252 30.5203C36.5041 30.5203 38.2927 32.3089 38.2927 34.5203C38.2927 36.7316 36.5041 38.4877 34.3252 38.4877V30.5203Z" fill="#F99C1D"/>
<path d="M34.3252 38.4877C32.1138 38.4877 30.3252 36.7316 30.3252 34.5203C30.3252 32.3089 32.1138 30.5203 34.3252 30.5203V38.4877Z" fill="#FDC00E"/>
<path d="M7.43088 7.13821C7.43088 7.69105 6.9756 8.11382 6.45527 8.11382C5.90243 8.11382 5.44714 7.69105 5.44714 7.13821C5.44714 6.58536 5.90243 6.1626 6.45527 6.1626C6.9756 6.1626 7.43088 6.58536 7.43088 7.13821Z" fill="#002541"/>
<path d="M7.43088 10.0977C7.43088 10.6505 6.9756 11.0733 6.45527 11.0733C5.90243 11.0733 5.44714 10.6505 5.44714 10.0977C5.44714 9.54483 5.90243 9.12207 6.45527 9.12207C6.9756 9.12207 7.43088 9.54483 7.43088 10.0977Z" fill="#002541"/>
<path d="M7.43088 13.0569C7.43088 13.6098 6.9756 14.0325 6.45527 14.0325C5.90243 14.0325 5.44714 13.6098 5.44714 13.0569C5.44714 12.5366 5.90243 12.0813 6.45527 12.0813C6.9756 12.0813 7.43088 12.5366 7.43088 13.0569Z" fill="#002541"/>
<path d="M7.43088 16.0164C7.43088 16.5692 6.9756 17.0245 6.45527 17.0245C5.90243 17.0245 5.44714 16.5692 5.44714 16.0164C5.44714 15.4961 5.90243 15.0408 6.45527 15.0408C6.9756 15.0408 7.43088 15.4961 7.43088 16.0164Z" fill="#002541"/>
<path d="M7.43088 18.9756C7.43088 19.5285 6.9756 19.9837 6.45527 19.9837C5.90243 19.9837 5.44714 19.5285 5.44714 18.9756C5.44714 18.4553 5.90243 18 6.45527 18C6.9756 18 7.43088 18.4553 7.43088 18.9756Z" fill="#002541"/>
<path d="M7.43088 21.9348C7.43088 22.4877 6.9756 22.943 6.45527 22.943C5.90243 22.943 5.44714 22.4877 5.44714 21.9348C5.44714 21.4145 5.90243 20.9592 6.45527 20.9592C6.9756 20.9592 7.43088 21.4145 7.43088 21.9348Z" fill="#002541"/>
<path d="M7.43088 24.9268C7.43088 25.4472 6.9756 25.9024 6.45527 25.9024C5.90243 25.9024 5.44714 25.4472 5.44714 24.9268C5.44714 24.374 5.90243 23.9187 6.45527 23.9187C6.9756 23.9187 7.43088 24.374 7.43088 24.9268Z" fill="#002541"/>
<path d="M7.43088 27.8861C7.43088 28.4064 6.9756 28.8617 6.45527 28.8617C5.90243 28.8617 5.44714 28.4064 5.44714 27.8861C5.44714 27.3332 5.90243 26.8779 6.45527 26.8779C6.9756 26.8779 7.43088 27.3332 7.43088 27.8861Z" fill="#002541"/>
<path d="M7.43088 30.8455C7.43088 31.3659 6.9756 31.8211 6.45527 31.8211C5.90243 31.8211 5.44714 31.3659 5.44714 30.8455C5.44714 30.2927 5.90243 29.8374 6.45527 29.8374C6.9756 29.8374 7.43088 30.2927 7.43088 30.8455Z" fill="#002541"/>
<path d="M38.7154 30.4228C38.6504 30.4228 38.5528 30.3903 38.4878 30.3253C38.3252 30.1952 38.3252 29.9675 38.4878 29.8374L49.187 19.1708C49.3171 19.0082 49.5447 19.0082 49.6748 19.1708C49.8049 19.3009 49.8049 19.5285 49.6748 19.6586L38.9756 30.3253C38.9106 30.3903 38.813 30.4228 38.7154 30.4228Z" fill="#1490BD"/>
<path d="M41.1545 30.5528L34.3252 34.4877L38.2602 27.6584L41.1545 30.5528Z" fill="#1490BD"/>
<path d="M49.6423 21.1545H48.0488C47.8537 21.1545 47.7236 20.9919 47.7236 20.7968V19.2358C47.7236 19.0407 47.8537 18.9106 48.0488 18.9106C48.244 18.9106 48.4066 19.0407 48.4066 19.2358V20.4391H49.6423C49.8375 20.4391 50.0001 20.6017 50.0001 20.7968C50.0001 20.9919 49.8375 21.1545 49.6423 21.1545Z" fill="#1490BD"/>
<path d="M48.7643 22H47.2033C47.0082 22 46.8456 21.8374 46.8456 21.6423V20.1138C46.8456 19.9187 47.0082 19.7561 47.2033 19.7561C47.3984 19.7561 47.561 19.9187 47.561 20.1138V21.3171H48.7643C48.9594 21.3171 49.122 21.4472 49.122 21.6423C49.122 21.8374 48.9594 22 48.7643 22Z" fill="#1490BD"/>
</svg>
