<svg width="52" height="52" viewBox="0 0 52 52" fill="none" xmlns="http://www.w3.org/2000/svg">
<path d="M2 42.6H26V38.4H2V42.6Z" fill="#004592"/>
<path d="M26 42.6H50V38.4H26V42.6Z" fill="#37A4F6"/>
<path d="M5.59998 35.4H26V31.2H5.59998V35.4Z" fill="#004592"/>
<path d="M26 35.4H47V31.2H26V35.4Z" fill="#37A4F6"/>
<path d="M9.20007 28.2H26.0001V23.4H9.20007V28.2Z" fill="#004592"/>
<path d="M26 28.2H43.4V23.4H26V28.2Z" fill="#37A4F6"/>
<path d="M12.2 21H26V16.2H12.2V21Z" fill="#004592"/>
<path d="M26 21H39.8V16.2H26V21Z" fill="#37A4F6"/>
<path d="M15.7999 13.8H25.9999V9H15.7999V13.8Z" fill="#004592"/>
<path d="M26 13.8H36.8V9H26V13.8Z" fill="#37A4F6"/>
</svg>
