<svg width="65" height="65" viewBox="0 0 65 65" fill="none" xmlns="http://www.w3.org/2000/svg">
<circle cx="32.5" cy="32.5" r="32.5" fill="#10B981"/>
<path d="M48.9144 25.6761C48.9144 17.5683 40.8066 11.1453 31.1019 12.093C23.7312 12.83 17.8346 17.8842 17.0976 24.2019C16.4833 29.0455 18.8174 33.3627 22.7484 36.1004C24.4683 37.3639 25.5739 39.1539 25.5739 41.1545V41.4704H40.3152V41.3651C40.3152 39.4698 41.298 37.5745 43.0178 36.3109C46.5803 33.7838 48.9144 29.9932 48.9144 25.6761Z" fill="#FFCD51"/>
<path d="M41.0523 23.7808L37.367 21.6749C36.9984 21.4643 36.3842 21.4643 36.0157 21.6749L32.9446 23.3596L29.9963 21.6749C29.6277 21.4643 29.0135 21.4643 28.645 21.6749L24.9596 23.7808C24.714 23.9914 24.4683 24.2019 24.4683 24.5178C24.4683 24.8337 24.4683 25.1496 24.714 25.3602L29.3821 30.3091V41.4704H31.839V29.8879C31.839 29.6773 31.7161 29.4667 31.5933 29.2561L27.5394 24.939L29.3821 23.8861L32.3303 25.5708C32.6989 25.7814 33.3131 25.7814 33.6816 25.5708L36.6299 23.8861L38.4726 24.939L34.4187 29.2561C34.2959 29.4667 34.173 29.6773 34.173 29.8879V41.4704H36.6299V30.3091L41.298 25.3602C41.5437 25.1496 41.6665 24.8337 41.5437 24.5178C41.4209 24.2019 41.298 23.8861 41.0523 23.7808Z" fill="#FFF59D"/>
<path d="M32.9446 45.6823C31.9671 45.6823 31.0298 46.0151 30.3386 46.6075C29.6475 47.1999 29.2592 48.0033 29.2592 48.8411C29.2592 49.6789 29.6475 50.4824 30.3386 51.0748C31.0298 51.6672 31.9671 52 32.9446 52C33.922 52 34.8593 51.6672 35.5505 51.0748C36.2416 50.4824 36.6299 49.6789 36.6299 48.8411C36.6299 48.0033 36.2416 47.1999 35.5505 46.6075C34.8593 46.0151 33.922 45.6823 32.9446 45.6823Z" fill="#F5F7FF"/>
<path d="M35.4015 49.8941H30.4877C27.7851 49.8941 25.5739 47.9988 25.5739 45.6823V40.4175H40.3153V45.6823C40.3153 47.9988 38.104 49.8941 35.4015 49.8941Z" fill="#CBCBCB"/>
<path d="M40.3153 45.6823L26.0652 47.367C26.4338 48.1041 27.1708 48.8411 28.0308 49.2623C32.5403 48.7277 35.0686 48.428 39.5782 47.8935C40.0696 47.2617 40.3153 46.5246 40.3153 45.6823ZM25.5739 43.2605V45.3664L40.3153 43.5763V41.4704L25.5739 43.2605Z" fill="#F5F7FF"/>
</svg>
