<svg width="65" height="65" viewBox="0 0 65 65" fill="none" xmlns="http://www.w3.org/2000/svg">
<circle cx="32.5" cy="32.5" r="32.5" fill="#8B5CF6"/>
<path d="M36 32C36 33.7 34.7 35 33 35C31.3 35 30 33.7 30 32C30 30.3 31.3 29 33 29C34.7 29 36 30.3 36 32Z" fill="#FFB300"/>
<path d="M33 51C28.4 51 25.1 43 25.1 32C25.1 21 28.4 13 33 13C37.6 13 40.9 21 40.9 32C40.9 43 37.6 51 33 51ZM33 15C30.2 15 27.1 21.5 27.1 32C27.1 42.5 30.2 49 33 49C35.8 49 38.9 42.5 38.9 32C38.9 21.5 35.8 15 33 15Z" fill="#D8DEFF"/>
<path d="M44 43.9C43.2 43.9 42.4 43.8 41.5 43.7C37.9 43.1 33.4 41.4 29 38.9C24.6 36.4 20.9 33.4 18.6 30.5C16.1 27.4 15.3 24.6 16.5 22.5C17.7 20.5 20.5 19.7 24.5 20.3C28.1 20.9 32.6 22.6 37 25.1C46.5 30.6 51.8 37.5 49.5 41.5C48.5 43.1 46.6 43.9 44 43.9ZM22 22.1C20.1 22.1 18.8 22.6 18.3 23.5C16.9 26 20.9 31.9 30 37.1C34.2 39.5 38.4 41.2 41.8 41.7C44.8 42.2 47 41.7 47.7 40.5C49.1 38 45 32.1 36 26.9C31.8 24.5 27.6 22.8 24.2 22.3C23.4 22.2 22.7 22.1 22 22.1Z" fill="#D8DEFF"/>
<path d="M22 43.9C19.4 43.9 17.5 43.1 16.5 41.5C15.3 39.5 16.1 36.6 18.6 33.5C20.9 30.6 24.6 27.7 29 25.1C33.4 22.6 37.8 20.8 41.5 20.3C45.4 19.7 48.3 20.5 49.5 22.5C51.8 26.5 46.5 33.4 37 38.9C32.6 41.4 28.2 43.2 24.5 43.7C23.6 43.8 22.8 43.9 22 43.9ZM44 22.1C43.3 22.1 42.6 22.2 41.8 22.3C38.4 22.8 34.2 24.5 30 26.9C25.8 29.3 22.3 32.1 20.1 34.8C18.2 37.2 17.5 39.3 18.2 40.5C18.9 41.8 21.1 42.2 24.1 41.7C27.5 41.2 31.7 39.5 35.9 37.1C45 31.9 49.1 25.9 47.7 23.5C47.2 22.6 45.9 22.1 44 22.1Z" fill="#D8DEFF"/>
</svg>
