<svg width="64" height="64" viewBox="0 0 64 64" fill="none" xmlns="http://www.w3.org/2000/svg">
<circle cx="32" cy="32" r="32" fill="#6366F1"/>
<path d="M10.9539 17.8462H52.3077V46.4H10.9539V17.8462Z" fill="#9FAFFF"/>
<path d="M31.6308 38.5231C28.8739 38.5231 26.7077 40.6892 26.7077 43.4461C26.7077 46.2031 28.8739 48.3692 31.6308 48.3692C34.3877 48.3692 36.5539 46.2031 36.5539 43.4461C36.5539 40.6892 34.3877 38.5231 31.6308 38.5231Z" fill="#16155E"/>
<path d="M31.6308 40.4923C29.9569 40.4923 28.6769 41.7723 28.6769 43.4462C28.6769 45.12 29.9569 46.4 31.6308 46.4C33.3046 46.4 34.5846 45.12 34.5846 43.4462C34.5846 41.7723 33.3046 40.4923 31.6308 40.4923Z" fill="#000A23"/>
<path d="M47.3846 14.8923L32.6154 17.8461H30.6461L15.8769 14.8923L13.9077 19.8154V43.4462H49.3538V19.8154L47.3846 14.8923Z" fill="#D7CCC8"/>
<path d="M15.8769 40.4923H30.6461V43.4462H32.6154V40.4923H47.3846L49.3538 43.4462H13.9077L15.8769 40.4923Z" fill="#BCAAA4"/>
<path d="M47.3846 14.8923C47.3846 14.8923 32.6154 14.8923 32.6154 17.8461C32.6154 20.8 32.6154 43.4462 32.6154 43.4462C32.6154 40.4923 47.3846 40.4923 47.3846 40.4923V14.8923Z" fill="#EFEBE9"/>
<path d="M15.8769 14.8923C15.8769 14.8923 30.6462 14.8923 30.6462 17.8461C30.6462 20.8 30.6462 43.4462 30.6462 43.4462C30.6462 40.4923 15.8769 40.4923 15.8769 40.4923V14.8923Z" fill="#EFEBE9"/>
<path d="M30.6461 17.8462H32.6154V43.4462H30.6461V17.8462Z" fill="#BCAAA4"/>
</svg>
