<svg width="52" height="52" viewBox="0 0 52 52" fill="none" xmlns="http://www.w3.org/2000/svg">
<path d="M50 9H2V43H41L50 33V9Z" fill="#4FC2D9"/>
<path d="M2 43H26V9H2V43Z" fill="#96E0F4"/>
<path d="M41 43L50 33H41V43Z" fill="#1490BD"/>
<path d="M14.0001 24L9.00006 37L13.0001 35L17.0001 25L14.0001 24Z" fill="#FCA710"/>
<path d="M16 24L21 37L17 35L13 25L16 24Z" fill="#F28B0F"/>
<path d="M16 15C16 15 17 16 18 15C18 15 19 15 19 16C19 17 20 17 20 17C21 17 22 18 21 19C21 19 21 20 22 20C23 21 23 22 22 22C21 23 21 23 21 24C22 25 21 26 20 26C20 26 19 26 19 27C19 28 18 28 18 28C17 27 16 28 16 28C16 29 14 29 14 28C14 28 13 27 12 28C12 28 11 28 11 27C11 26 10 26 10 26C9 26 8 25 9 24C9 23 9 23 8 22C7 22 7 21 8 20C9 20 9 19 9 19C8 18 9 17 10 17C10 17 11 17 11 16C11 15 12 15 12 15C13 16 14 15 14 15C14 14 16 14 16 15Z" fill="#FDC00E"/>
<path d="M22.0001 20C21.0001 20 21.0001 19 21.0001 19C22.0001 18 21.0001 17 20.0001 17C20.0001 17 19.0001 17 19.0001 16C19.0001 15 18.0001 15 18.0001 15C17.0001 16 16.0001 15 16.0001 15C16.0001 14 15.0001 14 15.0001 14V29C15.0001 29 16.0001 29 16.0001 28C16.0001 28 17.0001 27 18.0001 28C18.0001 28 19.0001 28 19.0001 27C19.0001 26 20.0001 26 20.0001 26C21.0001 26 22.0001 25 21.0001 24C21.0001 23 21.0001 23 22.0001 22C23.0001 22 23.0001 21 22.0001 20Z" fill="#F99C1D"/>
<path d="M31 17.9999H47V15.9999H31V17.9999Z" fill="#1490BD"/>
<path d="M31 21H47V20H31V21Z" fill="#1490BD"/>
<path d="M31 25H47V24H31V25Z" fill="#1490BD"/>
<path d="M31 29H47V27H31V29Z" fill="#1490BD"/>
</svg>
