<svg width="52" height="52" viewBox="0 0 52 52" fill="none" xmlns="http://www.w3.org/2000/svg">
<path d="M45.6647 2H12.4055V47.0436H39.5467L45.6647 40.9256V2Z" fill="#96E0F4"/>
<path d="M39.5466 47.0436L45.6647 40.9255H39.5466V47.0436Z" fill="#1490BD"/>
<path d="M16.5526 15.6323H25.8323V6.35254H16.5526V15.6323Z" fill="#F99C1D"/>
<path d="M16.5526 15.6323H21.1925V6.35254H16.5526V15.6323Z" fill="#FDC00E"/>
<path d="M21.1925 12.2242C22.4243 12.2242 23.4508 11.1977 23.4508 9.92484C23.4508 8.69302 22.4243 7.6665 21.1925 7.6665V12.2242Z" fill="#002541"/>
<path d="M21.1925 12.2242C19.9196 12.2242 18.8931 11.1977 18.8931 9.92484C18.8931 8.69302 19.9196 7.6665 21.1925 7.6665V12.2242Z" fill="#004592"/>
<path d="M21.1924 14.5235V12.2241C19.9195 12.2241 18.893 13.2506 18.8519 14.5235H21.1924Z" fill="#004592"/>
<path d="M23.533 14.5235C23.4919 13.2506 22.4654 12.2241 21.1925 12.2241V14.5235H23.533Z" fill="#002541"/>
<path d="M31.1292 7.91281H42.0513V7.05054H31.1292V7.91281Z" fill="#1490BD"/>
<path d="M31.1292 10.1711H42.0513V9.30884H31.1292V10.1711Z" fill="#1490BD"/>
<path d="M31.1292 12.4294H42.0513V11.5671H31.1292V12.4294Z" fill="#1490BD"/>
<path d="M31.1292 14.729H42.0513V13.8667H31.1292V14.729Z" fill="#1490BD"/>
<path d="M16.5526 20.0258H42.1745V19.1636H16.5526V20.0258Z" fill="#1490BD"/>
<path d="M16.5526 22.2842H42.1745V21.4219H16.5526V22.2842Z" fill="#1490BD"/>
<path d="M16.5526 24.5835H42.1745V23.7212H16.5526V24.5835Z" fill="#1490BD"/>
<path d="M16.5526 26.8418H42.1745V25.9795H16.5526V26.8418Z" fill="#1490BD"/>
<path d="M16.5115 30.4961H42.1744V29.6338H16.5115V30.4961Z" fill="#1490BD"/>
<path d="M16.5115 32.7544H42.1744V31.8921H16.5115V32.7544Z" fill="#1490BD"/>
<path d="M16.5115 35.0127H42.1744V34.1504H16.5115V35.0127Z" fill="#1490BD"/>
<path d="M16.5115 37.3122H42.1744V36.45H16.5115V37.3122Z" fill="#1490BD"/>
<path d="M29.8152 7.46114C29.8152 7.70751 29.6099 7.91281 29.3635 7.91281C29.1171 7.91281 28.9529 7.70751 28.9529 7.46114C28.9529 7.21478 29.1171 7.05054 29.3635 7.05054C29.6099 7.05054 29.8152 7.21478 29.8152 7.46114Z" fill="#004592"/>
<path d="M29.8152 9.76051C29.8152 9.96581 29.6099 10.1711 29.3635 10.1711C29.1171 10.1711 28.9529 9.96581 28.9529 9.76051C28.9529 9.51414 29.1171 9.30884 29.3635 9.30884C29.6099 9.30884 29.8152 9.51414 29.8152 9.76051Z" fill="#004592"/>
<path d="M29.8152 12.0188C29.8152 12.2652 29.6099 12.4294 29.3635 12.4294C29.1171 12.4294 28.9529 12.2652 28.9529 12.0188C28.9529 11.7724 29.1171 11.5671 29.3635 11.5671C29.6099 11.5671 29.8152 11.7724 29.8152 12.0188Z" fill="#004592"/>
<path d="M29.8152 14.2773C29.8152 14.5237 29.6099 14.729 29.3635 14.729C29.1171 14.729 28.9529 14.5237 28.9529 14.2773C28.9529 14.0309 29.1171 13.8667 29.3635 13.8667C29.6099 13.8667 29.8152 14.0309 29.8152 14.2773Z" fill="#004592"/>
<path d="M15.0334 32.7544L17.8666 38.4208L24.1078 39.3241L19.5911 43.7587L20.6587 49.9999L15.0334 47.0435L9.4491 49.9999L10.5167 43.7587L6 39.3241L12.2412 38.4208L15.0334 32.7544Z" fill="#FDC00E"/>
<path d="M24.1077 39.3241L17.8665 38.4208L15.0333 32.7544V47.0435L20.6586 49.9999L19.5911 43.7587L24.1077 39.3241Z" fill="#F99C1D"/>
</svg>
