<svg width="56" height="56" viewBox="0 0 56 56" fill="none" xmlns="http://www.w3.org/2000/svg">
<path d="M14 4.66669V23.3334H16.3333C24.479 23.3334 28.5296 27.1671 28.6836 27.3164L30.3197 28.9251L31.9694 27.3301C32.1374 27.1691 36.1877 23.3334 44.3333 23.3334H46.6667V4.66669H44.3333C37.3053 4.66669 32.6293 7.11089 30.3333 8.69989C28.0373 7.11089 23.3613 4.66669 16.3333 4.66669H14ZM14 28C13.3233 28 12.6698 28.1187 12.0631 28.3054L2.33333 30.5886V47.3913L11.6667 44.3334L30.707 50.9824C31.3137 51.2158 31.9683 51.3106 32.5983 51.3106C33.5316 51.3106 34.4648 51.0982 35.3281 50.6315L52.4088 41.485L49.6745 35.6289L32.9447 44.0554L31.4772 43.6087L32.6894 40.6693C33.7394 38.2893 32.6678 35.5117 30.2878 34.485L16.5885 28.515C15.7952 28.1883 14.91 28 14 28Z"/>
</svg>
