<svg width="52" height="52" viewBox="0 0 52 52" fill="none" xmlns="http://www.w3.org/2000/svg">
<path d="M26 11.5681C36.4471 11.5681 44.9176 20.0387 44.9176 30.4858C44.9176 40.9328 36.4471 49.4034 26 49.4034V11.5681Z" fill="#4FC2D9"/>
<path d="M26 49.4034C15.553 49.4034 7.0824 40.9328 7.0824 30.4858C7.0824 20.0387 15.553 11.5681 26 11.5681V49.4034Z" fill="#96E0F4"/>
<path d="M26 12.3748C29.1462 12.3748 31.6874 9.83361 31.6874 6.64706C31.6874 3.70252 29.4689 1.28235 26.5647 1H26V12.3748Z" fill="#F99C1D"/>
<path d="M26 12.3748C22.8538 12.3748 20.3126 9.83361 20.3126 6.64706C20.3126 3.70252 22.5714 1.28235 25.4353 1H26V12.3748Z" fill="#FDC00E"/>
<path d="M26 18.1833V12.4556C22.8134 12.4556 20.2319 14.9967 20.1512 18.1833H26Z" fill="#FDC00E"/>
<path d="M31.8487 18.1833C31.7681 14.9967 29.1866 12.4556 26 12.4556V18.1833H31.8487Z" fill="#F99C1D"/>
<path d="M44.1917 44.8858C47.3379 44.8858 49.879 42.3447 49.879 39.1984C49.879 36.0119 47.3379 33.4707 44.1917 33.4707V44.8858Z" fill="#37A4F7"/>
<path d="M44.1916 44.8858C41.0454 44.8858 38.4639 42.3447 38.4639 39.1984C38.4639 36.0119 41.0454 33.4707 44.1916 33.4707V44.8858Z" fill="#004592"/>
<path d="M44.1916 50.694V44.9663C40.9647 44.9663 38.3832 47.5075 38.3429 50.694H44.1916Z" fill="#004592"/>
<path d="M50.0001 50.694C49.9597 47.5075 47.3782 44.9663 44.1917 44.9663V50.694H50.0001Z" fill="#37A4F7"/>
<path d="M7.80835 44.8858C10.9546 44.8858 13.5361 42.3447 13.5361 39.1984C13.5361 36.0119 10.9546 33.4707 7.80835 33.4707V44.8858Z" fill="#37A4F7"/>
<path d="M7.80837 44.8858C4.66215 44.8858 2.12097 42.3447 2.12097 39.1984C2.12097 36.0119 4.66215 33.4707 7.80837 33.4707V44.8858Z" fill="#004592"/>
<path d="M7.8084 50.694V44.9663C4.62185 44.9663 2.04034 47.5075 2 50.694H7.8084Z" fill="#004592"/>
<path d="M13.6571 50.694C13.6168 47.5075 10.9949 44.9663 7.80835 44.9663V50.694H13.6571Z" fill="#37A4F7"/>
<path d="M12.084 30.8487C11.842 30.8487 11.6807 30.6874 11.6807 30.4857C11.6807 25.726 14.0605 21.2891 18.0134 18.6269C18.1748 18.5059 18.4168 18.5865 18.4975 18.7479C18.6185 18.9092 18.5781 19.1512 18.4168 19.2319C14.6655 21.7731 12.4471 25.968 12.4471 30.4857C12.4471 30.6874 12.2857 30.8487 12.084 30.8487Z" fill="#1490BD"/>
<path d="M26 44.805C22.8941 44.805 19.9093 43.8369 17.4488 41.9411C17.2874 41.8201 17.2471 41.6185 17.3681 41.4571C17.4891 41.2958 17.7311 41.2554 17.8925 41.3764C20.232 43.1512 23.0555 44.079 26 44.079C29.1866 44.079 32.2925 42.9496 34.7126 40.8924C34.874 40.7714 35.116 40.7714 35.237 40.9327C35.358 41.0941 35.358 41.3361 35.1967 41.4571C32.6151 43.6353 29.3479 44.805 26 44.805Z" fill="#1490BD"/>
<path d="M39.9563 30.8488C39.7142 30.8488 39.5529 30.6875 39.5529 30.4858C39.5529 28.106 38.9479 25.7261 37.7378 23.669C36.568 21.6522 34.8739 19.9984 32.8974 18.7883C32.6958 18.7076 32.6554 18.4656 32.7361 18.3043C32.8571 18.1429 33.0991 18.0623 33.2605 18.1833C35.3579 19.3933 37.1327 21.1681 38.3832 23.306C39.6336 25.4841 40.3193 27.9446 40.3193 30.4858C40.3193 30.6875 40.1579 30.8488 39.9563 30.8488Z" fill="#1490BD"/>
<path d="M26 25.3226C25.7983 25.3226 25.637 25.1612 25.637 24.9595V20.8453C25.637 20.6436 25.7983 20.4419 26 20.4419C26.2017 20.4419 26.363 20.6436 26.363 20.8453V24.9595C26.363 25.1612 26.2017 25.3226 26 25.3226Z" fill="#1490BD"/>
<path d="M36.4874 35.8909C36.4471 35.8909 36.3664 35.8909 36.3261 35.8505L30.8807 32.7446C30.7193 32.664 30.6387 32.4219 30.7597 32.2606C30.8404 32.0589 31.0824 32.0186 31.2437 32.0993L36.6891 35.2051C36.8504 35.3261 36.9311 35.5278 36.8101 35.7295C36.7698 35.8505 36.6488 35.8909 36.4874 35.8909Z" fill="#1490BD"/>
<path d="M15.2303 35.8909C15.1093 35.8909 14.9883 35.8505 14.9076 35.7295C14.8269 35.5278 14.8673 35.3261 15.069 35.2051L20.6353 32.0993C20.837 32.0186 21.0387 32.0589 21.1597 32.2606C21.2404 32.4219 21.1597 32.664 20.9984 32.7446L15.432 35.8505C15.3513 35.8909 15.311 35.8909 15.2303 35.8909Z" fill="#1490BD"/>
<path d="M26 26.936C27.9765 26.936 29.5496 28.5495 29.5496 30.4856C29.5496 32.4621 27.9765 34.0755 26 34.0755V26.936Z" fill="#00609A"/>
<path d="M26 34.0755C24.0235 34.0755 22.4504 32.4621 22.4504 30.4856C22.4504 28.5495 24.0235 26.936 26 26.936V34.0755Z" fill="#1490BD"/>
</svg>
