<svg width="52" height="52" viewBox="0 0 52 52" fill="none" xmlns="http://www.w3.org/2000/svg">
<path d="M26.2891 43.4337C25.7108 43.4337 25.7108 43.4337 25.7108 42.8554V40.5422C25.7108 39.9639 25.7108 39.9639 26.2891 39.9639C26.2891 39.9639 26.2891 39.9639 26.2891 40.5422V42.8554C26.2891 43.4337 26.2891 43.4337 26.2891 43.4337Z" fill="#002541"/>
<path d="M26.2891 43.4337C25.7108 43.4337 25.1325 44.012 25.1325 44.012C25.1325 44.5903 25.7108 45.1687 26.2891 45.1687C26.2891 45.1687 26.8675 44.5903 26.8675 44.012L26.2891 43.4337ZM26.2891 45.747C25.1325 45.747 24.5542 45.1687 24.5542 44.012C24.5542 43.4337 25.1325 42.8554 26.2891 42.8554C26.8675 42.8554 27.4458 43.4337 27.4458 44.012C27.4458 45.1687 26.8675 45.747 26.2891 45.747Z" fill="#002541"/>
<path d="M4.31323 40.5422H47.6867V7H4.31323V40.5422Z" fill="#96E0F4"/>
<path d="M2 9.89157H50V7H2V9.89157Z" fill="#004592"/>
<path d="M26.2892 40.5422H47.6868V7H26.2892V40.5422Z" fill="#4FC2D9"/>
<path d="M23.3976 22.0361C23.3976 26.6627 19.3494 30.1325 15.3012 30.1325C10.6747 30.1325 7.20483 26.6627 7.20483 22.0361C7.20483 17.988 10.6747 13.9398 15.3012 13.9398C17.6145 13.9398 19.3494 15.0964 21.0844 16.8313C21.6627 17.4096 22.8193 18.5663 22.8193 20.3012C22.8193 20.8795 23.3976 21.4578 23.3976 22.0361Z" fill="#FDC00E"/>
<path d="M21.0843 16.8313L15.3012 22.0361V13.9398C17.6145 13.9398 19.3494 15.0964 21.0843 16.8313Z" fill="#F99C1D"/>
<path d="M22.8193 20.3012L15.3012 22.0361L21.0843 16.8313C21.6627 17.4096 22.8193 18.5663 22.8193 20.3012Z" fill="#FCE5AC"/>
<path d="M43.6386 30.1325H29.759C29.759 30.1325 29.1807 30.1325 29.1807 29.5542V15.6747H29.759H30.3374V29.5542H43.6386C44.2169 29.5542 44.2169 29.5542 44.2169 29.5542C44.2169 30.1325 44.2169 30.1325 43.6386 30.1325Z" fill="#002541"/>
<path d="M31.494 25.506C30.9157 24.9277 31.494 24.9277 31.494 24.9277L36.1205 22.0361C36.1205 22.0361 36.1205 22.0361 36.6988 22.0361L37.2771 23.1928L41.9036 20.3012C41.9036 19.7229 41.9036 20.3012 42.4819 20.3012C42.4819 20.3012 42.4819 20.3012 42.4819 20.8795L37.2771 23.7711L36.1205 22.6144L31.494 25.506Z" fill="#1490BD"/>
<path d="M39.5903 19.7229L44.2168 19.1446L41.3253 22.6145L39.5903 20.3012V19.7229Z" fill="#002541"/>
<path d="M26.2892 9.89157H50V7H26.2892V9.89157Z" fill="#002541"/>
<path d="M10.6747 34.1807H21.0843V33.0241H10.6747V34.1807Z" fill="#1490BD"/>
<path d="M31.494 34.1807H41.9036V33.0241H31.494V34.1807Z" fill="#1490BD"/>
<path d="M8.36145 36.494H22.8193V35.3373H8.36145V36.494Z" fill="#1490BD"/>
<path d="M29.759 36.494H44.2169V35.3373H29.759V36.494Z" fill="#1490BD"/>
</svg>
